<?xml version="1.0" encoding="UTF-8"?>
<svg version="1.1" xmlns="http://www.w3.org/2000/svg" width="512" height="512">
<path d="M0 0 C1.01790619 0.00215515 2.03581238 0.0043103 3.08456421 0.00653076 C17.69363523 0.05620146 32.02575853 0.30709809 46.375 3.3125 C47.34985352 3.51117676 48.32470703 3.70985352 49.32910156 3.91455078 C84.7639073 11.32687696 119.12374408 24.69432728 148.375 46.3125 C148.35405273 45.67747559 148.33310547 45.04245117 148.31152344 44.38818359 C148.22795419 41.48811924 148.17621226 38.58830884 148.125 35.6875 C148.09148437 34.68847656 148.05796875 33.68945312 148.0234375 32.66015625 C147.94189366 26.50359632 148.25378628 22.98820429 152.375 18.3125 C156.7061006 14.39388517 160.24967884 13.66511612 165.91015625 13.9375 C169.82610047 14.53326964 172.42109426 15.68888835 175.375 18.3125 C179.68431363 25.1515422 180.30257648 31.57773366 180.9296875 39.53515625 C181.03975128 40.79460556 181.14981506 42.05405487 181.26321411 43.35166931 C181.49108422 46.0047314 181.71247838 48.65735937 181.92285156 51.31176758 C182.19193808 54.69822292 182.48719639 58.08177547 182.79075432 61.46529484 C183.07933815 64.71665696 183.34753011 67.96967809 183.6171875 71.22265625 C183.72433075 72.43011002 183.831474 73.63756378 183.94186401 74.88160706 C184.95667583 88.06696467 184.95667583 88.06696467 180.1875 94.0625 C173.91580202 99.07985838 167.414936 99.99400952 159.6484375 100.91796875 C158.62376373 101.04690018 157.59908997 101.1758316 156.54336548 101.30867004 C154.38060934 101.57827209 152.2172044 101.84271379 150.05322266 102.10229492 C146.77969782 102.49642441 143.50906751 102.90999303 140.23828125 103.32617188 C111.68119191 106.88486984 111.68119191 106.88486984 105.25 103.625 C100.97847016 100.18920426 99.72360867 97.83143775 98.5 92.5 C98.08696381 87.94799704 99.1027261 84.26046624 101.375 80.3125 C106.72495768 74.81794887 113.46314732 73.99129388 120.75 73.1875 C121.48605469 73.10113281 122.22210938 73.01476562 122.98046875 72.92578125 C124.77799182 72.71568115 126.57641342 72.51329233 128.375 72.3125 C124.60018876 67.8715456 119.69659082 65.37874501 114.6875 62.5625 C113.74124756 62.03027832 112.79499512 61.49805664 111.82006836 60.94970703 C109.01386776 59.38716083 106.19828644 57.84393153 103.375 56.3125 C102.30475586 55.73097168 102.30475586 55.73097168 101.21289062 55.13769531 C50.75246868 28.28789206 -11.47735163 24.98895256 -65.625 41.3125 C-66.87796875 41.67988281 -68.1309375 42.04726563 -69.421875 42.42578125 C-124.93029173 59.75727188 -171.1621594 100.56868648 -198.625 151.3125 C-199.00221191 152.00939941 -199.37942383 152.70629883 -199.76806641 153.42431641 C-214.29094615 180.83963556 -223.56519578 213.37992062 -223.86328125 244.46484375 C-223.87302979 245.31429565 -223.88277832 246.16374756 -223.89282227 247.03894043 C-224.06696734 266.15223292 -223.80149107 284.56598259 -219.625 303.3125 C-219.43776367 304.1669873 -219.25052734 305.02147461 -219.05761719 305.90185547 C-217.80417092 311.44494555 -216.30520128 316.88451322 -214.625 322.3125 C-214.38442871 323.0972168 -214.14385742 323.88193359 -213.89599609 324.69042969 C-203.34308591 358.41902365 -184.74795146 388.46213014 -160.17041016 413.72021484 C-158.8430971 415.08778763 -157.53483314 416.47380336 -156.23046875 417.86328125 C-149.95212101 424.42118436 -142.86813982 429.87528005 -135.625 435.3125 C-134.77180176 435.95687012 -134.77180176 435.95687012 -133.90136719 436.61425781 C-86.62284988 472.09363042 -26.667848 487.04226402 31.8125 479.0625 C79.64151703 471.94937601 123.14755852 450.55987114 157.78271484 416.85791016 C159.15028763 415.5305971 160.53630336 414.22233314 161.92578125 412.91796875 C168.48368436 406.63962101 173.93778005 399.55563982 179.375 392.3125 C180.01937012 391.45930176 180.01937012 391.45930176 180.67675781 390.58886719 C202.26311415 361.8236764 216.91425392 327.91092969 222.375 292.3125 C222.58511719 291.054375 222.79523438 289.79625 223.01171875 288.5 C224.26471315 280.2533418 224.72314307 272.05215307 224.94604492 263.71899414 C225.38073087 250.66471487 225.38073087 250.66471487 229.8125 245.4375 C234.92262778 241.19983306 237.93174991 240.87851902 244.421875 240.99609375 C248.3800156 241.42018024 250.49811819 242.58315059 253.375 245.3125 C256.08896541 249.09478903 256.75840536 251.70532169 256.7734375 256.3359375 C256.77972168 257.50987061 256.78600586 258.68380371 256.79248047 259.89331055 C256.77846191 261.14539307 256.76444336 262.39747559 256.75 263.6875 C256.73477295 265.63619995 256.73477295 265.63619995 256.71923828 267.62426758 C255.85884295 322.00592123 234.86714479 373.94389528 201.375 416.3125 C200.56289063 417.35019531 199.75078125 418.38789063 198.9140625 419.45703125 C186.24907313 435.01858759 171.69874403 449.61464417 155.375 461.3125 C154.02974408 462.30180622 152.68470229 463.29140366 151.33984375 464.28125 C120.03306909 487.08129792 84.47487825 502.30078684 46.375 509.3125 C45.57433105 509.47331055 44.77366211 509.63412109 43.94873047 509.79980469 C15.88172956 515.289821 -17.62684244 515.06193715 -45.625 509.3125 C-46.63755859 509.11382324 -47.65011719 508.91514648 -48.69335938 508.71044922 C-89.78600049 500.49315205 -126.72136417 483.05232803 -159.625 457.3125 C-160.16415039 456.89339355 -160.70330078 456.47428711 -161.25878906 456.04248047 C-177.49886305 443.27946125 -192.56962343 428.08823511 -204.625 411.3125 C-205.4887527 410.14261544 -206.35335469 408.9733575 -207.21875 407.8046875 C-222.36207742 387.1786757 -234.4442165 364.56952873 -242.625 340.3125 C-243.03806396 339.08998535 -243.03806396 339.08998535 -243.45947266 337.84277344 C-246.69755506 328.07192323 -249.22985473 318.19031263 -251.375 308.125 C-251.57375732 307.20033936 -251.77251465 306.27567871 -251.97729492 305.32299805 C-255.26999027 289.11638823 -256.00030278 273.1821298 -255.9375 256.6875 C-255.93534485 255.66926147 -255.9331897 254.65102295 -255.93096924 253.60192871 C-255.88126609 238.9777116 -255.56707988 224.68445362 -252.625 210.3125 C-252.33496094 208.81759033 -252.33496094 208.81759033 -252.0390625 207.29248047 C-244.41040781 168.68418872 -228.69757683 132.53083121 -204.625 101.3125 C-203.66013672 100.05953125 -203.66013672 100.05953125 -202.67578125 98.78125 C-188.57295377 80.82715922 -172.21896589 63.63892592 -153.625 50.3125 C-153.08327148 49.920625 -152.54154297 49.52875 -151.98339844 49.125 C-121.06865283 26.84146078 -86.69401468 11.73961685 -49.375 4.0625 C-48.64442383 3.91127686 -47.91384766 3.76005371 -47.16113281 3.60424805 C-31.46684563 0.57387489 -15.94509559 -0.06071601 0 0 Z " fill="#3F747F" transform="translate(255.625,-0.3125)"/>
<path d="M0 0 C4.61330578 2.18525011 6.7359371 4.4936208 9 9 C9.38818359 11.86474609 9.38818359 11.86474609 9.3984375 15.0234375 C9.40786377 16.78433716 9.40786377 16.78433716 9.41748047 18.58081055 C9.40346191 19.83289307 9.38944336 21.08497559 9.375 22.375 C9.36484863 23.6741333 9.35469727 24.9732666 9.34423828 26.31176758 C8.48384295 80.69342123 -12.50785521 132.63139528 -46 175 C-47.21816406 176.55654297 -47.21816406 176.55654297 -48.4609375 178.14453125 C-61.12592687 193.70608759 -75.67625597 208.30214417 -92 220 C-93.34525592 220.98930622 -94.69029771 221.97890366 -96.03515625 222.96875 C-139.9081448 254.92050013 -192.6280227 272.48225018 -247 271 C-247.02465622 266.74585377 -247.04283899 262.49174502 -247.05493164 258.23754883 C-247.05997101 256.78929927 -247.06680253 255.34105483 -247.07543945 253.89282227 C-247.08752247 251.81525412 -247.09323211 249.73775303 -247.09765625 247.66015625 C-247.10289307 246.40855713 -247.10812988 245.15695801 -247.11352539 243.86743164 C-247 241 -247 241 -246 240 C-243.08090267 239.83511375 -240.17152928 239.71976113 -237.25 239.625 C-181.6476267 237.24511243 -129.40484823 214.28527998 -89.59228516 175.54541016 C-88.22471237 174.2180971 -86.83869664 172.90983314 -85.44921875 171.60546875 C-78.89131564 165.32712101 -73.43721995 158.24313982 -68 151 C-67.57041992 150.43120117 -67.14083984 149.86240234 -66.69824219 149.27636719 C-45.11188585 120.5111764 -30.46074608 86.59842969 -25 51 C-24.68482422 49.1128125 -24.68482422 49.1128125 -24.36328125 47.1875 C-23.11028685 38.9408418 -22.65185693 30.73965307 -22.42895508 22.40649414 C-21.99426913 9.35221487 -21.99426913 9.35221487 -17.5625 4.125 C-11.77399401 -0.67522448 -7.34421336 -0.78688 0 0 Z " fill="#275B65" transform="translate(503,241)"/>
<path d="M0 0 C4.05757898 3.00971067 6.26916929 5.17189328 8 10 C8.74595099 15.69170825 8.27782223 20.13978083 5 25 C0.58822977 29.08088747 -3.11284804 30.50608495 -9.1875 30.49609375 C-14.17860183 29.61571884 -18.46115737 27.03445195 -22.86328125 24.62890625 C-30.61003696 20.60599575 -40.73547791 20.86819243 -49.1796875 22.68359375 C-61.18794017 26.78272816 -69.47162551 33.8178981 -75.12890625 45.2890625 C-78.94618725 55.43159656 -78.75589511 65.90688552 -75 76 C-69.52394406 87.56423899 -61.90235842 94.27934869 -50.00390625 98.75 C-41.44398824 101.31263658 -32.34205256 101.01258681 -24.2421875 97.234375 C-15.26032341 92.2896554 -12.07821809 85.04893376 -8 76 C-8.90709717 76.0314209 -8.90709717 76.0314209 -9.83251953 76.06347656 C-12.59650771 76.14708945 -15.36022913 76.19880054 -18.125 76.25 C-19.07632813 76.28351563 -20.02765625 76.31703125 -21.0078125 76.3515625 C-27.04418815 76.43540105 -30.39420935 75.99957101 -35 72 C-38.75092357 67.73170766 -39.35298436 63.80479558 -39.28125 58.28125 C-38.69776789 53.5485618 -35.86781934 50.80273289 -32.5 47.6875 C-27.82090042 44.52910778 -23.04278421 44.82651432 -17.54296875 44.796875 C-16.72178055 44.79117493 -15.90059235 44.78547485 -15.05451965 44.77960205 C-13.31883017 44.77017013 -11.58312293 44.76362526 -9.84741211 44.75976562 C-7.20719757 44.75007232 -4.56776599 44.71903748 -1.92773438 44.6875 C-0.23698376 44.68096794 1.45377239 44.67571827 3.14453125 44.671875 C3.92705765 44.6595282 4.70958405 44.6471814 5.51582336 44.63446045 C11.29480692 44.65766687 16.2512737 45.57791606 20.7421875 49.53515625 C26.48334593 57.27582159 25.86805976 65.85313275 24.73193359 75.20703125 C22.19121098 90.93291834 15.5652987 104.94734752 4 116 C3.37609375 116.64324219 2.7521875 117.28648437 2.109375 117.94921875 C-9.19456002 128.89693733 -25.33086382 132.48966102 -40.61425781 132.35595703 C-50.94261773 132.03654725 -60.86502223 129.89710149 -70 125 C-71.43472656 124.24203125 -71.43472656 124.24203125 -72.8984375 123.46875 C-90.53366473 113.69608 -101.73653491 98.96632979 -107.8125 79.75 C-111.95374062 62.81528389 -110.16315098 45.83116561 -103 30 C-102.59136719 29.07574219 -102.18273437 28.15148437 -101.76171875 27.19921875 C-93.59220343 10.54690287 -78.8502449 -0.16902434 -62.01171875 -7.02734375 C-41.40033954 -13.68393703 -18.53393249 -11.19875075 0 0 Z " fill="#FF4D4D" transform="translate(313,195)"/>
<path d="M0 0 C6.54335973 4.50764781 9.80021986 10.25234228 12.4140625 17.6015625 C12.88611618 18.86974319 12.88611618 18.86974319 13.3677063 20.1635437 C14.40466551 22.95834876 15.420837 25.76025528 16.4375 28.5625 C17.16669916 30.53769899 17.89752889 32.51229667 18.62988281 34.48632812 C20.19766692 38.71561121 21.75849099 42.94737725 23.31542969 47.18066406 C27.22724965 57.79303178 31.24037984 68.36737796 35.24237061 78.94598389 C36.53807918 82.37291113 37.83128808 85.80077004 39.12353516 89.22900391 C39.52970062 90.3060408 39.93586609 91.3830777 40.3543396 92.49275208 C41.13697533 94.56888877 41.91891979 96.64528622 42.70010376 98.7219696 C44.26237892 102.86823723 45.82947137 107.01037464 47.47167969 111.12573242 C47.92446289 112.26373291 48.37724609 113.4017334 48.84375 114.57421875 C49.21564453 115.48647217 49.58753906 116.39872559 49.97070312 117.33862305 C51.54934229 122.21235099 51.95926345 126.93732646 50.8125 131.9375 C48.27525398 136.23130096 45.59027417 139.34490861 40.8125 140.9375 C36.3324091 141.33235547 32.20963986 141.49635594 28 139.8125 C22.51603907 135.11196206 19.82827778 130.39588876 17.5 123.6875 C17.23638672 122.96820313 16.97277344 122.24890625 16.70117188 121.5078125 C14.8125 116.26858766 14.8125 116.26858766 14.8125 113.9375 C-0.3675 113.9375 -15.5475 113.9375 -31.1875 113.9375 C-32.1775 117.2375 -33.1675 120.5375 -34.1875 123.9375 C-36.38631454 130.72241343 -38.64090559 135.33500676 -44.1875 139.9375 C-49.32969525 141.65156508 -54.93580638 141.83817745 -60 139.8125 C-66.9218424 133.87949223 -66.9218424 133.87949223 -67.53913879 129.36697388 C-67.61938932 121.62486956 -66.16069259 115.62942592 -63.26171875 108.4921875 C-62.84682693 107.42305618 -62.43193512 106.35392487 -62.00447083 105.25239563 C-60.64650418 101.76485366 -59.26098908 98.28898888 -57.875 94.8125 C-56.92239622 92.3814304 -55.97190354 89.9495326 -55.0234375 87.5168457 C-53.55870849 83.76232817 -52.09297392 80.00829207 -50.61727905 76.2580719 C-47.25660598 67.71404163 -43.97100942 59.14424052 -40.73828125 50.55078125 C-40.09387337 48.83979248 -40.09387337 48.83979248 -39.43644714 47.09423828 C-37.78415512 42.70471015 -36.13315694 38.31471095 -34.48788452 33.92254639 C-33.36146221 30.91912609 -32.22829546 27.91832818 -31.09375 24.91796875 C-30.77058304 24.05045486 -30.44741608 23.18294098 -30.11445618 22.28913879 C-23.30083919 4.33379955 -23.30083919 4.33379955 -14.9375 -0.3125 C-9.78859927 -1.71674565 -5.06655401 -1.68885134 0 0 Z M-8.1875 54.9375 C-11.36453461 60.95418502 -13.75673762 66.99987236 -15.9375 73.4375 C-17.01 76.5725 -18.0825 79.7075 -19.1875 82.9375 C-11.9275 82.9375 -4.6675 82.9375 2.8125 82.9375 C0.60276633 75.37266609 0.60276633 75.37266609 -2.01171875 68.0234375 C-2.47094727 66.85361328 -2.47094727 66.85361328 -2.93945312 65.66015625 C-3.40254883 64.49806641 -3.40254883 64.49806641 -3.875 63.3125 C-4.19533203 62.49910156 -4.51566406 61.68570313 -4.84570312 60.84765625 C-5.62269691 58.87617949 -6.40456853 56.90662627 -7.1875 54.9375 C-7.5175 54.9375 -7.8475 54.9375 -8.1875 54.9375 Z " fill="#FF4C4C" transform="translate(136.1875,186.0625)"/>
<path d="M0 0 C52.26060398 -1.42469143 105.7934046 14.80716946 148 46 C147.97905273 45.36497559 147.95810547 44.72995117 147.93652344 44.07568359 C147.85295419 41.17561924 147.80121226 38.27580884 147.75 35.375 C147.71648437 34.37597656 147.68296875 33.37695312 147.6484375 32.34765625 C147.56689366 26.19109632 147.87878628 22.67570429 152 18 C156.3311006 14.08138517 159.87467884 13.35261612 165.53515625 13.625 C169.45110047 14.22076964 172.04609426 15.37638835 175 18 C179.30931363 24.8390422 179.92757648 31.26523366 180.5546875 39.22265625 C180.66475128 40.48210556 180.77481506 41.74155487 180.88821411 43.03916931 C181.11608422 45.6922314 181.33747838 48.34485937 181.54785156 50.99926758 C181.81693808 54.38572292 182.11219639 57.76927547 182.41575432 61.15279484 C182.70433815 64.40415696 182.97253011 67.65717809 183.2421875 70.91015625 C183.40290237 72.7213369 183.40290237 72.7213369 183.56686401 74.56910706 C184.58167583 87.75446467 184.58167583 87.75446467 179.8125 93.75 C173.54080202 98.76735838 167.039936 99.68150952 159.2734375 100.60546875 C158.24876373 100.73440018 157.22408997 100.8633316 156.16836548 100.99617004 C154.00560934 101.26577209 151.8422044 101.53021379 149.67822266 101.78979492 C146.40469782 102.18392441 143.13406751 102.59749303 139.86328125 103.01367188 C111.30619191 106.57236984 111.30619191 106.57236984 104.875 103.3125 C100.60347016 99.87670426 99.34860867 97.51893775 98.125 92.1875 C97.71196381 87.63549704 98.7277261 83.94796624 101 80 C106.34995768 74.50544887 113.08814732 73.67879388 120.375 72.875 C121.11105469 72.78863281 121.84710938 72.70226562 122.60546875 72.61328125 C124.40299182 72.40318115 126.20141342 72.20079233 128 72 C124.22518876 67.5590456 119.32159082 65.06624501 114.3125 62.25 C113.36624756 61.71777832 112.41999512 61.18555664 111.44506836 60.63720703 C108.63886776 59.07466083 105.82328644 57.53143153 103 56 C101.92975586 55.41847168 101.92975586 55.41847168 100.83789062 54.82519531 C72.42419964 39.70637579 39.69086534 32.62272559 7.7578125 31.39453125 C6.89929688 31.35714844 6.04078125 31.31976562 5.15625 31.28125 C4.38087891 31.25095703 3.60550781 31.22066406 2.80664062 31.18945312 C1 31 1 31 0 30 C-0.08783542 27.78144736 -0.10694609 25.56011504 -0.09765625 23.33984375 C-0.0962413 22.67537735 -0.09482635 22.01091095 -0.09336853 21.3263092 C-0.08775518 19.19666101 -0.07520054 17.06711661 -0.0625 14.9375 C-0.05748671 13.49674631 -0.05292351 12.05599097 -0.04882812 10.61523438 C-0.03778145 7.07678898 -0.02050792 3.53840461 0 0 Z " fill="#275C65" transform="translate(256,0)"/>
<path d="M0 0 C1.03890381 -0.00191345 2.07780762 -0.0038269 3.14819336 -0.00579834 C5.33675378 -0.00715458 7.52532239 -0.00349748 9.71386719 0.00488281 C13.05161723 0.01559009 16.38882907 0.00496822 19.7265625 -0.0078125 C21.85937618 -0.00649081 23.99218953 -0.00392821 26.125 0 C27.11685303 -0.00404846 28.10870605 -0.00809692 29.13061523 -0.01226807 C35.86946422 0.03303001 41.57898503 0.11324536 46.875 4.703125 C51.20417956 9.77444963 51.50068286 12.80841201 51.375 19.3125 C50.95236017 23.30644643 49.85936436 25.39515894 47.0625 28.265625 C42.1006946 31.36062627 38.25548965 31.67431873 32.6015625 31.55859375 C31.81099457 31.55434891 31.02042664 31.55010406 30.2059021 31.54573059 C27.6994106 31.52903801 25.19374539 31.49140483 22.6875 31.453125 C20.98048042 31.43806592 19.27344815 31.42437966 17.56640625 31.41210938 C13.39786885 31.38172645 9.2311011 31.32299107 5.0625 31.265625 C5.0625 39.515625 5.0625 47.765625 5.0625 56.265625 C7.37507813 56.21921875 9.68765625 56.1728125 12.0703125 56.125 C14.32419645 56.09375435 16.57805576 56.06949533 18.83203125 56.04589844 C20.39171244 56.02585278 21.95131913 55.99860843 23.51074219 55.96386719 C25.75995314 55.91503374 28.0081659 55.89258685 30.2578125 55.875 C31.29411301 55.84403229 31.29411301 55.84403229 32.35134888 55.81243896 C37.39239523 55.81013217 40.16579269 57.14217168 44.0625 60.265625 C47.60803678 64.30020134 48.37189271 67.83528304 48.2734375 73.2109375 C47.79118069 77.90847606 45.55915739 81.03520073 42.125 84.078125 C37.39060672 87.45983449 33.88095898 87.38773711 28.109375 87.36328125 C27.44915344 87.3618663 26.78893188 87.36045135 26.10870361 87.35899353 C24.00992206 87.35341745 21.91124905 87.34086947 19.8125 87.328125 C18.38541821 87.3231069 16.95833475 87.31854454 15.53125 87.31445312 C12.04159168 87.30430877 8.55216668 87.28472901 5.0625 87.265625 C5.0625 95.185625 5.0625 103.105625 5.0625 111.265625 C8.74792969 111.21341797 8.74792969 111.21341797 12.5078125 111.16015625 C14.90070434 111.13672624 17.29358315 111.11852934 19.68652344 111.10083008 C21.34315763 111.08579035 22.99975231 111.06535323 24.65625 111.03930664 C27.0443703 111.00270985 29.43196188 110.98585061 31.8203125 110.97265625 C32.92223434 110.94943047 32.92223434 110.94943047 34.04641724 110.92573547 C38.81355694 110.92419293 42.01967609 111.74120617 46.0625 114.265625 C50.73427343 119.44245502 51.4103341 122.65915998 51.34765625 129.5 C50.8514048 134.3129593 48.52435415 136.98096529 45 140.078125 C41.60289838 142.16021954 38.78359703 142.40136612 34.8918457 142.44262695 C33.30923698 142.46187981 33.30923698 142.46187981 31.69465637 142.48152161 C29.98375069 142.49260201 29.98375069 142.49260201 28.23828125 142.50390625 C27.06291306 142.511978 25.88754486 142.52004974 24.67655945 142.52836609 C22.18583653 142.54220625 19.69509466 142.5529287 17.2043457 142.56079102 C13.4073456 142.57797858 9.61122182 142.62186428 5.81445312 142.66601562 C3.39323556 142.6761449 0.9720106 142.68466027 -1.44921875 142.69140625 C-3.1449427 142.71766838 -3.1449427 142.71766838 -4.87492371 142.74446106 C-11.05891139 142.72756611 -17.1392667 142.61843561 -21.9375 138.265625 C-26.46060815 132.21361358 -26.50552386 127.03758249 -26.43920898 119.64233398 C-26.44731346 117.914245 -26.44731346 117.914245 -26.45558167 116.15124512 C-26.46805853 112.35447263 -26.45158468 108.55845987 -26.43359375 104.76171875 C-26.43374875 102.11808736 -26.43523789 99.47445575 -26.43800354 96.83082581 C-26.44070061 91.29541197 -26.4272724 85.7602156 -26.40405273 80.22485352 C-26.37743282 73.83486713 -26.37570185 67.44524388 -26.3874411 61.05522102 C-26.39823743 54.89408668 -26.39191605 48.7331041 -26.37788582 42.57197762 C-26.37337096 39.95611006 -26.37303481 37.34023184 -26.37695122 34.72436333 C-26.37986227 31.06919348 -26.36336068 27.41461642 -26.34155273 23.75952148 C-26.34605438 22.67935257 -26.35055603 21.59918365 -26.35519409 20.48628235 C-26.2881547 13.72174556 -25.67084432 8.99896932 -20.6875 4.015625 C-14.15196336 -0.14335286 -7.51827085 -0.03068744 0 0 Z " fill="#E62D6A" transform="translate(391.9375,184.734375)"/>
<path d="M0 0 C0.8211882 -0.00570007 1.6423764 -0.01140015 2.4884491 -0.01727295 C4.22413858 -0.02670487 5.95984582 -0.03324974 7.69555664 -0.03710938 C10.33577118 -0.04680268 12.97520276 -0.07783752 15.61523438 -0.109375 C17.30598499 -0.11590706 18.99674114 -0.12115673 20.6875 -0.125 C21.4700264 -0.1373468 22.2525528 -0.1496936 23.05879211 -0.16241455 C28.83777567 -0.13920813 33.79424245 0.78104106 38.28515625 4.73828125 C44.02631468 12.47894659 43.41102851 21.05625775 42.27490234 30.41015625 C39.73417973 46.13604334 33.10826745 60.15047252 21.54296875 71.203125 C20.9190625 71.84636719 20.29515625 72.48960937 19.65234375 73.15234375 C8.84600216 83.61814936 -6.49189304 87.40231472 -21.14453125 87.515625 C-22.15918457 87.52408447 -22.15918457 87.52408447 -23.19433594 87.53271484 C-28.96693519 87.45056739 -33.57559372 86.37941251 -39.45703125 85.203125 C-39.45703125 74.313125 -39.45703125 63.423125 -39.45703125 52.203125 C-33.02203125 53.688125 -33.02203125 53.688125 -26.45703125 55.203125 C-16.5723554 55.90204147 -8.92121438 54.69733685 -0.76953125 48.828125 C4.26893049 44.22153141 6.78665886 37.31894937 9.54296875 31.203125 C8.63587158 31.2345459 8.63587158 31.2345459 7.71044922 31.26660156 C4.94646104 31.35021445 2.18273962 31.40192554 -0.58203125 31.453125 C-1.53335938 31.48664063 -2.4846875 31.52015625 -3.46484375 31.5546875 C-9.5012194 31.63852605 -12.8512406 31.20269601 -17.45703125 27.203125 C-21.20795482 22.93483266 -21.81001561 19.00792058 -21.73828125 13.484375 C-21.15479914 8.7516868 -18.32485059 6.00585789 -14.95703125 2.890625 C-10.27793167 -0.26776722 -5.49981546 0.02963932 0 0 Z " fill="#E62D6A" transform="translate(295.45703125,239.796875)"/>
<path d="M0 0 C5.13656212 3.10366291 8.52511654 5.81389416 10.5859375 11.5625 C11.33188849 17.25420825 10.86375973 21.70228083 7.5859375 26.5625 C3.17416727 30.64338747 -0.52691054 32.06858495 -6.6015625 32.05859375 C-11.59266433 31.17821884 -15.87521987 28.59695195 -20.27734375 26.19140625 C-25.25172079 23.60819924 -29.42051299 23.35463118 -34.9765625 23.3125 C-35.62947266 23.291875 -36.28238281 23.27125 -36.95507812 23.25 C-43.51426247 23.19939877 -47.56798323 24.69538747 -54.4140625 26.5625 C-54.4140625 15.6725 -54.4140625 4.7825 -54.4140625 -6.4375 C-35.90299861 -11.7263754 -16.9455891 -8.73386105 0 0 Z " fill="#E62D6A" transform="translate(310.4140625,193.4375)"/>
</svg>
