<?xml version="1.0" encoding="UTF-8"?>
<svg version="1.1" xmlns="http://www.w3.org/2000/svg" width="512" height="512">
<path d="M0 0 C0.67705367 -0.00350607 1.35410734 -0.00701215 2.05167779 -0.01062447 C4.31286632 -0.01990377 6.57379532 -0.01502423 8.83499432 -0.01015663 C10.47558145 -0.01389464 12.1161668 -0.01849676 13.75674933 -0.02388728 C18.25947459 -0.03611398 22.76212554 -0.0358572 27.26486361 -0.03349853 C32.12320291 -0.03309028 36.98151841 -0.04413022 41.83984661 -0.05361366 C51.3560061 -0.07022258 60.8721408 -0.07572315 70.38831357 -0.07683842 C78.1235723 -0.0777889 85.85882287 -0.08189917 93.59407902 -0.08823967 C115.5264058 -0.10585139 137.45871301 -0.11507859 159.39104692 -0.11357872 C160.5732861 -0.11349881 161.75552528 -0.1134189 162.9735899 -0.11333656 C164.15727296 -0.1132548 165.34095603 -0.11317304 166.56050827 -0.1130888 C185.74599185 -0.11227581 204.93139693 -0.13141702 224.1168578 -0.1596133 C243.81776949 -0.18833861 263.5186429 -0.2021538 283.21957606 -0.20042574 C294.27960569 -0.19976175 305.33955302 -0.20525845 316.39956379 -0.22678185 C325.81575918 -0.24498892 335.23183496 -0.2493448 344.64804033 -0.235763 C349.45131861 -0.22923114 354.25436739 -0.22912413 359.05762386 -0.2464695 C363.45769726 -0.26219537 367.85735908 -0.25934156 372.25742241 -0.24190123 C373.84621149 -0.23883029 375.43503125 -0.24246732 377.02378414 -0.25362138 C389.37538462 -0.33457039 399.77941484 1.37121812 408.95088482 10.25726891 C417.32919294 20.13290518 419.40496448 29.10583051 419.33856487 41.84451866 C419.34664318 43.71263677 419.34664318 43.71263677 419.35488468 45.61849463 C419.36667169 49.05457304 419.36511404 52.49016334 419.35771787 55.92622185 C419.35297323 59.64003279 419.36550749 63.35379255 419.37573528 67.0675869 C419.39290351 74.33523043 419.39376738 81.60278742 419.38852238 88.87044595 C419.38447563 94.77975702 419.38593023 100.68904258 419.39127064 106.59835243 C419.39201906 107.44044225 419.39276748 108.28253207 419.39353858 109.15013976 C419.39507011 110.86102791 419.39660846 112.57191606 419.39815355 114.28280421 C419.41187153 130.31585983 419.40644592 146.34886662 419.39496834 162.38192113 C419.38503748 177.03681506 419.39797531 191.69158271 419.42190253 206.34645717 C419.44630888 221.40874363 419.45589758 236.47097132 419.4492498 251.53327715 C419.44576089 259.98374518 419.4479679 268.43411613 419.46550083 276.88456917 C419.48024207 284.07848861 419.48083326 291.27224259 419.46342992 298.46615885 C419.45493314 302.13342031 419.45273761 305.80038644 419.46808147 309.46763229 C419.48453937 313.450589 419.46974562 317.43309287 419.45209026 321.41605186 C419.46169527 322.56461076 419.47130028 323.71316966 419.48119634 324.89653337 C419.38392741 335.58833562 416.61902939 345.49060428 408.95088482 353.25726891 C398.30833794 362.26807947 389.08772269 363.71805493 375.38838482 363.44476891 C374.09352154 363.43123375 372.79865826 363.41769859 371.46455669 363.40375328 C368.29289268 363.36864261 365.12211392 363.31946238 361.95088482 363.25726891 C361.97183208 364.1136898 361.99277935 364.9701107 362.01436138 365.85248375 C362.08315683 369.07672599 362.13298308 372.3005901 362.17061138 375.52533531 C362.19053824 376.91218047 362.21769041 378.29894372 362.25264263 379.68549156 C362.58075613 393.05129153 360.01635001 402.78989355 350.82588482 412.81976891 C343.89806458 419.56803441 335.75458949 422.37737937 326.27091312 422.39148998 C325.59732099 422.39384221 324.92372885 422.39619444 324.22972482 422.39861795 C321.96231337 422.40529906 319.69495934 422.40485 317.42753887 422.40443993 C315.78954214 422.4077391 314.15154623 422.41146479 312.51355135 422.41558141 C308.00406728 422.42560337 303.49459652 422.42931852 298.98510289 422.43197072 C294.12467174 422.43587317 289.26425114 422.44545153 284.40382671 422.45418358 C272.6619272 422.4739494 260.92002682 422.48401424 249.17811483 422.49291137 C243.64951676 422.49729398 238.12091966 422.50266085 232.59232235 422.50790024 C214.21562111 422.52491245 195.83892047 422.53940692 177.46221256 422.54664898 C172.6929744 422.54855889 167.92373624 422.55047922 163.1544981 422.55243492 C161.37642875 422.55316053 161.37642875 422.55316053 159.5624388 422.5539008 C140.35736884 422.56220222 121.15236113 422.58754108 101.94731836 422.6200156 C82.23294584 422.65307978 62.51860498 422.67109715 42.80420458 422.67429322 C31.73406433 422.67645888 20.66401488 422.68521582 9.59390163 422.71075439 C0.16666048 422.73245258 -9.26046781 422.74051612 -18.6877311 422.73078761 C-23.49706882 422.72624042 -28.30617364 422.72815364 -33.11547947 422.74754906 C-37.52121627 422.76516336 -41.92654995 422.76419708 -46.33229093 422.74865177 C-47.92319157 422.74627307 -49.51412 422.75061286 -51.10497816 422.76248042 C-63.46477124 422.84894588 -73.87111538 421.14964631 -83.04911518 412.25726891 C-91.4274233 402.38163263 -93.50319484 393.4087073 -93.43679523 380.67001915 C-93.44218077 379.42460708 -93.44756631 378.17919501 -93.45311505 376.89604318 C-93.46490205 373.45996477 -93.4633444 370.02437447 -93.45594823 366.58831596 C-93.45120359 362.87450502 -93.46373786 359.16074527 -93.47396564 355.44695091 C-93.49113387 348.17930739 -93.49199774 340.91175039 -93.48675274 333.64409186 C-93.48270599 327.73478079 -93.48416059 321.82549523 -93.489501 315.91618538 C-93.49024942 315.07409556 -93.49099784 314.23200575 -93.49176895 313.36439805 C-93.49330047 311.6535099 -93.49483882 309.94262175 -93.49638391 308.23173361 C-93.51010189 292.19867798 -93.50467628 276.16567119 -93.4931987 260.13261668 C-93.48326785 245.47772275 -93.49620567 230.8229551 -93.52013289 216.16808064 C-93.54453925 201.10579418 -93.55412794 186.04356649 -93.54748017 170.98126066 C-93.54399126 162.53079263 -93.54619826 154.08042169 -93.56373119 145.62996864 C-93.57847243 138.4360492 -93.57906362 131.24229522 -93.56166028 124.04837896 C-93.5531635 120.3811175 -93.55096797 116.71415137 -93.56631184 113.04690552 C-93.58276973 109.06394882 -93.56797598 105.08144494 -93.55032063 101.09848595 C-93.55992563 99.94992705 -93.56953064 98.80136815 -93.57942671 97.61800444 C-93.4754591 86.18988401 -90.45341626 77.72020878 -82.48270893 69.48773766 C-72.06703769 59.94143223 -63.38412 58.95150913 -49.61161518 59.13226891 C-48.30772846 59.14129234 -47.00384174 59.15031578 -45.66044331 59.15961266 C-42.45647686 59.18308494 -39.25289254 59.21592164 -36.04911518 59.25726891 C-36.07006245 58.40608482 -36.09100971 57.55490074 -36.11259174 56.6779232 C-36.1814768 53.46670225 -36.23125569 50.25586247 -36.26884174 47.04413414 C-36.28874188 45.66412391 -36.31587258 44.28419554 -36.35087299 42.9044857 C-36.62771278 31.69654555 -35.92422361 21.44795703 -27.86161518 12.94476891 C-19.75785702 4.57487747 -11.8957789 0.01395508 0 0 Z " fill="#F9F6F4" transform="translate(93.04911518096924,44.74273109436035)"/>
<path d="M0 0 C0.67705367 -0.00350607 1.35410734 -0.00701215 2.05167779 -0.01062447 C4.31286632 -0.01990377 6.57379532 -0.01502423 8.83499432 -0.01015663 C10.47558145 -0.01389464 12.1161668 -0.01849676 13.75674933 -0.02388728 C18.25947459 -0.03611398 22.76212554 -0.0358572 27.26486361 -0.03349853 C32.12320291 -0.03309028 36.98151841 -0.04413022 41.83984661 -0.05361366 C51.3560061 -0.07022258 60.8721408 -0.07572315 70.38831357 -0.07683842 C78.1235723 -0.0777889 85.85882287 -0.08189917 93.59407902 -0.08823967 C115.5264058 -0.10585139 137.45871301 -0.11507859 159.39104692 -0.11357872 C160.5732861 -0.11349881 161.75552528 -0.1134189 162.9735899 -0.11333656 C164.15727296 -0.1132548 165.34095603 -0.11317304 166.56050827 -0.1130888 C185.74599185 -0.11227581 204.93139693 -0.13141702 224.1168578 -0.1596133 C243.81776949 -0.18833861 263.5186429 -0.2021538 283.21957606 -0.20042574 C294.27960569 -0.19976175 305.33955302 -0.20525845 316.39956379 -0.22678185 C325.81575918 -0.24498892 335.23183496 -0.2493448 344.64804033 -0.235763 C349.45131861 -0.22923114 354.25436739 -0.22912413 359.05762386 -0.2464695 C363.45769726 -0.26219537 367.85735908 -0.25934156 372.25742241 -0.24190123 C373.84621149 -0.23883029 375.43503125 -0.24246732 377.02378414 -0.25362138 C389.37538462 -0.33457039 399.77941484 1.37121812 408.95088482 10.25726891 C417.32919294 20.13290518 419.40496448 29.10583051 419.33856487 41.84451866 C419.34664318 43.71263677 419.34664318 43.71263677 419.35488468 45.61849463 C419.36667169 49.05457304 419.36511404 52.49016334 419.35771787 55.92622185 C419.35297323 59.64003279 419.36550749 63.35379255 419.37573528 67.0675869 C419.39290351 74.33523043 419.39376738 81.60278742 419.38852238 88.87044595 C419.38447563 94.77975702 419.38593023 100.68904258 419.39127064 106.59835243 C419.39201906 107.44044225 419.39276748 108.28253207 419.39353858 109.15013976 C419.39507011 110.86102791 419.39660846 112.57191606 419.39815355 114.28280421 C419.41187153 130.31585983 419.40644592 146.34886662 419.39496834 162.38192113 C419.38503748 177.03681506 419.39797531 191.69158271 419.42190253 206.34645717 C419.44630888 221.40874363 419.45589758 236.47097132 419.4492498 251.53327715 C419.44576089 259.98374518 419.4479679 268.43411613 419.46550083 276.88456917 C419.48024207 284.07848861 419.48083326 291.27224259 419.46342992 298.46615885 C419.45493314 302.13342031 419.45273761 305.80038644 419.46808147 309.46763229 C419.48453937 313.450589 419.46974562 317.43309287 419.45209026 321.41605186 C419.46169527 322.56461076 419.47130028 323.71316966 419.48119634 324.89653337 C419.38392741 335.58833562 416.61902939 345.49060428 408.95088482 353.25726891 C398.30833794 362.26807947 389.08772269 363.71805493 375.38838482 363.44476891 C374.09352154 363.43123375 372.79865826 363.41769859 371.46455669 363.40375328 C368.29289268 363.36864261 365.12211392 363.31946238 361.95088482 363.25726891 C361.97183208 364.1136898 361.99277935 364.9701107 362.01436138 365.85248375 C362.08315683 369.07672599 362.13298308 372.3005901 362.17061138 375.52533531 C362.19053824 376.91218047 362.21769041 378.29894372 362.25264263 379.68549156 C362.58075613 393.05129153 360.01635001 402.78989355 350.82588482 412.81976891 C343.89806458 419.56803441 335.75458949 422.37737937 326.27091312 422.39148998 C325.59732099 422.39384221 324.92372885 422.39619444 324.22972482 422.39861795 C321.96231337 422.40529906 319.69495934 422.40485 317.42753887 422.40443993 C315.78954214 422.4077391 314.15154623 422.41146479 312.51355135 422.41558141 C308.00406728 422.42560337 303.49459652 422.42931852 298.98510289 422.43197072 C294.12467174 422.43587317 289.26425114 422.44545153 284.40382671 422.45418358 C272.6619272 422.4739494 260.92002682 422.48401424 249.17811483 422.49291137 C243.64951676 422.49729398 238.12091966 422.50266085 232.59232235 422.50790024 C214.21562111 422.52491245 195.83892047 422.53940692 177.46221256 422.54664898 C172.6929744 422.54855889 167.92373624 422.55047922 163.1544981 422.55243492 C161.37642875 422.55316053 161.37642875 422.55316053 159.5624388 422.5539008 C140.35736884 422.56220222 121.15236113 422.58754108 101.94731836 422.6200156 C82.23294584 422.65307978 62.51860498 422.67109715 42.80420458 422.67429322 C31.73406433 422.67645888 20.66401488 422.68521582 9.59390163 422.71075439 C0.16666048 422.73245258 -9.26046781 422.74051612 -18.6877311 422.73078761 C-23.49706882 422.72624042 -28.30617364 422.72815364 -33.11547947 422.74754906 C-37.52121627 422.76516336 -41.92654995 422.76419708 -46.33229093 422.74865177 C-47.92319157 422.74627307 -49.51412 422.75061286 -51.10497816 422.76248042 C-63.46477124 422.84894588 -73.87111538 421.14964631 -83.04911518 412.25726891 C-91.4274233 402.38163263 -93.50319484 393.4087073 -93.43679523 380.67001915 C-93.44218077 379.42460708 -93.44756631 378.17919501 -93.45311505 376.89604318 C-93.46490205 373.45996477 -93.4633444 370.02437447 -93.45594823 366.58831596 C-93.45120359 362.87450502 -93.46373786 359.16074527 -93.47396564 355.44695091 C-93.49113387 348.17930739 -93.49199774 340.91175039 -93.48675274 333.64409186 C-93.48270599 327.73478079 -93.48416059 321.82549523 -93.489501 315.91618538 C-93.49024942 315.07409556 -93.49099784 314.23200575 -93.49176895 313.36439805 C-93.49330047 311.6535099 -93.49483882 309.94262175 -93.49638391 308.23173361 C-93.51010189 292.19867798 -93.50467628 276.16567119 -93.4931987 260.13261668 C-93.48326785 245.47772275 -93.49620567 230.8229551 -93.52013289 216.16808064 C-93.54453925 201.10579418 -93.55412794 186.04356649 -93.54748017 170.98126066 C-93.54399126 162.53079263 -93.54619826 154.08042169 -93.56373119 145.62996864 C-93.57847243 138.4360492 -93.57906362 131.24229522 -93.56166028 124.04837896 C-93.5531635 120.3811175 -93.55096797 116.71415137 -93.56631184 113.04690552 C-93.58276973 109.06394882 -93.56797598 105.08144494 -93.55032063 101.09848595 C-93.55992563 99.94992705 -93.56953064 98.80136815 -93.57942671 97.61800444 C-93.4754591 86.18988401 -90.45341626 77.72020878 -82.48270893 69.48773766 C-72.06703769 59.94143223 -63.38412 58.95150913 -49.61161518 59.13226891 C-48.30772846 59.14129234 -47.00384174 59.15031578 -45.66044331 59.15961266 C-42.45647686 59.18308494 -39.25289254 59.21592164 -36.04911518 59.25726891 C-36.07006245 58.40608482 -36.09100971 57.55490074 -36.11259174 56.6779232 C-36.1814768 53.46670225 -36.23125569 50.25586247 -36.26884174 47.04413414 C-36.28874188 45.66412391 -36.31587258 44.28419554 -36.35087299 42.9044857 C-36.62771278 31.69654555 -35.92422361 21.44795703 -27.86161518 12.94476891 C-19.75785702 4.57487747 -11.8957789 0.01395508 0 0 Z M-73.04911518 126.25726891 C-73.04911518 135.16726891 -73.04911518 144.07726891 -73.04911518 153.25726891 C-70.74252415 153.25869392 -68.43593311 153.26011894 -66.05944538 153.26158714 C-44.35459022 153.27736674 -22.64991493 153.32064044 -0.94516182 153.38935947 C10.21430114 153.4240276 21.37364034 153.44936739 32.53316021 153.45282555 C42.25865716 153.4558629 51.98393381 153.4763226 61.70934564 153.51779348 C66.85998293 153.53914589 72.01030684 153.55171254 77.16098881 153.5434227 C82.00793642 153.5358968 86.85424831 153.5516458 91.70107937 153.58532906 C93.48083593 153.59357997 95.2606555 153.59329154 97.04040623 153.58386612 C99.46978859 153.572273 101.89707742 153.59131535 104.32629681 153.61803246 C105.38418865 153.60202257 105.38418865 153.60202257 106.46345204 153.58568925 C110.26233162 153.66370431 111.87281199 154.19565742 114.89226532 156.57847118 C116.95088482 159.25726891 116.95088482 159.25726891 117.51338482 162.75726891 C116.86966263 166.76265142 115.79142656 168.41672717 112.95088482 171.25726891 C109.98830343 172.7385596 106.97402099 172.41101211 103.72502422 172.41548729 C102.5954005 172.42289426 102.5954005 172.42289426 101.44295609 172.43045086 C98.90637604 172.44587258 96.36982138 172.45419908 93.83320904 172.46259117 C92.02012691 172.47216603 90.20704704 172.48217587 88.39396954 172.49258995 C83.46037537 172.51968764 78.5267716 172.54067082 73.59314394 172.56059194 C68.44146842 172.58242155 63.2898227 172.609825 58.1381712 172.63664818 C48.3776135 172.68661605 38.61703929 172.73153966 28.85644925 172.77467054 C17.74655831 172.82400797 6.63669725 172.87893903 -4.4731648 172.93435013 C-27.33178705 173.04823303 -50.19043797 173.15505829 -73.04911518 173.25726891 C-73.16591753 201.41233736 -73.25408836 229.56736951 -73.30817604 257.72263145 C-73.33395743 270.79562034 -73.36910705 283.86845868 -73.42631245 296.94135094 C-73.47614899 308.33570487 -73.50840666 319.72994978 -73.51955765 331.12440968 C-73.52607589 337.15771481 -73.54139489 343.19070803 -73.57776546 349.22391319 C-73.61172849 354.90382294 -73.6221673 360.58329257 -73.61465359 366.26329422 C-73.61602797 368.34660738 -73.62595833 370.42993542 -73.64514256 372.51316071 C-73.67008525 375.36166955 -73.66401577 378.20852508 -73.65038776 381.05707359 C-73.66495197 381.87810664 -73.67951618 382.69913969 -73.69452173 383.54505253 C-73.61687062 389.56530601 -72.01611999 393.69204811 -68.04911518 398.25726891 C-61.5938831 403.87808283 -53.51489496 402.81544331 -45.40383625 402.76520348 C-43.78926836 402.7698141 -42.17470466 402.7761681 -40.56014973 402.78411245 C-36.12941902 402.80080662 -31.69903306 402.79255906 -27.26830113 402.78016758 C-22.48773657 402.77111985 -17.70723142 402.7850854 -12.92667866 402.79608727 C-3.56422619 402.8138796 5.79809805 402.81002942 15.16055555 402.7984367 C22.76856743 402.78940602 30.37654336 402.7881768 37.98455906 402.79253197 C39.06704454 402.7931449 40.14953002 402.79375783 41.26481808 402.79438934 C43.46379997 402.79566823 45.66278184 402.79696508 47.86176371 402.7982797 C68.4842882 402.80968746 89.10674159 402.79656843 109.72925442 402.77507824 C127.42938752 402.75720456 145.12941571 402.76031323 162.82954693 402.77875328 C183.37943577 402.80015216 203.9292623 402.80859147 224.47916073 402.79630423 C226.66978259 402.79503001 228.86040446 402.79377253 231.05102634 402.79253197 C232.12888427 402.79191487 233.2067422 402.79129776 234.31726249 402.79066196 C241.91780869 402.78720631 249.51831539 402.793042 257.11885548 402.80245018 C266.37890649 402.81366051 275.63882186 402.81065033 284.8988573 402.7893272 C289.62467205 402.77880419 294.3502605 402.7747163 299.07607365 402.78792381 C303.40070534 402.79982748 307.72490059 402.79331878 312.04949259 402.7720136 C313.61532421 402.76753896 315.18119257 402.76983315 316.74700064 402.77951676 C318.87377939 402.79166251 320.99905886 402.77922671 323.12575912 402.76063347 C324.30745149 402.75998406 325.48914385 402.75933465 326.70664507 402.75866556 C333.32837275 401.73527877 337.14735009 397.36487268 340.95088482 392.25726891 C342.24147281 388.38550495 342.08526878 384.73070314 342.07113934 380.69631004 C342.07199376 379.81169946 342.07284819 378.92708887 342.0737285 378.01567191 C342.07538073 375.03995017 342.0698661 372.06428431 342.06441021 369.08856773 C342.06412826 366.96007348 342.06428623 364.83157914 342.06485271 362.70308495 C342.06514037 356.91418254 342.05924873 351.12530074 342.05227876 345.33640313 C342.04603998 339.29055081 342.045441 333.24469805 342.04425335 327.198843 C342.04114159 315.74541452 342.03293027 304.29199554 342.02290386 292.83857125 C342.01173793 279.80126611 342.00623106 266.76396052 342.00120842 253.72665179 C341.99074754 226.90351888 341.97315108 200.08039443 341.95088482 173.25726891 C341.19789514 173.25580235 340.44490545 173.25433578 339.6690979 173.25282478 C321.34951322 173.21577757 303.03011956 173.15679064 284.71068573 173.07336617 C275.85154001 173.0335521 266.99248342 173.00117167 258.13325787 172.98627281 C250.41179372 172.97326853 242.69052551 172.9463353 234.9691717 172.90265584 C230.88050184 172.88001332 226.79207388 172.86435988 222.70333576 172.86538506 C218.85447772 172.86613004 215.00615498 172.84824518 211.15743542 172.81610107 C209.74534769 172.80758573 208.33320004 172.80586328 206.92109776 172.81146622 C204.99165617 172.81810184 203.06217817 172.79783263 201.13284588 172.77625084 C199.5137165 172.77072008 199.5137165 172.77072008 197.86187744 172.76507759 C194.24374057 172.13391099 192.56233606 170.79073678 189.95088482 168.25726891 C189.06807232 166.07367516 189.06807232 166.07367516 188.82588482 163.81976891 C188.66733013 162.7079525 188.66733013 162.7079525 188.50557232 161.57367516 C189.19716283 157.97619118 191.19254448 156.566571 193.95088482 154.25726891 C196.87749481 153.62641239 196.87749481 153.62641239 200.17080975 153.61803246 C201.42297787 153.60274498 202.67514599 153.5874575 203.9652586 153.57170677 C205.34499166 153.57995807 206.72472193 153.58868678 208.10444927 153.59784508 C209.56331025 153.58938938 211.02215993 153.57874411 212.48099041 153.56607628 C216.43527119 153.53793429 220.38900944 153.54040058 224.34336019 153.54837012 C228.47809394 153.55149532 232.61265495 153.5264605 236.74731731 153.50441551 C244.57411057 153.46696226 252.40073007 153.45482677 260.22760409 153.45179111 C269.13936336 153.44710166 278.05094842 153.41418202 286.96263087 153.37889326 C305.29203749 153.30694423 323.62134873 153.27144101 341.95088482 153.25726891 C341.95088482 144.34726891 341.95088482 135.43726891 341.95088482 126.25726891 C205.00088482 126.25726891 68.05088482 126.25726891 -73.04911518 126.25726891 Z " fill="#020202" transform="translate(93.04911518096924,44.74273109436035)"/>
<path d="M0 0 C0.65837665 -0.00235223 1.31675331 -0.00470446 1.99508077 -0.00712797 C4.22275696 -0.01383657 6.45037507 -0.01335919 8.67806053 -0.01294994 C10.28275815 -0.01624742 11.88745494 -0.01997274 13.49215066 -0.02409142 C17.91880209 -0.03413293 22.34543996 -0.03783167 26.77210116 -0.04048073 C31.53982227 -0.04437748 36.30753258 -0.05395631 41.07524681 -0.0626936 C52.59846584 -0.08247689 64.12168577 -0.09252704 75.64491755 -0.10142139 C81.06818071 -0.10580164 86.49144289 -0.11116917 91.91470528 -0.11641026 C109.93790103 -0.13342517 127.96109616 -0.14791967 145.98429871 -0.155159 C150.66382536 -0.15706897 155.34335201 -0.15898929 160.02287865 -0.16094494 C161.76754406 -0.16167055 161.76754406 -0.16167055 163.54745524 -0.16241082 C182.39187857 -0.17071226 201.23623845 -0.19604995 220.08063407 -0.22852562 C239.4175095 -0.26157889 258.75435267 -0.27960623 278.0912565 -0.28280324 C288.95232982 -0.28497005 299.81331063 -0.29374361 310.67435646 -0.31926441 C319.92383854 -0.34094784 329.17320565 -0.34903348 338.42271025 -0.33929763 C343.14267618 -0.33474596 347.86240479 -0.33668945 352.58233833 -0.35605907 C356.90416719 -0.37364186 361.22558476 -0.37273287 365.54741769 -0.35716178 C367.110079 -0.35477825 368.67276843 -0.35914783 370.23538668 -0.37099043 C386.3841567 -0.4857861 386.3841567 -0.4857861 391.6854763 4.13422108 C397.41437151 10.0587927 397.39776131 16.52325429 397.32039452 24.39362049 C397.32819447 25.61579352 397.33599442 26.83796655 397.34403074 28.09717512 C397.36047677 31.47322096 397.35462384 34.84786796 397.33909965 38.2238276 C397.32775975 41.87082048 397.34526185 45.5176935 397.35899925 49.16466236 C397.38120822 56.3024898 397.37644102 63.44005405 397.36193605 70.57789171 C397.35063454 76.38000003 397.34911684 82.18203471 397.35455513 87.98415089 C397.3553213 88.81059019 397.35608746 89.6370295 397.35687684 90.48851243 C397.3584755 92.16751733 397.36009657 93.8465222 397.3617398 95.52552706 C397.37599044 111.26189981 397.35961536 126.99812682 397.33273797 142.73447567 C397.31039979 156.2309156 397.31428011 169.72714049 397.33733177 183.22357655 C397.36410192 198.90442777 397.3746172 214.58515132 397.35927045 230.26602221 C397.35767774 231.93877854 397.35610589 233.61153489 397.35455513 235.28429127 C397.35378375 236.10727464 397.35301237 236.93025801 397.35221762 237.77818027 C397.34790426 243.57192534 397.35517932 249.36558928 397.3669529 255.15932178 C397.38098995 262.2220121 397.3771528 269.28442464 397.35054918 276.34708321 C397.33742695 279.94920932 397.33223074 283.55087264 397.34879494 287.15299511 C397.36649153 291.06053115 397.34533238 294.96731283 397.32039452 298.87482166 C397.33154812 300.00945551 397.34270173 301.14408937 397.35419333 302.31310606 C397.26974649 309.1299353 396.4369523 314.03666725 391.6854763 319.13422108 C385.56285407 324.19792425 379.43012166 323.61132259 371.7479763 323.38422108 C370.58717552 323.3661742 369.42637474 323.34812733 368.23039818 323.32953358 C365.38122883 323.28263367 362.533791 323.21701167 359.6854763 323.13422108 C359.68308795 321.84469847 359.6806996 320.55517586 359.67823887 319.22657681 C359.62084312 288.59597737 359.5480871 257.96545706 359.45649002 227.33494226 C359.44522225 223.56246912 359.43408373 219.78999561 359.42302513 216.01752186 C359.41971961 214.89100413 359.41971961 214.89100413 359.4163473 213.74172847 C359.38100287 201.59142513 359.35612264 189.44112186 359.33512928 177.29078622 C359.31334447 164.81762 359.28026864 152.34452032 359.23677474 139.87141073 C359.21030414 132.1787055 359.19257499 124.48608314 359.18613026 116.79333465 C359.18023834 110.88831666 359.15861498 104.983421 359.13120079 99.07846165 C359.12241945 96.66061428 359.11869818 94.24274231 359.12046814 91.82487965 C359.12212452 88.51759004 359.1053896 85.21087185 359.08420372 81.90366077 C359.0890513 80.95227022 359.09389887 80.00087966 359.09889334 79.02065909 C358.97938269 67.67530079 355.55951045 58.52618082 347.86907005 50.15765858 C340.27429439 42.94645744 331.02777662 40.02184217 320.6822443 39.99555588 C319.47051758 39.99008143 318.25879087 39.98460699 317.01034516 39.97896665 C315.66912002 39.97789053 314.32789481 39.97690582 312.98666954 39.97600269 C311.55929673 39.9714356 310.13192525 39.96643536 308.70455533 39.96103913 C304.78231202 39.94746539 300.86007738 39.94004187 296.93781674 39.93361247 C292.70813426 39.92560518 288.47846979 39.91190852 284.24880028 39.89890003 C276.9206168 39.87714197 269.5924315 39.85899502 262.26423264 39.8432951 C251.66886433 39.82059039 241.07351597 39.79244838 230.47816459 39.76297582 C213.2882441 39.7153073 196.09831545 39.6720411 178.90837669 39.63153553 C162.20915149 39.59217685 145.50993353 39.55074972 128.81072044 39.50653553 C127.78152059 39.50381126 126.75232073 39.50108699 125.691933 39.49828016 C120.5287815 39.48460062 115.36563011 39.47088036 110.20247877 39.45713985 C67.36349305 39.34318669 24.52449167 39.23637476 -18.3145237 39.13422108 C-18.43104095 34.75944634 -18.50188369 30.3850728 -18.5645237 26.00922108 C-18.59803932 24.77172108 -18.63155495 23.53422108 -18.6660862 22.25922108 C-18.7879331 10.92745884 -18.7879331 10.92745884 -14.3145237 6.13422108 C-9.70645245 1.49307755 -6.49209998 0.00984339 0 0 Z " fill="#CDCCF2" transform="translate(95.31452369689941,64.86577892303467)"/>
<path d="M0 0 C3.46604138 1.46936455 6.10468327 3.61749015 9 6 C10.16165665 6.90543888 11.32592622 7.80753118 12.4921875 8.70703125 C14.92911183 10.59414236 17.35456072 12.49401457 19.765625 14.4140625 C20.32314453 14.84879883 20.88066406 15.28353516 21.45507812 15.73144531 C23 17 23 17 25.359375 19.3984375 C28.80336208 21.48724623 30.68686861 21.00433105 34.55566406 20.37207031 C38.65022001 19.7488079 42.74171059 19.85666172 46.875 19.875 C47.75414062 19.86968262 48.63328125 19.86436523 49.5390625 19.85888672 C54.19501041 19.85974766 58.42412093 20.19114713 63 21.125 C66.57399808 21.52025524 67.77052243 21.1447522 70.8671875 19.19140625 C73.47008323 17.02458006 75.93858721 14.79574367 78.39257812 12.46679688 C81.16041763 9.94110129 84.1411491 7.69969273 87.125 5.4375 C87.68171387 5.00848389 88.23842773 4.57946777 88.81201172 4.13745117 C94.6502029 -0.33692258 98.71533423 -0.5666996 106 0 C112.8973573 2.38272343 115.92962655 7.43064257 118.99414062 13.7199707 C126.1664737 29.08652022 132.25590947 46.98834875 126.90625 63.98828125 C126.06695684 66.14262969 125.17036494 68.27651262 124.19140625 70.37109375 C121.86704946 75.49992037 121.98432349 78.36301732 123.50195312 83.81396484 C124.37048479 87.62613767 124.29608852 91.41939869 124.25 95.3125 C124.24250732 96.15063232 124.23501465 96.98876465 124.22729492 97.85229492 C123.85213736 119.50873679 114.94605555 138.30053598 99.5390625 153.4140625 C83.6835785 167.26975572 62.94598164 174.27191361 42 173 C20.37566417 171.09512674 2.17852608 160.95459716 -11.90625 144.61328125 C-21.46641926 132.68090581 -28.11615703 118.27627489 -28.1328125 102.7890625 C-28.13410156 101.62632812 -28.13539062 100.46359375 -28.13671875 99.265625 C-28.13285156 98.06421875 -28.12898438 96.8628125 -28.125 95.625 C-28.12886719 94.43132812 -28.13273437 93.23765625 -28.13671875 92.0078125 C-28.12590149 82.22900877 -28.12590149 82.22900877 -27.30859375 77.62109375 C-26.93503637 73.23770521 -28.15063008 70.31901666 -29.9375 66.4375 C-35.97597944 51.77213095 -33.01576185 36.96476085 -27.31640625 22.64453125 C-21.69793288 9.21076293 -16.53956203 -2.92507209 0 0 Z " fill="#020202" transform="translate(94,246)"/>
<path d="M0 0 C136.95 0 273.9 0 415 0 C415 8.91 415 17.82 415 27 C413.15694778 27.00142502 411.31389557 27.00285004 409.41499329 27.00431824 C392.06609255 27.0209705 374.71742478 27.06339234 357.36864948 27.13209057 C348.44894487 27.16674817 339.52939491 27.19209709 330.60961914 27.19555664 C322.83539211 27.19859547 315.06144048 27.21907489 307.28731984 27.26052457 C303.17065025 27.28186384 299.05437227 27.29445058 294.93764687 27.28615379 C291.06243548 27.27861927 287.18801793 27.2944108 283.31295204 27.32806015 C281.89118794 27.33630083 280.46934501 27.33603449 279.04758835 27.32659721 C277.10503523 27.31498005 275.16236803 27.33704864 273.21992493 27.36076355 C271.58973403 27.36491162 271.58973403 27.36491162 269.92660999 27.36914349 C265.98865766 28.21800373 264.4896726 29.89609339 262 33 C261.67 34.32 261.34 35.64 261 37 C252.75 37 244.5 37 236 37 C235.67 38.65 235.34 40.3 235 42 C233.5 44.3125 233.5 44.3125 231 46 C227.87401121 46.63104073 225.12376434 46.65148026 222 46 C218.15652494 43.1173937 217.17316354 41.69265417 216 37 C207.75 37 199.5 37 191 37 C190.01 34.69 189.02 32.38 188 30 C184.39308119 27.59538746 181.78247248 27.71019069 177.61592102 27.7215271 C176.85790056 27.7157347 176.0998801 27.7099423 175.31888932 27.70397437 C172.77155079 27.68692991 170.22439295 27.68409407 167.67700195 27.68115234 C165.85391798 27.67185723 164.03083828 27.66168918 162.20776367 27.65071106 C157.2514969 27.62335 152.29525864 27.60824359 147.33893609 27.59528303 C142.16189305 27.57967916 136.98490848 27.55288024 131.8079071 27.5272522 C122.00134761 27.48041573 112.19477717 27.4436952 102.38816279 27.41057932 C91.2250289 27.37239229 80.06195366 27.32297321 68.89886916 27.27259517 C45.93262206 27.16920292 22.96633822 27.08036469 0 27 C0 18.09 0 9.18 0 0 Z " fill="#B3B1EC" transform="translate(20,171)"/>
<path d="M0 0 C0.66066422 -0.00235223 1.32132844 -0.00470446 2.00201279 -0.00712797 C4.23745096 -0.01383663 6.47283125 -0.01335919 8.70827866 -0.01294994 C10.31852646 -0.01624741 11.92877343 -0.01997273 13.53901935 -0.02409142 C17.98093357 -0.0341329 22.42283428 -0.03783166 26.86475825 -0.04048073 C31.64880116 -0.04437743 36.4328333 -0.05395618 41.21686935 -0.0626936 C52.77863943 -0.08247584 64.34041041 -0.09252638 75.90219319 -0.10142139 C81.34264949 -0.10580134 86.78310481 -0.1111689 92.22356033 -0.11641026 C110.30166166 -0.13342418 128.37976238 -0.14791933 146.45787048 -0.155159 C151.15150834 -0.15706899 155.84514619 -0.15898931 160.53878403 -0.16094494 C161.70540954 -0.16142868 162.87203505 -0.16191242 164.07401285 -0.16241082 C182.98121919 -0.17071473 201.88836234 -0.19605703 220.79554108 -0.22852562 C240.19342752 -0.26156615 259.5912818 -0.27960503 278.98919654 -0.28280324 C289.88597642 -0.28497111 300.78266414 -0.29376018 311.67941666 -0.31926441 C320.95786807 -0.34093037 330.23620496 -0.3490421 339.51467881 -0.33929763 C344.25059872 -0.33474101 348.98628213 -0.33671794 353.72216988 -0.35605907 C358.05623003 -0.37360666 362.38987967 -0.37276183 366.72394368 -0.35716178 C368.29329881 -0.35477287 369.86268175 -0.35917537 371.43199423 -0.37099043 C373.56355721 -0.38604674 375.69365379 -0.37648259 377.82518005 -0.36076355 C379.60178414 -0.36222876 379.60178414 -0.36222876 381.41427922 -0.36372358 C388.07365752 0.65658684 391.79806036 5.05291395 395.66427231 10.13422108 C398.20286334 15.21140315 396.66427231 21.45775895 396.66427231 27.13422108 C259.71427231 27.13422108 122.76427231 27.13422108 -18.33572769 27.13422108 C-18.33572769 10.16292921 -18.33572769 10.16292921 -12.70291519 4.48968983 C-7.99555561 0.8051335 -5.95940666 0.00900426 0 0 Z " fill="#F6F3F1" transform="translate(38.33572769165039,123.86577892303467)"/>
<path d="M0 0 C13.44908337 9.52564811 23.80731584 22.83946623 28 39 C29.26393197 51.06552628 28.76800233 62.17553369 23 73 C22.51917969 73.91136719 22.03835937 74.82273437 21.54296875 75.76171875 C20.12773636 78.25984664 18.62310174 80.63262622 17 83 C16.58492188 83.61230469 16.16984375 84.22460938 15.7421875 84.85546875 C7.57150869 95.54584791 -6.90775342 103.0042307 -20 105 C-37.97742104 106.10238903 -53.00619584 102.16731942 -66.875 90.25 C-77.34391423 80.16149689 -84.20535143 66.62937616 -85.203125 52.02734375 C-85.46374415 34.84819826 -80.21886189 20.64295887 -68.25 8.1484375 C-49.56927902 -9.68905649 -22.36429772 -13.99076971 0 0 Z " fill="#FDF09E" transform="translate(170,294)"/>
<path d="M0 0 C1.39163118 -0.00514076 2.78325585 -0.01242323 4.17486572 -0.02168274 C7.94775793 -0.04018569 11.71994279 -0.02726587 15.49280548 -0.00759244 C19.44361684 0.00880487 23.39438378 -0.00002033 27.34521484 -0.00511169 C33.97960699 -0.00963147 40.6137171 0.00622975 47.24804688 0.03417969 C54.91500775 0.06623126 62.58145996 0.0662156 70.24845695 0.04896492 C77.62804407 0.03309344 85.00744494 0.03983732 92.38702393 0.05690193 C95.52570563 0.06376918 98.6642379 0.06274339 101.80291748 0.05535698 C105.49999912 0.04768783 109.19650288 0.05983991 112.89348602 0.08720589 C114.89513351 0.09736201 116.89685043 0.08791372 118.89849854 0.07788086 C120.09295593 0.09060532 121.28741333 0.10332977 122.51806641 0.11643982 C124.07214706 0.1206502 124.07214706 0.1206502 125.65762329 0.12494564 C129.20878307 0.76257822 130.89392774 2.16316168 133.4765625 4.63110352 C134.69272843 7.06343537 134.61632829 8.65014052 134.63769531 11.36865234 C134.64730286 12.35340042 134.6569104 13.3381485 134.66680908 14.35273743 C134.6731839 15.95425911 134.6731839 15.95425911 134.6796875 17.58813477 C134.68538757 18.68324875 134.69108765 19.77836273 134.69696045 20.90666199 C134.70641963 23.2276411 134.71294806 25.54863371 134.71679688 27.86962891 C134.72649422 31.41861472 134.75750621 34.96701955 134.7890625 38.51586914 C134.79559323 40.7691209 134.80084343 43.02237682 134.8046875 45.27563477 C134.8170343 46.33724319 134.8293811 47.39885162 134.84210205 48.49263 C134.81355974 57.94813149 134.81355974 57.94813149 131.4765625 61.63110352 C127.74186982 64.28974374 125.19298695 65.00785302 120.63195801 65.01878357 C119.46274307 65.0286882 118.29352814 65.03859283 117.08888245 65.04879761 C115.8149614 65.04429596 114.54104034 65.03979431 113.22851562 65.03515625 C111.8664443 65.04086166 110.50437775 65.04782658 109.14231873 65.05595398 C105.45017899 65.07388045 101.75827697 65.07271822 98.0661068 65.06701159 C94.98201746 65.06391944 91.89797377 65.07001237 88.81389093 65.07605034 C81.53816073 65.09009183 74.26254797 65.08853702 66.98681641 65.07714844 C59.483473 65.06566305 51.98048684 65.07975058 44.47719049 65.10654491 C38.03117942 65.12870088 31.58528051 65.13533968 25.13923407 65.1294685 C21.29094224 65.12609798 17.44287951 65.12852026 13.59461975 65.14571953 C9.97637456 65.16118553 6.35865889 65.15723765 2.74043465 65.13841438 C0.78169559 65.13297114 -1.17706723 65.1472446 -3.13575745 65.16210938 C-4.30497238 65.15227524 -5.47418732 65.1424411 -6.67883301 65.13230896 C-7.69276375 65.13209968 -8.70669449 65.13189039 -9.7513504 65.13167477 C-13.29641076 64.49152342 -14.97411282 63.13281419 -17.5234375 60.63110352 C-18.50736949 57.67930755 -18.67237013 55.67828687 -18.71630859 52.59643555 C-18.73237152 51.5717215 -18.74843445 50.54700745 -18.76498413 49.49124146 C-18.80946901 44.81505032 -18.85048052 40.13899961 -18.87353516 35.46264648 C-18.89011331 32.99510275 -18.91742733 30.5276074 -18.95556641 28.06030273 C-19.01026609 24.50292039 -19.0321976 20.94666196 -19.046875 17.38891602 C-19.08087906 15.73558762 -19.08087906 15.73558762 -19.11557007 14.04885864 C-19.11272003 13.01784027 -19.10987 11.9868219 -19.10693359 10.92456055 C-19.11502045 10.02093781 -19.1231073 9.11731506 -19.13143921 8.18630981 C-16.84681832 -1.41510678 -7.98775118 -0.07173295 0 0 Z " fill="#010000" transform="translate(271.5234375,245.368896484375)"/>
<path d="M0 0 C1.1735051 -0.00571014 2.34701019 -0.01142029 3.55607605 -0.01730347 C4.85013367 -0.01842133 6.14419128 -0.01953918 7.47746277 -0.02069092 C8.84893935 -0.02531836 10.22041464 -0.03034292 11.59188843 -0.03573608 C15.32339117 -0.04887017 19.05487592 -0.05530712 22.78639817 -0.05974674 C25.11718059 -0.06267614 27.44795808 -0.06678071 29.77873802 -0.07125092 C37.06963701 -0.08492914 44.36052474 -0.09459393 51.65143567 -0.09845281 C60.07048178 -0.10293307 68.48936549 -0.12047806 76.90836221 -0.1494534 C83.41373809 -0.17106612 89.91906826 -0.18115688 96.42447966 -0.18249393 C100.31079864 -0.18354235 104.19696503 -0.1894578 108.08324623 -0.20731354 C111.73992581 -0.22378701 115.396338 -0.22595339 119.05304146 -0.21717453 C121.03329027 -0.21603644 123.01353018 -0.22975983 124.99372864 -0.243927 C126.17569321 -0.23835785 127.35765778 -0.2327887 128.57543945 -0.22705078 C129.60064099 -0.22851734 130.62584253 -0.2299839 131.68211079 -0.2314949 C135.57873511 0.28683636 138.36203369 1.77060732 140.85319519 4.82794189 C141.81794124 8.39750228 141.49602985 11.59983134 140.47819519 15.14044189 C138.22367821 18.07131397 136.99376654 18.96858478 133.47819519 20.14044189 C131.62476581 20.23747607 129.76802322 20.27540892 127.9120636 20.28088379 C126.17498642 20.28944901 126.17498642 20.28944901 124.40281677 20.29818726 C123.13105591 20.29930511 121.85929504 20.30042297 120.54899597 20.30157471 C119.19707606 20.30620366 117.84515745 20.31122843 116.49324036 20.31661987 C112.81964622 20.32973756 109.14607035 20.33618747 105.47245646 20.34063053 C103.17734818 20.34356199 100.88224489 20.34766691 98.58713913 20.3521347 C91.40623438 20.36580734 84.22534104 20.37547541 77.04442418 20.3793366 C68.75499821 20.38381836 60.46573705 20.4013726 52.1763612 20.43033719 C45.76862885 20.45194995 39.36094289 20.46204064 32.95317447 20.46337771 C29.12611421 20.46442595 25.29920893 20.47033756 21.47218704 20.48819733 C17.87212647 20.50467133 14.27233748 20.50683695 10.67225266 20.49805832 C8.72302528 20.49692039 6.77380695 20.51064257 4.82463074 20.52481079 C3.07909409 20.51645706 3.07909409 20.51645706 1.29829407 20.50793457 C0.28914003 20.50940113 -0.720014 20.51086769 -1.75974846 20.51237869 C-4.99926306 20.07614766 -6.87916657 19.03033331 -9.52180481 17.14044189 C-12.0875107 13.7195007 -11.95888535 10.29270705 -11.52180481 6.14044189 C-8.11443902 0.91581436 -6.0508216 0.01757609 0 0 Z " fill="#030303" transform="translate(264.5218048095703,381.85955810546875)"/>
<path d="M0 0 C1.73501518 -0.00856522 1.73501518 -0.00856522 3.50508118 -0.01730347 C4.78043732 -0.01842133 6.05579346 -0.01953918 7.36979675 -0.02069092 C8.72156917 -0.0253184 10.07334028 -0.03034297 11.42510986 -0.03573608 C15.10289531 -0.04886976 18.78066249 -0.05530704 22.45846772 -0.05974674 C24.75574824 -0.06267621 27.05302374 -0.0667808 29.35030174 -0.07125092 C36.53654928 -0.08492906 43.72278539 -0.09459388 50.90904504 -0.09845281 C59.20697109 -0.102933 67.50473237 -0.12047765 75.80260831 -0.1494534 C82.21456675 -0.17106693 88.62647883 -0.18115693 95.03847331 -0.18249393 C98.86890186 -0.18354229 102.69917559 -0.18945659 106.52956581 -0.20731354 C110.13371692 -0.22378841 113.73759674 -0.22595272 117.34177208 -0.21717453 C119.29339442 -0.21603658 121.24500773 -0.22975893 123.19657898 -0.243927 C124.94428337 -0.23557327 124.94428337 -0.23557327 126.72729492 -0.22705078 C128.2429742 -0.22925062 128.2429742 -0.22925062 129.78927326 -0.2314949 C133.86224834 0.31641529 136.49474707 2.08106604 139.36662292 4.95294189 C141.0170316 7.99316839 141.10140319 9.71994021 140.55412292 13.14044189 C138.47977251 16.56590177 136.43635707 18.84636385 132.55412292 20.14044189 C130.68807953 20.23959597 128.81868679 20.27975125 126.95002747 20.28761292 C125.78356186 20.29476822 124.61709625 20.30192352 123.4152832 20.30929565 C122.1341716 20.31198456 120.85306 20.31467346 119.53312683 20.31744385 C118.17135444 20.32370976 116.80958376 20.33035668 115.44781494 20.33735657 C110.97545051 20.35838001 106.5030858 20.36875572 102.03068542 20.37872314 C100.49075172 20.38277101 98.95081819 20.38688794 97.41088486 20.39107323 C90.1776575 20.41011926 82.94444033 20.42435285 75.71119273 20.4326852 C67.36115852 20.44246299 59.01138903 20.46879889 50.66144812 20.50918609 C44.20700817 20.53933435 37.75264417 20.55415274 31.29813516 20.55746621 C27.44307417 20.55981774 23.58829618 20.56879141 19.7333107 20.59392738 C16.1069296 20.61719158 12.48101818 20.62144837 8.85458183 20.611166 C6.89102029 20.61043389 4.92748268 20.62953571 2.96401978 20.64923096 C1.79191452 20.64228714 0.61980927 20.63534332 -0.58781433 20.62818909 C-1.60434271 20.63057744 -2.62087109 20.63296579 -3.66820335 20.63542652 C-7.22035039 20.00242987 -8.89366609 18.64692155 -11.44587708 16.14044189 C-12.65848585 12.50261558 -12.84132259 9.9630819 -12.44587708 6.14044189 C-8.44941776 1.30262273 -6.11250788 0.01801472 0 0 Z " fill="#020202" transform="translate(265.4458770751953,339.85955810546875)"/>
<path d="M0 0 C37.62 0 75.24 0 114 0 C114 8.25 114 16.5 114 25 C76.38 25 38.76 25 0 25 C0 16.75 0 8.5 0 0 Z " fill="#F99AAD" transform="translate(272,265)"/>
<path d="M0 0 C0.98033203 -0.00257813 1.96066406 -0.00515625 2.97070312 -0.0078125 C9.26780039 0.0776878 13.16682179 0.72932179 17.75 5.3125 C19.40040867 8.3527265 19.48478027 10.07949832 18.9375 13.5 C16.86314959 16.92545988 14.81973414 19.20592195 10.9375 20.5 C7.31730511 20.78095068 3.69239466 20.77746241 0.0625 20.8125 C-1.42830078 20.85600586 -1.42830078 20.85600586 -2.94921875 20.90039062 C-10.30500037 20.96439676 -10.30500037 20.96439676 -14.171875 18.59375 C-17.22812625 15.20914118 -18.0625 13.71719764 -18.0625 9.0625 C-17.03981523 5.41918551 -16.01048875 3.84484701 -13.05517578 1.52319336 C-8.96587268 -0.57657009 -4.48994228 -0.13040096 0 0 Z " fill="#040402" transform="translate(140.0625,353.5)"/>
<path d="M0 0 C3.03978021 0.68164768 4.80055419 2.23591662 6.93359375 4.43359375 C8.50815114 7.58270854 8.28158493 9.95368191 7.93359375 13.43359375 C5.99609375 16.87109375 5.99609375 16.87109375 2.93359375 19.43359375 C-0.24284144 20.23775456 -2.88264771 20.18203608 -6.06640625 19.43359375 C-9.12890625 17.49609375 -9.12890625 17.49609375 -11.06640625 14.43359375 C-11.75784894 11.27352924 -11.76342149 8.59301531 -11.06640625 5.43359375 C-8.06278312 0.83429584 -5.28483659 -0.3296779 0 0 Z " fill="#030304" transform="translate(248.06640625,197.56640625)"/>
<path d="M0 0 C0.9802271 2.43707838 1.95922171 4.87463945 2.9375 7.3125 C3.21529297 8.00279297 3.49308594 8.69308594 3.77929688 9.40429688 C5.80014815 14.44425125 7.12643744 18.25281743 7.0625 23.6875 C7.05347656 24.68136719 7.04445312 25.67523438 7.03515625 26.69921875 C7.02355469 27.45847656 7.01195312 28.21773438 7 29 C6.319375 28.319375 5.63875 27.63875 4.9375 26.9375 C4.47730469 26.47988281 4.01710937 26.02226562 3.54296875 25.55078125 C2.49346517 24.49596373 1.45471552 23.43036038 0.42578125 22.35546875 C-4.03671914 17.74733898 -8.86194092 13.83315519 -14 10 C-4.28571429 0 -4.28571429 0 0 0 Z " fill="#F6E57B" transform="translate(195,268)"/>
<path d="M0 0 C4.96768758 1.55240237 9.17867057 4.51054781 13 8 C13 8.66 13 9.32 13 10 C11.37921697 11.26921613 9.7006787 12.46502621 8 13.625 C2.77634593 17.31862895 -1.63688851 21.34164036 -6 26 C-6.66 26.66 -7.32 27.32 -8 28 C-8.25303227 22.69999978 -7.45615563 18.3887222 -5.6875 13.4375 C-5.47416016 12.80392578 -5.26082031 12.17035156 -5.04101562 11.51757812 C-3.65650778 7.50457182 -1.97318291 3.75541264 0 0 Z " fill="#F2E279" transform="translate(89,268)"/>
</svg>
