<?xml version="1.0" encoding="UTF-8"?>
<svg version="1.1" xmlns="http://www.w3.org/2000/svg" width="512" height="512">
<path d="M0 0 C1.42884136 -0.00461733 2.85767795 -0.0109758 4.28650475 -0.01890898 C8.18549092 -0.03551152 12.08408236 -0.02739771 15.98306942 -0.0149641 C20.19855782 -0.00587847 24.41398042 -0.01990069 28.62945557 -0.03088379 C36.87676576 -0.04863624 45.12393004 -0.04484366 53.37124586 -0.03323323 C60.0761837 -0.02418626 66.78108075 -0.02298036 73.48602295 -0.02732849 C74.4416316 -0.02794142 75.39724025 -0.02855436 76.38180673 -0.02918586 C78.32332882 -0.03046481 80.26485091 -0.03176166 82.20637298 -0.03307623 C100.39643917 -0.04447243 118.58642463 -0.03138338 136.77647758 -0.00987476 C152.37202156 0.00799534 167.96744644 0.00489097 183.56298828 -0.0135498 C201.68958559 -0.03497347 219.81611221 -0.04337389 237.94272041 -0.03110075 C239.87695439 -0.0298266 241.81118837 -0.02856912 243.74542236 -0.02732849 C244.69701182 -0.02671139 245.64860127 -0.02609429 246.62902677 -0.02545848 C253.32307536 -0.02201008 260.01707898 -0.02782295 266.71112061 -0.0372467 C274.87300433 -0.04848469 283.03473425 -0.04538885 291.19660044 -0.02412373 C295.35802325 -0.01363749 299.51918995 -0.00944985 303.68061066 -0.02272034 C307.49526446 -0.03470071 311.30942645 -0.02798974 315.12403607 -0.00681013 C317.14642927 -0.00027473 319.168857 -0.0132295 321.19121361 -0.02703905 C333.30348761 0.07648916 342.76303188 3.05687815 351.61572266 11.50793457 C362.85335267 23.27963017 363.26541402 35.84956238 363.13720703 51.34411621 C363.1156034 54.46264918 363.13716275 57.57892125 363.16259766 60.6973877 C363.1599572 62.68502297 363.15483807 64.67265685 363.14697266 66.66027832 C363.15506958 67.58944565 363.1631665 68.51861298 363.17150879 69.47593689 C363.15259583 70.77362755 363.15259583 70.77362755 363.13330078 72.09753418 C363.13011841 72.85489365 363.12693604 73.61225311 363.12365723 74.39256287 C362.61572266 76.50793457 362.61572266 76.50793457 358.61572266 80.50793457 C338.81572266 80.50793457 319.01572266 80.50793457 298.61572266 80.50793457 C298.94572266 157.72793457 299.27572266 234.94793457 299.61572266 314.50793457 C300.60572266 313.84793457 301.59572266 313.18793457 302.61572266 312.50793457 C305.07554626 312.24050903 305.07554626 312.24050903 308.03344727 312.21740723 C309.14147202 312.20464752 310.24949677 312.19188782 311.39109802 312.17874146 C313.18644737 312.17540298 313.18644737 312.17540298 315.01806641 312.17199707 C316.24731339 312.16534027 317.47656036 312.15868347 318.74305725 312.15182495 C321.34472149 312.14169215 323.94641175 312.13700812 326.5480957 312.1373291 C330.53383375 312.13757238 334.51883815 312.09663832 338.50439453 312.05871582 C341.02978136 312.05284797 343.55517346 312.04887837 346.08056641 312.04699707 C347.27544174 312.03262604 348.47031708 312.018255 349.70140076 312.00344849 C350.81257767 312.00960175 351.92375458 312.015755 353.06860352 312.02209473 C354.04550644 312.01924469 355.02240936 312.01639465 356.02891541 312.01345825 C359.41227327 312.66019772 360.45180376 313.86712082 362.61572266 316.50793457 C363.11908722 318.86303711 363.11908722 318.86303711 363.12365723 321.5177002 C363.13493652 322.5271167 363.14621582 323.5365332 363.15783691 324.57653809 C363.14973999 325.67796143 363.14164307 326.77938477 363.13330078 327.91418457 C363.1438147 329.66106567 363.1438147 329.66106567 363.15454102 331.4432373 C363.17216698 335.2983779 363.16048106 339.15278631 363.14697266 343.00793457 C363.14966623 345.6830741 363.15354119 348.35819126 363.15856934 351.0333252 C363.16584462 356.64213007 363.15626137 362.2507242 363.13720703 367.85949707 C363.11543823 374.34211364 363.1224897 380.82422699 363.14451265 387.30683136 C363.16267025 392.87470046 363.16522331 398.44241816 363.15475798 404.01030731 C363.14852488 407.33489127 363.14925464 410.65918709 363.16090393 413.98376465 C363.17104014 417.69008614 363.1556075 421.39543564 363.13330078 425.10168457 C363.14139771 426.20310791 363.14949463 427.30453125 363.15783691 428.43933105 C363.14655762 429.44874756 363.13527832 430.45816406 363.12365723 431.49816895 C363.12139507 432.81222717 363.12139507 432.81222717 363.11908722 434.15283203 C362.44629894 437.30062095 361.08812705 438.51393318 358.61572266 440.50793457 C356.02891541 441.00241089 356.02891541 441.00241089 353.06860352 440.99377441 C351.95742661 440.99992767 350.84624969 441.00608093 349.70140076 441.01242065 C347.90908775 440.99086411 347.90908775 440.99086411 346.08056641 440.96887207 C344.8503627 440.96795563 343.620159 440.96703918 342.35267639 440.96609497 C339.75273784 440.9600539 337.1528064 440.94429298 334.55297852 440.91955566 C330.56492168 440.88304168 326.5785349 440.87853628 322.59033203 440.87902832 C320.06623543 440.86919762 317.54214514 440.85754083 315.01806641 440.84387207 C313.82116684 440.84164642 312.62426727 440.83942078 311.39109802 440.83712769 C310.28307327 440.82436798 309.17504852 440.81160828 308.03344727 440.79846191 C307.05733994 440.79083832 306.0812326 440.78321472 305.07554626 440.77536011 C302.61572266 440.50793457 302.61572266 440.50793457 299.61572266 438.50793457 C299.48617187 439.95812988 299.48617187 439.95812988 299.35400391 441.43762207 C297.97452332 454.21996516 294.38191471 463.60947038 284.61572266 472.50793457 C274.60321211 479.8368412 266.15667138 480.80457096 254.01617432 480.77536011 C252.62378752 480.77909935 251.23140283 480.78370197 249.83902144 480.78909075 C246.02231749 480.80130238 242.20570132 480.80106246 238.3889823 480.798702 C234.26887002 480.79829337 230.14878572 480.80933744 226.02868652 480.81881714 C217.96000943 480.83541815 209.89136156 480.84092628 201.82266882 480.84204189 C195.26257079 480.84299282 188.70248238 480.84710533 182.14238739 480.85344315 C163.53537723 480.87105329 144.92839013 480.8802824 126.32137159 480.8787822 C124.8172365 480.87866233 124.8172365 480.87866233 123.28271484 480.87854004 C121.77673904 480.8784174 121.77673904 480.8784174 120.24033949 480.87829228 C103.97192884 480.8774795 87.70361081 480.89661576 71.43522695 480.92481677 C54.72319223 480.95355779 38.01120266 480.96735639 21.2991426 480.96562922 C11.91972807 480.96496573 2.54041062 480.97044012 -6.83898163 480.99198532 C-14.82527885 481.01021316 -22.81143497 481.01453131 -30.79774401 481.00096647 C-34.87004003 480.99444483 -38.94206549 480.99429034 -43.01433563 481.01167297 C-46.74771699 481.0274447 -50.4806142 481.0244988 -54.21398404 481.00710471 C-56.19283887 481.00260193 -58.17170895 481.01765993 -60.15050483 481.033584 C-72.17664252 480.94101993 -81.60149889 477.89225049 -90.38427734 469.50793457 C-101.62190736 457.73623897 -102.0339687 445.16630676 -101.90576172 429.67175293 C-101.88415809 426.55321997 -101.90571744 423.43694789 -101.93115234 420.31848145 C-101.92851189 418.33084617 -101.92339276 416.34321229 -101.91552734 414.35559082 C-101.92362427 413.42642349 -101.93172119 412.49725616 -101.94006348 411.53993225 C-101.92745483 410.67480515 -101.91484619 409.80967804 -101.90185547 408.91833496 C-101.8986731 408.16097549 -101.89549072 407.40361603 -101.89221191 406.62330627 C-101.38427734 404.50793457 -101.38427734 404.50793457 -97.38427734 400.50793457 C-80.22427734 400.50793457 -63.06427734 400.50793457 -45.38427734 400.50793457 C-45.87927734 331.70293457 -45.87927734 331.70293457 -46.38427734 261.50793457 C-49.02427734 267.11793457 -51.66427734 272.72793457 -54.38427734 278.50793457 C-57.59864263 280.65084476 -59.55854343 280.80819248 -63.34912109 280.96887207 C-66.3067211 280.29901257 -67.38642263 278.76742151 -69.38427734 276.50793457 C-70.53486642 274.54606767 -71.60787093 272.5375464 -72.61865234 270.50012207 C-73.47910156 268.77342285 -73.47910156 268.77342285 -74.35693359 267.01184082 C-74.64842285 266.41645508 -74.93991211 265.82106934 -75.24023438 265.2076416 C-76.13707603 263.37722256 -77.04673751 261.55361805 -77.95849609 259.73059082 C-82.38427734 250.78870625 -82.38427734 250.78870625 -82.38427734 248.50793457 C-83.30241211 248.52888184 -84.22054687 248.5498291 -85.16650391 248.57141113 C-88.58083163 248.6396804 -91.99443177 248.68977842 -95.40917969 248.72766113 C-96.88553325 248.74774758 -98.36180753 248.77502258 -99.83789062 248.80969238 C-101.96292697 248.85834641 -104.08690969 248.8809313 -106.21240234 248.89855957 C-107.49018555 248.91950684 -108.76796875 248.9404541 -110.08447266 248.96203613 C-113.38427734 248.50793457 -113.38427734 248.50793457 -115.79638672 246.71960449 C-117.7218885 244.03769788 -118.02610722 241.89860356 -117.84716797 238.61779785 C-116.98706608 234.69743894 -114.64390815 231.98984796 -112.13427734 228.94543457 C-111.3276062 227.92050903 -111.3276062 227.92050903 -110.50463867 226.87487793 C-108.81575397 224.7375559 -107.10147781 222.62254009 -105.38427734 220.50793457 C-104.30839587 219.15769527 -103.2341348 217.80616298 -102.16162109 216.45324707 C-94.57589067 206.91205227 -94.57589067 206.91205227 -91.04052734 202.74621582 C-90.39083984 201.96633301 -89.74115234 201.1864502 -89.07177734 200.38293457 C-88.51876953 199.74098145 -87.96576172 199.09902832 -87.39599609 198.43762207 C-86.1876188 196.52449732 -86.1876188 196.52449732 -86.48193359 194.16418457 C-87.61552887 190.82719416 -89.27690743 188.12846725 -91.13427734 185.13293457 C-102.06303831 166.62304922 -104.83576589 145.33420966 -99.90283203 124.47180176 C-94.51338392 104.28386904 -82.29936938 86.47228263 -64.38427734 75.50793457 C-58.61929964 72.35967431 -52.61808273 69.5858697 -46.38427734 67.50793457 C-46.37493164 66.47499268 -46.36558594 65.44205078 -46.35595703 64.37780762 C-46.31567191 60.49522925 -46.24981293 56.61341167 -46.17675781 52.73132324 C-46.14876909 51.06052525 -46.12744622 49.38960029 -46.11328125 47.71862793 C-45.98636528 33.58441943 -44.58030753 22.18852857 -34.38427734 11.50793457 C-24.27070798 1.8532039 -13.62527836 -0.09303943 0 0 Z " fill="#000000" transform="translate(133.38427734375,15.4920654296875)"/>
<path d="M0 0 C1.59291106 -0.00597315 1.59291106 -0.00597315 3.21800214 -0.01206696 C4.95875541 -0.00332844 4.95875541 -0.00332844 6.73467541 0.00558662 C8.59093281 0.00302335 8.59093281 0.00302335 10.48469037 0.00040829 C13.91675408 -0.00231673 17.34858979 0.00393506 20.78062594 0.01396441 C24.48268575 0.02260005 28.18473849 0.01967867 31.88680553 0.01815987 C38.29993197 0.01711109 44.71301772 0.02338696 51.12613392 0.03463554 C60.3984214 0.05088853 69.67068919 0.05609834 78.94298937 0.05861153 C93.98661491 0.06298895 109.03021875 0.07629932 124.07383251 0.09521675 C138.68743818 0.11357433 153.30103796 0.12773144 167.91465282 0.13623238 C169.26579139 0.13702055 169.26579139 0.13702055 170.64422569 0.13782464 C175.163062 0.14043471 179.68189836 0.14296213 184.20073473 0.14544845 C221.68994345 0.16618241 259.1791275 0.20140922 296.66831493 0.24609566 C296.03602978 1.5319355 296.03602978 1.5319355 295.39097118 2.84375191 C294.84311962 3.98715034 294.29526806 5.13054878 293.73081493 6.30859566 C293.1855415 7.43394722 292.64026806 8.55929878 292.07847118 9.71875191 C289.22159396 16.86490187 289.51703161 24.13770045 289.51009655 31.71776009 C289.50268958 33.44182354 289.50268958 33.44182354 289.49513298 35.20071656 C289.47978637 39.0484424 289.471405 42.8961516 289.46299267 46.74389839 C289.45395508 49.50352022 289.44344464 52.26313597 289.43299389 55.02275276 C289.41127103 60.96218297 289.39311129 66.90161544 289.37738895 72.84106445 C289.35465207 81.42845264 289.3265146 90.01581649 289.29706968 98.60318399 C289.24944051 112.53647126 289.2061637 126.4697685 289.16562939 140.40307808 C289.12625065 153.93596357 289.08481874 167.46884022 289.04062939 181.00171089 C289.03654298 182.25349044 289.03654298 182.25349044 289.03237402 183.53055846 C289.01869415 187.71720408 289.00497395 191.90384957 288.99123371 196.09049499 C288.8773424 230.80901019 288.77051684 265.52754415 288.66831493 300.24609566 C287.54243479 299.2887965 286.41764344 298.33021671 285.29331493 297.37109566 C284.66683056 296.83742378 284.04034618 296.30375191 283.39487743 295.75390816 C279.73576201 292.55839106 279.23566664 290.80334675 278.48472118 285.98828316 C278.27911572 284.72242378 278.07351025 283.45656441 277.86167431 282.15234566 C277.54610036 280.14516845 277.23337691 278.13756176 276.92100048 276.12988472 C274.75187102 260.2361525 274.75187102 260.2361525 265.62143993 247.61328316 C257.58235417 242.029086 250.48692399 240.0357514 240.66831493 241.24609566 C232.07938994 244.12095022 226.10607622 249.37264821 221.66831493 257.24609566 C218.33171255 264.4635689 217.35548574 271.32400959 217.05503368 279.17187691 C217.01551586 280.04735176 216.97599804 280.92282661 216.93528271 281.82483101 C216.83963018 283.96496514 216.75304207 286.10550116 216.66831493 288.24609566 C215.9093391 288.24974129 215.15036327 288.25338692 214.36838818 288.25714302 C207.18911876 288.29512928 200.01036219 288.35210112 192.83142376 288.4299984 C189.14129481 288.46938042 185.45140115 288.5016138 181.76108837 288.51709175 C178.19461911 288.5323203 174.62879713 288.56687318 171.0626173 288.61440468 C169.05103455 288.63629655 167.03926886 288.63856405 165.02756786 288.6404438 C156.66414811 288.77336675 150.8935999 289.54345047 144.42612743 295.21093941 C139.37236419 301.31656246 137.21234318 305.51658555 137.33237743 313.54687691 C137.80762691 317.36545118 139.1678328 320.55409554 140.79331493 324.01953316 C141.66831493 326.24609566 141.66831493 326.24609566 141.66831493 330.24609566 C140.79331493 332.03515816 140.79331493 332.03515816 139.66831493 333.87109566 C136.84699287 339.27277278 136.67717305 344.62874342 138.28159618 350.48437691 C139.36144635 353.42489196 140.60026189 356.12182488 142.10581493 358.87109566 C142.66831493 361.24609566 142.66831493 361.24609566 140.85581493 364.37109566 C140.13393993 365.31984566 139.41206493 366.26859566 138.66831493 367.24609566 C136.87326 372.63126046 137.66831493 378.56963354 137.66831493 384.24609566 C84.53831493 384.24609566 31.40831493 384.24609566 -23.33168507 384.24609566 C-23.33168507 326.16609566 -23.33168507 268.08609566 -23.33168507 208.24609566 C-17.39168507 208.24609566 -11.45168507 208.24609566 -5.33168507 208.24609566 C-3.20323878 212.89044811 -1.07548142 217.53510599 1.05079174 222.18045235 C1.79354215 223.80260108 2.53668351 225.42457086 3.28022289 227.04635811 C10.44988726 242.68544363 10.44988726 242.68544363 13.40659618 249.50781441 C13.77011181 250.34586617 14.13362743 251.18391792 14.50815868 252.04736519 C15.13721182 253.50978742 15.75883158 254.9754393 16.37143993 256.44482613 C17.82136538 259.81729028 18.5202125 261.1473607 21.66831493 263.24609566 C24.6260067 263.74620089 24.6260067 263.74620089 27.66831493 263.24609566 C31.14098212 260.37625999 32.91066944 257.22016905 34.86753368 253.20312691 C35.43665478 252.04748238 36.00577587 250.89183784 36.59214306 249.70117378 C37.18040346 248.48716018 37.76828981 247.27296527 38.35581493 246.05859566 C39.52329418 243.66774216 40.69531802 241.2791667 41.86753368 238.89062691 C42.63843334 237.30278389 42.63843334 237.30278389 43.42490673 235.68286324 C44.66831493 233.24609566 44.66831493 233.24609566 45.66831493 232.24609566 C47.76588499 232.11184664 49.86766333 232.04246232 51.96909618 232.00000191 C53.89978954 231.95069527 53.89978954 231.95069527 55.86948681 231.90039253 C57.92339374 231.85306071 59.97727661 231.80866348 62.03135204 231.76928902 C64.01078345 231.7294475 65.98995658 231.67737055 67.96909618 231.62500191 C69.15672558 231.59994576 70.34435497 231.5748896 71.56797314 231.54907417 C74.51505276 231.26107308 76.22936337 230.88015336 78.66831493 229.24609566 C80.13552043 226.31168466 80.0514297 224.52172691 79.66831493 221.24609566 C78.21374245 218.53205775 76.34260792 216.2045233 74.41831493 213.80859566 C73.87980907 213.11483833 73.34130322 212.42108101 72.786479 211.70630074 C71.09686793 209.53930827 69.38630326 207.3906393 67.66831493 205.24609566 C67.13464306 204.57739449 66.60097118 203.90869331 66.05112743 203.21972847 C64.50904771 201.2892518 62.96404197 199.36115259 61.41831493 197.43359566 C59.95796926 195.60971104 58.49813773 193.78543262 57.04038525 191.95947456 C56.14282379 190.83864071 55.24127898 189.72098222 54.33530712 188.6069355 C53.13693645 187.1258084 51.96425465 185.62400282 50.79331493 184.12109566 C49.80718212 182.87972847 49.80718212 182.87972847 48.80112743 181.61328316 C47.66831493 179.24609566 47.66831493 179.24609566 48.26597118 176.78125191 C49.76507345 174.07117566 51.33828892 171.4344521 52.98081493 168.80859566 C63.46339254 151.05372984 67.05703409 129.09292334 62.16831493 108.93359566 C58.67424267 96.80928836 52.93401239 85.79297622 44.66831493 76.24609566 C43.94643993 75.25609566 43.22456493 74.26609566 42.48081493 73.24609566 C28.80888743 57.22153128 7.46819725 50.69339415 -12.70668507 48.99609566 C-16.24704797 48.72321264 -19.78798479 48.47141235 -23.33168507 48.24609566 C-23.4313797 44.12027169 -23.5035374 39.99492469 -23.55141163 35.86816597 C-23.57139136 34.46765092 -23.59858527 33.06721784 -23.63344288 31.66699409 C-23.86447037 22.14050752 -23.65372008 15.11708324 -17.14809132 7.78515816 C-16.03240772 6.83769722 -16.03240772 6.83769722 -14.89418507 5.87109566 C-14.15297413 5.22398628 -13.41176319 4.57687691 -12.64809132 3.91015816 C-8.55898627 0.97262232 -5.00344199 -0.00415051 0 0 Z " fill="#41BEFE" transform="translate(127.33168506622314,31.753904342651367)"/>
<path d="M0 0 C11.61801805 8.76446976 20.04620466 19.00275791 25.2265625 32.6796875 C25.54625 33.50597656 25.8659375 34.33226562 26.1953125 35.18359375 C30.21785902 47.38159363 29.3959214 61.65915681 25.2265625 73.6796875 C24.88625 74.67355469 24.5459375 75.66742188 24.1953125 76.69140625 C18.20205424 92.50469916 7.22596957 104.10228802 -7.7734375 111.6796875 C-14.83275129 114.72120036 -22.02028514 117.46871737 -29.7734375 117.6796875 C-30.94390625 117.7415625 -32.114375 117.8034375 -33.3203125 117.8671875 C-51.81125412 118.57446658 -67.09023486 112.01737521 -80.7734375 99.6796875 C-92.7500562 88.46245585 -99.62722524 71.94713193 -100.24414062 55.63989258 C-100.45781757 37.69637105 -94.3858662 21.87588485 -82.03295898 8.79223633 C-60.2318489 -13.26845493 -25.94140295 -17.20512292 0 0 Z " fill="#030200" transform="translate(147.7734375,106.3203125)"/>
<path d="M0 0 C74.25 0 148.5 0 225 0 C225 3.96 225 7.92 225 12 C226.55374407 19.03754667 229.05469699 23.75020933 235 28 C241.80957688 31.89998053 248.79567463 31.47693015 256.46484375 31.51171875 C257.86733046 31.52858477 259.26980223 31.54673757 260.67225647 31.56611633 C264.34314301 31.6134144 268.01396896 31.6433536 271.68505859 31.66955566 C275.43924928 31.69946386 279.1932316 31.74595863 282.94726562 31.79101562 C290.29807323 31.87681855 297.64889636 31.94426524 305 32 C305.33773438 32.81984375 305.67546875 33.6396875 306.0234375 34.484375 C306.46945312 35.56203125 306.91546875 36.6396875 307.375 37.75 C307.81585938 38.81734375 308.25671875 39.8846875 308.7109375 40.984375 C309.73391489 43.37752211 310.82338076 45.68175391 312 48 C274.68233595 48.09156035 237.36468882 48.16204117 200.04693517 48.20426132 C195.64099045 48.20926413 191.23504595 48.21444142 186.82910156 48.21972656 C185.9519593 48.2207758 185.07481704 48.22182505 184.17109472 48.22290608 C169.96950621 48.24031015 155.76798249 48.27184786 141.56643242 48.30861118 C126.99375791 48.34602054 112.42111733 48.36823584 97.84839678 48.37635398 C88.85660873 48.38184176 79.8650038 48.39917292 70.87327212 48.43166587 C64.70685855 48.45281369 58.5405396 48.45919944 52.3740924 48.45400551 C48.81660762 48.45144413 45.25944278 48.45536368 41.70201492 48.4768219 C37.842363 48.49993272 33.98312662 48.49194348 30.12341309 48.48101807 C29.00277702 48.49266943 27.88214095 48.5043208 26.72754622 48.51632524 C19.0577539 48.45759353 13.76407203 47.23110608 7.79296875 42.10546875 C7.26316406 41.47253906 6.73335937 40.83960938 6.1875 40.1875 C5.64480469 39.56230469 5.10210937 38.93710937 4.54296875 38.29296875 C-3.85633058 25.81097202 0 17.35234306 0 0 Z " fill="#2A85BA" transform="translate(48,432)"/>
<path d="M0 0 C3.92643715 2.11423539 6.68654564 4.19654438 9 8 C9.62268405 10.57992273 10.10709616 13.03891928 10.5 15.65234375 C10.62181641 16.38949112 10.74363281 17.12663849 10.86914062 17.88612366 C11.25687074 20.23498215 11.63008195 22.5857749 12 24.9375 C12.48786375 28.03206806 12.98986828 31.12387825 13.5 34.21484375 C13.60634766 34.9201976 13.71269531 35.62555145 13.82226562 36.35227966 C14.84237587 42.52966053 17.11773669 46.37824366 21.50390625 50.734375 C22.16197266 51.39050781 22.82003906 52.04664063 23.49804688 52.72265625 C24.17931641 53.39167969 24.86058594 54.06070313 25.5625 54.75 C26.24763672 55.43449219 26.93277344 56.11898437 27.63867188 56.82421875 C36.67976869 65.78546289 36.35305573 63.07121346 54 64 C54 90.4 54 116.8 54 144 C50.37 144.33 46.74 144.66 43 145 C39.16562489 147.80424448 36.25469928 150.3660985 33.38195801 154.10705566 C30.53144871 157.56355808 28.34283845 159.69758172 23.89306641 160.69970703 C20.1227347 160.92477786 16.43146168 160.89980004 12.65625 160.78125 C11.27766219 160.76630337 9.89903148 160.75492779 8.52038574 160.74694824 C4.91564764 160.71660067 1.31354516 160.63820289 -2.29016113 160.54931641 C-5.97693228 160.46703968 -9.66413522 160.43084867 -13.3515625 160.390625 C-20.56890174 160.30517883 -27.78407971 160.16889872 -35 160 C-34.98114746 159.04158203 -34.96229492 158.08316406 -34.94287109 157.09570312 C-34.92820801 155.83693359 -34.91354492 154.57816406 -34.8984375 153.28125 C-34.87015869 151.41049805 -34.87015869 151.41049805 -34.84130859 149.50195312 C-35.08640334 144.0932777 -36.66100472 140.14225736 -40.671875 136.46875 C-41.51492188 135.74171875 -41.51492188 135.74171875 -42.375 135 C-43.24125 134.01 -44.1075 133.02 -45 132 C-44.375 128.25 -44.375 128.25 -43.671875 126.203125 C-41.92839213 120.48612302 -42.23108547 114.90753906 -45 109.625 C-45.37125 109.01914062 -45.7425 108.41328125 -46.125 107.7890625 C-47 106 -47 106 -47 102 C-46.38566703 100.436742 -45.71327555 98.89566385 -45 97.375 C-42.58150843 91.50152047 -41.48031578 85.79921054 -43.90625 79.734375 C-44.60077731 78.39492948 -45.33668587 77.07554737 -46.125 75.7890625 C-47 74 -47 74 -47 70 C-46.125 68.09765625 -46.125 68.09765625 -45 66.0625 C-42.20931681 60.18634315 -42.64548922 54.37134655 -43 48 C-40.03 48 -37.06 48 -34 48 C-33.98598145 49.48826294 -33.98598145 49.48826294 -33.97167969 51.0065918 C-33.93126326 54.75132224 -33.8653736 58.49527478 -33.79248047 62.23950195 C-33.76456583 63.84812287 -33.74320746 65.45687343 -33.72900391 67.06567383 C-33.60128597 80.72723533 -32.47752679 94.2757811 -23 105 C-16.61497992 110.71664566 -9.2703313 115.06555957 -1.9375 119.4375 C-0.35291992 120.39172852 -0.35291992 120.39172852 1.26367188 121.36523438 C3.83940092 122.91533376 6.41815578 124.46011548 9 126 C12.51098025 121.98745115 14.76537994 117.79016959 17 113 C16.2793335 112.5875 15.55866699 112.175 14.81616211 111.75 C12.10490238 110.18863504 9.40183827 108.61411434 6.70336914 107.03076172 C4.97541652 106.02213238 3.23875907 105.02846312 1.50195312 104.03515625 C-6.99870549 99.02893747 -13.9989296 94.18493696 -17.40446472 84.57098389 C-18.74225184 78.79562639 -18.44975603 72.81232044 -18.43359375 66.9140625 C-18.43816389 65.44729371 -18.44347191 63.98052704 -18.44947815 62.51376343 C-18.45837805 59.44919095 -18.45602273 56.38487949 -18.44604492 53.3203125 C-18.43456919 49.41785378 -18.45476023 45.51630188 -18.48396206 41.61396217 C-18.50242379 38.58707069 -18.50201178 35.56039244 -18.49632454 32.53345871 C-18.49617248 31.09592799 -18.50211972 29.65838172 -18.51461601 28.2209053 C-18.57713461 19.8505127 -18.32778366 12.37432377 -14 5 C-9.45079691 0.55911127 -6.35197487 -0.52933124 0 0 Z " fill="#FDC9BD" transform="translate(378,288)"/>
<path d="M0 0 C11.61801805 8.76446976 20.04620466 19.00275791 25.2265625 32.6796875 C25.54625 33.50597656 25.8659375 34.33226562 26.1953125 35.18359375 C30.21785902 47.38159363 29.3959214 61.65915681 25.2265625 73.6796875 C24.88625 74.67355469 24.5459375 75.66742188 24.1953125 76.69140625 C18.20205424 92.50469916 7.22596957 104.10228802 -7.7734375 111.6796875 C-14.83275129 114.72120036 -22.02028514 117.46871737 -29.7734375 117.6796875 C-30.94390625 117.7415625 -32.114375 117.8034375 -33.3203125 117.8671875 C-51.81125412 118.57446658 -67.09023486 112.01737521 -80.7734375 99.6796875 C-92.7500562 88.46245585 -99.62722524 71.94713193 -100.24414062 55.63989258 C-100.45781757 37.69637105 -94.3858662 21.87588485 -82.03295898 8.79223633 C-60.2318489 -13.26845493 -25.94140295 -17.20512292 0 0 Z M-72.4765625 21.828125 C-81.79445031 33.39625102 -84.70729515 45.07889728 -83.7734375 59.6796875 C-81.90653786 72.74798498 -75.90250536 83.26072201 -65.7734375 91.6796875 C-55.16009223 99.60431864 -42.93085555 102.98415612 -29.7734375 101.6796875 C-16.29030355 99.62236189 -5.24871155 93.43233111 3.2265625 82.6796875 C11.06113404 70.40363644 14.03796311 58.21785272 11.76171875 43.71875 C8.84008897 31.65190038 2.19125099 20.34698985 -8.48193359 13.59960938 C-30.24478088 1.17716635 -54.87113832 3.26954092 -72.4765625 21.828125 Z " fill="#FAD642" transform="translate(147.7734375,106.3203125)"/>
<path d="M0 0 C6.68299432 4.55255211 12.17266372 11.69035059 13.74609375 19.71484375 C14.77287626 30.59232099 12.53961258 40.32983444 5.58203125 48.9296875 C-0.98436124 55.31445637 -9.44107336 58.97842332 -18.56640625 59.08984375 C-24.68545269 58.97858836 -29.04494931 57.88379094 -34.25390625 54.71484375 C-35.30191406 54.09609375 -35.30191406 54.09609375 -36.37109375 53.46484375 C-43.13065935 48.97547188 -46.61615551 42.73477738 -49.62890625 35.33984375 C-51.58680709 23.98401887 -49.98246843 15.98165265 -43.56640625 6.52734375 C-32.45628051 -7.56423345 -14.91988004 -8.50717597 0 0 Z " fill="#FC4A3B" transform="translate(130.25390625,133.28515625)"/>
<path d="M0 0 C10.56 0 21.12 0 32 0 C32 31.68 32 63.36 32 96 C21.44 96 10.88 96 0 96 C0 64.32 0 32.64 0 0 Z " fill="#244C54" transform="translate(448,344)"/>
<path d="M0 0 C55.44 0 110.88 0 168 0 C168 5.28 168 10.56 168 16 C112.56 16 57.12 16 0 16 C0 10.72 0 5.44 0 0 Z " fill="#000000" transform="translate(224,224)"/>
<path d="M0 0 C55.44 0 110.88 0 168 0 C168 5.28 168 10.56 168 16 C112.56 16 57.12 16 0 16 C0 10.72 0 5.44 0 0 Z " fill="#000000" transform="translate(224,184)"/>
<path d="M0 0 C55.44 0 110.88 0 168 0 C168 5.28 168 10.56 168 16 C112.56 16 57.12 16 0 16 C0 10.72 0 5.44 0 0 Z " fill="#000000" transform="translate(224,144)"/>
<path d="M0 0 C55.44 0 110.88 0 168 0 C168 5.28 168 10.56 168 16 C112.56 16 57.12 16 0 16 C0 10.72 0 5.44 0 0 Z " fill="#000000" transform="translate(224,104)"/>
<path d="M0 0 C5.58764217 3.83385667 10.03619586 9.00591211 12.140625 15.46875 C12.36767578 18.7902832 12.36767578 18.7902832 12.3359375 22.51953125 C12.33094238 23.72520752 12.32594727 24.93088379 12.32080078 26.1730957 C12.30259277 27.69378662 12.28438477 29.21447754 12.265625 30.78125 C12.224375 35.628125 12.183125 40.475 12.140625 45.46875 C-3.699375 45.46875 -19.539375 45.46875 -35.859375 45.46875 C-35.983125 38.29125 -35.983125 38.29125 -36.109375 30.96875 C-36.14579102 29.47537109 -36.18220703 27.98199219 -36.21972656 26.44335938 C-36.29433379 17.49530587 -35.65136386 11.74236893 -29.67578125 5.0078125 C-28.56009766 4.06035156 -28.56009766 4.06035156 -27.421875 3.09375 C-26.68066406 2.44664063 -25.93945312 1.79953125 -25.17578125 1.1328125 C-17.68122943 -4.25113198 -8.10718954 -4.08275732 0 0 Z " fill="#2A85B9" transform="translate(467.859375,34.53125)"/>
<path d="M0 0 C3.90405539 1.3013518 5.34420545 3.74614316 7.6875 6.9375 C8.57319608 8.12055798 9.45992882 9.30284052 10.34765625 10.484375 C10.78996582 11.07541016 11.23227539 11.66644531 11.68798828 12.27539062 C14.23065509 15.61766794 16.92339205 18.84030147 19.6015625 22.07421875 C21 24 21 24 21 26 C19.74703125 26.02578125 18.4940625 26.0515625 17.203125 26.078125 C15.55204877 26.13441169 13.90100845 26.1917589 12.25 26.25 C11.425 26.26417969 10.6 26.27835938 9.75 26.29296875 C4.94112648 26.47887526 4.94112648 26.47887526 0.6875 28.53125 C-1.6490249 31.94949939 -3.46944789 35.51743521 -5.25 39.25 C-5.61351562 39.99507813 -5.97703125 40.74015625 -6.3515625 41.5078125 C-7.24172145 43.33498087 -8.1218739 45.16701834 -9 47 C-12.12380364 45.43809818 -12.60887892 42.81101929 -14.00390625 39.6640625 C-14.28725327 39.02890717 -14.57060028 38.39375183 -14.86253357 37.73934937 C-15.76858359 35.70386327 -16.66543545 33.66445957 -17.5625 31.625 C-18.17066324 30.25756299 -18.77938053 28.89037224 -19.38867188 27.5234375 C-23.81089726 17.56730821 -23.81089726 17.56730821 -25 14 C-23.94941406 13.49210938 -22.89882812 12.98421875 -21.81640625 12.4609375 C-14.77769017 9.01995506 -7.97614742 5.68136888 -1.69921875 0.93359375 C-1.13847656 0.62550781 -0.57773438 0.31742188 0 0 Z " fill="#FB493B" transform="translate(162,222)"/>
<path d="M0 0 C4.12941554 1.48628314 7.61212106 3.52625648 11.3125 5.875 C16.09179912 8.87707572 20.89174462 11.59611512 26 14 C25.35497977 18.2571335 23.88686447 21.72598719 22.05859375 25.61328125 C21.77146011 26.22769577 21.48432648 26.84211029 21.18849182 27.47514343 C20.27660162 29.42337328 19.35718807 31.367941 18.4375 33.3125 C17.81525374 34.63843666 17.19350361 35.96460626 16.57226562 37.29101562 C15.05390965 40.5300596 13.52878897 43.76586484 12 47 C10.09020835 44.54087655 8.44208658 42.13590964 7.02734375 39.36328125 C6.51397461 38.37424805 6.51397461 38.37424805 5.99023438 37.36523438 C5.28283911 35.98587922 4.57713498 34.60565559 3.87304688 33.22460938 C2.13116259 29.47074159 2.13116259 29.47074159 -1 27 C-2.3734635 26.84995027 -3.7528526 26.75161994 -5.1328125 26.68359375 C-6.34130859 26.62075195 -6.34130859 26.62075195 -7.57421875 26.55664062 C-8.41597656 26.51732422 -9.25773437 26.47800781 -10.125 26.4375 C-10.97449219 26.39431641 -11.82398438 26.35113281 -12.69921875 26.30664062 C-14.79928223 26.20045764 -16.89961948 26.09971503 -19 26 C-17.26634743 21.92793234 -14.49733507 18.66941421 -11.75 15.25 C-10.75844783 14.0031341 -9.76755842 12.75574086 -8.77734375 11.5078125 C-8.30022949 10.90743164 -7.82311523 10.30705078 -7.33154297 9.68847656 C-4.82254376 6.50691467 -2.41001464 3.25677654 0 0 Z " fill="#FB4A3B" transform="translate(60,222)"/>
<path d="M0 0 C1.26972656 0.00257813 2.53945313 0.00515625 3.84765625 0.0078125 C5.16636719 0.03617187 6.48507812 0.06453125 7.84375 0.09375 C9.16246094 0.09117187 10.48117187 0.08859375 11.83984375 0.0859375 C22.77449158 0.19694915 22.77449158 0.19694915 27.34375 3.59375 C28.74832737 6.40290474 28.59270157 8.48185534 28.34375 11.59375 C26.56390595 14.7296657 25.82066793 15.43477736 22.34375 16.59375 C18.23251683 16.86499388 14.12143728 16.90688817 10.00195312 16.94384766 C8.64989001 16.96040751 7.29791446 16.98769924 5.94628906 17.02587891 C3.98816461 17.08082871 2.0291272 17.099416 0.0703125 17.1171875 C-1.09935059 17.13700684 -2.26901367 17.15682617 -3.47412109 17.17724609 C-7.60762496 16.41929963 -9.07026796 14.83412437 -11.65625 11.59375 C-12.28125 8.59375 -12.28125 8.59375 -11.65625 5.59375 C-8.02251354 1.05742951 -5.77097589 -0.03536531 0 0 Z " fill="#FBC7BB" transform="translate(299.65625,431.40625)"/>
<path d="M0 0 C1.26972656 0.00257813 2.53945313 0.00515625 3.84765625 0.0078125 C5.16636719 0.03617187 6.48507812 0.06453125 7.84375 0.09375 C9.16246094 0.09117187 10.48117187 0.08859375 11.83984375 0.0859375 C22.77449158 0.19694915 22.77449158 0.19694915 27.34375 3.59375 C28.74832737 6.40290474 28.59270157 8.48185534 28.34375 11.59375 C26.56390595 14.7296657 25.82066793 15.43477736 22.34375 16.59375 C18.23251683 16.86499388 14.12143728 16.90688817 10.00195312 16.94384766 C8.64989001 16.96040751 7.29791446 16.98769924 5.94628906 17.02587891 C3.98816461 17.08082871 2.0291272 17.099416 0.0703125 17.1171875 C-1.09935059 17.13700684 -2.26901367 17.15682617 -3.47412109 17.17724609 C-7.60762496 16.41929963 -9.07026796 14.83412437 -11.65625 11.59375 C-12.28125 8.59375 -12.28125 8.59375 -11.65625 5.59375 C-8.02251354 1.05742951 -5.77097589 -0.03536531 0 0 Z " fill="#FBC7BB" transform="translate(291.65625,399.40625)"/>
<path d="M0 0 C1.26972656 0.00257813 2.53945313 0.00515625 3.84765625 0.0078125 C5.16636719 0.03617187 6.48507812 0.06453125 7.84375 0.09375 C9.16246094 0.09117187 10.48117187 0.08859375 11.83984375 0.0859375 C22.77449158 0.19694915 22.77449158 0.19694915 27.34375 3.59375 C28.74832737 6.40290474 28.59270157 8.48185534 28.34375 11.59375 C26.56390595 14.7296657 25.82066793 15.43477736 22.34375 16.59375 C18.23251683 16.86499388 14.12143728 16.90688817 10.00195312 16.94384766 C8.64989001 16.96040751 7.29791446 16.98769924 5.94628906 17.02587891 C3.98816461 17.08082871 2.0291272 17.099416 0.0703125 17.1171875 C-1.09935059 17.13700684 -2.26901367 17.15682617 -3.47412109 17.17724609 C-7.60762496 16.41929963 -9.07026796 14.83412437 -11.65625 11.59375 C-12.28125 8.59375 -12.28125 8.59375 -11.65625 5.59375 C-8.02251354 1.05742951 -5.77097589 -0.03536531 0 0 Z " fill="#FBC7BB" transform="translate(291.65625,367.40625)"/>
<path d="M0 0 C1.26972656 0.00257813 2.53945313 0.00515625 3.84765625 0.0078125 C5.16636719 0.03617187 6.48507812 0.06453125 7.84375 0.09375 C9.16246094 0.09117187 10.48117187 0.08859375 11.83984375 0.0859375 C22.77449158 0.19694915 22.77449158 0.19694915 27.34375 3.59375 C28.74832737 6.40290474 28.59270157 8.48185534 28.34375 11.59375 C26.56390595 14.7296657 25.82066793 15.43477736 22.34375 16.59375 C18.23251683 16.86499388 14.12143728 16.90688817 10.00195312 16.94384766 C8.64989001 16.96040751 7.29791446 16.98769924 5.94628906 17.02587891 C3.98816461 17.08082871 2.0291272 17.099416 0.0703125 17.1171875 C-1.09935059 17.13700684 -2.26901367 17.15682617 -3.47412109 17.17724609 C-7.60762496 16.41929963 -9.07026796 14.83412437 -11.65625 11.59375 C-12.28125 8.59375 -12.28125 8.59375 -11.65625 5.59375 C-8.02251354 1.05742951 -5.77097589 -0.03536531 0 0 Z " fill="#FBC7BB" transform="translate(291.65625,335.40625)"/>
<path d="M0 0 C1 3 1 3 0.25 4.83203125 C-3.46251545 10.71404792 -7.46425098 15.23212549 -13.75 18.375 C-20.84915662 19.74022243 -27.72300203 20.1135246 -34.14453125 16.40625 C-38.86101142 12.8316545 -42.70514574 8.83938973 -44 3 C-42.21384277 2.970271 -42.21384277 2.970271 -40.39160156 2.93994141 C-35.97081468 2.86383005 -31.55035457 2.77512106 -27.12988281 2.68261719 C-25.21718805 2.64435032 -23.30442189 2.60949342 -21.39160156 2.578125 C-18.64101658 2.53242473 -15.89092217 2.47443855 -13.140625 2.4140625 C-12.28631897 2.40251129 -11.43201294 2.39096008 -10.55181885 2.37905884 C-9.75129089 2.35918915 -8.95076294 2.33931946 -8.12597656 2.31884766 C-7.42426331 2.30552399 -6.72255005 2.29220032 -5.99957275 2.2784729 C-3.68156921 1.95565335 -2.02866316 1.14126962 0 0 Z " fill="#41BCFB" transform="translate(414,461)"/>
</svg>
