<?xml version="1.0" encoding="UTF-8"?>
<svg version="1.1" xmlns="http://www.w3.org/2000/svg" width="512" height="512">
<path d="M0 0 C2.22147124 0.00854976 4.44040075 -0.02035435 6.66162109 -0.05200195 C8.07958908 -0.0536133 9.49756159 -0.0530377 10.91552734 -0.05004883 C12.83776123 -0.05282837 12.83776123 -0.05282837 14.79882812 -0.05566406 C18.09521484 0.44604492 18.09521484 0.44604492 20.54394531 2.28955078 C22.09521484 4.44604492 22.09521484 4.44604492 22.09521484 7.44604492 C27.70521484 7.44604492 33.31521484 7.44604492 39.09521484 7.44604492 C39.42521484 5.79604492 39.75521484 4.14604492 40.09521484 2.44604492 C43.62916754 0.09007646 45.11971947 0.18846182 49.30737305 0.17138672 C50.58912918 0.16185471 51.87088531 0.15232269 53.19148254 0.14250183 C54.59298734 0.14276332 55.99449215 0.14370064 57.39599609 0.14526367 C58.83465193 0.14137576 60.27330663 0.13704089 61.71195984 0.13227844 C64.72899086 0.12481507 67.74590488 0.12510753 70.76293945 0.13037109 C74.61982024 0.13615459 78.47621905 0.11926295 82.33302021 0.09602642 C85.30568724 0.08125414 88.27823928 0.0804223 91.25093651 0.08353615 C92.67223245 0.08302431 94.09353507 0.07781247 95.5147953 0.06772423 C97.50811694 0.05531593 99.50153599 0.06411464 101.49487305 0.07373047 C102.62721878 0.07310104 103.75956451 0.07247162 104.92622375 0.07182312 C110.04029147 0.67573635 114.01525587 2.78059866 117.34521484 6.69604492 C117.82474609 7.23745117 118.30427734 7.77885742 118.79833984 8.33666992 C121.96765329 13.49157734 122.33963603 18.99329154 122.29052734 24.91088867 C122.28769745 25.58906143 122.28486755 26.26723419 122.2819519 26.96595764 C122.27086901 29.10534258 122.24578844 31.24428923 122.22021484 33.38354492 C122.2101696 34.84512736 122.20104647 36.30671645 122.19287109 37.76831055 C122.17096909 41.32769471 122.13652351 44.88682695 122.09521484 48.44604492 C122.69664307 48.72150146 123.29807129 48.99695801 123.91772461 49.28076172 C127.16219386 51.0170384 129.49766888 53.64121283 132.03271484 56.25854492 C132.54511719 56.7799707 133.05751953 57.30139648 133.58544922 57.83862305 C134.60444043 58.87574117 135.62147516 59.91478547 136.63647461 60.95581055 C137.99539172 62.34406662 139.36897402 63.7179254 140.74365234 65.09057617 C167.80607676 92.19795478 180.1874209 128.87338915 180.2722168 166.7109375 C180.27878799 168.00159119 180.28535919 169.29224487 180.29212952 170.62200928 C180.3129508 174.8615194 180.32349897 179.10102907 180.33349609 183.34057617 C180.33754942 184.80716151 180.3416665 186.27374667 180.34584618 187.74033165 C180.36483559 194.62220498 180.37908939 201.50406789 180.38745815 208.38596231 C180.39726072 216.31313809 180.4236844 224.24003692 180.46395904 232.16711503 C180.49410289 238.31172 180.50892464 244.45624529 180.51223916 250.60092276 C180.51458802 254.26473761 180.52352977 257.92825434 180.54870033 261.59198952 C180.57628054 265.67088057 180.57215539 269.74914669 180.56518555 273.828125 C180.57799561 275.0380864 180.59080566 276.24804779 180.60400391 277.49467468 C180.5533726 285.59928227 180.5533726 285.59928227 178.31584167 289.73466492 C176.09521484 291.44604492 176.09521484 291.44604492 172.09521484 291.44604492 C172.42521484 296.72604492 172.75521484 302.00604492 173.09521484 307.44604492 C174.74521484 308.10604492 176.39521484 308.76604492 178.09521484 309.44604492 C180.17206484 312.35756398 180.35105127 314.87433857 180.36987305 318.39135742 C180.37940506 319.37338135 180.38893707 320.35540527 180.39875793 321.3671875 C180.39739082 322.95309692 180.39739082 322.95309692 180.39599609 324.57104492 C180.40028122 325.66892334 180.40456635 326.76680176 180.40898132 327.89794922 C180.41472556 330.22468375 180.41522421 332.55143624 180.41088867 334.87817383 C180.40775133 338.40502467 180.43110852 341.93101792 180.45654297 345.45776367 C180.45881848 347.72468971 180.45951829 349.99161798 180.45849609 352.25854492 C180.46770584 353.29962402 180.47691559 354.34070313 180.48640442 355.41333008 C180.4049165 368.59052669 176.99784874 381.88170705 167.88427734 391.78979492 C158.51944072 400.45942534 148.13805586 405.59644242 135.39915466 405.59321594 C134.61945613 405.59689263 133.83975761 405.60056932 133.03643185 405.60435742 C130.4211725 405.61537905 127.80595291 405.61923555 125.19067383 405.62304688 C123.31632868 405.62931278 121.44198477 405.63595969 119.56764221 405.64295959 C113.40887312 405.66399097 107.25010381 405.67436256 101.09130859 405.68432617 C98.9692337 405.68837437 96.84715893 405.69249131 94.7250843 405.69667625 C84.75275551 405.71572755 74.78043412 405.72995753 64.80809063 405.73828822 C53.3078807 405.74805446 41.80786357 405.7743583 30.30772156 405.81478912 C21.41242418 405.84498551 12.51718196 405.85976053 3.62183434 405.86306924 C-1.6876636 405.8654161 -6.99695557 405.874329 -12.30639839 405.89953041 C-17.30593132 405.92287711 -22.30512364 405.92701783 -27.30469704 405.91676903 C-29.13356919 405.91627513 -30.96245848 405.92255231 -32.79127884 405.93632507 C-46.17667793 406.03143953 -56.77480451 404.51468761 -67.90478516 396.44604492 C-68.49904297 396.02838867 -69.09330078 395.61073242 -69.70556641 395.18041992 C-78.68000498 388.25557596 -83.95656115 377.46215426 -85.90478516 366.44604492 C-86.60865441 359.5084316 -86.44270494 352.51525192 -86.40649414 345.55126953 C-86.41028372 343.46359901 -86.41578899 341.37593101 -86.42286682 339.28826904 C-86.43676135 333.64933794 -86.42569107 328.01071406 -86.40915561 322.37180018 C-86.3952296 316.44346721 -86.40177424 310.51515072 -86.4052887 304.58680725 C-86.40798635 294.62650654 -86.39455856 284.66632663 -86.37133789 274.70605469 C-86.34478228 263.23688085 -86.34296652 251.76790954 -86.35472625 240.29871553 C-86.3655603 229.21795784 -86.35926975 218.13727246 -86.34517097 207.05652046 C-86.3394546 202.36446966 -86.3394594 197.67247255 -86.34423637 192.98042107 C-86.34905953 187.43575945 -86.33868686 181.89131532 -86.31728172 176.34669495 C-86.31178366 174.32810766 -86.31118298 172.30949917 -86.31623459 170.29091072 C-86.4125492 126.23068101 -71.57813404 90.10165534 -40.90478516 58.44604492 C-38.86580897 56.55003535 -36.80134405 54.72310457 -34.65869141 52.94604492 C-34.07990234 52.45104492 -33.50111328 51.95604492 -32.90478516 51.44604492 C-31.87611328 50.62281738 -31.87611328 50.62281738 -30.82666016 49.78295898 C-28.22631952 46.62106104 -28.40701013 44.61482144 -28.40087891 40.55541992 C-28.39145767 39.89197571 -28.38203644 39.22853149 -28.37232971 38.54498291 C-28.34373545 36.42835553 -28.34059711 34.3128494 -28.34228516 32.19604492 C-28.30843517 12.58561926 -28.30843517 12.58561926 -22.59228516 5.63354492 C-15.47787044 -0.15725776 -8.75696189 -0.05155732 0 0 Z " fill="#C7A39C" transform="translate(111.90478515625,106.553955078125)"/>
<path d="M0 0 C9.36643707 6.68552485 16.68644048 16.51626273 19.0234375 27.94921875 C20.53182628 40.28131618 18.4937603 49.85173407 14.3125 61.3125 C13.35732467 64.178026 13.16195802 66.07771321 13.10717773 69.05932617 C13.08723251 70.02009567 13.06728729 70.98086517 13.04673767 71.9707489 C13.03002518 73.00520645 13.01331268 74.039664 12.99609375 75.10546875 C12.9649221 76.69721672 12.9649221 76.69721672 12.93312073 78.32112122 C12.86768762 81.71401437 12.80876907 85.1069855 12.75 88.5 C12.70680886 90.79883622 12.66319438 93.09766453 12.61914062 95.39648438 C12.5120126 101.0350736 12.41023449 106.67374056 12.3125 112.3125 C12.97781738 112.29678955 13.64313477 112.2810791 14.32861328 112.26489258 C17.3648212 112.20224403 20.40089272 112.16341491 23.4375 112.125 C24.48421875 112.09986328 25.5309375 112.07472656 26.609375 112.04882812 C33.08403697 111.98735982 37.94793854 112.24363634 42.95703125 116.8125 C48.15977496 123.49428457 47.56047836 129.31435459 47.625 137.5 C47.65400391 138.70720703 47.68300781 139.91441406 47.71289062 141.15820312 C47.76415545 148.37077008 47.32286825 153.23924448 43.3125 159.3125 C37.86262928 163.6501522 33.97719258 164.43786415 27.125 164.375 C25.85269531 164.36597656 24.58039063 164.35695312 23.26953125 164.34765625 C21.80580078 164.33025391 21.80580078 164.33025391 20.3125 164.3125 C20.33344727 165.32151367 20.35439453 166.33052734 20.37597656 167.37011719 C20.44846785 171.11964687 20.4943322 174.86911482 20.53222656 178.61914062 C20.55232144 180.24099143 20.57960254 181.86276997 20.61425781 183.484375 C20.6628727 185.8178898 20.68548889 188.15044557 20.703125 190.484375 C20.72377014 191.20743835 20.74441528 191.93050171 20.76568604 192.67547607 C20.76721883 196.12743678 20.55060567 197.9898358 18.47558594 200.80175781 C16.3125 202.3125 16.3125 202.3125 13.3125 202.3125 C13.3125 207.5925 13.3125 212.8725 13.3125 218.3125 C14.9625 218.9725 16.6125 219.6325 18.3125 220.3125 C20.38173271 223.41634906 20.56369334 224.08095827 20.57319641 227.59649658 C20.58028122 228.47084351 20.58736603 229.34519043 20.59466553 230.24603271 C20.59218811 231.2028595 20.58971069 232.15968628 20.5871582 233.14550781 C20.59226913 234.15572998 20.59738007 235.16595215 20.60264587 236.20678711 C20.61658683 239.55979281 20.61558006 242.91259368 20.61328125 246.265625 C20.61716904 248.60194983 20.62150388 250.93827396 20.62626648 253.27459717 C20.63374078 258.18406456 20.63343108 263.09346008 20.62817383 268.00292969 C20.62241315 274.26004079 20.63922163 280.51685261 20.6625185 286.77391434 C20.67734536 291.60758148 20.67811482 296.44117833 20.67500877 301.2748642 C20.67551868 303.57907447 20.68069352 305.88328903 20.69082069 308.18747711 C20.77891541 331.0595138 18.24094327 352.32784103 4.3125 371.3125 C3.62748917 371.96824509 2.94247833 372.62399017 2.23670959 373.29960632 C-0.59845093 377.73885101 -0.23621713 381.68563204 -0.18579102 386.85083008 C-0.19130981 387.91160263 -0.19682861 388.97237518 -0.20251465 390.06529236 C-0.21183294 392.36623599 -0.21194127 394.66723119 -0.20392036 396.9681797 C-0.1912991 400.61297484 -0.20257386 404.25701167 -0.21995544 407.90177917 C-0.24668115 414.32834321 -0.25225039 420.75472185 -0.25085449 427.18133545 C-0.24862801 437.45704823 -0.26278889 447.73253091 -0.30644035 458.00815392 C-0.31626577 461.59327181 -0.30756647 465.17802745 -0.29774475 468.76313782 C-0.30389115 470.97075638 -0.31080361 473.17837299 -0.31860352 475.38598633 C-0.31088425 476.37795013 -0.30316498 477.36991394 -0.29521179 478.39193726 C-0.35117491 486.0882838 -1.61206786 493.03152299 -7.0703125 498.92578125 C-13.8261219 504.71880622 -20.64897946 506.09317692 -29.41796875 505.72265625 C-37.16110764 504.75129474 -41.26718389 501.22975349 -46.2421875 495.41015625 C-50.17162979 489.70715487 -49.94383723 484.46284523 -49.86352539 477.76171875 C-49.85911438 476.69922409 -49.85470337 475.63672943 -49.85015869 474.54203796 C-49.84031893 472.23615585 -49.82646374 469.93028818 -49.80906868 467.62445068 C-49.77664169 462.70943219 -49.77909954 457.794624 -49.77935696 452.8795166 C-49.77921344 443.73370134 -49.76423892 434.58842019 -49.69116211 425.44287109 C-49.64162926 419.07601385 -49.63628448 412.71040547 -49.65929985 406.34341431 C-49.65986616 403.92586185 -49.64432216 401.50824649 -49.61186409 399.09091187 C-49.42622367 384.67411604 -49.66524038 375.18818006 -59.6875 364.3125 C-69.13158088 349.38746183 -71.30998872 332.20118051 -71.14160156 314.96069336 C-71.14046945 313.30303475 -71.14111402 311.64537414 -71.14337158 309.98771667 C-71.14450549 305.54653421 -71.12121434 301.10579598 -71.09307575 296.66471553 C-71.06783787 292.0016442 -71.06570265 287.33855939 -71.06097412 282.6754303 C-71.04860943 273.87149021 -71.01587722 265.06775206 -70.97557616 256.26390034 C-70.93065423 246.22986834 -70.90882038 236.195826 -70.88879442 226.16171825 C-70.84713778 205.54520006 -70.77691421 184.92886282 -70.6875 164.3125 C-71.64446777 164.33207764 -72.60143555 164.35165527 -73.58740234 164.37182617 C-74.84504395 164.38705322 -76.10268555 164.40228027 -77.3984375 164.41796875 C-78.64415527 164.43754639 -79.88987305 164.45712402 -81.17333984 164.47729492 C-87.32325932 164.18889728 -91.00158903 162.12809643 -95.125 157.6875 C-98.62860573 152.36201929 -97.94730128 146.85760403 -97.98266602 140.67382812 C-97.99982382 138.58395952 -98.04370219 136.49569666 -98.08789062 134.40625 C-98.09802311 133.06771993 -98.10653748 131.72917644 -98.11328125 130.390625 C-98.12786377 129.17793945 -98.14244629 127.96525391 -98.1574707 126.71582031 C-97.4348393 121.48284278 -94.95758598 118.43138527 -91.0625 115 C-87.46996372 112.44740843 -85.62033444 112.19180087 -81.2421875 112.21484375 C-79.62763672 112.21967773 -79.62763672 112.21967773 -77.98046875 112.22460938 C-76.85253906 112.23298828 -75.72460938 112.24136719 -74.5625 112.25 C-73.42683594 112.25451172 -72.29117187 112.25902344 -71.12109375 112.26367188 C-68.30984362 112.27548385 -65.4986977 112.29195493 -62.6875 112.3125 C-62.67827417 105.94796243 -62.71660146 99.58487282 -62.78515625 93.22070312 C-62.80311651 91.0641894 -62.81092179 88.90756255 -62.80761719 86.75097656 C-62.79566871 73.90636115 -63.75603708 63.11212332 -68.33837891 51.07910156 C-70.06625115 46.5011 -70.55420646 42.25217284 -70.3125 37.375 C-70.2913916 36.58561035 -70.2702832 35.7962207 -70.24853516 34.98291016 C-69.77836108 24.62418813 -66.0298889 16.42952327 -59.6875 8.3125 C-59.20925781 7.69632813 -58.73101562 7.08015625 -58.23828125 6.4453125 C-43.69590706 -10.03848696 -17.80897137 -10.81797076 0 0 Z " fill="#010101" transform="translate(438.6875,6.6875)"/>
<path d="M0 0 C2.22147124 0.00854976 4.44040075 -0.02035435 6.66162109 -0.05200195 C8.07958908 -0.0536133 9.49756159 -0.0530377 10.91552734 -0.05004883 C12.83776123 -0.05282837 12.83776123 -0.05282837 14.79882812 -0.05566406 C18.09521484 0.44604492 18.09521484 0.44604492 20.51269531 2.29345703 C22.09521484 4.44604492 22.09521484 4.44604492 22.59521484 7.38354492 C21.96757207 11.22785689 20.85303814 12.71516735 18.09521484 15.44604492 C15.08666992 16.08959961 15.08666992 16.08959961 11.61474609 16.11791992 C10.36886719 16.14241211 9.12298828 16.1669043 7.83935547 16.19213867 C6.54191406 16.19342773 5.24447266 16.1947168 3.90771484 16.19604492 C1.33084516 16.22903291 -1.24598533 16.26530417 -3.82275391 16.30541992 C-5.53628052 16.3126709 -5.53628052 16.3126709 -7.28442383 16.32006836 C-9.83104628 16.14819426 -9.83104628 16.14819426 -10.90478516 17.44604492 C-11.02782767 19.97927325 -11.09087259 22.48946366 -11.11572266 25.02416992 C-11.1438037 26.59319055 -11.17246824 28.16220082 -11.20166016 29.73120117 C-11.24284874 32.2108518 -11.27972406 34.69031173 -11.30615234 37.17016602 C-11.33383989 39.55941067 -11.37972485 41.94776898 -11.42822266 44.33666992 C-11.43147552 45.07330872 -11.43472839 45.80994751 -11.43807983 46.56890869 C-11.56590297 51.94773752 -12.75577619 55.09721203 -16.359375 59.03588867 C-16.85646973 59.48061523 -17.35356445 59.9253418 -17.86572266 60.38354492 C-18.42001953 60.8862793 -18.97431641 61.38901367 -19.54541016 61.90698242 C-20.11775391 62.41487305 -20.69009766 62.92276367 -21.27978516 63.44604492 C-22.4135027 64.46587303 -23.54632721 65.48669486 -24.67822266 66.50854492 C-25.49564941 67.24137695 -25.49564941 67.24137695 -26.32958984 67.98901367 C-27.84064153 69.38671307 -29.2688228 70.83642622 -30.69384766 72.32104492 C-32.90478516 74.44604492 -32.90478516 74.44604492 -34.90478516 74.44604492 C-35.2934375 75.32389648 -35.2934375 75.32389648 -35.68994141 76.21948242 C-36.99401563 78.60958631 -38.4302283 80.13911221 -40.34228516 82.07104492 C-57.83171713 101.43661597 -69.04311708 129.56677533 -69.0586853 155.61054993 C-69.06306756 156.51194031 -69.06744981 157.4133307 -69.07196486 158.34203595 C-69.08527928 161.35107306 -69.09151499 164.36008095 -69.09765625 167.36914062 C-69.10556277 169.53126149 -69.11383206 171.69338106 -69.12243652 173.85549927 C-69.14858418 180.94426221 -69.16395288 188.03303085 -69.17822266 195.12182617 C-69.18358456 197.56555879 -69.18896207 200.00929137 -69.19435501 202.45302391 C-69.21596946 212.61778026 -69.23470658 222.78253505 -69.2459774 232.94730854 C-69.26222288 247.50060028 -69.29543203 262.05362536 -69.35237825 276.60681659 C-69.39108725 286.8490675 -69.41061102 297.09124709 -69.41589797 307.33356923 C-69.41954887 313.44730164 -69.43154401 319.56074915 -69.4640007 325.67440224 C-69.49409931 331.42583411 -69.50038646 337.17680891 -69.48861694 342.92830276 C-69.48839639 345.03496315 -69.49668613 347.14164488 -69.51427078 349.24823189 C-69.60982584 361.3576424 -69.67738702 370.61006903 -61.52978516 380.25854492 C-54.07017577 386.47488608 -48.27439504 389.75510816 -38.24069214 389.72019958 C-37.48857519 389.72543626 -36.73645825 389.73067294 -35.96154988 389.73606831 C-33.45152569 389.75102117 -30.94170622 389.75177242 -28.43164062 389.75244141 C-26.62758543 389.76006623 -24.82353348 389.76849429 -23.01948547 389.77766418 C-18.12455675 389.79958816 -13.2296905 389.80840563 -8.33471823 389.81349063 C-5.27284222 389.81713764 -2.21098249 389.82337959 0.8508873 389.83049202 C11.54366522 389.85498226 22.23639469 389.86803684 32.92919922 389.87158203 C42.87782425 389.87521373 52.82614011 389.90508401 62.77467072 389.94698662 C71.32948389 389.98174862 79.88419493 389.99713152 88.43907821 389.99782807 C93.54238153 389.99861907 98.64537 390.00727575 103.74860001 390.03582573 C108.5537167 390.06210669 113.35825981 390.06415585 118.16341591 390.04817009 C119.91930587 390.04636337 121.67522957 390.05297553 123.43104744 390.0689888 C135.25385845 390.17017175 145.83085885 389.4625704 155.09521484 381.13354492 C160.13874059 375.51185891 163.2173804 368.88634065 163.22119141 361.31958008 C163.22690155 359.75247787 163.22690155 359.75247787 163.23272705 358.15371704 C163.23426788 356.46150528 163.23426788 356.46150528 163.23583984 354.73510742 C163.25416399 352.35228533 163.27373394 349.96947256 163.29443359 347.58666992 C163.32343668 343.82511655 163.34521574 340.06416281 163.34570312 336.30249023 C163.34903255 332.67531966 163.38355151 329.04953746 163.42333984 325.42260742 C163.41627014 324.29851471 163.40920044 323.174422 163.4019165 322.01626587 C163.53767203 313.32416447 163.53767203 313.32416447 166.51220703 310.25610352 C170.40214833 307.53020325 170.40214833 307.53020325 173.09521484 307.44604492 C175.97634556 308.20062678 177.59832494 308.66730996 179.22648621 311.21899414 C180.21792102 313.76061137 180.35529161 315.66668414 180.36987305 318.39135742 C180.37940506 319.37338135 180.38893707 320.35540527 180.39875793 321.3671875 C180.39739082 322.95309692 180.39739082 322.95309692 180.39599609 324.57104492 C180.40028122 325.66892334 180.40456635 326.76680176 180.40898132 327.89794922 C180.41472556 330.22468375 180.41522421 332.55143624 180.41088867 334.87817383 C180.40775133 338.40502467 180.43110852 341.93101792 180.45654297 345.45776367 C180.45881848 347.72468971 180.45951829 349.99161798 180.45849609 352.25854492 C180.46770584 353.29962402 180.47691559 354.34070313 180.48640442 355.41333008 C180.4049165 368.59052669 176.99784874 381.88170705 167.88427734 391.78979492 C158.51944072 400.45942534 148.13805586 405.59644242 135.39915466 405.59321594 C134.61945613 405.59689263 133.83975761 405.60056932 133.03643185 405.60435742 C130.4211725 405.61537905 127.80595291 405.61923555 125.19067383 405.62304688 C123.31632868 405.62931278 121.44198477 405.63595969 119.56764221 405.64295959 C113.40887312 405.66399097 107.25010381 405.67436256 101.09130859 405.68432617 C98.9692337 405.68837437 96.84715893 405.69249131 94.7250843 405.69667625 C84.75275551 405.71572755 74.78043412 405.72995753 64.80809063 405.73828822 C53.3078807 405.74805446 41.80786357 405.7743583 30.30772156 405.81478912 C21.41242418 405.84498551 12.51718196 405.85976053 3.62183434 405.86306924 C-1.6876636 405.8654161 -6.99695557 405.874329 -12.30639839 405.89953041 C-17.30593132 405.92287711 -22.30512364 405.92701783 -27.30469704 405.91676903 C-29.13356919 405.91627513 -30.96245848 405.92255231 -32.79127884 405.93632507 C-46.17667793 406.03143953 -56.77480451 404.51468761 -67.90478516 396.44604492 C-68.49904297 396.02838867 -69.09330078 395.61073242 -69.70556641 395.18041992 C-78.68000498 388.25557596 -83.95656115 377.46215426 -85.90478516 366.44604492 C-86.60865441 359.5084316 -86.44270494 352.51525192 -86.40649414 345.55126953 C-86.41028372 343.46359901 -86.41578899 341.37593101 -86.42286682 339.28826904 C-86.43676135 333.64933794 -86.42569107 328.01071406 -86.40915561 322.37180018 C-86.3952296 316.44346721 -86.40177424 310.51515072 -86.4052887 304.58680725 C-86.40798635 294.62650654 -86.39455856 284.66632663 -86.37133789 274.70605469 C-86.34478228 263.23688085 -86.34296652 251.76790954 -86.35472625 240.29871553 C-86.3655603 229.21795784 -86.35926975 218.13727246 -86.34517097 207.05652046 C-86.3394546 202.36446966 -86.3394594 197.67247255 -86.34423637 192.98042107 C-86.34905953 187.43575945 -86.33868686 181.89131532 -86.31728172 176.34669495 C-86.31178366 174.32810766 -86.31118298 172.30949917 -86.31623459 170.29091072 C-86.4125492 126.23068101 -71.57813404 90.10165534 -40.90478516 58.44604492 C-38.86580897 56.55003535 -36.80134405 54.72310457 -34.65869141 52.94604492 C-34.07990234 52.45104492 -33.50111328 51.95604492 -32.90478516 51.44604492 C-31.87611328 50.62281738 -31.87611328 50.62281738 -30.82666016 49.78295898 C-28.22631952 46.62106104 -28.40701013 44.61482144 -28.40087891 40.55541992 C-28.39145767 39.89197571 -28.38203644 39.22853149 -28.37232971 38.54498291 C-28.34373545 36.42835553 -28.34059711 34.3128494 -28.34228516 32.19604492 C-28.30843517 12.58561926 -28.30843517 12.58561926 -22.59228516 5.63354492 C-15.47787044 -0.15725776 -8.75696189 -0.05155732 0 0 Z " fill="#020101" transform="translate(111.90478515625,106.553955078125)"/>
<path d="M0 0 C1.07878418 0.01047363 2.15756836 0.02094727 3.26904297 0.03173828 C5.01894531 0.04140625 5.01894531 0.04140625 6.80419922 0.05126953 C8.02751953 0.06802734 9.25083984 0.08478516 10.51123047 0.10205078 C11.74228516 0.11107422 12.97333984 0.12009766 14.24169922 0.12939453 C17.29006862 0.1530253 20.33805429 0.18597024 23.38623047 0.22705078 C23.38623047 0.55705078 23.38623047 0.88705078 23.38623047 1.22705078 C21.73623047 1.22705078 20.08623047 1.22705078 18.38623047 1.22705078 C18.41765137 2.70129517 18.41765137 2.70129517 18.44970703 4.20532227 C18.5227036 7.8897414 18.56824405 11.57409809 18.60595703 15.2590332 C18.62593792 16.84670805 18.6531325 18.43431058 18.68798828 20.02172852 C18.95446107 32.4793314 18.02416876 40.87863078 9.29101562 50.28857422 C6.75904541 52.86532934 4.1931641 55.40136966 1.58984375 57.90600586 C-14.22999202 73.17603625 -25.37215198 90.87583697 -32.55126953 111.72705078 C-32.82156982 112.4954126 -33.09187012 113.26377441 -33.37036133 114.05541992 C-38.46457672 129.85442621 -39.05710037 146.23745121 -39.00195312 162.6862793 C-39.00603016 164.76150283 -39.01137832 166.83672419 -39.0178833 168.91194153 C-39.0314205 174.48574562 -39.02631722 180.05938094 -39.01674604 185.63318753 C-39.00908741 191.49276218 -39.01621128 197.35232352 -39.02090454 203.2118988 C-39.02634029 213.03704393 -39.01922397 222.86212108 -39.00488281 232.68725586 C-38.98851955 244.02837179 -38.99388027 255.3693262 -39.01036203 266.71043831 C-39.02399041 276.48161146 -39.02589116 286.25273612 -39.01804602 296.02391571 C-39.01338222 301.84562227 -39.01270986 307.66725293 -39.02265549 313.48895454 C-39.03134403 318.95486058 -39.02526873 324.42055854 -39.00797272 329.88644218 C-39.00401973 331.88666311 -39.00512146 333.88690167 -39.01176071 335.88711548 C-39.04913972 348.29528762 -39.03239982 358.84463261 -31.79736328 369.43798828 C-30.56312845 371.30359737 -29.57760704 373.21054281 -28.61376953 375.22705078 C-35.9635557 375.77943555 -41.19312151 374.86861235 -47.61376953 371.22705078 C-48.24283203 370.87642578 -48.87189453 370.52580078 -49.52001953 370.16455078 C-55.94579643 366.10616537 -60.30595398 359.39958871 -62.61376953 352.22705078 C-62.9045662 349.26083162 -62.88793457 346.30851699 -62.87446594 343.32997131 C-62.87829149 342.43311204 -62.88211704 341.53625276 -62.88605851 340.61221594 C-62.8963789 337.60624518 -62.89239805 334.60046578 -62.88842773 331.59448242 C-62.89277497 329.43914615 -62.89795815 327.28381143 -62.90391541 325.128479 C-62.91732139 319.2705665 -62.91788185 313.41271846 -62.91535211 307.5547936 C-62.9142826 302.65976042 -62.91916571 297.76474029 -62.92395753 292.86970991 C-62.93506013 281.31229995 -62.93548712 269.75492248 -62.92944336 258.19750977 C-62.92341411 246.29441756 -62.9356862 234.39144389 -62.95701343 222.48837191 C-62.97466638 212.25798067 -62.98062461 202.02762702 -62.97737569 191.79722112 C-62.97556718 185.69236275 -62.97815498 179.58758875 -62.99209023 173.48274422 C-63.00472254 167.73303761 -63.00267346 161.98351441 -62.98967934 156.23381042 C-62.98732503 154.13207371 -62.99000678 152.03032388 -62.99830246 149.92860222 C-63.03986361 138.57310041 -62.61913963 128.24292413 -59.61376953 117.22705078 C-59.32404927 116.04995576 -59.03432901 114.87286074 -58.73582935 113.66009617 C-53.06798003 90.93754778 -39.97063521 72.5343502 -23.61376953 56.22705078 C-22.72818359 55.32986328 -21.84259766 54.43267578 -20.93017578 53.50830078 C-12.59831169 45.09370896 -12.59831169 45.09370896 -8.98876953 42.22705078 C-6.37427041 40.37849486 -6.37427041 40.37849486 -5.61376953 37.22705078 C-5.4839904 34.59404936 -5.40464494 31.98251355 -5.36767578 29.34814453 C-5.33475584 27.77196672 -5.3015439 26.19579498 -5.26806641 24.61962891 C-5.22053384 22.13537524 -5.17605864 19.65114942 -5.13696289 17.16674805 C-5.09736178 14.76862825 -5.04581096 12.37099718 -4.99267578 9.97314453 C-4.98426163 9.22729599 -4.97584747 8.48144745 -4.96717834 7.71299744 C-4.79141574 0.41621676 -4.79141574 0.41621676 0 0 Z " fill="#BB9087" transform="translate(104.61376953125,121.77294921875)"/>
<path d="M0 0 C20.13 0 40.26 0 61 0 C61.25 17.3125 61.25 17.3125 61.29785156 22.7668457 C61.32721859 24.1948571 61.35804391 25.62283957 61.390625 27.05078125 C61.39231689 28.16132874 61.39231689 28.16132874 61.39404297 29.29431152 C61.49868547 33.54438458 61.49868547 33.54438458 63.85058594 36.93432617 C66.09286591 38.10767011 66.09286591 38.10767011 69 39 C69 44.28 69 49.56 69 55 C67.02 55.99 65.04 56.98 63 58 C61.53349044 60.93301912 61.83461526 63.56154861 61.79467773 66.83642578 C61.78477814 67.53897491 61.77487854 68.24152405 61.76467896 68.96536255 C61.7330432 71.29197803 61.70829841 73.61861394 61.68359375 75.9453125 C61.66302601 77.55671729 61.64202958 79.16811666 61.62062073 80.7795105 C61.56538146 85.02422706 61.51598039 89.26899247 61.46777344 93.51379395 C61.4087482 98.60495862 61.34251004 103.69603389 61.27747345 108.78712463 C61.17944058 116.52469523 61.09060061 124.26232272 61 132 C40.87 132 20.74 132 0 132 C0 88.44 0 44.88 0 0 Z " fill="#F6F5F6" transform="translate(383,170)"/>
<path d="M0 0 C2.14267343 0.02679864 4.28009269 0.00013343 6.42260742 -0.03173828 C19.09316157 -0.06328247 30.12134819 3.10523866 39.7097168 11.65185547 C40.30139648 12.12880859 40.89307617 12.60576172 41.50268555 13.09716797 C48.02760142 18.82987551 51.99121238 27.49634223 54.7097168 35.65185547 C55.43752468 47.49961337 55.55295792 57.71347206 47.9597168 67.46435547 C41.69307379 74.17409444 34.13938442 77.65646574 24.98657227 77.97412109 C22.68352956 78.01427833 20.38023714 78.0414887 18.0769043 78.05810547 C16.8486795 78.06950562 15.62045471 78.08090576 14.35501099 78.09265137 C11.75778632 78.11151706 9.16051414 78.1246057 6.56323242 78.13232422 C2.61900687 78.15168713 -1.3231111 78.21373994 -5.2668457 78.27685547 C-7.79808341 78.2899222 -10.32933594 78.30042052 -12.8605957 78.30810547 C-14.02664337 78.33279907 -15.19269104 78.35749268 -16.39407349 78.38293457 C-25.64090153 78.3334201 -33.53507629 75.92225004 -40.52835083 69.64196777 C-48.010895 61.72124084 -50.62443432 53.29040949 -50.5090332 42.55810547 C-49.6042526 30.5374489 -43.09485526 18.53657203 -34.03637695 10.70263672 C-23.39435653 2.82788325 -13.07741868 -0.19396057 0 0 Z " fill="#040303" transform="translate(156.290283203125,321.34814453125)"/>
<path d="M0 0 C1.9225209 -0.01407143 1.9225209 -0.01407143 3.88388062 -0.02842712 C5.28017849 -0.01794655 6.67646993 -0.00657723 8.07275391 0.00561523 C9.50997999 0.00546018 10.9472065 0.00397019 12.38442993 0.00120544 C15.395635 -0.00017827 18.40636363 0.01237091 21.41748047 0.03515625 C25.26654368 0.06349029 29.11481242 0.0608174 32.96393394 0.04806614 C35.93234978 0.04109003 38.90058396 0.04892098 41.86897659 0.06132317 C43.28746467 0.06582257 44.70597236 0.06618773 46.12446213 0.06225777 C48.11295552 0.05932824 50.10144462 0.07807434 52.08984375 0.09765625 C53.21917328 0.10305923 54.34850281 0.10846222 55.51205444 0.11402893 C60.61804142 0.74000152 64.59670027 2.83901749 67.92431641 6.75170898 C68.40384766 7.29311523 68.88337891 7.83452148 69.37744141 8.39233398 C72.54675485 13.5472414 72.9187376 19.0489556 72.86962891 24.96655273 C72.86679901 25.64472549 72.86396912 26.32289825 72.86105347 27.0216217 C72.84997057 29.16100664 72.82489001 31.29995329 72.79931641 33.43920898 C72.78927117 34.90079143 72.78014803 36.36238051 72.77197266 37.82397461 C72.75007066 41.38335878 72.71562507 44.94249101 72.67431641 48.50170898 C73.27574463 48.77716553 73.87717285 49.05262207 74.49682617 49.33642578 C77.74129542 51.07270246 80.07677045 53.69687689 82.61181641 56.31420898 C83.12421875 56.83563477 83.63662109 57.35706055 84.16455078 57.89428711 C85.183542 58.93140523 86.20057672 59.97044953 87.21557617 61.01147461 C88.57449328 62.39973068 89.94807558 63.77358946 91.32275391 65.14624023 C118.38517832 92.25361884 130.76652246 128.92905321 130.85131836 166.76660156 C130.85788956 168.05725525 130.86446075 169.34790894 130.87123108 170.67767334 C130.89205236 174.91718346 130.90260054 179.15669313 130.91259766 183.39624023 C130.91665098 184.86282557 130.92076807 186.32941073 130.92494774 187.79599571 C130.94393715 194.67786904 130.95819095 201.55973196 130.96655971 208.44162637 C130.97636228 216.36880216 131.00278597 224.29570099 131.0430606 232.2227791 C131.07320445 238.36738406 131.0880262 244.51190935 131.09134072 250.65658683 C131.09368958 254.32040167 131.10263133 257.98391841 131.1278019 261.64765358 C131.1553821 265.72654464 131.15125696 269.80481075 131.14428711 273.88378906 C131.15709717 275.09375046 131.16990723 276.30371185 131.18310547 277.55033875 C131.13232562 285.67872362 131.13232562 285.67872362 128.86369324 289.75517273 C126.67431641 291.50170898 126.67431641 291.50170898 123.17431641 292.06420898 C119.20885968 291.42690344 118.07368244 290.63934148 115.67431641 287.50170898 C114.37487278 284.90282173 114.54667565 283.01674398 114.54301453 280.10534668 C114.53900635 278.95904282 114.53499817 277.81273895 114.53086853 276.63169861 C114.53139725 275.36741531 114.53192596 274.10313202 114.5324707 272.80053711 C114.5294394 271.46000555 114.52591802 270.11947502 114.52194214 268.77894592 C114.51404281 265.88535955 114.50890398 262.99178556 114.50565147 260.09819031 C114.49973248 255.50597385 114.48317771 250.91383459 114.46430969 246.32165527 C114.45797135 244.74697118 114.45164574 243.17228704 114.44533253 241.59760284 C114.44216672 240.808639 114.4390009 240.01967516 114.43573916 239.20680332 C114.39377215 228.51687085 114.36076931 217.82697209 114.34838867 207.13696289 C114.33995351 199.92772793 114.31725377 192.71868225 114.27903301 185.50954199 C114.25943466 181.70160281 114.24681243 177.89394551 114.25186729 174.08595276 C114.29399814 134.86461989 104.69727323 102.27605482 76.67431641 73.50170898 C76.20171387 73.01395996 75.72911133 72.52621094 75.2421875 72.02368164 C70.08169717 66.7188173 64.82078265 61.58722877 59.13525391 56.84155273 C56.66875869 54.57949964 56.66972465 53.41649517 56.48486328 49.98583984 C56.44975979 48.47950904 56.41948967 46.9730608 56.39306641 45.46655273 C56.37465698 44.67269669 56.35624756 43.87884064 56.33728027 43.06092834 C56.25845762 39.65680647 56.19071525 36.25248446 56.12207031 32.84814453 C56.07046678 30.36667721 56.01317766 27.88538664 55.95556641 25.40405273 C55.94199097 24.62803207 55.92841553 23.85201141 55.91442871 23.05247498 C56.15603232 19.4792381 56.15603232 19.4792381 54.67431641 16.50170898 C52.79314213 16.40443624 50.90834554 16.37654844 49.0246582 16.37573242 C47.81637863 16.37192566 46.60809906 16.3681189 45.36320496 16.36419678 C44.04661392 16.36316956 42.73002289 16.36214233 41.37353516 16.36108398 C39.32162976 16.34916541 37.26976683 16.33379079 35.21788502 16.31837845 C30.13961028 16.28031496 25.0615878 16.24909263 19.9831543 16.2512207 C16.45439887 16.25200784 12.9265167 16.22864258 9.39798927 16.18933868 C7.39947496 16.17378585 5.40081321 16.184226 3.40226746 16.19500732 C2.1845314 16.17859192 0.96679535 16.16217651 -0.2878418 16.14526367 C-1.35960159 16.14161804 -2.43136139 16.13797241 -3.53559875 16.13421631 C-6.32568359 15.50170898 -6.32568359 15.50170898 -8.67179871 13.15289307 C-10.69447546 9.91053414 -10.96502894 8.25786292 -10.32568359 4.50170898 C-7.23383988 0.43397777 -5.00291563 0.00073716 0 0 Z " fill="#020101" transform="translate(161.32568359375,106.498291015625)"/>
<path d="M0 0 C20.13 0 40.26 0 61 0 C61 14.99759276 60.4275524 26.4281806 54.375 39.6875 C54.08109375 40.33968506 53.7871875 40.99187012 53.484375 41.66381836 C51.89325215 44.93055204 50.43615943 47.57048882 47.81970215 50.14706421 C38.12580171 60.25457335 39.81736453 72.49170606 40.0078125 85.71484375 C40.0097793 88.21920303 40.00733813 90.72356928 40.0007019 93.22792053 C39.99387597 99.12235137 40.02457112 105.01556048 40.07607162 110.90975243 C40.17238312 122.10508396 40.18239523 133.30060842 40.18636703 144.49630928 C40.19520156 148.16872877 40.22662854 151.84042629 40.26150513 155.51268005 C40.27133832 157.75836992 40.28071193 160.00406186 40.28955078 162.24975586 C40.31291252 163.77946266 40.31291252 163.77946266 40.33674622 165.34007263 C40.34105857 173.99927556 40.34105857 173.99927556 37 178 C33.79062591 180.32402951 30.88493979 180.47570691 27 180 C23.66238955 177.84909549 22.26529067 176.79587201 21 173 C20.92192356 171.50008491 20.90113767 169.99682355 20.915802 168.49494934 C20.92496391 167.10986931 20.92496391 167.10986931 20.93431091 165.69680786 C20.94583694 164.68544769 20.95736298 163.67408752 20.96923828 162.63208008 C20.98534764 160.41950254 21.00104454 158.20692197 21.01638794 155.99433899 C21.0306954 154.22994697 21.0306954 154.22994697 21.0452919 152.42991066 C21.09691352 144.87794514 21.09107824 137.32575434 21.09665108 129.77364063 C21.10484432 123.1465198 21.13239718 116.52057815 21.20214844 109.89379883 C21.26856049 103.47720216 21.2805275 97.06247779 21.25689316 90.64560509 C21.25749997 88.21096203 21.27736078 85.77623805 21.31766129 83.34192848 C21.55591255 68.16551015 20.42964363 58.1568319 10.24920273 46.52536583 C-0.01858495 33.98766309 0 14.85975943 0 0 Z " fill="#F7E58B" transform="translate(383,317)"/>
<path d="M0 0 C6.40929416 4.24657979 10.90651972 9.5342096 13 17 C14.15673411 25.80354125 13.8505189 32.33271478 10.01171875 40.3984375 C5.09075238 51.42689472 6.10856725 63.60345792 6.125 75.4375 C6.10684119 77.8261937 6.08602864 80.21486878 6.0625 82.60351562 C6.00617319 88.40316512 6.00426376 94.19915586 6 100 C-8.19 100 -22.38 100 -37 100 C-36.99097656 96.61105469 -36.98195313 93.22210938 -36.97265625 89.73046875 C-36.9877513 86.38065432 -37.01470228 83.03112494 -37.04272461 79.68139648 C-37.05571546 77.38618576 -37.05673782 75.0908701 -37.04467773 72.7956543 C-36.98162148 59.05239415 -37.84311881 47.54409177 -43.43457031 34.88256836 C-46.4392425 27.99262082 -46.11780728 21.18588287 -43.4375 14.25 C-39.37227153 6.33501453 -33.39345405 0.56831145 -25.375 -3.25 C-16.3740043 -5.25022127 -8.06272263 -4.58201944 0 0 Z " fill="#C9C4CA" transform="translate(429,19)"/>
<path d="M0 0 C1.83498047 -0.00386719 1.83498047 -0.00386719 3.70703125 -0.0078125 C13.92814736 0.10268605 22.13899677 1.86246893 29.6953125 9.2890625 C36.7904824 16.97797047 38.49177109 22.74506549 38.21484375 33.1796875 C37.73216545 37.89551001 36.99926498 39.90709527 33.875 43.5 C27.66878591 47.97455491 21.38509112 48.10066794 13.96484375 48.06640625 C12.83857071 48.07260483 11.71229767 48.07880341 10.55189514 48.08518982 C8.18100851 48.09226581 5.81007196 48.08915306 3.43920898 48.07641602 C-0.18013022 48.06252828 -3.79689341 48.09668512 -7.41601562 48.13476562 C-9.72656313 48.13571671 -12.03711386 48.13385857 -14.34765625 48.12890625 C-15.96197289 48.14879356 -15.96197289 48.14879356 -17.60890198 48.16908264 C-24.46176448 48.08444162 -27.99906762 47.12339857 -33.125 42.5 C-36.60257947 38.21185689 -37.804968 33.30443459 -37.49609375 27.84765625 C-36.04933846 18.69502541 -31.22050702 11.37998145 -24.125 5.5 C-16.33238018 0.19847887 -9.23441156 -0.21543696 0 0 Z " fill="#FAEEB4" transform="translate(158.125,336.5)"/>
<path d="M0 0 C20.13 0 40.26 0 61 0 C61 10.89 61 21.78 61 33 C60.67 33 60.34 33 60 33 C60 26.4 60 19.8 60 13 C55.97900063 13.07427324 51.95962943 13.15733911 47.93945312 13.26245117 C46.5740075 13.29555386 45.20842987 13.32363086 43.84277344 13.34643555 C41.87146776 13.38024991 39.90053809 13.43408286 37.9296875 13.48828125 C36.74616699 13.51446533 35.56264648 13.54064941 34.34326172 13.56762695 C28.08547106 14.37692645 24.05393874 17.28866579 20 22 C16.55776155 27.38139371 16.55829686 32.04581131 16.56762695 38.22802734 C16.5574353 39.24327484 16.54724365 40.25852234 16.53674316 41.30453491 C16.50663468 44.64839207 16.49735028 47.99196264 16.48828125 51.3359375 C16.47143302 53.65907746 16.45328259 55.98220831 16.43388367 58.30532837 C16.38639347 64.41100214 16.35657756 70.51663897 16.33044434 76.62243652 C16.30063404 82.85643812 16.25410526 89.09031249 16.20898438 95.32421875 C16.12296227 107.5494126 16.05561195 119.77463264 16 132 C10.72 132 5.44 132 0 132 C0 88.44 0 44.88 0 0 Z " fill="#EBEAEB" transform="translate(383,170)"/>
<path d="M0 0 C0.95072891 -0.00281982 1.90145782 -0.00563965 2.8809967 -0.00854492 C4.4581974 -0.00550858 4.4581974 -0.00550858 6.06726074 -0.00241089 C7.16795395 -0.00416321 8.26864716 -0.00591553 9.4026947 -0.00772095 C13.06108145 -0.01214204 16.71942033 -0.00920056 20.37780762 -0.00582886 C22.9074708 -0.00650182 25.43713392 -0.00747178 27.96679688 -0.00872803 C33.27649611 -0.01020535 38.58617799 -0.00814394 43.89587402 -0.00338745 C50.0426172 0.00205514 56.18932721 0.00029246 62.33606958 -0.00521386 C68.23873325 -0.01029076 74.14138658 -0.00976341 80.04405212 -0.00683212 C82.56078598 -0.0061626 85.07752067 -0.00699216 87.59425354 -0.00931168 C91.10481037 -0.01183669 94.61530251 -0.00799974 98.12585449 -0.00241089 C99.17732162 -0.00443512 100.22878876 -0.00645935 101.31211853 -0.00854492 C102.26284744 -0.0057251 103.21357635 -0.00290527 104.19311523 0 C105.02419548 0.00037703 105.85527573 0.00075405 106.71154022 0.0011425 C108.59655762 0.12698364 108.59655762 0.12698364 109.59655762 1.12698364 C109.59655762 7.72698364 109.59655762 14.32698364 109.59655762 21.12698364 C71.64655762 21.12698364 33.69655762 21.12698364 -5.40344238 21.12698364 C-5.40344238 0.00245131 -5.40344238 0.00245131 0 0 Z " fill="#C9C4CA" transform="translate(361.4034423828125,133.87301635742188)"/>
<path d="M0 0 C14.52 0 29.04 0 44 0 C44 26.25248786 44 26.25248786 37.3125 40.0625 C37.01021484 40.68737305 36.70792969 41.31224609 36.39648438 41.95605469 C34.85232456 44.9651468 33.4910989 47.52035074 31.04702759 49.90744019 C21.89287103 59.51571837 23.91548065 72.31545672 24.03515625 84.72265625 C24.03017173 87.23564105 24.02152445 89.74862101 24.00938416 92.26158142 C23.98899839 98.17716521 24.00309057 104.09184237 24.03500694 110.00735897 C24.07995057 118.70766299 24.06051357 127.40783703 24.04637051 136.10821438 C24.03707747 142.34791864 24.03622058 148.58724724 24.06056213 154.82691956 C24.0634877 155.96883255 24.06641327 157.11074554 24.06942749 158.28726196 C24.07524407 160.42559772 24.08490021 162.56392765 24.09901428 164.70222473 C24.10078674 165.63987671 24.1025592 166.57752869 24.10438538 167.54359436 C24.11029237 168.76934976 24.11029237 168.76934976 24.1163187 170.0198679 C24 172 24 172 23 174 C22.34 174 21.68 174 21 174 C20.99853344 173.45684678 20.99706688 172.91369356 20.99555588 172.35408115 C20.95842218 159.10693541 20.89907077 145.86004734 20.81609726 132.61310673 C20.77663619 126.2068233 20.74444074 119.80067705 20.72900391 113.39428711 C20.71382867 107.20846628 20.67936672 101.02302263 20.63169098 94.83736992 C20.61688631 92.48079143 20.60895951 90.12415909 20.60811615 87.76753426 C20.60574211 84.45928142 20.57862528 81.1520672 20.54589844 77.84399414 C20.5509288 76.8758226 20.55595917 75.90765106 20.56114197 74.91014099 C20.42144964 65.74626341 17.05478927 59.30269109 12.0625 51.75 C8.09022469 45.43282474 5.36341959 39.06143657 3 32 C2.76539063 31.31035156 2.53078125 30.62070312 2.2890625 29.91015625 C-0.77146522 20.1297742 0 10.16874594 0 0 Z " fill="#F6EAB1" transform="translate(399,318)"/>
<path d="M0 0 C6.30195877 3.7185471 11.23632072 9.33396215 13.5625 16.3125 C14.5051552 24.40586825 13.23995332 30.59676098 8.5625 37.3125 C3.50856306 43.00268078 -2.57380233 46.35672576 -10.25 46.8125 C-16.84976525 46.58145799 -22.3683323 44.03275179 -27.29296875 39.66796875 C-32.892736 33.54279124 -35.05253351 27.28237477 -34.78125 19.01953125 C-33.81911347 11.44270609 -29.25764797 5.99338496 -23.4375 1.3125 C-16.52251598 -2.89072558 -7.39745072 -3.44653954 0 0 Z " fill="#030302" transform="translate(110.4375,284.6875)"/>
<path d="M0 0 C6.64051046 3.37850532 12.18494391 9.67983172 14.5625 16.8125 C15.50655029 24.91784607 14.22752546 31.08069111 9.5625 37.8125 C4.20365514 44.11545897 -2.35475734 46.29405649 -10.375 47.3125 C-16.36865132 47.03734235 -21.86254726 44.08515221 -26.30078125 40.16796875 C-31.81369156 34.10787131 -34.11346462 27.83759339 -33.84375 19.65625 C-32.86358163 12.79507141 -29.8495718 7.53866477 -24.375 3.3125 C-23.09008537 2.43723142 -21.77741453 1.60099841 -20.4375 0.8125 C-19.81488281 0.43738281 -19.19226563 0.06226563 -18.55078125 -0.32421875 C-12.99207134 -2.59496716 -5.61233274 -1.88146774 0 0 Z " fill="#040303" transform="translate(168.4375,261.1875)"/>
<path d="M0 0 C6.68291791 2.9862645 11.02689299 8.57908938 14.546875 14.82421875 C16.6885552 22.00514647 16.16166875 27.6178817 12.79296875 34.3203125 C8.85059142 41.20320889 4.03135721 44.82965627 -3.390625 47.38671875 C-9.98713282 48.65488459 -15.24649988 47.23354086 -21.05859375 44.01171875 C-26.41463238 40.27953773 -30.39052376 35.63703513 -32.390625 29.38671875 C-33.46516183 21.50333799 -32.84461128 15.1863848 -28.31640625 8.55078125 C-20.75295626 0.05148856 -11.07690413 -2.8416241 0 0 Z " fill="#030302" transform="translate(226.390625,283.61328125)"/>
<path d="M0 0 C-0.39832031 0.4846875 -0.79664063 0.969375 -1.20703125 1.46875 C-2.00173828 2.47421875 -2.00173828 2.47421875 -2.8125 3.5 C-3.33457031 4.1496875 -3.85664063 4.799375 -4.39453125 5.46875 C-8.21614092 11.4940616 -9.54337021 17.36585332 -9.5625 24.4375 C-9.59923828 25.11748047 -9.63597656 25.79746094 -9.67382812 26.49804688 C-9.71241351 31.29549674 -8.6748949 34.98007579 -6.83070374 39.40896606 C-1.76928373 51.78450422 -2.32547683 63.87688718 -2.625 77.0625 C-2.65516978 79.39384535 -2.68253305 81.72522878 -2.70703125 84.05664062 C-2.77239394 89.70538678 -2.87552311 95.35226002 -3 101 C-6.3 101 -9.6 101 -13 101 C-12.99363525 99.58485107 -12.98727051 98.16970215 -12.98071289 96.71166992 C-12.96608055 91.36783111 -12.99802207 86.02504052 -13.04272461 80.68139648 C-13.05571546 78.38618576 -13.05673782 76.0908701 -13.04467773 73.7956543 C-12.98162148 60.05239415 -13.84311881 48.54409177 -19.43457031 35.88256836 C-22.4392425 28.99262082 -22.11780728 22.18588287 -19.4375 15.25 C-16.00329511 8.56361522 -8.50055597 -2.74857377 0 0 Z " fill="#B1ABB3" transform="translate(405,18)"/>
<path d="M0 0 C0.95072891 -0.00281982 1.90145782 -0.00563965 2.8809967 -0.00854492 C4.4581974 -0.00550858 4.4581974 -0.00550858 6.06726074 -0.00241089 C7.16795395 -0.00416321 8.26864716 -0.00591553 9.4026947 -0.00772095 C13.06108145 -0.01214204 16.71942033 -0.00920056 20.37780762 -0.00582886 C22.9074708 -0.00650182 25.43713392 -0.00747178 27.96679688 -0.00872803 C33.27649611 -0.01020535 38.58617799 -0.00814394 43.89587402 -0.00338745 C50.0426172 0.00205514 56.18932721 0.00029246 62.33606958 -0.00521386 C68.23873325 -0.01029076 74.14138658 -0.00976341 80.04405212 -0.00683212 C82.56078598 -0.0061626 85.07752067 -0.00699216 87.59425354 -0.00931168 C91.10481037 -0.01183669 94.61530251 -0.00799974 98.12585449 -0.00241089 C99.17732162 -0.00443512 100.22878876 -0.00645935 101.31211853 -0.00854492 C102.26284744 -0.0057251 103.21357635 -0.00290527 104.19311523 0 C105.02419548 0.00037703 105.85527573 0.00075405 106.71154022 0.0011425 C108.59655762 0.12698364 108.59655762 0.12698364 109.59655762 1.12698364 C109.68325194 2.61570224 109.70359255 4.10842864 109.69421387 5.59963989 C109.68937988 6.94832153 109.68937988 6.94832153 109.68444824 8.32424927 C109.67187988 9.74254028 109.67187988 9.74254028 109.65905762 11.18948364 C109.6545459 12.13887817 109.65003418 13.08827271 109.64538574 14.06643677 C109.63355872 16.42001429 109.61707787 18.77346842 109.59655762 21.12698364 C109.26655762 21.12698364 108.93655762 21.12698364 108.59655762 21.12698364 C108.59655762 15.18698364 108.59655762 9.24698364 108.59655762 3.12698364 C95.51395126 3.14184767 82.43172847 3.18339285 69.34932423 3.25907421 C63.27470263 3.29337579 57.20033339 3.31845918 51.12561035 3.32254028 C45.26393334 3.32681633 39.4028259 3.3552223 33.54132652 3.40041542 C31.30425012 3.41341248 29.06710563 3.41769033 26.82999611 3.41313744 C23.69792685 3.40824736 20.56753245 3.43425471 17.43566895 3.46755981 C16.50922073 3.45893417 15.58277252 3.45030853 14.62825012 3.44142151 C10.05019718 3.52311479 8.21141017 3.62769736 4.54411316 6.60569763 C3.90141983 7.43772202 3.2587265 8.2697464 2.59655762 9.12698364 C2.26655762 9.45698364 1.93655762 9.78698364 1.59655762 10.12698364 C1.36291881 11.97590311 1.18352127 13.83186396 1.03405762 15.68948364 C0.95026855 16.70139771 0.86647949 17.71331177 0.78015137 18.75588989 C0.71956543 19.53835083 0.65897949 20.32081177 0.59655762 21.12698364 C-1.38344238 21.12698364 -3.36344238 21.12698364 -5.40344238 21.12698364 C-5.43232385 17.81450177 -5.45020037 14.50205197 -5.46594238 11.18948364 C-5.47432129 10.2439563 -5.4827002 9.29842896 -5.49133301 8.32424927 C-5.49455566 7.42512817 -5.49777832 6.52600708 -5.50109863 5.59963989 C-5.50633545 4.76698608 -5.51157227 3.93433228 -5.51696777 3.07644653 C-5.29938996 -0.65980896 -3.23567096 0.00146789 0 0 Z " fill="#A5A0A7" transform="translate(361.4034423828125,133.87301635742188)"/>
<path d="M0 0 C3.97245401 0.70936679 5.67231707 1.79731707 8.5 4.625 C9.92662219 7.47824437 9.81033868 9.45954549 9.5 12.625 C7.70006226 15.32490662 6.416227 17.1668865 3.5 18.625 C-0.37214182 19.05523798 -2.02496371 18.94169086 -5.3125 16.75 C-7.85330753 14.28178697 -8.3995948 13.3613048 -8.875 9.875 C-8.22425679 4.23522555 -5.62697213 1.00481645 0 0 Z " fill="#F1E6AE" transform="translate(99.5,297.375)"/>
<path d="M0 0 C2.875 1.5625 2.875 1.5625 5 4 C6.14009771 7.91908586 6.40888632 10.03158504 4.8125 13.8125 C2.85980888 16.16919618 1.94024566 17.18326509 -1 18 C-5.16734046 17.92558321 -7.26644159 17.63951246 -10.4375 14.875 C-12.43514338 11.19933618 -12.66350721 9.12848931 -12 5 C-8.57935012 0.12816532 -5.85570965 -0.94109619 0 0 Z " fill="#F2E7AF" transform="translate(221,298)"/>
<path d="M0 0 C2.875 1.5625 2.875 1.5625 5 4 C6.14009771 7.91908586 6.40888632 10.03158504 4.8125 13.8125 C2.27637654 16.87333866 0.45730078 17.77579988 -3.4375 18.375 C-7.12491514 17.83537827 -8.53684526 16.80525957 -11 14 C-12.04355963 10.92665956 -12.37895254 8.2268383 -12 5 C-8.74332998 0.01322403 -5.80748975 -0.93334657 0 0 Z " fill="#F3E7AF" transform="translate(162,275)"/>
</svg>
