<?xml version="1.0" encoding="UTF-8"?>
<svg version="1.1" xmlns="http://www.w3.org/2000/svg" width="512" height="512">
<path d="M0 0 C6.76745474 4.21675829 11.21778853 10.12790581 13.12890625 17.85546875 C14.20752094 25.54201767 13.15669596 33.15247992 8.5 39.5 C5.78064208 42.28005788 2.99020792 44.75489604 -0.5 46.5 C0.35722656 46.67015625 1.21445313 46.8403125 2.09765625 47.015625 C13.02696786 49.33209691 19.81902624 52.24676502 26.5 61.5 C28.36109276 64.81445494 29.5 67.63617264 29.5 71.5 C59.2 71.5 88.9 71.5 119.5 71.5 C119.83 69.52 120.16 67.54 120.5 65.5 C123.48469458 58.64673133 129.11025945 52.56914121 135.88671875 49.375 C138.68775122 48.43713562 141.4008833 47.86611607 144.3125 47.375 C145.28832031 47.20742188 146.26414062 47.03984375 147.26953125 46.8671875 C148.00558594 46.74601562 148.74164063 46.62484375 149.5 46.5 C148.96890625 46.13648438 148.4378125 45.77296875 147.890625 45.3984375 C141.59314866 40.9166569 137.42157961 36.62712735 135.75390625 28.76953125 C134.90669296 21.19674781 135.95672268 13.74016403 140.5 7.5 C145.10219471 2.58503478 150.27304009 -1.10981204 157.0859375 -1.93359375 C166.45664693 -1.94325428 172.15568827 -1.25190559 179.25 4.875 C186.19950264 12.98275308 187.20144557 19.03227383 186.5 29.5 C185.28661774 36.58615238 180.83628122 40.95679667 175.5 45.5 C174.84 45.83 174.18 46.16 173.5 46.5 C174.345625 46.65855469 175.19125 46.81710938 176.0625 46.98046875 C186.64920015 49.15796049 194.33320698 52.3398244 200.5 61.5 C204.30790279 68.84271253 203.95996929 76.9543276 203.89111328 85.00341797 C203.87493262 87.25939468 203.89107556 89.51360664 203.91015625 91.76953125 C203.90817535 93.21614975 203.90433484 94.66276716 203.8984375 96.109375 C203.89505371 97.40842773 203.89166992 98.70748047 203.88818359 100.04589844 C203.4683945 103.78122932 202.8408607 105.58559326 200.5 108.5 C196.50820614 111.44656084 193.60924141 111.88185683 188.69360352 111.90405273 C188.02951477 111.91091599 187.36542603 111.91777924 186.68121338 111.92485046 C184.49689041 111.94307694 182.31328858 111.93928718 180.12890625 111.93359375 C178.6034268 111.9381577 177.0779494 111.94346391 175.55247498 111.94947815 C172.35903559 111.95840115 169.16584639 111.95599567 165.97241211 111.94604492 C161.88900715 111.93455812 157.80646734 111.95476548 153.723176 111.98396206 C150.57377172 112.00234813 147.42457383 112.00202684 144.27512932 111.99632454 C142.77009811 111.99617161 141.26505265 112.00219279 139.76007271 112.01461601 C137.65143405 112.02957043 135.54438157 112.0188192 133.43579102 112.00170898 C132.23841812 112.00154282 131.04104523 112.00137665 129.80738831 112.00120544 C125.81922501 111.39683457 123.63248101 109.99458538 120.5 107.5 C117.51485158 101.52970315 119.5 94.1749948 119.5 87.5 C107.29 87.5 95.08 87.5 82.5 87.5 C82.5 114.56 82.5 141.62 82.5 169.5 C101.40794348 169.34173651 101.40794348 169.34173651 120.31542969 169.13964844 C122.68423748 169.12796699 125.05305329 169.11777389 127.421875 169.109375 C128.65373535 169.08891113 129.8855957 169.06844727 131.15478516 169.04736328 C132.92039795 169.04663818 132.92039795 169.04663818 134.72167969 169.04589844 C136.25390167 169.03257477 136.25390167 169.03257477 137.81707764 169.01898193 C141.26870011 169.63781936 142.43665771 170.69855706 144.5 173.5 C144.95169067 175.6869812 144.95169067 175.6869812 144.88720703 178.08154297 C144.87464874 178.98282928 144.86209045 179.8841156 144.84915161 180.81271362 C144.8190097 181.77944 144.7888678 182.74616638 144.7578125 183.7421875 C144.74306623 185.79816543 144.73010071 187.85415677 144.71875 189.91015625 C144.67944127 193.1457558 144.62489056 196.37907825 144.53808594 199.61376953 C143.58739824 211.57374354 143.58739824 211.57374354 147.67871094 222.16137695 C150.26043409 223.66816361 152.68382247 224.53985018 155.5 225.5 C160.62087518 230.52166938 162.51781398 236.80253562 162.8125 243.875 C162.59245684 251.48590467 160.21774961 257.31107012 155.1953125 262.9921875 C153.12882124 264.83012673 150.90169588 266.14039589 148.5 267.5 C149.66015625 267.64695312 149.66015625 267.64695312 150.84375 267.796875 C160.95074958 269.24787989 167.46222449 271.36592934 174.0234375 279.41015625 C177.03022786 283.66579868 178.5 287.1890918 178.5 292.5 C201.27 292.5 224.04 292.5 247.5 292.5 C247.83 289.86 248.16 287.22 248.5 284.5 C251.96725072 277.37354004 258.68060084 271.93227469 266 269.1875 C269.83600432 268.43399915 273.61264222 267.90919556 277.5 267.5 C276.98050781 267.1596875 276.46101563 266.819375 275.92578125 266.46875 C269.72361455 262.15818682 264.91891012 257.15351521 263.5 249.5 C262.78955922 240.70146417 263.70328807 233.80326439 269.1875 226.75 C273.76772879 221.74715659 279.8149197 219.05601148 286.5078125 218.26171875 C294.03046287 217.9980096 300.41132732 220.02906186 306.3125 224.75 C312.32859912 232.31309604 315.61752313 238.67191987 314.5 248.5 C312.00698016 257.20619362 308.28641253 262.72197413 300.5 267.5 C301.66015625 267.64695312 301.66015625 267.64695312 302.84375 267.796875 C312.97451954 269.25129241 319.18776863 271.40871208 325.95703125 279.20703125 C329.98446704 285.19210671 330.96692525 290.2593537 330.96875 297.3203125 C330.97636353 298.14199921 330.98397705 298.96368591 330.99182129 299.81027222 C331.00256746 301.53640724 331.00549785 303.26260698 331.00097656 304.98876953 C330.99999996 307.62511996 331.04176806 310.25859699 331.0859375 312.89453125 C331.09114222 314.57811897 331.09383273 316.26171674 331.09375 317.9453125 C331.11014526 318.72875031 331.12654053 319.51218811 331.14343262 320.31936646 C331.09549796 324.12005598 330.75609269 326.16827212 328.41088867 329.20611572 C324.77749479 332.06935992 322.89841995 332.13260964 318.31054688 332.14697266 C317.60583755 332.15573425 316.90112823 332.16449585 316.17506409 332.17352295 C313.85565831 332.19545221 311.53817365 332.18098981 309.21875 332.1640625 C307.60119258 332.16743256 305.98363764 332.17228677 304.36608887 332.17855835 C300.97997877 332.18592081 297.59452925 332.1752452 294.20849609 332.15185547 C289.87367932 332.12336706 285.54041034 332.13977453 281.20565033 332.16971779 C277.86664217 332.1878083 274.52799943 332.18202492 271.1889801 332.16907883 C269.59102697 332.16574961 267.99304039 332.16981491 266.39512634 332.18147659 C264.15901161 332.19421553 261.92538316 332.1747718 259.68945312 332.14697266 C258.41880005 332.14299469 257.14814697 332.13901672 255.83898926 332.13491821 C251.63501557 331.33552077 250.17019549 329.76586457 247.5 326.5 C245.90726856 323.31453711 246.39858167 319.86800652 246.4375 316.375 C246.458125 313.77625 246.47875 311.1775 246.5 308.5 C237.59 308.5 228.68 308.5 219.5 308.5 C219.5 343.81 219.5 379.12 219.5 415.5 C234.35 415.5 249.2 415.5 264.5 415.5 C265.16 413.52 265.82 411.54 266.5 409.5 C270.30090169 403.37498008 275.64431528 399.92420674 282.484375 397.91796875 C290.14481731 396.32946618 296.65820235 397.83260407 303.5 401.5 C309.40262514 406.22210011 313.84013811 412.93985226 314.73828125 420.5078125 C315.00168887 428.02186149 312.70823324 434.11404237 308.625 440.375 C306.14126101 442.85873899 303.48813189 444.66637361 300.5 446.5 C301.66015625 446.64695312 301.66015625 446.64695312 302.84375 446.796875 C312.97451954 448.25129241 319.18776863 450.40871208 325.95703125 458.20703125 C329.98446704 464.19210671 330.96692525 469.2593537 330.96875 476.3203125 C330.97636353 477.14199921 330.98397705 477.96368591 330.99182129 478.81027222 C331.00256746 480.53640724 331.00549785 482.26260698 331.00097656 483.98876953 C330.99999996 486.62511996 331.04176806 489.25859699 331.0859375 491.89453125 C331.09114222 493.57811897 331.09383273 495.26171674 331.09375 496.9453125 C331.11014526 497.72875031 331.12654053 498.51218811 331.14343262 499.31936646 C331.09549796 503.12005598 330.75609269 505.16827212 328.41088867 508.20611572 C324.77749479 511.06935992 322.89841995 511.13260964 318.31054688 511.14697266 C317.60583755 511.15573425 316.90112823 511.16449585 316.17506409 511.17352295 C313.85565831 511.19545221 311.53817365 511.18098981 309.21875 511.1640625 C307.60119258 511.16743256 305.98363764 511.17228677 304.36608887 511.17855835 C300.97997877 511.18592081 297.59452925 511.1752452 294.20849609 511.15185547 C289.87367932 511.12336706 285.54041034 511.13977453 281.20565033 511.16971779 C277.86664217 511.1878083 274.52799943 511.18202492 271.1889801 511.16907883 C269.59102697 511.16574961 267.99304039 511.16981491 266.39512634 511.18147659 C264.15901161 511.19421553 261.92538316 511.1747718 259.68945312 511.14697266 C257.78347351 511.14100571 257.78347351 511.14100571 255.83898926 511.13491821 C251.63501557 510.33552077 250.17019549 508.76586457 247.5 505.5 C245.29527644 501.09055288 246.2727548 495.12780955 246.25976562 490.2265625 C246.25015815 488.03605731 246.2191858 485.8465309 246.1875 483.65625 C246.09733761 472.07563003 246.98139971 463.01131373 255.33984375 454.41015625 C261.87448939 448.63178063 269.01509468 447.57475467 277.5 446.5 C276.98050781 446.1596875 276.46101563 445.819375 275.92578125 445.46875 C274.87970703 444.74171875 274.87970703 444.74171875 273.8125 444 C273.12800781 443.5359375 272.44351562 443.071875 271.73828125 442.59375 C269.50612223 440.50572691 268.80542285 439.11676251 267.49226379 436.43164062 C265.95793371 433.95610639 265.15905631 432.73249065 262.38603783 431.75427246 C259.69171022 431.47298381 257.09417785 431.44491417 254.38549805 431.5 C253.37039658 431.48907822 252.3552951 431.47815643 251.30943298 431.46690369 C247.95917506 431.44022321 244.61190729 431.46985502 241.26171875 431.5 C238.93714542 431.49248199 236.612581 431.48144856 234.28804016 431.46704102 C228.17374082 431.43859205 222.06048755 431.45790873 215.94622803 431.48712158 C209.70561865 431.5085036 203.46519933 431.48478468 197.22460938 431.46484375 C184.9828368 431.43238282 172.74169573 431.45037415 160.5 431.5 C160.29068848 432.67828369 160.29068848 432.67828369 160.07714844 433.88037109 C159.4488913 436.73197814 158.66445403 437.96383798 156.75 440.125 C156.26015625 440.69476563 155.7703125 441.26453125 155.265625 441.8515625 C153.18912245 443.79024408 150.9712076 445.11309778 148.5 446.5 C149.66015625 446.64695312 149.66015625 446.64695312 150.84375 446.796875 C160.95262999 448.24814985 167.46966435 450.36651273 174.02734375 458.41796875 C180.21542696 467.16663812 179.70766797 477.1455258 179.75 487.4375 C179.7809375 489.31211914 179.7809375 489.31211914 179.8125 491.22460938 C179.86243104 502.97712845 179.86243104 502.97712845 176.5 508.5 C172.81137557 510.95908295 170.94164363 510.76964769 166.53759766 510.80639648 C165.83318039 510.81472 165.12876312 510.82304352 164.40299988 510.83161926 C162.07329793 510.85572318 159.74387594 510.86449175 157.4140625 510.87109375 C155.79364945 510.88005991 154.17323726 510.88918176 152.55282593 510.89845276 C149.15498848 510.91494643 145.75724962 510.92264352 142.359375 510.92553711 C138.00894464 510.93092093 133.65944283 510.96859821 129.30927467 511.01428127 C125.9617679 511.04404934 122.61448478 511.0512606 119.26685715 511.05226326 C117.66328046 511.05646624 116.05970315 511.06890382 114.45625687 511.08978081 C112.21054415 511.11669202 109.96698396 511.11187301 107.72119141 511.09936523 C106.44450592 511.10443588 105.16782043 511.10950653 103.85244751 511.11473083 C99.60855277 510.33653731 98.15397508 508.83138535 95.5 505.5 C93.79478254 500.38434762 94.27451802 494.93287441 94.25976562 489.57836914 C94.25014437 487.46914947 94.21915089 485.36094069 94.1875 483.25195312 C94.09398618 471.66823969 95.06402911 462.92628493 103.33984375 454.41015625 C109.87448939 448.63178063 117.01509468 447.57475467 125.5 446.5 C124.98050781 446.1596875 124.46101563 445.819375 123.92578125 445.46875 C117.71375761 441.15133616 112.93648816 436.1564819 111.5 428.5 C110.63237225 419.46813733 112.38332248 413.17501629 117.375 405.6875 C122.87390388 400.02686365 128.98954015 397.5381845 136.8125 397.125 C143.4045539 397.29402702 149.19444906 399.65555924 154.3125 403.75 C156.99587952 407.12339139 159.21544665 410.84471463 161.5 414.5 C175.36 414.83 189.22 415.16 203.5 415.5 C203.5 380.19 203.5 344.88 203.5 308.5 C195.58 308.5 187.66 308.5 179.5 308.5 C179.5928125 311.7484375 179.5928125 311.7484375 179.6875 315.0625 C179.6875 320.7509167 179.47857254 324.64602993 176.5 329.5 C172.81137557 331.95908295 170.94164363 331.76964769 166.53759766 331.80639648 C165.83318039 331.81472 165.12876312 331.82304352 164.40299988 331.83161926 C162.07329793 331.85572318 159.74387594 331.86449175 157.4140625 331.87109375 C155.79364945 331.88005991 154.17323726 331.88918176 152.55282593 331.89845276 C149.15498848 331.91494643 145.75724962 331.92264352 142.359375 331.92553711 C138.00894464 331.93092093 133.65944283 331.96859821 129.30927467 332.01428127 C125.9617679 332.04404934 122.61448478 332.0512606 119.26685715 332.05226326 C117.66328046 332.05646624 116.05970315 332.06890382 114.45625687 332.08978081 C112.21054415 332.11669202 109.96698396 332.11187301 107.72119141 332.09936523 C105.80616318 332.10697121 105.80616318 332.10697121 103.85244751 332.11473083 C99.60855277 331.33653731 98.15397508 329.83138535 95.5 326.5 C93.79478254 321.38434762 94.27451802 315.93287441 94.25976562 310.57836914 C94.25014437 308.46914947 94.21915089 306.36094069 94.1875 304.25195312 C94.09398618 292.66823969 95.06402911 283.92628493 103.33984375 275.41015625 C109.87448939 269.63178063 117.01509468 268.57475467 125.5 267.5 C124.98050781 267.1596875 124.46101563 266.819375 123.92578125 266.46875 C117.71375761 262.15133616 112.93648816 257.1564819 111.5 249.5 C110.63237225 240.46813733 112.38332248 234.17501629 117.375 226.6875 C119.87313474 224.11589071 122.39315513 222.28478322 125.5 220.5 C126.49 220.5 127.48 220.5 128.5 220.5 C128.5 208.95 128.5 197.4 128.5 185.5 C92.86 185.5 57.22 185.5 20.5 185.5 C20.5 197.05 20.5 208.6 20.5 220.5 C22.15 220.83 23.8 221.16 25.5 221.5 C32.12418325 225.48001863 35.13000705 231.39002116 37.5 238.5 C38.24628099 247.38361413 37.30217248 254.30382572 31.625 261.3125 C29.24461179 264.05059683 26.65345995 265.72016582 23.5 267.5 C24.66015625 267.64695312 24.66015625 267.64695312 25.84375 267.796875 C36.46513213 269.32172689 42.40703459 271.81385057 49.73828125 279.6953125 C54.87649087 287.87543335 54.97790726 296.76230114 54.89111328 306.16943359 C54.8749168 308.26074343 54.89109598 310.35015201 54.91015625 312.44140625 C54.9081754 313.78906671 54.90433499 315.13672599 54.8984375 316.484375 C54.89505371 317.68803711 54.89166992 318.89169922 54.88818359 320.13183594 C54.45480215 323.89216956 53.48550523 326.29170344 51.5 329.5 C47.81137557 331.95908295 45.94164363 331.76964769 41.53759766 331.80639648 C40.83318039 331.81472 40.12876312 331.82304352 39.40299988 331.83161926 C37.07329793 331.85572318 34.74387594 331.86449175 32.4140625 331.87109375 C30.79364945 331.88005991 29.17323726 331.88918176 27.55282593 331.89845276 C24.15498848 331.91494643 20.75724962 331.92264352 17.359375 331.92553711 C13.00894464 331.93092093 8.65944283 331.96859821 4.30927467 332.01428127 C0.9617679 332.04404934 -2.38551522 332.0512606 -5.73314285 332.05226326 C-7.33671954 332.05646624 -8.94029685 332.06890382 -10.54374313 332.08978081 C-12.78945585 332.11669202 -15.03301604 332.11187301 -17.27880859 332.09936523 C-19.19383682 332.10697121 -19.19383682 332.10697121 -21.14755249 332.11473083 C-25.36940241 331.34057962 -26.82955257 329.78047659 -29.5 326.5 C-31.76855586 321.28341745 -30.55077019 313.98318004 -30.5 308.5 C-38.75 308.5 -47 308.5 -55.5 308.5 C-55.5 338.53 -55.5 368.56 -55.5 399.5 C-53.85 399.83 -52.2 400.16 -50.5 400.5 C-44.87510092 403.98486471 -40.88627208 409.0454457 -38.9140625 415.3828125 C-37.50591145 422.58298109 -37.84583833 430.05067735 -41.5 436.5 C-44.62640395 440.96500793 -47.73526214 443.81074965 -52.5 446.5 C-51.33984375 446.64695312 -51.33984375 446.64695312 -50.15625 446.796875 C-39.53486787 448.32172689 -33.59296541 450.81385057 -26.26171875 458.6953125 C-21.12350913 466.87543335 -21.02209274 475.76230114 -21.10888672 485.16943359 C-21.1250832 487.26074343 -21.10890402 489.35015201 -21.08984375 491.44140625 C-21.0918246 492.78906671 -21.09566501 494.13672599 -21.1015625 495.484375 C-21.10494629 496.68803711 -21.10833008 497.89169922 -21.11181641 499.13183594 C-21.54519785 502.89216956 -22.51449477 505.29170344 -24.5 508.5 C-28.18862443 510.95908295 -30.05835637 510.76964769 -34.46240234 510.80639648 C-35.16681961 510.81472 -35.87123688 510.82304352 -36.59700012 510.83161926 C-38.92670207 510.85572318 -41.25612406 510.86449175 -43.5859375 510.87109375 C-45.20635055 510.88005991 -46.82676274 510.88918176 -48.44717407 510.89845276 C-51.84501152 510.91494643 -55.24275038 510.92264352 -58.640625 510.92553711 C-62.99105536 510.93092093 -67.34055717 510.96859821 -71.69072533 511.01428127 C-75.0382321 511.04404934 -78.38551522 511.0512606 -81.73314285 511.05226326 C-83.33671954 511.05646624 -84.94029685 511.06890382 -86.54374313 511.08978081 C-88.78945585 511.11669202 -91.03301604 511.11187301 -93.27880859 511.09936523 C-94.55549408 511.10443588 -95.83217957 511.10950653 -97.14755249 511.11473083 C-101.38000494 510.33863545 -102.84337208 508.81074628 -105.5 505.5 C-107.32705732 499.92205239 -106.68425143 493.62418878 -106.6875 487.8125 C-106.69974609 486.67876953 -106.71199219 485.54503906 -106.72460938 484.37695312 C-106.74431292 472.98173396 -105.82725691 463.45840473 -97.93359375 454.77734375 C-91.55709487 448.75591673 -83.99856342 447.27259667 -75.5 446.5 C-76.01949219 446.17128906 -76.53898437 445.84257812 -77.07421875 445.50390625 C-83.66368523 441.00942727 -87.93522977 435.44903277 -89.5 427.5 C-90.47618268 419.27446068 -88.011962 412.68660334 -83.8125 405.6875 C-81.5 403.5 -81.5 403.5 -72.5 398.5 C-72.17 368.8 -71.84 339.1 -71.5 308.5 C-80.08 308.5 -88.66 308.5 -97.5 308.5 C-97.34286129 313.49627623 -97.34286129 313.49627623 -97.13964844 318.49072266 C-97.0592161 323.6007707 -98.13642141 326.451248 -101.5 330.5 C-104.4377804 331.9688902 -107.06885612 331.6598468 -110.34887695 331.69287109 C-111.05314819 331.70104858 -111.75741943 331.70922607 -112.48303223 331.71765137 C-114.81810657 331.74250187 -117.15312013 331.75902054 -119.48828125 331.7734375 C-120.2855834 331.77876118 -121.08288555 331.78408485 -121.90434837 331.78956985 C-126.12461765 331.8163002 -130.34485737 331.83567526 -134.56518555 331.85009766 C-138.92344223 331.86674385 -143.28094245 331.91152079 -147.63891315 331.9624691 C-150.99068567 331.99613216 -154.34227843 332.00767397 -157.69420433 332.01332474 C-159.30058764 332.0200401 -160.90695901 332.03526978 -162.51317787 332.05921555 C-164.76372454 332.09085212 -167.01222863 332.09090752 -169.26293945 332.08349609 C-170.54264114 332.09158295 -171.82234283 332.0996698 -173.14082336 332.10800171 C-177.41113931 331.3350863 -178.87864882 329.89840682 -181.5 326.5 C-181.99993359 323.48851326 -182.20335293 321.05556065 -182.1640625 318.05078125 C-182.17123795 316.8317939 -182.17123795 316.8317939 -182.17855835 315.58818054 C-182.18195294 313.87102317 -182.17278116 312.15380079 -182.15185547 310.43676758 C-182.12525273 307.83719594 -182.15152332 305.24200996 -182.18359375 302.64257812 C-182.20557439 292.49320239 -181.70437559 284.25880958 -174.58642578 276.38256836 C-168.05070834 269.90506589 -160.38832788 268.30802981 -151.5 267.5 C-152.01949219 267.17128906 -152.53898437 266.84257812 -153.07421875 266.50390625 C-159.66368523 262.00942727 -163.93522977 256.44903277 -165.5 248.5 C-166.33397193 241.4727611 -164.82838368 235.70934528 -161.5 229.5 C-157.35662799 224.32078499 -151.13771431 219.73492359 -144.5 218.5 C-136.42966702 217.69759596 -129.11032915 219.12817036 -122.6875 224.25 C-117.76213931 228.84395591 -114.84204827 234.26386373 -114.296875 241.015625 C-114.14012261 250.15951427 -115.78337479 256.03087647 -121.8046875 262.95703125 C-123.86240819 264.82984156 -126.08253747 266.13556776 -128.5 267.5 C-127.33984375 267.64695312 -127.33984375 267.64695312 -126.15625 267.796875 C-115.27585357 269.35891211 -109.43220826 271.8585264 -102.1640625 280.18359375 C-99.07248014 284.48713445 -98.5 287.1258704 -98.5 292.5 C-75.73 292.5 -52.96 292.5 -29.5 292.5 C-29.17 290.19 -28.84 287.88 -28.5 285.5 C-25.73639454 279.00210122 -20.76581647 273.46765588 -14.33203125 270.5 C-9.44673266 268.75104629 -4.65458671 267.96859879 0.5 267.5 C-0.03109375 267.13648438 -0.5621875 266.77296875 -1.109375 266.3984375 C-7.93059945 261.54391645 -11.78945304 256.9101892 -13.5 248.5 C-14.51238421 240.27821308 -12.01385511 233.68975851 -7.8125 226.6875 C-5.47413321 224.47553142 -3.82246139 223.76696115 -0.9152832 222.51391602 C2.52111216 220.64050107 2.52111216 220.64050107 4.30679321 217.30343628 C4.57350518 214.52921019 4.56386568 211.87491421 4.45703125 209.08984375 C4.45700607 208.08538712 4.4569809 207.08093048 4.45695496 206.04603577 C4.4510558 202.84123804 4.38538739 199.64141788 4.3125 196.4375 C4.2661107 193.23086992 4.23264997 190.02520259 4.22160339 186.81825256 C4.21205031 184.82472013 4.18068536 182.83114663 4.12519836 180.83836365 C4.11586777 179.93384964 4.10653717 179.02933563 4.09692383 178.09741211 C4.07866043 177.30419052 4.06039703 176.51096893 4.0415802 175.69371033 C4.69915759 172.5469564 5.94528575 171.40409141 8.5 169.5 C11.18292236 169.01898193 11.18292236 169.01898193 14.27832031 169.04589844 C15.45539551 169.04638184 16.6324707 169.04686523 17.84521484 169.04736328 C19.0770752 169.06782715 20.30893555 169.08829102 21.578125 169.109375 C22.71427246 169.11340332 23.85041992 169.11743164 25.02099609 169.12158203 C29.26416172 169.14250661 33.50709712 169.19835204 37.75 169.25 C47.2375 169.3325 56.725 169.415 66.5 169.5 C66.5 142.44 66.5 115.38 66.5 87.5 C54.29 87.5 42.08 87.5 29.5 87.5 C29.5 93.44 29.5 99.38 29.5 105.5 C23.38054106 111.61945894 23.38054106 111.61945894 16.01831055 111.66113281 C15.02042511 111.66858017 15.02042511 111.66858017 14.00238037 111.67617798 C11.79714937 111.69080622 9.59199034 111.69760326 7.38671875 111.703125 C5.85455829 111.70887667 4.32239785 111.7146344 2.79023743 111.72039795 C-0.42524552 111.73091034 -3.64070345 111.73675119 -6.85620117 111.74023438 C-10.9721189 111.74571442 -15.08770503 111.76973067 -19.20351887 111.79820633 C-22.36999977 111.81685251 -25.53640119 111.82203939 -28.70293236 111.82357025 C-30.2199605 111.82659372 -31.73698735 111.83461198 -33.25396156 111.84775543 C-35.3796045 111.86485519 -37.5044427 111.86292645 -39.63012695 111.85644531 C-40.83876907 111.86009094 -42.04741119 111.86373657 -43.29267883 111.86749268 C-47.82694628 111.3479594 -50.4469349 109.81108187 -53.28759766 106.27441406 C-54.83355842 102.73669797 -54.88838816 99.96736606 -54.8984375 96.109375 C-54.90130768 95.40532532 -54.90417786 94.70127563 -54.90713501 93.97589111 C-54.90916977 92.48994134 -54.90368106 91.00396442 -54.89111328 89.51806641 C-54.87514586 87.27053142 -54.89093019 85.02482088 -54.91015625 82.77734375 C-54.92908465 71.33290137 -53.87877953 62.97613038 -45.734375 54.4453125 C-39.65603672 49.15333266 -32.27842968 47.73415586 -24.5 46.5 C-25.03109375 46.06429687 -25.5621875 45.62859375 -26.109375 45.1796875 C-31.43339669 40.69118746 -36.13780503 36.61651392 -37.5 29.5 C-38.14543993 20.8113855 -37.50518865 14.28604118 -32.8125 6.8125 C-24.47839017 -1.52160983 -11.12215708 -4.97974291 0 0 Z " fill="#A1E52D" transform="translate(181.5,1.5)"/>
<path d="M0 0 C5.17527415 4.12697768 8.72964443 9.11547845 10.01953125 15.7109375 C10.73757407 24.60362161 9.83344448 31.50026885 4.14453125 38.5234375 C1.76414304 41.26153433 -0.8270088 42.93110332 -3.98046875 44.7109375 C-3.20703125 44.80890625 -2.43359375 44.906875 -1.63671875 45.0078125 C9.24367768 46.56984961 15.08732299 49.0694639 22.35546875 57.39453125 C25.44705111 61.69807195 26.01953125 64.3368079 26.01953125 69.7109375 C48.78953125 69.7109375 71.55953125 69.7109375 95.01953125 69.7109375 C95.34953125 67.4009375 95.67953125 65.0909375 96.01953125 62.7109375 C98.78313671 56.21303872 103.75371478 50.67859338 110.1875 47.7109375 C115.07279859 45.96198379 119.86494454 45.17953629 125.01953125 44.7109375 C124.22289062 44.16566406 124.22289062 44.16566406 123.41015625 43.609375 C116.5889318 38.75485395 112.73007821 34.1211267 111.01953125 25.7109375 C110.00714704 17.48915058 112.50567614 10.90069601 116.70703125 3.8984375 C122.33066942 -1.42122023 128.55911231 -3.93922572 136.20703125 -4.5390625 C143.64036362 -4.05163087 150.052615 -2.22601179 155.55078125 2.9609375 C161.44457923 9.9833351 162.67933902 17.80353254 162.01953125 26.7109375 C160.77777867 32.78289716 157.57825335 37.56187015 153.01953125 41.7109375 C151.37534742 42.74748818 149.7121887 43.75559016 148.01953125 44.7109375 C148.79296875 44.80890625 149.56640625 44.906875 150.36328125 45.0078125 C160.98466338 46.53266439 166.92656584 49.02478807 174.2578125 56.90625 C179.39602212 65.08637085 179.49743851 73.97323864 179.41064453 83.38037109 C179.39444805 85.47168093 179.41062723 87.56108951 179.4296875 89.65234375 C179.42770665 91.00000421 179.42386624 92.34766349 179.41796875 93.6953125 C179.41458496 94.89897461 179.41120117 96.10263672 179.40771484 97.34277344 C178.9743334 101.10310706 178.00503648 103.50264094 176.01953125 106.7109375 C172.33090682 109.17002045 170.46117488 108.98058519 166.05712891 109.01733398 C165.00050301 109.02981926 165.00050301 109.02981926 163.92253113 109.04255676 C161.59282918 109.06666068 159.26340719 109.07542925 156.93359375 109.08203125 C155.3131807 109.09099741 153.69276851 109.10011926 152.07235718 109.10939026 C148.67451973 109.12588393 145.27678087 109.13358102 141.87890625 109.13647461 C137.52847589 109.14185843 133.17897408 109.17953571 128.82880592 109.22521877 C125.48129915 109.25498684 122.13401603 109.2621981 118.7863884 109.26320076 C117.18281171 109.26740374 115.5792344 109.27984132 113.97578812 109.30071831 C111.7300754 109.32762952 109.48651521 109.32281051 107.24072266 109.31030273 C105.96403717 109.31537338 104.68735168 109.32044403 103.37197876 109.32566833 C99.15012884 108.55151712 97.68997868 106.99141409 95.01953125 103.7109375 C92.75097539 98.49435495 93.96876106 91.19411754 94.01953125 85.7109375 C85.76953125 85.7109375 77.51953125 85.7109375 69.01953125 85.7109375 C69.01953125 115.7409375 69.01953125 145.7709375 69.01953125 176.7109375 C70.66953125 177.0409375 72.31953125 177.3709375 74.01953125 177.7109375 C79.64443033 181.19580221 83.63325917 186.2563832 85.60546875 192.59375 C87.0136198 199.79391859 86.67369292 207.26161485 83.01953125 213.7109375 C79.8931273 218.17594543 76.78426911 221.02168715 72.01953125 223.7109375 C73.1796875 223.85789062 73.1796875 223.85789062 74.36328125 224.0078125 C84.98466338 225.53266439 90.92656584 228.02478807 98.2578125 235.90625 C103.39602212 244.08637085 103.49743851 252.97323864 103.41064453 262.38037109 C103.39444805 264.47168093 103.41062723 266.56108951 103.4296875 268.65234375 C103.42770665 270.00000421 103.42386624 271.34766349 103.41796875 272.6953125 C103.41458496 273.89897461 103.41120117 275.10263672 103.40771484 276.34277344 C102.9743334 280.10310706 102.00503648 282.50264094 100.01953125 285.7109375 C96.33090682 288.17002045 94.46117488 287.98058519 90.05712891 288.01733398 C89.35271164 288.0256575 88.64829437 288.03398102 87.92253113 288.04255676 C85.59282918 288.06666068 83.26340719 288.07542925 80.93359375 288.08203125 C79.3131807 288.09099741 77.69276851 288.10011926 76.07235718 288.10939026 C72.67451973 288.12588393 69.27678087 288.13358102 65.87890625 288.13647461 C61.52847589 288.14185843 57.17897408 288.17953571 52.82880592 288.22521877 C49.48129915 288.25498684 46.13401603 288.2621981 42.7863884 288.26320076 C41.18281171 288.26740374 39.5792344 288.27984132 37.97578812 288.30071831 C35.7300754 288.32762952 33.48651521 288.32281051 31.24072266 288.31030273 C29.32569443 288.31790871 29.32569443 288.31790871 27.37197876 288.32566833 C23.13952631 287.54957295 21.67615917 286.02168378 19.01953125 282.7109375 C17.19247393 277.13298989 17.83527982 270.83512628 17.83203125 265.0234375 C17.81978516 263.88970703 17.80753906 262.75597656 17.79492188 261.58789062 C17.77521833 250.19267146 18.69227434 240.66934223 26.5859375 231.98828125 C32.96243638 225.96685423 40.52096783 224.48353417 49.01953125 223.7109375 C48.24029297 223.21787109 48.24029297 223.21787109 47.4453125 222.71484375 C40.85584602 218.22036477 36.58430148 212.65997027 35.01953125 204.7109375 C34.04334857 196.48539818 36.50756925 189.89754084 40.70703125 182.8984375 C43.01953125 180.7109375 43.01953125 180.7109375 52.01953125 175.7109375 C52.34953125 146.0109375 52.67953125 116.3109375 53.01953125 85.7109375 C44.43953125 85.7109375 35.85953125 85.7109375 27.01953125 85.7109375 C27.17666996 90.70721373 27.17666996 90.70721373 27.37988281 95.70166016 C27.46031515 100.8117082 26.38310984 103.6621855 23.01953125 107.7109375 C20.08175085 109.1798277 17.45067513 108.8707843 14.1706543 108.90380859 C13.46638306 108.91198608 12.76211182 108.92016357 12.03649902 108.92858887 C9.70142468 108.95343937 7.36641112 108.96995804 5.03125 108.984375 C4.23394785 108.98969868 3.4366457 108.99502235 2.61518288 109.00050735 C-1.6050864 109.0272377 -5.82532612 109.04661276 -10.0456543 109.06103516 C-14.40391098 109.07768135 -18.7614112 109.12245829 -23.1193819 109.1734066 C-26.47115442 109.20706966 -29.82274718 109.21861147 -33.17467308 109.22426224 C-34.78105639 109.2309776 -36.38742776 109.24620728 -37.99364662 109.27015305 C-40.24419329 109.30178962 -42.49269738 109.30184502 -44.7434082 109.29443359 C-46.02310989 109.30252045 -47.30281158 109.3106073 -48.62129211 109.31893921 C-52.89160806 108.5460238 -54.35911757 107.10934432 -56.98046875 103.7109375 C-57.48040234 100.69945076 -57.68382168 98.26649815 -57.64453125 95.26171875 C-57.64931488 94.44906052 -57.65409851 93.63640228 -57.6590271 92.79911804 C-57.66242169 91.08196067 -57.65324991 89.36473829 -57.63232422 87.64770508 C-57.60572148 85.04813344 -57.63199207 82.45294746 -57.6640625 79.85351562 C-57.68604314 69.70413989 -57.18484434 61.46974708 -50.06689453 53.59350586 C-43.53117709 47.11600339 -35.86879663 45.51896731 -26.98046875 44.7109375 C-27.49996094 44.38222656 -28.01945312 44.05351562 -28.5546875 43.71484375 C-35.14415398 39.22036477 -39.41569852 33.65997027 -40.98046875 25.7109375 C-41.81444068 18.6836986 -40.30885243 12.92028278 -36.98046875 6.7109375 C-27.79967182 -4.76505867 -12.60420938 -8.20392327 0 0 Z " fill="#FD7F86" transform="translate(56.98046875,224.2890625)"/>
<path d="M0 0 C6.76745474 4.21675829 11.21778853 10.12790581 13.12890625 17.85546875 C14.20752094 25.54201767 13.15669596 33.15247992 8.5 39.5 C5.78064208 42.28005788 2.99020792 44.75489604 -0.5 46.5 C0.35722656 46.67015625 1.21445313 46.8403125 2.09765625 47.015625 C12.84859853 49.29429146 20.08373307 52.17735474 26.5 61.5 C29.21952505 66.88193499 29.96715718 71.11105418 29.96875 77.1015625 C29.98017029 78.30079849 29.98017029 78.30079849 29.99182129 79.52426147 C30.00256488 81.2033172 30.00549891 82.88243943 30.00097656 84.56152344 C29.99999982 87.12547607 30.04177264 89.68647515 30.0859375 92.25 C30.09114219 93.88801463 30.09383273 95.5260396 30.09375 97.1640625 C30.11014526 97.92562653 30.12654053 98.68719055 30.14343262 99.47183228 C30.09101626 103.51509621 29.67609812 105.28401244 27.08789062 108.45849609 C23.11342251 111.5938265 21.05559792 111.63261927 16.01831055 111.66113281 C15.02042511 111.66858017 15.02042511 111.66858017 14.00238037 111.67617798 C11.79714937 111.69080622 9.59199034 111.69760326 7.38671875 111.703125 C5.85455829 111.70887667 4.32239785 111.7146344 2.79023743 111.72039795 C-0.42524552 111.73091034 -3.64070345 111.73675119 -6.85620117 111.74023438 C-10.9721189 111.74571442 -15.08770503 111.76973067 -19.20351887 111.79820633 C-22.36999977 111.81685251 -25.53640119 111.82203939 -28.70293236 111.82357025 C-30.2199605 111.82659372 -31.73698735 111.83461198 -33.25396156 111.84775543 C-35.3796045 111.86485519 -37.5044427 111.86292645 -39.63012695 111.85644531 C-40.83876907 111.86009094 -42.04741119 111.86373657 -43.29267883 111.86749268 C-47.82694628 111.3479594 -50.4469349 109.81108187 -53.28759766 106.27441406 C-54.83355842 102.73669797 -54.88838816 99.96736606 -54.8984375 96.109375 C-54.90274277 95.05330048 -54.90274277 95.05330048 -54.90713501 93.97589111 C-54.90916977 92.48994134 -54.90368106 91.00396442 -54.89111328 89.51806641 C-54.87514586 87.27053142 -54.89093019 85.02482088 -54.91015625 82.77734375 C-54.92908465 71.33290137 -53.87877953 62.97613038 -45.734375 54.4453125 C-39.65603672 49.15333266 -32.27842968 47.73415586 -24.5 46.5 C-25.03109375 46.06429687 -25.5621875 45.62859375 -26.109375 45.1796875 C-31.43339669 40.69118746 -36.13780503 36.61651392 -37.5 29.5 C-38.14543993 20.8113855 -37.50518865 14.28604118 -32.8125 6.8125 C-24.47839017 -1.52160983 -11.12215708 -4.97974291 0 0 Z " fill="#A2E52D" transform="translate(181.5,1.5)"/>
<path d="M0 0 C6.50372878 3.05327725 10.78728726 8.17252237 14.421875 14.2734375 C16.63813181 21.08259493 16.4699672 29.8039207 13.61328125 36.38671875 C10.91398649 40.66133963 6.97970075 44.99452462 2.421875 47.2734375 C3.6903125 47.51126953 3.6903125 47.51126953 4.984375 47.75390625 C15.57107515 49.93139799 23.25508198 53.1132619 29.421875 62.2734375 C33.22977779 69.61615003 32.88184429 77.7277651 32.81298828 85.77685547 C32.79680762 88.03283218 32.81295056 90.28704414 32.83203125 92.54296875 C32.83005035 93.98958725 32.82620984 95.43620466 32.8203125 96.8828125 C32.81692871 98.18186523 32.81354492 99.48091797 32.81005859 100.81933594 C32.3902695 104.55466682 31.7627357 106.35903076 29.421875 109.2734375 C25.43008114 112.21999834 22.53111641 112.65529433 17.61547852 112.67749023 C16.95138977 112.68435349 16.28730103 112.69121674 15.60308838 112.69828796 C13.41876541 112.71651444 11.23516358 112.71272468 9.05078125 112.70703125 C7.5253018 112.7115952 5.9998244 112.71690141 4.47434998 112.72291565 C1.28091059 112.73183865 -1.91227861 112.72943317 -5.10571289 112.71948242 C-9.18911785 112.70799562 -13.27165766 112.72820298 -17.354949 112.75739956 C-20.50435328 112.77578563 -23.65355117 112.77546434 -26.80299568 112.76976204 C-28.30802689 112.76960911 -29.81307235 112.77563029 -31.31805229 112.78805351 C-33.42669095 112.80300793 -35.53374343 112.7922567 -37.64233398 112.77514648 C-38.83970688 112.77498032 -40.03707977 112.77481415 -41.27073669 112.77464294 C-45.25889999 112.17027207 -47.44564399 110.76802288 -50.578125 108.2734375 C-52.97747051 103.47474647 -51.89072969 96.19689106 -51.92822266 90.86376953 C-51.94468786 89.15106529 -51.97185151 87.43842704 -52.01025391 85.72607422 C-52.26515185 74.29113073 -52.07953305 65.6791866 -44.296875 56.6171875 C-43.5646875 56.00875 -42.8325 55.4003125 -42.078125 54.7734375 C-41.3459375 54.144375 -40.61375 53.5153125 -39.859375 52.8671875 C-35.7465238 49.9938257 -31.6673344 48.97523186 -26.765625 48.1484375 C-25.30189453 47.89707031 -25.30189453 47.89707031 -23.80859375 47.640625 C-22.70451172 47.45886719 -22.70451172 47.45886719 -21.578125 47.2734375 C-22.10921875 46.90992188 -22.6403125 46.54640625 -23.1875 46.171875 C-29.48497634 41.6900944 -33.65654539 37.40056485 -35.32421875 29.54296875 C-36.17143204 21.97018531 -35.12140232 14.51360153 -30.578125 8.2734375 C-22.31924117 -0.54672969 -11.79342932 -3.32360281 0 0 Z " fill="#FC7F87" transform="translate(352.578125,0.7265625)"/>
<path d="M0 0 C4.9232366 3.93858928 8.89528914 9.51591191 10.8125 15.5625 C10.874375 16.366875 10.93625 17.17125 11 18 C11.0825 19.051875 11.165 20.10375 11.25 21.1875 C10.75161895 28.78781107 8.82108836 34.82736896 3.6953125 40.52734375 C1.61968419 42.3303665 -0.61353977 43.64497597 -3 45 C-2.2265625 45.09796875 -1.453125 45.1959375 -0.65625 45.296875 C9.45262999 46.74814985 15.96966435 48.86651273 22.52734375 56.91796875 C28.71542696 65.66663812 28.20766797 75.6455258 28.25 85.9375 C28.270625 87.18724609 28.29125 88.43699219 28.3125 89.72460938 C28.36243104 101.47712845 28.36243104 101.47712845 25 107 C21.31137557 109.45908295 19.44164363 109.26964769 15.03759766 109.30639648 C14.33318039 109.31472 13.62876312 109.32304352 12.90299988 109.33161926 C10.57329793 109.35572318 8.24387594 109.36449175 5.9140625 109.37109375 C4.29364945 109.38005991 2.67323726 109.38918176 1.05282593 109.39845276 C-2.34501152 109.41494643 -5.74275038 109.42264352 -9.140625 109.42553711 C-13.49105536 109.43092093 -17.84055717 109.46859821 -22.19072533 109.51428127 C-25.5382321 109.54404934 -28.88551522 109.5512606 -32.23314285 109.55226326 C-33.83671954 109.55646624 -35.44029685 109.56890382 -37.04374313 109.58978081 C-39.28945585 109.61669202 -41.53301604 109.61187301 -43.77880859 109.59936523 C-45.05549408 109.60443588 -46.33217957 109.60950653 -47.64755249 109.61473083 C-51.89144723 108.83653731 -53.34602492 107.33138535 -56 104 C-57.70521746 98.88434762 -57.22548198 93.43287441 -57.24023438 88.07836914 C-57.24985563 85.96914947 -57.28084911 83.86094069 -57.3125 81.75195312 C-57.40601382 70.16823969 -56.43597089 61.42628493 -48.16015625 52.91015625 C-41.62551061 47.13178063 -34.48490532 46.07475467 -26 45 C-26.51949219 44.6596875 -27.03898437 44.319375 -27.57421875 43.96875 C-33.78624239 39.65133616 -38.56351184 34.6564819 -40 27 C-40.86762775 17.96813733 -39.11667752 11.67501629 -34.125 4.1875 C-24.43471819 -5.7877901 -11.76299184 -6.3052944 0 0 Z " fill="#FFD05A" transform="translate(333,403)"/>
<path d="M0 0 C5.90262514 4.72210011 10.34013811 11.43985226 11.23828125 19.0078125 C11.50168887 26.52186149 9.20823324 32.61404237 5.125 38.875 C2.64126101 41.35873899 -0.01186811 43.16637361 -3 45 C-2.2265625 45.09796875 -1.453125 45.1959375 -0.65625 45.296875 C9.47451954 46.75129241 15.68776863 48.90871208 22.45703125 56.70703125 C26.48446704 62.69210671 27.46692525 67.7593537 27.46875 74.8203125 C27.48017029 76.05284256 27.48017029 76.05284256 27.49182129 77.31027222 C27.50256746 79.03640724 27.50549785 80.76260698 27.50097656 82.48876953 C27.49999996 85.12511996 27.54176806 87.75859699 27.5859375 90.39453125 C27.59114222 92.07811897 27.59383273 93.76171674 27.59375 95.4453125 C27.61014526 96.22875031 27.62654053 97.01218811 27.64343262 97.81936646 C27.59549796 101.62005598 27.25609269 103.66827212 24.91088867 106.70611572 C21.27749479 109.56935992 19.39841995 109.63260964 14.81054688 109.64697266 C14.10583755 109.65573425 13.40112823 109.66449585 12.67506409 109.67352295 C10.35565831 109.69545221 8.03817365 109.68098981 5.71875 109.6640625 C4.10119258 109.66743256 2.48363764 109.67228677 0.86608887 109.67855835 C-2.52002123 109.68592081 -5.90547075 109.6752452 -9.29150391 109.65185547 C-13.62632068 109.62336706 -17.95958966 109.63977453 -22.29434967 109.66971779 C-25.63335783 109.6878083 -28.97200057 109.68202492 -32.3110199 109.66907883 C-33.90897303 109.66574961 -35.50695961 109.66981491 -37.10487366 109.68147659 C-39.34098839 109.69421553 -41.57461684 109.6747718 -43.81054688 109.64697266 C-45.08119995 109.64299469 -46.35185303 109.63901672 -47.66101074 109.63491821 C-51.86498443 108.83552077 -53.32980451 107.26586457 -56 104 C-58.20472356 99.59055288 -57.2272452 93.62780955 -57.24023438 88.7265625 C-57.24984185 86.53605731 -57.2808142 84.3465309 -57.3125 82.15625 C-57.40266239 70.57563003 -56.51860029 61.51131373 -48.16015625 52.91015625 C-41.62551061 47.13178063 -34.48490532 46.07475467 -26 45 C-26.51949219 44.6596875 -27.03898437 44.319375 -27.57421875 43.96875 C-33.67521725 39.72849966 -37.8382831 35.28941626 -39.8125 28 C-39.874375 27.01 -39.93625 26.02 -40 25 C-40.0825 23.741875 -40.165 22.48375 -40.25 21.1875 C-40.11176768 13.94412647 -37.67845297 7.8052699 -32.74609375 2.50390625 C-23.07616072 -5.82478327 -10.88822515 -5.83639485 0 0 Z " fill="#FFD05A" transform="translate(485,403)"/>
<path d="M0 0 C5.17527415 4.12697768 8.72964443 9.11547845 10.01953125 15.7109375 C10.73757407 24.60362161 9.83344448 31.50026885 4.14453125 38.5234375 C1.76414304 41.26153433 -0.8270088 42.93110332 -3.98046875 44.7109375 C-3.20703125 44.80890625 -2.43359375 44.906875 -1.63671875 45.0078125 C9.24367768 46.56984961 15.08732299 49.0694639 22.35546875 57.39453125 C26.16864771 62.70254797 26.41546749 67.62088767 26.64453125 73.9609375 C26.69710083 75.27698975 26.69710083 75.27698975 26.75073242 76.61962891 C26.81810862 78.42948741 26.8798508 80.23956419 26.93603516 82.04980469 C26.98999204 83.76948322 27.05163131 85.48894559 27.12255859 87.20800781 C27.21499556 89.50063226 27.27838953 91.79211521 27.33203125 94.0859375 C27.36184082 94.76817383 27.39165039 95.45041016 27.42236328 96.15332031 C27.48069304 101.12500138 26.12962832 103.89111512 23.01953125 107.7109375 C20.08175085 109.1798277 17.45067513 108.8707843 14.1706543 108.90380859 C13.46638306 108.91198608 12.76211182 108.92016357 12.03649902 108.92858887 C9.70142468 108.95343937 7.36641112 108.96995804 5.03125 108.984375 C4.23394785 108.98969868 3.4366457 108.99502235 2.61518288 109.00050735 C-1.6050864 109.0272377 -5.82532612 109.04661276 -10.0456543 109.06103516 C-14.40391098 109.07768135 -18.7614112 109.12245829 -23.1193819 109.1734066 C-26.47115442 109.20706966 -29.82274718 109.21861147 -33.17467308 109.22426224 C-34.78105639 109.2309776 -36.38742776 109.24620728 -37.99364662 109.27015305 C-40.24419329 109.30178962 -42.49269738 109.30184502 -44.7434082 109.29443359 C-46.02310989 109.30252045 -47.30281158 109.3106073 -48.62129211 109.31893921 C-52.89160806 108.5460238 -54.35911757 107.10934432 -56.98046875 103.7109375 C-57.48040234 100.69945076 -57.68382168 98.26649815 -57.64453125 95.26171875 C-57.64931488 94.44906052 -57.65409851 93.63640228 -57.6590271 92.79911804 C-57.66242169 91.08196067 -57.65324991 89.36473829 -57.63232422 87.64770508 C-57.60572148 85.04813344 -57.63199207 82.45294746 -57.6640625 79.85351562 C-57.68604314 69.70413989 -57.18484434 61.46974708 -50.06689453 53.59350586 C-43.53117709 47.11600339 -35.86879663 45.51896731 -26.98046875 44.7109375 C-27.49996094 44.38222656 -28.01945312 44.05351562 -28.5546875 43.71484375 C-35.14415398 39.22036477 -39.41569852 33.65997027 -40.98046875 25.7109375 C-41.81444068 18.6836986 -40.30885243 12.92028278 -36.98046875 6.7109375 C-27.79967182 -4.76505867 -12.60420938 -8.20392327 0 0 Z " fill="#61DBFB" transform="translate(56.98046875,224.2890625)"/>
<path d="M0 0 C5.90262514 4.72210011 10.34013811 11.43985226 11.23828125 19.0078125 C11.50168887 26.52186149 9.20823324 32.61404237 5.125 38.875 C2.64126101 41.35873899 -0.01186811 43.16637361 -3 45 C-2.2265625 45.09796875 -1.453125 45.1959375 -0.65625 45.296875 C9.47451954 46.75129241 15.68776863 48.90871208 22.45703125 56.70703125 C26.48446704 62.69210671 27.46692525 67.7593537 27.46875 74.8203125 C27.48017029 76.05284256 27.48017029 76.05284256 27.49182129 77.31027222 C27.50256746 79.03640724 27.50549785 80.76260698 27.50097656 82.48876953 C27.49999996 85.12511996 27.54176806 87.75859699 27.5859375 90.39453125 C27.59114222 92.07811897 27.59383273 93.76171674 27.59375 95.4453125 C27.61014526 96.22875031 27.62654053 97.01218811 27.64343262 97.81936646 C27.59549796 101.62005598 27.25609269 103.66827212 24.91088867 106.70611572 C21.27749479 109.56935992 19.39841995 109.63260964 14.81054688 109.64697266 C14.10583755 109.65573425 13.40112823 109.66449585 12.67506409 109.67352295 C10.35565831 109.69545221 8.03817365 109.68098981 5.71875 109.6640625 C4.10119258 109.66743256 2.48363764 109.67228677 0.86608887 109.67855835 C-2.52002123 109.68592081 -5.90547075 109.6752452 -9.29150391 109.65185547 C-13.62632068 109.62336706 -17.95958966 109.63977453 -22.29434967 109.66971779 C-25.63335783 109.6878083 -28.97200057 109.68202492 -32.3110199 109.66907883 C-33.90897303 109.66574961 -35.50695961 109.66981491 -37.10487366 109.68147659 C-39.34098839 109.69421553 -41.57461684 109.6747718 -43.81054688 109.64697266 C-45.08119995 109.64299469 -46.35185303 109.63901672 -47.66101074 109.63491821 C-51.86498443 108.83552077 -53.32980451 107.26586457 -56 104 C-58.48619514 99.02760972 -57.1019451 91.54733192 -57 86 C-56.98743164 85.11521973 -56.97486328 84.23043945 -56.96191406 83.31884766 C-56.91395963 80.54483074 -56.8358843 77.77308142 -56.75 75 C-56.73598145 74.12883545 -56.72196289 73.2576709 -56.70751953 72.36010742 C-56.43229552 65.21592193 -54.57832532 60.0614532 -49.95703125 54.57421875 C-42.48926842 48.00421976 -35.77503445 45.8886395 -26 45 C-26.51949219 44.6596875 -27.03898437 44.319375 -27.57421875 43.96875 C-33.77638545 39.65818682 -38.58108988 34.65351521 -40 27 C-40.71044078 18.20146417 -39.79671193 11.30326439 -34.3125 4.25 C-25.09177448 -5.82151566 -11.47907289 -6.15310585 0 0 Z " fill="#FFD05A" transform="translate(485,224)"/>
<path d="M0 0 C29.7 0 59.4 0 90 0 C90 5.28 90 10.56 90 16 C77.79 16 65.58 16 53 16 C53 43.06 53 70.12 53 98 C71.90794348 97.84173651 71.90794348 97.84173651 90.81542969 97.63964844 C93.18423748 97.62796699 95.55305329 97.61777389 97.921875 97.609375 C99.76966553 97.5786792 99.76966553 97.5786792 101.65478516 97.54736328 C102.83186035 97.54687988 104.00893555 97.54639648 105.22167969 97.54589844 C106.75390167 97.53257477 106.75390167 97.53257477 108.31707764 97.51898193 C111.77138148 98.1383001 112.93498028 99.19593969 115 102 C115.48101807 104.22735596 115.48101807 104.22735596 115.45410156 106.67675781 C115.45379944 107.59741028 115.45349731 108.51806274 115.45318604 109.46661377 C115.43254089 110.45216248 115.41189575 111.43771118 115.390625 112.453125 C115.38496521 113.46848328 115.37930542 114.48384155 115.37347412 115.52996826 C115.35109753 118.77046001 115.30089755 122.0098429 115.25 125.25 C115.22993671 127.44790069 115.21168565 129.64581872 115.1953125 131.84375 C115.15122831 137.22959341 115.08219076 142.61460875 115 148 C109.72 148 104.44 148 99 148 C99 136.78 99 125.56 99 114 C63.36 114 27.72 114 -9 114 C-9 125.22 -9 136.44 -9 148 C-14.28 148 -19.56 148 -25 148 C-25.09886317 141.52218078 -25.17146677 135.0448005 -25.21972656 128.56640625 C-25.23984419 126.3625524 -25.26714172 124.15875193 -25.30175781 121.95507812 C-25.35026833 118.78762644 -25.37296736 115.62088032 -25.390625 112.453125 C-25.41127014 111.46757629 -25.43191528 110.48202759 -25.45318604 109.46661377 C-25.45348816 108.5459613 -25.45379028 107.62530884 -25.45410156 106.67675781 C-25.46298401 105.8684552 -25.47186646 105.06015259 -25.48101807 104.22735596 C-24.79884204 101.06853734 -23.57203245 99.91415204 -21 98 C-18.31707764 97.51898193 -18.31707764 97.51898193 -15.22167969 97.54589844 C-14.04460449 97.54638184 -12.8675293 97.54686523 -11.65478516 97.54736328 C-10.4229248 97.56782715 -9.19106445 97.58829102 -7.921875 97.609375 C-6.78572754 97.61340332 -5.64958008 97.61743164 -4.47900391 97.62158203 C-0.23583828 97.64250661 4.00709712 97.69835204 8.25 97.75 C17.7375 97.8325 27.225 97.915 37 98 C37 70.94 37 43.88 37 16 C24.79 16 12.58 16 0 16 C0 10.72 0 5.44 0 0 Z " fill="#796C78" transform="translate(211,73)"/>
<path d="M0 0 C1.24023422 -0.00786278 1.24023422 -0.00786278 2.50552368 -0.0158844 C4.24162685 -0.02226089 5.97777348 -0.02102487 7.71386719 -0.01245117 C10.33869088 -0.00394795 12.9613282 -0.03275138 15.5859375 -0.06445312 C26.38027304 -0.1104227 36.45400216 0.1002655 44.9140625 7.68359375 C52.95071886 16.66460541 53.1849747 26.17835835 53.21679688 37.72583008 C53.22651762 39.86123394 53.25758687 41.99568023 53.2890625 44.13085938 C53.29559254 45.50129642 53.30084301 46.87174029 53.3046875 48.2421875 C53.3140332 49.47767334 53.32337891 50.71315918 53.33300781 51.98608398 C52.93775754 55.80891217 52.00145285 58.18362695 49.9765625 61.43359375 C46.28793807 63.8926767 44.41820613 63.70324144 40.01416016 63.73999023 C39.30974289 63.74831375 38.60532562 63.75663727 37.87956238 63.76521301 C35.54986043 63.78931693 33.22043844 63.7980855 30.890625 63.8046875 C29.27021195 63.81365366 27.64979976 63.82277551 26.02938843 63.83204651 C22.63155098 63.84854018 19.23381212 63.85623727 15.8359375 63.85913086 C11.48550714 63.86451468 7.13600533 63.90219196 2.78583717 63.94787502 C-0.5616696 63.97764309 -3.90895272 63.98485435 -7.25658035 63.98585701 C-8.86015704 63.99005999 -10.46373435 64.00249757 -12.06718063 64.02337456 C-14.31289335 64.05028577 -16.55645354 64.04546676 -18.80224609 64.03295898 C-20.07893158 64.03802963 -21.35561707 64.04310028 -22.67098999 64.04832458 C-26.90344244 63.2722292 -28.36680958 61.74434003 -31.0234375 58.43359375 C-32.85049482 52.85564614 -32.20768893 46.55778253 -32.2109375 40.74609375 C-32.22318359 39.61236328 -32.23542969 38.47863281 -32.24804688 37.31054688 C-32.26775042 25.91532771 -31.35069441 16.39199848 -23.45703125 7.7109375 C-16.8065003 1.43073774 -8.88819518 -0.03379344 0 0 Z " fill="#62DAFB" transform="translate(107.0234375,448.56640625)"/>
<path d="M0 0 C22.77 0 45.54 0 69 0 C69 5.28 69 10.56 69 16 C60.42 16 51.84 16 43 16 C43 46.03 43 76.06 43 107 C44.65 107.33 46.3 107.66 48 108 C53.62489908 111.48486471 57.61372792 116.5454457 59.5859375 122.8828125 C61.19304001 131.1002612 60.36071588 138.8908743 55.74609375 145.90625 C51.65260195 151.17090431 46.82475558 153.85257332 40.5 155.75 C31.83457718 156.61654228 25.1321072 155.7017624 17.75 150.875 C11.59122726 144.43628305 8.61247947 137.3696343 8.71484375 128.5078125 C9.44146039 122.11756756 12.31736993 115.42951493 17 111 C19.97 109.35 22.94 107.7 26 106 C26.33 76.3 26.66 46.6 27 16 C18.42 16 9.84 16 1 16 C0.67 15.67 0.34 15.34 0 15 C0 10.05 0 5.1 0 0 Z " fill="#796D79" transform="translate(83,294)"/>
<path d="M0 0 C22.77 0 45.54 0 69 0 C69 5.28 69 10.56 69 16 C59.76 16 50.52 16 41 16 C41 51.31 41 86.62 41 123 C55.85 123 70.7 123 86 123 C86 128.28 86 133.56 86 139 C52.01 139 18.02 139 -17 139 C-17 133.72 -17 128.44 -17 123 C-3.14 123 10.72 123 25 123 C25 87.69 25 52.38 25 16 C16.75 16 8.5 16 0 16 C0 10.72 0 5.44 0 0 Z " fill="#7A6D78" transform="translate(360,294)"/>
<path d="M0 0 C4.96212316 3.79660121 8.07605943 9.78967543 9.25 15.875 C10.05042132 23.92539136 8.60952964 31.23775368 3.5625 37.6875 C-1.95039462 43.59809099 -8.63868637 45.60091242 -16.5 46.125 C-23.82944496 45.98696902 -29.89302267 43.54757514 -35.24609375 38.5546875 C-40.821195 32.32795104 -42.11111817 25.88964467 -42.03515625 17.76171875 C-41.39552982 11.28659638 -38.25736201 5.51493149 -33.75 0.875 C-23.55940048 -7.23115871 -10.82530758 -6.80111715 0 0 Z " fill="#FDD1A4" transform="translate(334.75,225.125)"/>
<path d="M0 0 C5.33910209 4.20482933 7.83269949 9.40825473 9.9453125 15.74609375 C10.68534303 24.55530334 9.74959338 31.48641306 4.1953125 38.49609375 C-1.5348205 44.70846567 -7.5715692 46.45211878 -15.8671875 46.99609375 C-23.56003066 46.86371213 -29.66763317 44.13314808 -35.0546875 38.74609375 C-39.71324724 32.79348964 -41.55445194 26.64696479 -41.375 19.1484375 C-40.52733544 12.79095327 -37.73093339 6.16956959 -33.0546875 1.74609375 C-22.69860473 -5.08658492 -11.03212106 -6.73253015 0 0 Z " fill="#FDD1A4" transform="translate(209.0546875,224.25390625)"/>
<path d="M0 0 C5.90262514 4.72210011 10.34013811 11.43985226 11.23828125 19.0078125 C11.50168887 26.52186149 9.20823324 32.61404237 5.125 38.875 C-0.8641013 44.8641013 -6.74390048 46.66221432 -14.9375 47.3125 C-22.17478398 47.0712572 -28.2102948 44.60982945 -33.49609375 39.6796875 C-39.12503276 33.39282055 -40.31985111 27.00280349 -40.2109375 18.8125 C-39.664967 11.53289335 -36.46108031 5.81356967 -31 1 C-20.84188254 -5.45891862 -10.61633717 -5.69065525 0 0 Z " fill="#FED2A3" transform="translate(485,224)"/>
<path d="M0 0 C5.17527415 4.12697768 8.72964443 9.11547845 10.01953125 15.7109375 C10.73157312 24.52930225 9.83522124 31.43685815 4.26953125 38.4609375 C-1.46060175 44.67330942 -7.49735045 46.41696253 -15.79296875 46.9609375 C-21.96441643 46.85473668 -27.09841936 44.94150826 -32.23046875 41.5859375 C-38.38477508 35.15188997 -41.37867263 28.07800624 -41.26171875 19.21875 C-40.61215153 13.42677564 -38.34866186 8.42117889 -34.73046875 3.8984375 C-24.14025429 -4.52559673 -12.21667967 -7.95168499 0 0 Z " fill="#FDD2A4" transform="translate(56.98046875,224.2890625)"/>
<path d="M0 0 C5.12714339 4.11491766 8.66617488 9.17044137 9.9453125 15.7109375 C10.65575328 24.50947333 9.74202443 31.40767311 4.2578125 38.4609375 C-1.22759087 44.43757102 -7.91759926 46.43513162 -15.8046875 46.9609375 C-22.00498625 46.85564941 -27.14647494 44.95861495 -32.3046875 41.5859375 C-38.46346024 35.14722055 -41.44220803 28.0805718 -41.33984375 19.21875 C-40.61322711 12.82850506 -37.73731757 6.14045243 -33.0546875 1.7109375 C-22.75722175 -5.08306716 -10.93641992 -6.86125204 0 0 Z " fill="#FDD1A4" transform="translate(133.0546875,403.2890625)"/>
<path d="M0 0 C4.9232366 3.93858928 8.89528914 9.51591191 10.8125 15.5625 C10.874375 16.366875 10.93625 17.17125 11 18 C11.0825 19.051875 11.165 20.10375 11.25 21.1875 C10.76282159 28.61697078 8.94267085 35.04616308 3.7421875 40.53125 C-2.2471982 45.58059759 -9.07814772 47.35681454 -16.82421875 47.2109375 C-24.20726666 46.49516625 -30.06391354 43.51303164 -35 38 C-39.92843357 31.07922094 -40.82257843 24.32719808 -40 16 C-37.62288158 7.9818441 -33.31122859 2.15736528 -26 -2 C-16.69785402 -5.51024377 -8.69914598 -4.66298686 0 0 Z " fill="#FDD1A3" transform="translate(333,403)"/>
<path d="M0 0 C5.90262514 4.72210011 10.34013811 11.43985226 11.23828125 19.0078125 C11.50168887 26.52186149 9.20823324 32.61404237 5.125 38.875 C-0.46735739 44.46735739 -6.50806107 46.99782244 -14.375 47.3125 C-21.87314953 47.09571677 -28.00555867 44.81845544 -33.49609375 39.671875 C-38.9102916 33.65297453 -40.36347701 27.13369539 -40.2109375 19.140625 C-39.49198537 11.84459229 -36.5675106 5.79528318 -31 1 C-20.82938465 -5.44726869 -10.62784166 -5.69682198 0 0 Z " fill="#FDD1A3" transform="translate(485,403)"/>
<path d="M0 0 C6.76745474 4.21675829 11.21778853 10.12790581 13.12890625 17.85546875 C14.2114534 25.57004162 13.13342757 33.1167886 8.5 39.5 C3.75727453 44.67816181 -1.49205872 48.13050989 -8.55078125 48.78125 C-17.78868773 49.03697059 -23.94459334 48.14540668 -30.8125 41.8125 C-36.89634173 35.22665168 -38.03510615 29.27109892 -37.7890625 20.40234375 C-37.1678566 14.16510076 -34.98027083 8.98027083 -30.5 4.5 C-21.83703669 -1.69033613 -10.2223672 -4.57687841 0 0 Z " fill="#FDD2A4" transform="translate(181.5,1.5)"/>
<path d="M0 0 C6.50372878 3.05327725 10.78728726 8.17252237 14.421875 14.2734375 C16.63265019 21.06575339 16.50234074 29.84483144 13.58984375 36.39453125 C10.10217317 42.00513175 5.17858599 46.94628609 -1.25390625 48.8671875 C-9.60370571 50.32664825 -16.99000708 50.13166999 -24.421875 45.8125 C-30.28344114 41.62870098 -33.38711374 36.94343995 -35.171875 29.953125 C-36.33876008 22.25617147 -35.21334938 14.63989027 -30.578125 8.2734375 C-22.31924117 -0.54672969 -11.79342932 -3.32360281 0 0 Z " fill="#FED2A4" transform="translate(352.578125,0.7265625)"/>
<path d="M0 0 C4.29160791 -0.05871491 8.58311058 -0.09383483 12.875 -0.125 C14.07898438 -0.14175781 15.28296875 -0.15851562 16.5234375 -0.17578125 C28.15900268 -0.23901802 37.84326653 0.49240335 46.72265625 8.56640625 C54.51855602 16.82201509 54.48315682 26.7437645 54.39111328 37.50341797 C54.37493262 39.75939468 54.39107556 42.01360664 54.41015625 44.26953125 C54.40817535 45.71614975 54.40433484 47.16276716 54.3984375 48.609375 C54.39505371 49.90842773 54.39166992 51.20748047 54.38818359 52.54589844 C53.85650738 57.27681355 52.50233315 59.67576371 48.95703125 62.80078125 C44.54717868 64.5891891 40.39377444 64.31721357 35.6875 64.1875 C34.29047852 64.16719727 34.29047852 64.16719727 32.86523438 64.14648438 C30.57622354 64.11126882 28.28841542 64.06202099 26 64 C25.98541748 62.76958984 25.97083496 61.53917969 25.95581055 60.27148438 C25.89756279 55.67907565 25.82033232 51.08714373 25.73754883 46.49511719 C25.7044236 44.5127744 25.67635356 42.53034011 25.65356445 40.54785156 C25.61978946 37.68775671 25.56746312 34.82849108 25.51171875 31.96875 C25.50532883 31.09134155 25.4989389 30.21393311 25.49235535 29.30993652 C25.30154646 21.21004825 23.31741602 14.5911312 17.73046875 8.53515625 C12.64840954 4.02669289 6.50883466 2.39475028 0 1 C0 0.67 0 0.34 0 0 Z " fill="#FE656F" transform="translate(331,49)"/>
<path d="M0 0 C4.43727178 -0.11756758 8.87413528 -0.18770716 13.3125 -0.25 C14.55580078 -0.28351563 15.79910156 -0.31703125 17.08007812 -0.3515625 C26.75365469 -0.45312236 35.52590976 0.53711454 42.9375 7.25 C50.97415636 16.23101166 51.2084122 25.7447646 51.24023438 37.29223633 C51.24995512 39.42764019 51.28102437 41.56208648 51.3125 43.69726562 C51.31903004 45.06770267 51.32428051 46.43814654 51.328125 47.80859375 C51.34214355 49.66182251 51.34214355 49.66182251 51.35644531 51.55249023 C50.96119504 55.37531842 50.02489035 57.7500332 48 61 C44.69711664 63.20192224 43.72537273 63.23959968 39.89453125 63.1953125 C38.91162109 63.18886719 37.92871094 63.18242188 36.91601562 63.17578125 C35.89185547 63.15902344 34.86769531 63.14226563 33.8125 63.125 C32.77673828 63.11597656 31.74097656 63.10695313 30.67382812 63.09765625 C28.11565315 63.0740786 25.55794252 63.0411703 23 63 C22.99589111 61.78006348 22.99178223 60.56012695 22.98754883 59.30322266 C22.96562376 54.73672387 22.91119697 50.17107044 22.84741211 45.60498047 C22.82434809 43.63631347 22.80986387 41.66752511 22.80444336 39.69873047 C22.91799795 22.11182318 22.91799795 22.11182318 13.8125 7.625 C9.67999958 4.40676958 4.91711691 2.68191122 0 1 C0 0.67 0 0.34 0 0 Z " fill="#03D0FA" transform="translate(109,449)"/>
<path d="M0 0 C4.47904099 -0.087842 8.95785724 -0.14067447 13.4375 -0.1875 C14.69755859 -0.21263672 15.95761719 -0.23777344 17.25585938 -0.26367188 C28.46106419 -0.3514411 35.81280249 0.9914521 44.05078125 8.8125 C51.47144622 17.14030037 51.21098775 26.67936783 51.24023438 37.29223633 C51.24995512 39.42764019 51.28102437 41.56208648 51.3125 43.69726562 C51.31903004 45.06770267 51.32428051 46.43814654 51.328125 47.80859375 C51.34214355 49.66182251 51.34214355 49.66182251 51.35644531 51.55249023 C50.96119504 55.37531842 50.02489035 57.7500332 48 61 C44.69711664 63.20192224 43.72537273 63.23959968 39.89453125 63.1953125 C38.91162109 63.18886719 37.92871094 63.18242187 36.91601562 63.17578125 C35.89185547 63.15902344 34.86769531 63.14226562 33.8125 63.125 C32.77673828 63.11597656 31.74097656 63.10695313 30.67382812 63.09765625 C28.11565315 63.0740786 25.55794252 63.0411703 23 63 C22.99589111 61.78006348 22.99178223 60.56012695 22.98754883 59.30322266 C22.96562376 54.73672387 22.91119697 50.17107044 22.84741211 45.60498047 C22.82434809 43.63631347 22.80986387 41.66752511 22.80444336 39.69873047 C22.91799795 22.11182318 22.91799795 22.11182318 13.8125 7.625 C9.67999958 4.40676958 4.91711691 2.68191122 0 1 C0 0.67 0 0.34 0 0 Z " fill="#FE646F" transform="translate(185,270)"/>
<path d="M0 0 C3.96516109 -0.07493036 7.93004014 -0.12896449 11.89575195 -0.16479492 C13.89744576 -0.18705458 15.89894275 -0.22520146 17.90039062 -0.26367188 C29.18474174 -0.34894405 36.73597131 0.85600941 45.05078125 8.75 C52.74867538 17.63574553 52.20425206 28.81503169 52.25 39.9375 C52.270625 41.18724609 52.29125 42.43699219 52.3125 43.72460938 C52.36243104 55.47712845 52.36243104 55.47712845 49 61 C45.69711664 63.20192224 44.72537273 63.23959968 40.89453125 63.1953125 C39.91162109 63.18886719 38.92871094 63.18242188 37.91601562 63.17578125 C36.89185547 63.15902344 35.86769531 63.14226563 34.8125 63.125 C33.77673828 63.11597656 32.74097656 63.10695313 31.67382812 63.09765625 C29.11565315 63.0740786 26.55794252 63.0411703 24 63 C23.9906543 61.80511963 23.98130859 60.61023926 23.97167969 59.37915039 C23.93156238 54.9114973 23.86574458 50.44451718 23.79248047 45.97729492 C23.76439628 44.05030007 23.7431198 42.12319271 23.72900391 40.19604492 C23.70739943 37.41266802 23.66066189 34.6306261 23.609375 31.84765625 C23.60814636 30.99728287 23.60691772 30.14690948 23.60565186 29.27076721 C23.40504789 20.92690263 20.47560183 13.71808822 14.84765625 7.5 C11.95730579 5.15349984 8.76872166 4.01211596 5.26953125 2.82421875 C3 2 3 2 0 0 Z " fill="#FFC344" transform="translate(309,449)"/>
<path d="M0 0 C6.11775797 5.64021146 9.27933714 12.10538277 9.62231445 20.40966797 C9.64297974 21.63967529 9.64297974 21.63967529 9.6640625 22.89453125 C9.70309692 24.19028076 9.70309692 24.19028076 9.74291992 25.51220703 C9.7918777 27.28932564 9.83184836 29.06671476 9.86279297 30.84423828 C9.91178781 33.3411086 10.00390492 35.83292128 10.10546875 38.328125 C10.14808418 39.82936488 10.18855751 41.33066758 10.2265625 42.83203125 C10.2565332 43.51450928 10.28650391 44.1969873 10.31738281 44.90014648 C10.37448934 49.87151833 9.02407491 52.63731285 5.9140625 56.45703125 C3.40909246 57.70951627 1.70552976 57.57077531 -1.09375 57.5546875 C-2.07988281 57.55146484 -3.06601563 57.54824219 -4.08203125 57.54492188 C-5.11457031 57.53654297 -6.14710937 57.52816406 -7.2109375 57.51953125 C-8.77134766 57.51276367 -8.77134766 57.51276367 -10.36328125 57.50585938 C-12.93755712 57.49405077 -15.51171896 57.477582 -18.0859375 57.45703125 C-18.09004639 56.23709473 -18.09415527 55.0171582 -18.09838867 53.76025391 C-18.12031374 49.19375512 -18.17474053 44.62810169 -18.23852539 40.06201172 C-18.26158941 38.09334472 -18.27607363 36.12455636 -18.28149414 34.15576172 C-17.97735268 17.59329622 -17.97735268 17.59329622 -25.85986328 3.58300781 C-29.21257709 0.43202759 -32.86642313 -1.69049903 -37.0859375 -3.54296875 C-37.0859375 -3.87296875 -37.0859375 -4.20296875 -37.0859375 -4.54296875 C-24.83370604 -6.58500733 -10.48187792 -7.75344903 0 0 Z " fill="#03D0FA" transform="translate(74.0859375,275.54296875)"/>
<path d="M0 0 C5.61938765 5.3512426 9.95014668 11.15608653 10.41992188 19.11181641 C10.45280276 20.60812571 10.46835205 22.10489202 10.46875 23.6015625 C10.48017029 24.80079849 10.48017029 24.80079849 10.49182129 26.02426147 C10.50256488 27.7033172 10.50549891 29.38243943 10.50097656 31.06152344 C10.49999982 33.62547607 10.54177264 36.18647515 10.5859375 38.75 C10.59114219 40.38801463 10.59383273 42.0260396 10.59375 43.6640625 C10.6183429 44.80640854 10.6183429 44.80640854 10.64343262 45.97183228 C10.59101626 50.01509621 10.17609812 51.78401244 7.58789062 54.95849609 C4.18972823 57.63919741 2.66450453 58.12445889 -1.5703125 58.09765625 C-2.46621094 58.09443359 -3.36210937 58.09121094 -4.28515625 58.08789062 C-5.69087891 58.07532227 -5.69087891 58.07532227 -7.125 58.0625 C-8.06988281 58.05798828 -9.01476562 58.05347656 -9.98828125 58.04882812 C-12.32558387 58.03702357 -14.66276061 58.02055759 -17 58 C-17.01458252 56.8354126 -17.02916504 55.6708252 -17.04418945 54.47094727 C-17.10253312 50.11517937 -17.17976148 45.75990909 -17.26245117 41.40454102 C-17.29553184 39.52604296 -17.32361527 37.64744954 -17.34643555 35.76879883 C-17.38029386 33.05509111 -17.43262215 30.34224424 -17.48828125 27.62890625 C-17.49467117 26.80040665 -17.5010611 25.97190704 -17.50764465 25.11830139 C-17.72324252 16.40306892 -19.8886797 9.22834796 -25.8828125 2.796875 C-29.50812474 -0.27995827 -33.6386043 -2.17470763 -38 -4 C-38 -4.33 -38 -4.66 -38 -5 C-9.55331908 -7.46215476 -9.55331908 -7.46215476 0 0 Z " fill="#97D729" transform="translate(201,55)"/>
<path d="M0 0 C5.4493895 4.70493738 8.19543074 11.02702217 8.796875 18.13671875 C8.86346767 19.77796438 8.90985674 21.42013656 8.9375 23.0625 C8.97762207 24.36417114 8.97762207 24.36417114 9.01855469 25.69213867 C9.06815754 27.43612997 9.10904005 29.18039405 9.140625 30.92480469 C9.18284014 33.13142536 9.25739707 35.33382456 9.34375 37.5390625 C9.50716842 43.89876279 9.56481598 48.87122581 6.1875 54.375 C2.88461664 56.57692224 1.91287273 56.61459968 -1.91796875 56.5703125 C-2.90087891 56.56386719 -3.88378906 56.55742187 -4.89648438 56.55078125 C-5.92064453 56.53402344 -6.94480469 56.51726562 -8 56.5 C-9.03576172 56.49097656 -10.07152344 56.48195313 -11.13867188 56.47265625 C-13.69684685 56.4490786 -16.25455748 56.4161703 -18.8125 56.375 C-18.82708252 55.17488281 -18.84166504 53.97476563 -18.85668945 52.73828125 C-18.91495018 48.25768215 -18.99218033 43.77757107 -19.07495117 39.29736328 C-19.10807037 37.36352498 -19.13614224 35.42959304 -19.15893555 33.49560547 C-19.19272185 30.70500021 -19.2450483 27.91524309 -19.30078125 25.125 C-19.30717117 24.26946533 -19.3135611 23.41393066 -19.32014465 22.5324707 C-19.52756052 13.93740208 -21.95332736 7.51754209 -27.828125 1.140625 C-30.88861968 -1.58249232 -34.04822198 -3.04004083 -37.8125 -4.625 C-37.8125 -4.955 -37.8125 -5.285 -37.8125 -5.625 C-24.68098427 -7.81358595 -10.77657538 -8.75378777 0 0 Z " fill="#97D729" transform="translate(351.8125,276.625)"/>
<path d="M0 0 C3.96516109 -0.07493036 7.93004014 -0.12896449 11.89575195 -0.16479492 C13.89744576 -0.18705458 15.89894275 -0.22520146 17.90039062 -0.26367188 C26.81121931 -0.33100811 35.26469583 -0.11797565 42.25 6.0625 C49.88540798 13.68458445 51.58377985 21.11570963 51.68908691 31.6061554 C51.68539866 33.30917412 51.67286487 35.01219477 51.65185547 36.71508789 C51.62486887 39.32518238 51.65178574 41.93104601 51.68359375 44.54101562 C51.68029252 46.21094693 51.67389223 47.88087561 51.6640625 49.55078125 C51.67418365 50.32480789 51.68430481 51.09883453 51.69473267 51.89631653 C51.60985604 55.81753536 51.13823245 57.81252425 48.78979492 60.99755859 C45.71228531 63.20651404 44.42546323 63.59723577 40.69921875 63.48828125 C39.72275391 63.47216797 38.74628906 63.45605469 37.74023438 63.43945312 C36.22913086 63.37661133 36.22913086 63.37661133 34.6875 63.3125 C33.66076172 63.28994141 32.63402344 63.26738281 31.57617188 63.24414062 C29.0492821 63.18537575 26.52539745 63.10327849 24 63 C23.98541748 61.8354126 23.97083496 60.6708252 23.95581055 59.47094727 C23.89746688 55.11517937 23.82023852 50.75990909 23.73754883 46.40454102 C23.70446816 44.52604296 23.67638473 42.64744954 23.65356445 40.76879883 C23.61970614 38.05509111 23.56737785 35.34224424 23.51171875 32.62890625 C23.50532883 31.80040665 23.4989389 30.97190704 23.49235535 30.11830139 C23.27688238 21.40811786 21.1036322 14.15565458 15.10546875 7.72265625 C12.08411238 5.2506374 8.91445305 4.01194558 5.234375 2.7890625 C3 2 3 2 0 0 Z " fill="#FFC344" transform="translate(461,270)"/>
<path d="M0 0 C7.36808276 7.28056198 8.77672743 14.99266162 8.87644958 24.98101807 C8.87285364 26.68408243 8.86036543 28.38714933 8.83935547 30.09008789 C8.81236887 32.70018238 8.83928574 35.30604601 8.87109375 37.91601562 C8.86779252 39.58594693 8.86139223 41.25587561 8.8515625 42.92578125 C8.86168365 43.69980789 8.87180481 44.47383453 8.88223267 45.27131653 C8.79735604 49.19253536 8.32573245 51.18752425 5.97729492 54.37255859 C2.89978531 56.58151404 1.61296323 56.97223577 -2.11328125 56.86328125 C-3.08974609 56.84716797 -4.06621094 56.83105469 -5.07226562 56.81445312 C-6.58336914 56.75161133 -6.58336914 56.75161133 -8.125 56.6875 C-9.15173828 56.66494141 -10.17847656 56.64238281 -11.23632812 56.61914062 C-13.7632179 56.56037575 -16.28710255 56.47827849 -18.8125 56.375 C-18.82708252 55.2104126 -18.84166504 54.0458252 -18.85668945 52.84594727 C-18.91503312 48.49017937 -18.99226148 44.13490909 -19.07495117 39.77954102 C-19.10803184 37.90104296 -19.13611527 36.02244954 -19.15893555 34.14379883 C-19.19279386 31.43009111 -19.24512215 28.71724424 -19.30078125 26.00390625 C-19.30717117 25.17540665 -19.3135611 24.34690704 -19.32014465 23.49330139 C-19.52245567 15.31517078 -21.33393344 8.07053044 -26.984375 1.94921875 C-30.24134191 -0.85539164 -33.95763529 -2.76609857 -37.8125 -4.625 C-37.8125 -4.955 -37.8125 -5.285 -37.8125 -5.625 C-24.33288606 -7.51687564 -11.3536802 -8.55780606 0 0 Z " fill="#FFC344" transform="translate(503.8125,455.625)"/>
</svg>
