<?xml version="1.0" encoding="iso-8859-1"?>
<!-- Uploaded to: SVG Repo, www.svgrepo.com, Generator: SVG Repo Mixer Tools -->
<svg height="800px" width="800px" version="1.1" id="Layer_1" xmlns="http://www.w3.org/2000/svg" xmlns:xlink="http://www.w3.org/1999/xlink" 
	 viewBox="0 0 511.982 511.982" xml:space="preserve">
<path style="fill:#967ADC;" d="M170.666,396.642v104.669c0,5.89,4.781,10.671,10.672,10.671c5.89,0,10.656-4.781,10.656-10.671
	V396.642H170.666z"/>
<polygon style="fill:#4A89DC;" points="370.862,92.216 355.769,77.122 428.845,4.062 443.922,19.139 "/>
<path style="fill:#5D9CEC;" d="M447.984,10.655c0-5.89-4.766-10.655-10.655-10.655l0,0h-42.343v0.016C394.877,0,394.767,0,394.658,0
	c-5.891,0-10.671,4.766-10.671,10.655c0,5.891,4.78,10.672,10.671,10.672c0.109,0,0.219-0.016,0.328-0.016v0.016h31.672v31.671
	h0.016c0,0.109-0.016,0.219-0.016,0.328c0,5.891,4.78,10.672,10.671,10.672c5.89,0,10.655-4.781,10.655-10.672
	c0-0.109-0.016-0.219-0.016-0.328h0.016V10.655z"/>
<g>
	<path style="fill:#AC92EB;" d="M181.338,170.65c-64.811,0-117.34,52.529-117.34,117.34c0,64.794,52.529,117.323,117.34,117.323
		c64.794,0,117.324-52.529,117.324-117.323C298.662,223.179,246.132,170.65,181.338,170.65z M249.21,355.862
		c-18.125,18.125-42.233,28.125-67.873,28.125c-25.656,0-49.749-10-67.889-28.125C95.323,337.738,85.34,313.63,85.34,287.99
		c0-25.655,9.984-49.748,28.108-67.889c18.14-18.124,42.233-28.108,67.889-28.108c25.64,0,49.748,9.984,67.873,28.108
		c18.125,18.141,28.124,42.233,28.124,67.889C277.334,313.63,267.335,337.738,249.21,355.862z"/>
	<path style="fill:#AC92EB;" d="M213.305,479.983h-63.951c-5.891,0-10.672-4.781-10.672-10.672s4.781-10.671,10.672-10.671h63.951
		c5.891,0,10.672,4.78,10.672,10.671S219.196,479.983,213.305,479.983z"/>
</g>
<path style="fill:#5D9CEC;" d="M369.441,78.544c-22.906-22.921-52.937-34.374-82.967-34.374s-60.045,11.453-82.966,34.374
	c-45.811,45.811-45.811,120.105,0,165.916c20.468,20.469,46.608,31.78,73.356,33.968c-0.75-7.562-2.375-14.937-4.828-21.999
	c-20.155-3.031-38.764-12.359-53.435-27.046c-18.14-18.125-28.124-42.233-28.124-67.873c0-25.655,9.984-49.764,28.124-67.888
	c18.125-18.125,42.233-28.109,67.873-28.109c25.641,0,49.748,9.984,67.889,28.109c18.124,18.124,28.108,42.232,28.108,67.888
	c0,25.64-9.984,49.748-28.108,67.873c-16.219,16.218-37.202,25.905-59.795,27.78c1.844,6.797,3.094,13.843,3.688,21.077
	c25.999-2.609,51.279-13.858,71.186-33.78C415.267,198.649,415.267,124.354,369.441,78.544z"/>
</svg>