<?xml version="1.0" standalone="no"?>
<!DOCTYPE svg PUBLIC "-//W3C//DTD SVG 20010904//EN"
 "http://www.w3.org/TR/2001/REC-SVG-20010904/DTD/svg10.dtd">
<svg version="1.0" xmlns="http://www.w3.org/2000/svg"
 width="980.000000pt" height="980.000000pt" viewBox="0 0 980.000000 980.000000"
 preserveAspectRatio="xMidYMid meet" style="background-color:white">

<g transform="translate(0.000000,980.000000) scale(0.100000,-0.100000)"
fill="#0000000" stroke="none">
<path d="M4880 8151 c-30 -11 -62 -28 -70 -39 -15 -17 -19 -18 -41 -6 -37 21
-159 18 -221 -6 -40 -15 -60 -17 -92 -11 -181 38 -729 39 -1006 2 -139 -19
-189 -27 -365 -61 -27 -5 -86 -16 -130 -24 -118 -22 -258 -59 -363 -95 -76
-26 -102 -31 -135 -25 -97 17 -210 -6 -246 -50 -12 -14 -16 -15 -30 -2 -21 19
-86 36 -138 36 -140 0 -441 -120 -633 -252 -129 -89 -291 -238 -390 -358 -112
-136 -219 -404 -237 -595 -6 -64 15 -197 40 -256 70 -166 294 -319 465 -319
67 0 148 11 184 25 16 6 17 1 13 -56 -12 -140 -33 -222 -114 -447 -51 -142
-80 -266 -101 -428 -27 -214 44 -491 174 -673 59 -84 181 -177 326 -250 75
-38 151 -72 170 -76 19 -4 68 -18 108 -31 40 -13 89 -24 108 -24 l36 0 -79
-78 c-155 -155 -254 -273 -367 -439 -37 -54 -78 -113 -91 -132 -20 -27 -25
-46 -25 -96 0 -52 5 -69 30 -108 126 -189 353 -230 624 -112 18 8 18 4 12 -91
-14 -195 31 -485 101 -654 19 -47 43 -113 53 -147 53 -178 81 -251 148 -383
74 -146 112 -198 167 -228 44 -24 310 -22 420 2 110 25 178 79 222 173 33 72
91 270 99 342 3 32 9 64 13 70 9 14 107 17 456 14 l271 -3 12 -77 c18 -110 66
-277 101 -348 17 -33 47 -76 68 -96 64 -60 237 -109 388 -109 187 0 242 40
351 261 75 150 118 265 154 409 12 47 37 133 55 191 19 58 39 137 45 174 6 38
13 71 15 75 2 4 11 73 20 153 17 165 19 415 5 557 -7 66 -6 135 2 225 10 118
14 135 44 188 19 31 49 90 67 130 19 39 50 92 70 116 47 54 122 207 142 286 8
32 15 91 15 130 0 71 0 71 33 87 60 30 222 165 275 232 112 141 154 249 179
468 15 126 15 143 0 220 -39 200 -120 395 -250 608 -109 178 -173 310 -191
396 l-7 31 98 5 c111 6 177 28 258 85 158 114 213 215 222 414 11 231 -48 371
-255 603 -137 154 -387 320 -589 392 -186 66 -332 96 -493 100 -126 4 -152 2
-200 -15z m190 -112 c0 -6 -7 -8 -16 -5 -9 3 -12 2 -9 -5 4 -6 13 -8 19 -6 7
3 19 1 26 -3 8 -5 19 -6 24 -2 6 3 0 10 -14 14 -16 5 -6 6 29 4 33 -2 59 -9
65 -18 13 -17 83 -31 91 -17 4 5 -4 9 -17 10 -13 0 -32 5 -43 10 -43 20 56 -2
117 -27 35 -13 50 -22 33 -19 -16 3 -37 0 -45 -5 -11 -8 1 -9 42 -6 69 6 98
-2 226 -60 65 -29 97 -54 71 -54 -20 0 43 -39 81 -50 27 -8 30 -7 20 5 -6 8
-19 11 -28 8 -14 -4 -14 -3 -3 5 16 11 41 -3 93 -51 15 -14 29 -23 31 -21 2 2
46 -37 98 -88 52 -50 87 -86 78 -80 -9 7 -20 8 -24 4 -5 -4 -5 -1 0 7 5 9 3
12 -6 9 -15 -5 -50 22 -43 34 3 4 -2 8 -11 8 -9 0 -14 3 -11 8 8 13 -18 37
-44 39 -22 1 -21 0 8 -13 29 -13 31 -16 20 -34 -10 -15 -10 -22 -1 -31 9 -9
10 -6 6 12 -5 20 1 16 34 -20 27 -29 43 -39 48 -31 5 8 11 8 17 2 6 -6 16 -8
23 -5 17 6 39 -33 29 -50 -6 -8 -3 -8 8 1 14 12 19 9 34 -15 10 -15 33 -47 52
-70 20 -25 31 -47 26 -54 -5 -8 -3 -9 6 -4 10 6 12 4 7 -8 -4 -10 -2 -16 5
-14 22 4 50 -114 54 -223 2 -58 0 -92 -4 -75 -8 30 -8 30 -20 -17 -7 -26 -12
-57 -12 -70 1 -21 2 -20 15 7 8 17 13 21 10 10 -14 -64 -18 -74 -28 -68 -6 3
-7 1 -3 -5 19 -31 -115 -165 -145 -146 -7 4 -9 3 -6 -3 4 -7 -30 -9 -101 -8
-65 1 -97 -1 -82 -6 19 -6 14 -8 -22 -6 -26 0 -50 -2 -54 -6 -4 -4 13 -7 39
-7 25 0 54 -3 64 -6 15 -5 16 -4 3 6 -13 10 -12 11 3 6 10 -3 28 -7 40 -7 17
-1 15 -3 -8 -9 -45 -12 -193 -12 -175 0 21 13 2 29 -44 34 -32 5 -36 3 -26 -9
16 -20 5 -19 -25 1 -14 9 -22 21 -18 27 3 6 1 7 -6 3 -15 -10 -43 13 -34 28 3
6 2 8 -2 3 -16 -14 -45 24 -39 52 6 24 5 24 -8 8 -13 -17 -15 -17 -35 5 -31
34 -125 227 -119 244 3 8 2 13 -3 10 -11 -7 -31 39 -22 50 4 5 12 20 18 34 10
24 8 25 -18 26 -16 1 -29 -3 -29 -8 0 -5 4 -6 10 -3 6 4 7 -1 4 -12 -5 -16 -4
-16 10 1 18 23 21 14 5 -16 -10 -19 -13 -17 -38 29 -47 85 -74 161 -67 188 4
15 2 25 -4 25 -6 0 -8 -4 -5 -10 3 -5 2 -10 -2 -10 -16 0 -41 68 -31 82 7 9 8
8 4 -5 -3 -10 -2 -16 3 -13 16 10 7 69 -12 72 -12 1 -17 -5 -17 -19 0 -18 2
-19 10 -7 8 13 10 13 10 -2 0 -31 -20 -30 -26 1 -4 17 -10 28 -15 26 -10 -7
-28 26 -22 40 2 6 -6 21 -18 34 -16 17 -20 30 -15 53 5 26 4 29 -9 18 -18 -15
-12 -45 16 -76 11 -11 19 -24 19 -28 0 -14 -21 6 -44 42 -13 21 -38 52 -56 71
-17 18 -28 36 -25 39 3 4 11 0 16 -8 9 -13 10 -13 6 0 -2 8 -13 15 -24 15 -19
1 -93 53 -168 119 -16 15 -74 49 -129 75 -67 33 -93 50 -82 54 18 7 71 -1 99
-15 11 -6 17 -5 17 2 0 6 11 8 28 5 33 -8 10 9 -28 19 -20 6 -22 5 -10 -4 13
-10 12 -11 -3 -6 -10 3 -26 6 -35 7 -11 0 -8 4 8 10 44 18 161 -17 299 -90 41
-21 43 -25 27 -36 -15 -12 -15 -13 8 -11 13 0 22 5 19 9 -6 10 39 -12 47 -22
3 -4 18 -14 33 -24 15 -10 26 -21 23 -25 -2 -4 3 -8 12 -9 9 -1 27 -4 39 -8
17 -5 25 -3 29 10 8 20 -55 89 -104 112 -18 9 -31 18 -28 20 2 3 15 -1 28 -8
l23 -12 -19 22 c-11 12 -26 19 -34 16 -8 -3 -24 3 -34 12 -11 10 -23 17 -27
17 -3 -1 -5 2 -3 8 1 5 -3 8 -10 5 -11 -3 -88 28 -88 36 0 1 16 3 35 4 20 2
35 -2 35 -8z m-840 -49 c202 -29 251 -38 267 -53 10 -8 56 -32 103 -53 169
-74 362 -228 473 -377 19 -26 54 -91 77 -145 24 -53 61 -133 83 -177 22 -44
52 -109 67 -145 37 -92 135 -245 197 -311 29 -30 82 -72 117 -93 37 -22 68
-47 72 -60 39 -128 178 -421 250 -526 51 -74 109 -196 163 -347 42 -117 52
-158 57 -235 12 -180 -33 -375 -117 -501 -30 -46 -171 -186 -225 -224 l-31
-22 -42 83 c-52 104 -181 240 -295 315 -69 45 -85 51 -131 51 -95 0 -191 -42
-178 -77 5 -13 20 -14 92 -9 85 7 87 7 133 -24 88 -58 184 -173 238 -284 75
-154 86 -233 51 -361 -19 -66 -132 -297 -164 -334 -8 -9 -24 -34 -35 -57 -11
-22 -37 -60 -57 -84 -60 -72 -64 -91 -55 -237 11 -176 -5 -793 -24 -908 -26
-159 -67 -347 -88 -409 -12 -34 -51 -131 -88 -216 -36 -85 -86 -204 -111 -264
-58 -144 -74 -161 -164 -170 -105 -10 -275 17 -346 56 -50 28 -66 67 -90 224
-11 75 -29 165 -39 200 -9 36 -15 66 -11 68 3 2 26 7 51 11 25 3 78 15 118 26
125 33 179 71 151 105 -16 20 -46 18 -157 -10 -155 -39 -415 -58 -692 -51
-129 3 -251 8 -270 10 -19 2 -71 6 -115 9 -44 3 -126 17 -183 32 -113 28 -145
28 -150 1 -8 -41 67 -82 196 -107 34 -7 62 -18 62 -24 0 -7 -6 -35 -14 -62 -8
-27 -26 -117 -39 -200 -35 -213 -50 -236 -175 -261 -80 -15 -306 -18 -343 -5
-19 8 -33 29 -57 84 -17 40 -52 123 -77 183 -149 352 -164 393 -226 650 -29
117 -32 149 -37 330 -3 121 0 240 7 305 23 197 42 335 62 446 11 61 19 124 17
139 -5 48 -27 41 -53 -19 -38 -87 -112 -331 -131 -436 -21 -115 -27 -122 -169
-182 -86 -36 -110 -42 -170 -42 -96 0 -179 38 -233 108 -36 47 -17 93 97 236
102 129 368 405 441 458 19 14 49 38 65 53 28 24 39 27 140 32 129 6 147 12
143 41 -4 25 -15 28 -203 55 -137 19 -273 51 -440 103 -124 38 -144 48 -282
143 -84 58 -120 90 -150 133 -67 96 -91 144 -120 237 -24 79 -27 110 -31 258
-3 154 -1 179 23 288 14 65 37 145 50 177 48 118 105 296 115 356 5 33 14 112
20 175 l11 115 61 55 c51 46 70 73 109 156 66 138 115 290 139 431 40 237 89
378 182 519 71 106 222 263 313 325 28 18 67 48 88 66 22 18 63 39 100 49 34
9 107 32 162 50 91 30 157 43 440 90 111 18 157 24 265 35 47 4 101 11 120 15
99 18 521 28 620 15z m1501 -163 c-5 -5 -17 -4 -30 3 -30 15 -16 32 15 18 15
-7 21 -15 15 -21z m-3403 -75 c-12 -9 -52 -40 -87 -69 -35 -29 -69 -50 -74
-46 -6 3 -7 2 -4 -4 3 -5 -20 -39 -53 -74 -33 -35 -59 -59 -60 -52 0 6 12 20
27 31 19 14 23 21 13 27 -9 5 -11 4 -6 -3 4 -7 1 -12 -6 -12 -17 0 -41 -38
-32 -51 3 -5 0 -17 -7 -25 -12 -14 -14 -14 -25 1 -10 14 -12 13 -10 -9 0 -13
4 -22 9 -19 8 5 -14 -35 -61 -112 -17 -27 -43 -83 -58 -123 -22 -60 -29 -70
-41 -61 -12 10 -14 5 -13 -32 2 -48 -22 -193 -31 -185 -3 3 -5 -11 -6 -32 0
-57 -12 -133 -23 -151 -7 -11 -8 7 -4 54 4 39 4 67 0 64 -3 -3 -8 -44 -10 -91
-5 -87 -23 -173 -51 -244 -52 -130 -109 -212 -135 -193 -12 9 -11 10 5 4 15
-5 17 -3 8 6 -16 16 -38 2 -23 -16 12 -15 -13 -41 -30 -30 -19 12 -10 26 13
19 25 -7 22 -2 -9 14 -17 9 -21 8 -21 -6 0 -9 4 -22 8 -28 21 -26 -69 -61
-168 -66 -40 -2 -73 0 -73 4 0 4 7 8 17 8 9 0 14 3 10 6 -3 4 -18 3 -34 0 -22
-6 -24 -9 -12 -18 11 -8 10 -9 -4 -4 -10 3 -28 6 -39 6 -31 0 -15 11 39 27
l48 13 -50 -7 c-27 -3 -61 -6 -74 -6 -18 1 -20 -1 -10 -8 17 -10 -1 -12 -26
-3 -13 6 -14 9 -3 16 9 6 7 8 -8 6 -34 -5 -145 99 -177 166 -27 54 -36 85 -17
56 6 -9 10 -10 10 -3 0 7 -8 16 -17 22 -26 14 -26 199 -1 225 10 10 18 25 17
34 0 14 -2 13 -9 -3 -16 -36 -10 -3 11 69 24 80 51 137 102 214 27 41 36 49
41 36 4 -9 4 -26 0 -37 -4 -13 -2 -17 5 -12 8 4 10 23 7 51 -5 40 -2 48 37 96
39 48 47 53 82 53 37 0 40 2 40 30 0 38 13 58 32 50 13 -4 14 -3 3 10 -11 13
-9 20 10 40 13 14 30 25 37 25 8 0 11 5 7 11 -4 7 2 6 17 -2 21 -11 23 -11 11
3 -11 14 -5 21 37 53 28 20 55 34 60 31 5 -3 15 2 22 12 13 16 13 16 -5 2 -13
-9 -17 -10 -12 -2 4 7 30 26 59 42 39 22 55 27 69 19 13 -7 23 -7 32 1 10 7
22 7 40 0 36 -13 39 -13 24 4 -7 7 -19 11 -25 9 -7 -3 -13 0 -13 6 0 6 5 11
12 11 6 0 8 3 5 6 -4 4 -13 2 -20 -4 -8 -7 -18 -8 -22 -4 -5 4 -4 1 0 -7 6
-11 4 -13 -9 -8 -11 5 -15 3 -10 -5 5 -7 3 -8 -6 -3 -10 6 -7 12 11 26 13 9
26 16 30 13 4 -2 12 3 19 11 6 8 28 19 48 26 20 6 42 16 48 20 6 5 20 6 29 2
14 -5 16 -3 10 8 -7 10 -1 9 18 -3 29 -20 53 -23 61 -9 4 5 -4 7 -16 3 -20 -5
-21 -3 -10 10 11 14 10 16 -10 11 -13 -3 -20 -3 -17 1 9 10 150 49 155 43 6
-6 -60 -47 -75 -47 -7 0 -10 -4 -7 -8 2 -4 -22 -34 -55 -67 -49 -48 -62 -56
-71 -44 -7 11 -9 9 -5 -8 3 -12 0 -29 -7 -38 -10 -14 -12 -14 -13 5 -1 13 2
18 10 13 7 -4 6 1 -2 11 -13 16 -11 21 21 52 20 19 39 30 43 25 3 -5 -5 -17
-17 -25 -12 -9 -19 -18 -16 -21 3 -4 22 10 42 29 21 22 30 36 21 36 -8 0 -15
-5 -15 -11 0 -5 -5 -7 -10 -4 -6 4 -8 10 -6 14 3 4 -7 7 -22 8 -21 1 -23 0 -8
-6 17 -6 16 -9 -8 -24 -15 -10 -31 -15 -36 -12 -5 3 -19 1 -30 -5 -21 -11 -21
-11 3 -30 21 -17 24 -26 21 -75 -3 -43 0 -57 12 -62 12 -4 13 -8 4 -13 -7 -4
1 -7 18 -6 17 1 34 5 39 10 4 5 3 6 -4 2 -20 -11 -35 3 -20 18 6 8 15 12 19 9
4 -2 5 2 2 10 -12 32 211 213 326 265 59 26 60 27 131 29 59 1 60 1 37 -15z
m-558 -158 c0 -8 -4 -12 -10 -9 -5 3 -10 10 -10 16 0 5 5 9 10 9 6 0 10 -7 10
-16z m-494 -273 c-10 -11 -15 -25 -10 -32 4 -8 3 -10 -4 -5 -16 9 -15 -7 0
-22 9 -9 9 -12 1 -12 -7 0 -15 5 -19 11 -4 8 -9 7 -15 -2 -7 -12 -9 -11 -9 1
0 8 14 29 32 47 34 35 53 46 24 14z m4697 -578 c-7 -2 -19 -2 -25 0 -7 3 -2 5
12 5 14 0 19 -2 13 -5z m62 -3 c-27 -12 -43 -12 -25 0 8 5 22 9 30 9 10 0 8
-3 -5 -9z m-259 -7 c-10 -11 -36 -12 -36 -2 0 5 10 9 22 9 12 0 18 -3 14 -7z"/>
<path d="M5140 8020 c0 -5 -6 -10 -14 -10 -18 0 -30 -16 -13 -18 7 0 21 -3 32
-6 22 -7 54 9 42 20 -3 4 -13 2 -20 -4 -18 -15 -30 -3 -16 15 9 9 8 13 0 13
-6 0 -11 -4 -11 -10z"/>
<path d="M4700 7990 c8 -5 24 -10 34 -10 26 0 18 6 -19 14 -22 5 -26 4 -15 -4z"/>
<path d="M4877 7986 c-3 -6 7 -11 24 -12 31 -1 31 11 0 19 -11 2 -22 0 -24 -7z"/>
<path d="M5300 7990 c0 -5 -10 -10 -22 -10 -12 0 -19 -3 -15 -6 9 -9 57 5 57
16 0 6 -4 10 -10 10 -5 0 -10 -4 -10 -10z"/>
<path d="M5218 7983 c6 -2 18 -2 25 0 6 3 1 5 -13 5 -14 0 -19 -2 -12 -5z"/>
<path d="M4760 7971 c0 -5 14 -14 30 -20 23 -7 29 -7 24 1 -5 8 -1 9 10 5 11
-4 15 -3 10 4 -3 6 -15 9 -25 6 -10 -3 -22 -1 -25 4 -7 12 -24 12 -24 0z"/>
<path d="M5208 7962 c12 -8 22 -20 22 -27 0 -7 7 -18 15 -25 9 -8 15 -8 15 -2
0 6 -6 13 -12 15 -10 4 -9 8 2 16 13 9 12 11 -5 11 -15 0 -17 2 -6 9 9 6 3 10
-20 13 -33 5 -33 5 -11 -10z"/>
<path d="M4964 7955 c36 -19 47 -19 22 0 -11 8 -27 15 -35 15 -9 0 -3 -7 13
-15z"/>
<path d="M4850 7946 c0 -2 7 -7 16 -10 8 -3 12 -2 9 4 -6 10 -25 14 -25 6z"/>
<path d="M5450 7940 c13 -9 13 -11 0 -20 -8 -5 -10 -10 -5 -10 6 0 17 5 25 10
13 9 13 11 0 20 -8 5 -19 10 -25 10 -5 0 -3 -5 5 -10z"/>
<path d="M4834 7931 c7 -11 46 -35 46 -28 0 3 -12 12 -26 22 -15 9 -23 12 -20
6z"/>
<path d="M5028 7923 c17 -7 15 -23 -3 -23 -8 0 -15 -7 -15 -15 0 -8 5 -15 11
-15 5 0 7 5 4 11 -4 6 0 9 11 7 12 -2 18 2 16 11 -2 9 3 11 15 7 16 -5 15 -4
-1 9 -11 8 -27 15 -35 14 -11 0 -12 -2 -3 -6z"/>
<path d="M4974 7905 c-17 -13 -17 -14 -2 -15 9 0 20 5 23 11 11 17 0 20 -21 4z"/>
<path d="M5500 7910 l-35 -7 37 -2 c20 0 40 4 43 9 7 11 7 11 -45 0z"/>
<path d="M5530 7890 c-13 -8 -13 -10 2 -10 9 0 20 5 23 10 8 13 -5 13 -25 0z"/>
<path d="M5592 7886 c7 -8 15 -12 17 -11 5 6 -10 25 -20 25 -5 0 -4 -6 3 -14z"/>
<path d="M5270 7879 c0 -5 6 -9 14 -9 8 0 17 -6 19 -12 4 -8 6 -7 6 3 1 9 -8
19 -19 22 -11 3 -20 1 -20 -4z"/>
<path d="M4925 7861 c20 -24 64 -46 73 -37 2 3 -7 11 -22 17 -18 9 -23 16 -16
24 7 8 5 12 -5 12 -8 0 -12 -4 -9 -9 8 -12 -10 -10 -26 5 -8 6 -6 1 5 -12z"/>
<path d="M5125 7869 c-4 -6 -5 -12 -2 -15 2 -3 7 2 10 11 7 17 1 20 -8 4z"/>
<path d="M5324 7864 c3 -9 6 -20 6 -25 0 -6 4 -8 9 -5 12 8 2 46 -11 46 -6 0
-7 -7 -4 -16z"/>
<path d="M4985 7860 c3 -5 8 -10 11 -10 2 0 4 5 4 10 0 6 -5 10 -11 10 -5 0
-7 -4 -4 -10z"/>
<path d="M5635 7860 c3 -5 8 -10 11 -10 2 0 4 5 4 10 0 6 -5 10 -11 10 -5 0
-7 -4 -4 -10z"/>
<path d="M5145 7849 c-9 -14 -2 -20 14 -10 8 6 9 11 3 15 -6 3 -14 1 -17 -5z"/>
<path d="M5606 7845 c4 -8 12 -15 20 -15 20 0 17 7 -6 20 -16 9 -18 8 -14 -5z"/>
<path d="M5010 7840 c0 -5 5 -10 11 -10 5 0 7 5 4 10 -3 6 -8 10 -11 10 -2 0
-4 -4 -4 -10z"/>
<path d="M5173 7825 c-10 -10 -9 -14 3 -19 8 -3 13 -2 9 3 -3 5 0 11 7 13 7 3
8 7 3 10 -6 3 -15 0 -22 -7z"/>
<path d="M5120 7821 c0 -10 19 -25 25 -20 1 2 -3 10 -11 17 -8 7 -14 8 -14 3z"/>
<path d="M5643 7812 c-8 -5 2 -8 24 -9 25 -1 32 2 22 8 -17 11 -30 11 -46 1z"/>
<path d="M5026 7791 c-3 -5 1 -14 9 -21 10 -9 15 -9 15 -1 0 6 -6 11 -12 11
-9 0 -8 4 2 10 9 6 10 10 3 10 -6 0 -14 -4 -17 -9z"/>
<path d="M5066 7791 c-3 -5 1 -11 9 -14 9 -4 12 -1 8 9 -6 16 -10 17 -17 5z"/>
<path d="M5763 7757 c0 -23 1 -24 14 -11 19 19 40 19 24 0 -9 -11 -6 -15 16
-20 16 -4 36 -9 45 -12 13 -4 16 -1 12 11 -4 9 -9 14 -11 11 -3 -3 -20 6 -38
20 -24 18 -34 21 -38 12 -4 -10 -7 -10 -15 1 -7 10 -9 7 -9 -12z m72 -17 c3
-5 2 -10 -4 -10 -5 0 -13 5 -16 10 -3 6 -2 10 4 10 5 0 13 -4 16 -10z"/>
<path d="M5100 7759 c0 -5 5 -7 10 -4 6 3 10 8 10 11 0 2 -4 4 -10 4 -5 0 -10
-5 -10 -11z"/>
<path d="M5103 7732 c-8 -5 -9 -13 -3 -22 6 -8 10 -13 11 -10 0 3 2 13 4 23 4
19 4 19 -12 9z"/>
<path d="M5175 7671 c-3 -5 -1 -12 5 -16 5 -3 10 1 10 9 0 18 -6 21 -15 7z"/>
<path d="M5925 7580 c-3 -5 -2 -10 4 -10 5 0 18 -3 28 -7 16 -6 16 -5 4 10
-15 19 -27 22 -36 7z"/>
<path d="M6089 7493 c-7 -10 -9 -15 -5 -11 5 4 15 0 22 -10 13 -16 13 -15 11
5 -4 32 -12 36 -28 16z"/>
<path d="M6125 7440 c3 -5 14 -10 23 -10 15 0 15 2 2 10 -20 13 -33 13 -25 0z"/>
<path d="M6090 7420 c0 -5 5 -10 10 -10 6 0 10 5 10 10 0 6 -4 10 -10 10 -5 0
-10 -4 -10 -10z"/>
<path d="M5350 7411 c0 -8 -8 -10 -22 -6 -20 5 -21 4 -5 -5 9 -6 17 -19 18
-28 0 -9 5 -4 10 12 4 17 6 32 4 35 -3 2 -5 -1 -5 -8z"/>
<path d="M6162 7406 c1 -10 8 -17 13 -17 15 1 12 24 -3 29 -9 3 -13 -2 -10
-12z"/>
<path d="M5310 7380 c0 -5 5 -10 10 -10 6 0 10 5 10 10 0 6 -4 10 -10 10 -5 0
-10 -4 -10 -10z"/>
<path d="M6160 7364 c0 -6 7 -19 16 -30 14 -18 14 -18 3 6 -14 31 -19 36 -19
24z"/>
<path d="M6196 7336 c7 -19 20 -21 30 -3 4 6 4 9 -1 5 -4 -4 -14 -3 -22 4 -11
8 -12 7 -7 -6z"/>
<path d="M6241 7264 c0 -11 3 -14 6 -6 3 7 2 16 -1 19 -3 4 -6 -2 -5 -13z"/>
<path d="M6247 7234 c-4 -4 -7 -14 -7 -23 0 -11 3 -12 11 -4 6 6 10 16 7 23
-2 6 -7 8 -11 4z"/>
<path d="M5431 7182 c-1 -15 -5 -21 -13 -16 -10 5 -10 4 -1 -6 17 -18 26 -8
20 22 l-4 23 -2 -23z"/>
<path d="M6250 7174 c0 -8 5 -12 10 -9 6 3 10 10 10 16 0 5 -4 9 -10 9 -5 0
-10 -7 -10 -16z"/>
<path d="M6241 7137 c-1 -10 6 -25 14 -33 13 -14 15 -12 15 18 0 22 -3 29 -9
19 -7 -11 -9 -11 -14 0 -4 10 -6 8 -6 -4z"/>
<path d="M5476 7043 c-6 -14 -5 -15 5 -6 7 7 10 15 7 18 -3 3 -9 -2 -12 -12z"/>
<path d="M5501 7034 c-13 -28 0 -57 14 -33 5 8 4 10 -3 5 -15 -9 -15 -1 -1 26
6 11 9 22 6 24 -2 2 -9 -8 -16 -22z"/>
<path d="M5530 6914 c0 0 9 -11 19 -23 l19 -22 -2 24 c0 14 -7 23 -18 23 -10
0 -18 -1 -18 -2z"/>
<path d="M5581 6904 c0 -11 3 -14 6 -6 3 7 2 16 -1 19 -3 4 -6 -2 -5 -13z"/>
<path d="M6166 6883 c1 -18 -2 -35 -7 -39 -5 -3 -6 -10 -3 -16 5 -8 1 -9 -12
-4 -43 18 -48 18 -29 3 27 -22 38 -21 64 7 19 20 21 28 11 45 -6 12 -9 25 -6
30 3 4 -1 8 -8 8 -9 0 -12 -12 -10 -34z m8 -42 c-16 -14 -17 -14 -6 0 7 9 10
25 6 35 -5 18 -5 18 6 0 10 -15 9 -21 -6 -35z"/>
<path d="M6207 6913 c-10 -9 -9 -33 1 -33 4 0 8 9 8 20 0 23 0 22 -9 13z"/>
<path d="M5614 6828 c-4 -7 -2 -8 4 -4 6 4 22 0 36 -9 23 -15 24 -15 22 1 -3
19 -52 29 -62 12z"/>
<path d="M6110 6800 c0 -5 5 -10 11 -10 5 0 7 5 4 10 -3 6 -8 10 -11 10 -2 0
-4 -4 -4 -10z"/>
<path d="M4453 6954 c-79 -29 -118 -91 -78 -124 21 -17 268 16 298 40 27 22
17 62 -20 80 -43 20 -151 22 -200 4z"/>
<path d="M2683 6800 c-79 -19 -123 -69 -89 -102 22 -23 272 -33 303 -13 31 21
29 48 -7 79 -50 41 -128 55 -207 36z"/>
<path d="M2583 6481 c-26 -5 -30 -9 -23 -21 8 -12 10 -12 10 -1 0 10 8 12 33
7 71 -15 103 -17 127 -7 20 7 14 8 -26 4 -31 -3 -59 -1 -70 6 -15 10 0 11 73
8 51 -2 87 0 80 5 -14 9 -156 8 -204 -1z"/>
<path d="M2818 6473 c6 -2 18 -2 25 0 6 3 1 5 -13 5 -14 0 -19 -2 -12 -5z"/>
<path d="M2518 6463 c7 -3 16 -2 19 1 4 3 -2 6 -13 5 -11 0 -14 -3 -6 -6z"/>
<path d="M2450 6449 c-13 -6 -28 -15 -31 -21 -4 -7 -16 -12 -27 -13 -23 -2
-96 -45 -137 -81 l-30 -27 28 17 c33 20 50 13 21 -9 -10 -8 -14 -14 -9 -14 19
0 51 31 38 36 -20 7 -15 24 5 21 10 -2 16 2 14 11 -2 8 3 11 10 8 7 -3 22 -8
33 -12 16 -5 15 -3 -3 7 l-23 14 26 12 c35 16 44 15 21 -3 -11 -8 -15 -15 -9
-15 6 0 25 14 42 32 23 24 40 32 66 32 21 0 30 3 22 8 -15 10 -26 9 -57 -3z"/>
<path d="M2900 6450 c8 -5 22 -10 30 -10 13 0 13 1 0 10 -8 5 -22 10 -30 10
-13 0 -13 -1 0 -10z"/>
<path d="M2828 6443 c7 -3 16 -2 19 1 4 3 -2 6 -13 5 -11 0 -14 -3 -6 -6z"/>
<path d="M4602 6436 c-123 -40 -169 -122 -159 -281 9 -159 74 -246 202 -275
111 -25 236 57 271 176 37 129 -20 291 -126 356 -55 33 -129 43 -188 24z"/>
<path d="M2970 6426 c0 -3 9 -10 20 -16 11 -6 20 -8 20 -6 0 3 -9 10 -20 16
-11 6 -20 8 -20 6z"/>
<path d="M3005 6389 c-16 -8 -15 -8 8 -4 21 4 27 2 21 -6 -4 -7 -3 -9 3 -6 6
4 17 -1 24 -10 12 -14 12 -16 -1 -11 -24 9 -20 -40 4 -58 31 -22 42 -16 12 7
-30 23 -29 37 1 21 35 -19 25 24 -12 52 -19 14 -35 26 -37 25 -2 0 -12 -5 -23
-10z m85 -49 c0 -5 -4 -10 -10 -10 -5 0 -10 5 -10 10 0 6 5 10 10 10 6 0 10
-4 10 -10z"/>
<path d="M2535 6351 c-16 -6 -9 -11 33 -21 29 -7 56 -9 59 -6 4 3 -5 6 -18 7
-13 0 -19 3 -14 5 6 2 39 0 73 -4 38 -5 59 -5 54 0 -5 5 -46 10 -90 11 -44 1
-75 5 -69 9 15 10 -2 9 -28 -1z"/>
<path d="M2828 6353 c7 -3 16 -2 19 1 4 3 -2 6 -13 5 -11 0 -14 -3 -6 -6z"/>
<path d="M2495 6330 c11 -5 27 -9 35 -9 9 0 8 4 -5 9 -11 5 -27 9 -35 9 -9 0
-8 -4 5 -9z"/>
<path d="M2835 6326 c11 -8 24 -12 29 -8 5 3 1 9 -10 13 -31 12 -39 10 -19 -5z"/>
<path d="M2550 6310 c0 -5 7 -7 15 -4 8 4 15 8 15 10 0 2 -7 4 -15 4 -8 0 -15
-4 -15 -10z"/>
<path d="M2805 6303 c11 -3 26 -10 33 -15 8 -7 12 -7 12 0 0 12 -25 22 -48 21
-13 -1 -12 -3 3 -6z"/>
<path d="M2213 6289 c-6 -6 -9 -18 -6 -25 3 -10 0 -12 -10 -8 -11 4 -22 -10
-40 -48 -13 -29 -28 -64 -32 -78 -3 -14 -9 -33 -12 -44 -3 -12 -1 -16 6 -12 6
4 11 19 11 33 0 20 3 23 13 14 10 -8 14 -7 14 4 0 8 -4 12 -9 9 -12 -7 -10 9
5 43 10 24 18 28 44 27 20 -1 34 4 38 14 7 19 -3 52 -16 52 -6 0 -7 5 -4 10 4
6 11 7 17 4 7 -4 8 -2 4 4 -9 15 -9 15 -23 1z m-3 -73 c0 -5 -7 -3 -15 4 -12
10 -15 10 -15 0 0 -8 -3 -10 -6 -7 -4 4 -1 14 6 22 11 13 15 13 21 3 5 -7 9
-17 9 -22z m20 24 c0 -5 -4 -10 -10 -10 -5 0 -10 5 -10 10 0 6 5 10 10 10 6 0
10 -4 10 -10z"/>
<path d="M2281 6291 c-10 -7 -7 -9 12 -8 14 1 23 5 20 10 -6 9 -15 9 -32 -2z"/>
<path d="M2487 6284 c3 -8 -11 -11 -42 -9 l-45 2 22 -24 c21 -22 13 -34 -9
-12 -7 7 -10 4 -9 -13 1 -13 -4 -35 -11 -50 -18 -38 -15 -49 4 -13 8 17 24 40
35 51 13 14 16 24 9 29 -20 12 -11 23 16 20 16 -1 38 5 50 15 l23 18 -24 -2
c-13 0 -22 -6 -19 -12z"/>
<path d="M3118 6288 c6 -6 8 -18 5 -27 -4 -14 -3 -14 6 -1 9 13 11 13 11 0 0
-13 1 -13 10 0 10 17 -1 32 -26 36 -12 2 -13 -1 -6 -8z"/>
<path d="M2913 6273 c-15 -5 -17 -23 -4 -23 5 0 11 7 15 15 3 8 4 15 3 14 -1
0 -8 -3 -14 -6z"/>
<path d="M2602 6245 c-64 -20 -107 -58 -138 -122 -24 -48 -28 -70 -29 -138 0
-97 15 -150 58 -207 86 -112 253 -123 351 -22 45 46 66 110 66 199 0 215 -137
344 -308 290z"/>
<path d="M2886 6240 c12 -14 27 -34 33 -45 12 -18 12 -19 6 -1 -3 11 0 23 7
27 7 4 9 12 4 16 -5 4 -11 2 -13 -5 -4 -10 -12 -7 -32 10 l-26 23 21 -25z"/>
<path d="M3160 6245 c-7 -8 -16 -12 -21 -9 -5 3 -6 -3 -2 -12 6 -16 7 -15 20
2 13 17 14 17 29 -2 14 -18 14 -18 3 6 -16 33 -14 33 -29 15z"/>
<path d="M3201 6190 c0 -14 28 -72 29 -59 0 4 -7 22 -15 40 -8 19 -14 27 -14
19z"/>
<path d="M2355 6150 c-4 -17 -5 -34 -2 -36 2 -3 7 10 11 27 8 42 0 50 -9 9z"/>
<path d="M2332 6150 c0 -14 2 -19 5 -12 2 6 2 18 0 25 -3 6 -5 1 -5 -13z"/>
<path d="M2940 6159 c0 -4 7 -22 15 -40 8 -19 14 -27 14 -19 0 14 -28 72 -29
59z"/>
<path d="M3203 6097 c-1 -30 -1 -31 8 -8 5 14 6 28 2 32 -4 4 -9 -6 -10 -24z"/>
<path d="M2994 6078 c-7 -39 -8 -41 -15 -18 -4 14 -5 -2 -2 -35 3 -33 10 -69
14 -80 6 -12 7 3 4 40 -3 36 -2 52 3 41 8 -19 9 -19 16 -1 6 16 9 17 16 5 6
-8 10 -10 10 -5 0 6 -5 17 -10 25 -6 10 -10 11 -10 3 0 -7 -5 -13 -10 -13 -6
0 -8 15 -4 40 4 22 4 40 1 40 -3 0 -9 -19 -13 -42z"/>
<path d="M3225 6103 c-4 -10 -8 -56 -10 -103 l-4 -85 9 70 c4 39 11 85 15 103
8 34 2 44 -10 15z"/>
<path d="M2321 6084 c0 -11 3 -14 6 -6 3 7 2 16 -1 19 -3 4 -6 -2 -5 -13z"/>
<path d="M2341 6084 c0 -11 3 -14 6 -6 3 7 2 16 -1 19 -3 4 -6 -2 -5 -13z"/>
<path d="M2141 6083 c-1 -6 -4 -20 -7 -30 -5 -17 -5 -17 6 0 6 10 9 23 6 30
-3 9 -5 9 -5 0z"/>
<path d="M2358 6067 c-3 -19 -2 -25 4 -19 6 6 8 18 6 28 -3 14 -5 12 -10 -9z"/>
<path d="M3241 6054 c0 -11 3 -14 6 -6 3 7 2 16 -1 19 -3 4 -6 -2 -5 -13z"/>
<path d="M2102 6010 c0 -14 2 -19 5 -12 2 6 2 18 0 25 -3 6 -5 1 -5 -13z"/>
<path d="M3239 5988 c-1 -18 -1 -56 1 -84 1 -31 -3 -55 -10 -59 -9 -6 -11 2
-6 26 4 24 4 28 -3 14 -5 -11 -7 -40 -5 -64 1 -24 -2 -55 -7 -68 -5 -14 -8
-28 -5 -30 13 -14 45 140 45 215 -1 80 -8 115 -10 50z"/>
<path d="M2353 5955 c0 -27 2 -38 4 -22 2 15 2 37 0 50 -2 12 -4 0 -4 -28z"/>
<path d="M3017 5971 c-4 -19 -5 -36 -2 -39 3 -3 5 3 6 14 0 18 1 18 9 -1 10
-24 11 -1 1 35 -7 24 -7 24 -14 -9z"/>
<path d="M2326 5957 c3 -10 9 -15 12 -12 3 3 0 11 -7 18 -10 9 -11 8 -5 -6z"/>
<path d="M2103 5915 c0 -27 2 -38 4 -22 2 15 2 37 0 50 -2 12 -4 0 -4 -28z"/>
<path d="M2980 5872 c0 -21 -7 -47 -15 -58 -20 -26 -19 -39 2 -19 15 16 32
115 19 115 -3 0 -6 -17 -6 -38z"/>
<path d="M2999 5855 c-5 -50 -4 -63 7 -53 3 3 4 28 2 54 l-3 49 -6 -50z"/>
<path d="M2347 5859 c4 -13 8 -18 11 -10 2 7 -1 18 -6 23 -8 8 -9 4 -5 -13z"/>
<path d="M3647 5865 c-77 -19 -114 -47 -128 -94 -21 -71 28 -128 122 -139 l54
-7 8 -138 c10 -157 6 -175 -51 -232 -68 -68 -195 -83 -283 -33 -46 26 -94 92
-103 144 -9 43 -45 65 -72 43 -32 -26 0 -135 63 -209 15 -18 54 -46 88 -61 48
-23 74 -29 131 -29 118 0 201 36 262 113 l29 36 28 -29 c37 -38 102 -70 162
-78 l48 -7 6 -52 c21 -169 173 -263 330 -204 172 65 220 264 96 398 -22 24
-57 53 -77 63 l-36 19 4 58 c5 67 -10 90 -51 79 -21 -5 -25 -14 -31 -62 -16
-134 -97 -207 -231 -208 -86 -1 -141 25 -185 85 -34 47 -37 64 -44 210 l-5
105 43 12 c83 22 129 107 90 167 -33 51 -164 76 -267 50z m681 -579 c64 -33
104 -98 104 -166 0 -72 -31 -123 -94 -154 -62 -31 -108 -33 -166 -6 -35 16
-47 29 -68 75 -15 32 -24 68 -22 86 3 28 8 33 48 45 25 8 48 14 52 14 4 0 24
-25 45 -55 22 -35 42 -55 52 -53 28 6 23 37 -13 88 l-36 50 32 45 c18 24 34
44 36 45 2 0 15 -6 30 -14z"/>
<path d="M2131 5844 c0 -11 3 -14 6 -6 3 7 2 16 -1 19 -3 4 -6 -2 -5 -13z"/>
<path d="M2110 5825 c0 -14 4 -25 9 -25 4 0 6 11 3 25 -2 14 -6 25 -8 25 -2 0
-4 -11 -4 -25z"/>
<path d="M3021 5814 c0 -11 3 -14 6 -6 3 7 2 16 -1 19 -3 4 -6 -2 -5 -13z"/>
<path d="M2141 5804 c0 -11 3 -14 6 -6 3 7 2 16 -1 19 -3 4 -6 -2 -5 -13z"/>
<path d="M2120 5783 c0 -4 5 -15 10 -23 8 -13 10 -13 10 2 0 9 -4 20 -10 23
-5 3 -10 3 -10 -2z"/>
<path d="M2141 5731 c-1 -20 54 -114 80 -137 13 -10 19 -13 15 -6 -4 7 -2 20
5 28 9 11 9 18 1 26 -8 8 -13 7 -18 -5 -3 -9 -10 -14 -15 -11 -5 2 -4 13 3 23
8 14 7 24 -7 45 -10 14 -20 24 -23 21 -3 -3 0 -11 6 -17 7 -7 12 -23 11 -37
l0 -26 -10 25 c-6 13 -14 27 -19 30 -5 3 -13 17 -19 30 -5 14 -10 19 -10 11z
m90 -114 c-10 -9 -11 -8 -5 6 3 10 9 15 12 12 3 -3 0 -11 -7 -18z"/>
<path d="M2430 5722 c0 -5 7 -15 15 -22 8 -7 15 -9 15 -6 0 4 -7 14 -15 22 -8
9 -15 11 -15 6z"/>
<path d="M2912 5714 c-5 -8 -28 -28 -53 -45 -24 -16 -39 -29 -32 -29 6 0 15 5
18 11 4 6 13 8 21 5 8 -3 13 0 11 6 -1 7 3 12 8 13 18 1 32 14 38 35 6 24 1
26 -11 4z"/>
<path d="M2405 5684 c0 -15 8 -29 20 -35 20 -10 20 -10 1 5 -26 21 -11 34 17
17 21 -13 21 -12 -2 13 -31 33 -37 33 -36 0z"/>
<path d="M3140 5694 c0 -8 5 -12 10 -9 6 3 10 10 10 16 0 5 -4 9 -10 9 -5 0
-10 -7 -10 -16z"/>
<path d="M3171 5684 c-16 -37 -9 -39 11 -3 9 16 14 29 9 29 -4 0 -13 -12 -20
-26z"/>
<path d="M2478 5673 c6 -2 9 -10 6 -15 -4 -7 -2 -8 5 -4 13 9 5 26 -12 25 -9
0 -8 -2 1 -6z"/>
<path d="M3128 5652 c-4 -12 -2 -20 3 -16 5 3 9 1 9 -4 0 -19 -14 -21 -34 -5
-21 18 -21 18 -3 -3 17 -20 17 -22 -5 -38 -18 -13 -19 -15 -3 -7 37 17 56 46
47 71 l-9 24 -5 -22z"/>
<path d="M2517 5649 c7 -7 15 -10 18 -7 3 3 -2 9 -12 12 -14 6 -15 5 -6 -5z"/>
<path d="M2570 5621 c8 -4 29 -11 45 -15 19 -4 25 -3 15 3 -8 4 -28 11 -45 15
-19 4 -25 3 -15 -3z"/>
<path d="M2768 5623 c6 -2 18 -2 25 0 6 3 1 5 -13 5 -14 0 -19 -2 -12 -5z"/>
<path d="M2713 5613 c9 -2 23 -2 30 0 6 3 -1 5 -18 5 -16 0 -22 -2 -12 -5z"/>
<path d="M2585 5590 c3 -5 8 -10 11 -10 2 0 4 5 4 10 0 6 -5 10 -11 10 -5 0
-7 -4 -4 -10z"/>
<path d="M2758 5593 c7 -3 16 -2 19 1 4 3 -2 6 -13 5 -11 0 -14 -3 -6 -6z"/>
<path d="M2703 5583 c9 -2 23 -2 30 0 6 3 -1 5 -18 5 -16 0 -22 -2 -12 -5z"/>
<path d="M2306 5563 c-6 -14 -5 -15 5 -6 7 7 10 15 7 18 -3 3 -9 -2 -12 -12z"/>
<path d="M2763 5573 c9 -2 23 -2 30 0 6 3 -1 5 -18 5 -16 0 -22 -2 -12 -5z"/>
<path d="M3045 5571 c3 -5 -4 -16 -15 -24 -11 -7 -17 -16 -14 -19 3 -4 -9 -9
-27 -13 -21 -5 -27 -10 -19 -15 8 -5 32 4 61 22 50 31 62 42 32 31 -16 -6 -16
-5 -4 10 12 15 11 17 -3 17 -10 0 -15 -4 -11 -9z"/>
<path d="M2348 5547 c14 -6 26 -7 32 -1 5 5 -4 9 -23 10 -30 1 -30 1 -9 -9z"/>
<path d="M5247 5545 c-4 -8 9 -32 28 -55 19 -22 40 -56 46 -75 15 -40 32 -50
50 -29 9 11 8 23 -5 57 -32 83 -103 145 -119 102z"/>
<path d="M2290 5537 c22 -21 110 -70 110 -60 0 4 -18 16 -40 26 -25 12 -38 23
-33 30 3 7 3 9 -2 5 -4 -4 -17 -2 -29 4 -19 9 -19 9 -6 -5z"/>
<path d="M2366 5515 c10 -8 23 -15 28 -15 6 0 1 7 -10 15 -10 8 -23 15 -28 15
-6 0 -1 -7 10 -15z"/>
<path d="M5145 5511 c-3 -6 4 -37 15 -70 11 -33 20 -72 20 -86 0 -20 5 -25 26
-25 26 0 27 1 21 53 -7 72 -34 137 -57 137 -11 0 -21 -4 -25 -9z"/>
<path d="M2763 5473 c9 -2 23 -2 30 0 6 3 -1 5 -18 5 -16 0 -22 -2 -12 -5z"/>
<path d="M2900 5470 c-18 -12 -2 -12 25 0 13 6 15 9 5 9 -8 0 -22 -4 -30 -9z"/>
<path d="M2558 5463 c6 -2 18 -2 25 0 6 3 1 5 -13 5 -14 0 -19 -2 -12 -5z"/>
<path d="M2752 5455 c48 -8 88 -10 105 -5 23 7 18 8 -28 9 -31 1 -78 3 -105 6
-27 2 -15 -2 28 -10z"/>
<path d="M2463 5449 c16 -4 38 -4 50 0 15 6 6 8 -29 8 -41 0 -44 -1 -21 -8z"/>
<path d="M2534 5439 c-13 -5 -7 -8 21 -8 22 -1 58 -4 80 -8 22 -3 37 -3 33 1
-10 12 -113 23 -134 15z"/>
<path d="M2708 5433 c17 -2 47 -2 65 0 17 2 3 4 -33 4 -36 0 -50 -2 -32 -4z"/>
<path d="M2211 5264 c-49 -63 -67 -169 -27 -169 14 0 22 12 30 46 7 25 22 62
34 82 35 60 4 94 -37 41z"/>
<path d="M2320 5230 c-6 -22 -10 -66 -8 -98 3 -49 6 -57 24 -60 19 -3 22 3 27
75 4 43 8 87 9 98 2 14 -4 21 -19 23 -18 3 -24 -4 -33 -38z"/>
<path d="M5044 5076 c-31 -22 -74 -89 -89 -140 -17 -56 -8 -114 41 -258 l33
-97 -38 -43 c-58 -67 -101 -130 -101 -148 0 -20 19 -40 40 -40 8 0 47 25 85
55 39 29 81 63 95 73 14 11 35 36 45 56 l20 37 -24 62 c-13 34 -29 85 -36 112
-6 28 -24 74 -40 104 -25 50 -26 58 -15 95 7 23 21 55 32 73 15 25 17 36 8 53
-13 24 -28 25 -56 6z"/>
<path d="M4805 4344 c-51 -26 -59 -55 -21 -79 22 -15 27 -15 54 -1 43 22 53
53 26 80 -19 20 -22 20 -59 0z"/>
<path d="M4225 4213 c-16 -2 -82 -10 -145 -18 -63 -8 -199 -22 -302 -30 -103
-9 -209 -22 -235 -28 -60 -15 -64 -38 -8 -50 79 -17 504 12 630 44 94 23 155
51 155 70 0 20 -18 22 -95 12z"/>
<path d="M3750 3055 c0 -8 17 -32 38 -54 l38 -40 -38 -38 c-40 -39 -54 -66
-43 -83 8 -13 29 -2 84 44 l42 35 61 -49 c34 -28 68 -50 75 -50 26 0 12 39
-33 89 -26 29 -45 53 -43 55 2 1 25 17 52 35 48 33 57 48 34 57 -17 6 -96 -22
-118 -42 -16 -14 -21 -12 -64 20 -48 37 -85 46 -85 21z"/>
<path d="M2278 7754 c-3 -3 -20 -6 -38 -6 -17 -1 -26 -4 -20 -8 7 -5 3 -9 -11
-13 -19 -5 -20 -8 -9 -21 7 -9 18 -16 24 -16 6 0 2 7 -8 15 -15 11 -16 15 -5
15 8 0 20 -5 27 -12 13 -13 42 5 42 28 0 7 10 15 23 17 20 4 20 4 1 6 -11 0
-23 -2 -26 -5z m-18 -29 c-7 -8 -16 -12 -21 -9 -13 8 -1 24 18 24 13 0 13 -3
3 -15z"/>
<path d="M2153 7705 c0 -14 2 -27 6 -29 3 -2 6 9 6 25 1 16 -2 29 -6 29 -3 0
-6 -11 -6 -25z"/>
<path d="M1930 7710 c-21 -7 -21 -8 -5 -9 11 0 27 4 35 9 18 11 5 11 -30 0z"/>
<path d="M2061 7671 c-24 -18 -22 -22 12 -34 10 -4 16 -3 12 2 -3 5 1 12 7 15
7 3 0 3 -17 0 l-30 -6 23 17 c13 9 29 14 37 11 8 -3 15 -1 15 4 0 16 -33 11
-59 -9z"/>
<path d="M2185 7680 c3 -5 11 -10 16 -10 6 0 7 5 4 10 -3 6 -11 10 -16 10 -6
0 -7 -4 -4 -10z"/>
<path d="M1770 7640 c0 -5 5 -10 10 -10 6 0 10 5 10 10 0 6 -4 10 -10 10 -5 0
-10 -4 -10 -10z"/>
<path d="M2106 7634 c-5 -14 -4 -15 9 -4 17 14 19 20 6 20 -5 0 -12 -7 -15
-16z"/>
<path d="M1710 7619 c0 -5 5 -7 10 -4 6 3 10 8 10 11 0 2 -4 4 -10 4 -5 0 -10
-5 -10 -11z"/>
<path d="M1971 7606 c-23 -24 -23 -24 -3 -35 21 -11 42 2 22 14 -7 4 -7 12 0
26 14 25 8 24 -19 -5z m14 -26 c3 -6 -1 -7 -9 -4 -18 7 -21 14 -7 14 6 0 13
-4 16 -10z"/>
<path d="M2090 7595 c0 -8 4 -15 10 -15 5 0 7 7 4 15 -4 8 -8 15 -10 15 -2 0
-4 -7 -4 -15z"/>
<path d="M1899 7538 c-18 -24 -24 -35 -13 -25 11 9 24 14 29 10 4 -5 5 -2 1 5
-9 16 12 44 27 35 6 -3 7 -1 3 5 -10 17 -11 16 -47 -30z"/>
<path d="M1574 7551 c-42 -25 -48 -38 -27 -50 13 -7 14 -10 4 -11 -8 0 -12 -2
-9 -5 3 -3 13 -3 22 1 15 6 15 7 -1 20 -16 12 -16 15 -3 23 25 16 55 40 50 41
-3 0 -19 -9 -36 -19z"/>
<path d="M2004 7546 c-3 -8 -1 -23 6 -33 10 -15 10 -14 5 10 -5 26 8 38 18 17
3 -6 4 -5 3 2 -4 18 -25 22 -32 4z"/>
<path d="M1582 7506 c7 -8 15 -12 17 -11 5 6 -10 25 -20 25 -5 0 -4 -6 3 -14z"/>
<path d="M1404 7435 c-10 -8 -14 -15 -8 -15 5 0 16 6 23 13 11 10 13 8 8 -11
-3 -12 -1 -20 4 -16 11 7 12 31 0 38 -4 3 -17 -1 -27 -9z"/>
<path d="M1939 7382 c12 -23 13 -23 26 -5 7 10 11 20 8 23 -3 3 -8 -1 -10 -8
-4 -10 -8 -10 -21 0 -14 12 -14 10 -3 -10z"/>
<path d="M1337 7375 c-4 -8 -3 -16 1 -19 4 -3 9 4 9 15 2 23 -3 25 -10 4z"/>
<path d="M1324 7343 c16 -20 36 -23 36 -6 0 4 -3 3 -7 0 -3 -4 -16 1 -27 10
-21 18 -21 18 -2 -4z"/>
<path d="M1927 7353 c-11 -10 -8 -45 3 -38 5 3 6 13 3 22 -5 12 -3 14 7 8 9
-5 11 -4 6 3 -8 14 -10 14 -19 5z"/>
<path d="M1851 7304 c0 -11 3 -14 6 -6 3 7 2 16 -1 19 -3 4 -6 -2 -5 -13z"/>
<path d="M1902 7300 c0 -14 2 -19 5 -12 2 6 2 18 0 25 -3 6 -5 1 -5 -13z"/>
<path d="M1875 7265 c4 -20 4 -26 -3 -16 -5 7 -12 9 -14 5 -3 -5 3 -17 13 -26
17 -16 18 -15 15 17 -1 19 -6 38 -10 42 -4 5 -5 -6 -1 -22z"/>
<path d="M1846 7204 c-4 -14 -5 -28 -3 -31 3 -2 8 8 11 23 4 14 5 28 3 31 -3
2 -8 -8 -11 -23z"/>
<path d="M1167 7192 c-10 -10 -17 -23 -17 -28 0 -5 4 -3 9 5 7 11 13 12 23 4
10 -9 13 -6 14 13 2 29 -7 30 -29 6z"/>
<path d="M1761 7064 c0 -11 3 -14 6 -6 3 7 2 16 -1 19 -3 4 -6 -2 -5 -13z"/>
<path d="M1781 7060 c0 -14 5 -42 13 -63 l13 -39 7 32 c8 42 6 62 -3 30 -7
-23 -9 -21 -18 20 -7 29 -11 36 -12 20z"/>
<path d="M1801 7064 c0 -11 3 -14 6 -6 3 7 2 16 -1 19 -3 4 -6 -2 -5 -13z"/>
<path d="M1075 7040 c3 -5 8 -10 11 -10 2 0 4 5 4 10 0 6 -5 10 -11 10 -5 0
-7 -4 -4 -10z"/>
<path d="M1042 7010 c-6 -11 -12 -26 -12 -34 0 -8 -7 -22 -16 -30 -8 -9 -14
-16 -12 -17 30 -7 33 -4 36 28 3 43 10 56 28 49 8 -3 11 0 7 10 -7 19 -16 18
-31 -6z"/>
<path d="M1767 6997 c3 -21 12 -57 19 -80 14 -41 14 -41 9 -6 -3 19 -12 55
-20 80 -14 44 -14 44 -8 6z"/>
<path d="M1095 7010 c4 -6 11 -8 16 -5 14 9 11 15 -7 15 -8 0 -12 -5 -9 -10z"/>
<path d="M1001 6894 c0 -11 3 -14 6 -6 3 7 2 16 -1 19 -3 4 -6 -2 -5 -13z"/>
<path d="M1761 6894 c0 -11 3 -14 6 -6 3 7 2 16 -1 19 -3 4 -6 -2 -5 -13z"/>
<path d="M976 6865 c-9 -26 -7 -32 5 -12 6 10 9 21 6 23 -2 3 -7 -2 -11 -11z"/>
<path d="M1021 6864 c0 -11 3 -14 6 -6 3 7 2 16 -1 19 -3 4 -6 -2 -5 -13z"/>
<path d="M939 6693 c-4 -49 -3 -93 4 -93 4 0 7 23 7 50 0 28 -2 50 -5 50 -3 0
-5 -3 -6 -7z"/>
<path d="M1702 6643 c-1 -24 -6 -43 -11 -43 -5 0 -4 -11 2 -24 l12 -24 11 26
c6 15 7 29 3 32 -4 3 -9 21 -12 40 -4 33 -4 33 -5 -7z"/>
<path d="M1721 6670 c0 -8 4 -22 9 -30 12 -18 12 -2 0 25 -6 13 -9 15 -9 5z"/>
<path d="M942 6570 c0 -14 2 -19 5 -12 2 6 2 18 0 25 -3 6 -5 1 -5 -13z"/>
<path d="M1684 6517 c-1 -30 -1 -30 9 -9 6 14 7 26 1 32 -5 5 -9 -4 -10 -23z"/>
<path d="M1025 6429 c-4 -6 -5 -12 -2 -15 2 -3 7 2 10 11 7 17 1 20 -8 4z"/>
<path d="M1605 6398 c0 -21 4 -38 8 -38 5 0 6 12 2 27 -6 24 -5 25 12 13 15
-12 16 -12 6 0 -17 19 -17 35 0 21 8 -6 17 -8 20 -4 14 13 6 21 -21 20 -25 -1
-27 -5 -27 -39z"/>
<path d="M1014 6391 c20 -22 26 -25 26 -13 0 4 -10 13 -22 21 -23 14 -23 14
-4 -8z"/>
<path d="M1068 6337 c28 -32 48 -38 49 -16 2 22 -13 34 -44 34 -21 1 -22 0 -5
-18z m40 -5 c2 -7 -2 -10 -12 -6 -9 3 -16 11 -16 16 0 13 23 5 28 -10z"/>
<path d="M1347 6273 c-4 -6 0 -14 8 -17 19 -7 104 3 125 15 10 6 5 7 -15 4
-89 -13 -104 -13 -108 -2 -2 8 -5 8 -10 0z"/>
<path d="M7872 5803 c-49 -77 -70 -133 -77 -204 -5 -52 -3 -68 9 -78 20 -17
32 -8 60 47 47 93 80 188 80 232 1 38 -2 45 -20 48 -16 2 -29 -9 -52 -45z"/>
<path d="M8244 5577 c-76 -41 -121 -81 -159 -139 -36 -57 -40 -88 -11 -88 22
0 133 81 200 144 42 41 57 62 54 78 -4 31 -34 33 -84 5z"/>
<path d="M7073 5583 c-14 -5 -17 -41 -5 -59 4 -7 23 -18 42 -27 19 -8 50 -30
68 -49 35 -37 58 -112 81 -268 20 -127 65 -144 162 -60 31 27 93 69 136 92 73
40 83 43 158 43 75 0 80 1 83 22 6 40 -35 56 -135 51 -108 -4 -189 -38 -254
-104 -24 -24 -47 -44 -51 -44 -4 0 -8 18 -8 41 0 51 -25 150 -52 203 -28 56
-84 113 -140 142 -47 24 -62 27 -85 17z"/>
<path d="M6813 5558 c-153 -74 -191 -234 -117 -496 21 -73 136 -307 181 -369
21 -28 46 -64 55 -80 19 -29 76 -105 104 -137 14 -15 25 -17 68 -12 28 4 69
10 91 12 85 11 327 75 372 99 27 13 80 38 118 55 39 17 81 41 95 54 14 13 41
32 60 44 34 20 99 91 131 142 20 32 49 117 49 144 0 42 -53 167 -77 183 -39
26 -50 3 -23 -51 20 -42 21 -50 10 -103 -19 -91 -51 -142 -126 -206 -67 -56
-306 -187 -343 -187 -9 0 -59 -17 -111 -39 -52 -21 -130 -46 -173 -56 l-79
-18 -39 44 c-22 24 -67 98 -100 164 -34 66 -83 163 -110 215 -65 125 -78 174
-81 300 -3 102 -2 106 27 152 33 51 91 96 143 110 61 17 29 58 -45 58 -21 -1
-57 -10 -80 -22z"/>
<path d="M8320 5191 c-45 -10 -150 -57 -150 -68 1 -27 21 -37 72 -35 81 3 198
22 241 39 32 13 38 20 35 42 -3 25 -5 26 -83 28 -44 0 -96 -2 -115 -6z"/>
<path d="M8475 4320 c-16 -18 -17 -49 -10 -502 8 -519 9 -528 59 -528 47 0 56
25 56 167 0 129 0 130 25 141 74 34 123 2 177 -117 69 -153 71 -156 101 -159
30 -4 67 21 67 43 0 26 -102 243 -130 277 -17 20 -52 47 -80 61 l-50 25 67 79
c89 105 123 153 123 174 0 26 -28 49 -58 49 -22 0 -46 -23 -132 -128 l-105
-127 -6 65 c-4 36 -7 156 -8 267 -1 197 -2 202 -23 217 -30 21 -51 20 -73 -4z"/>
<path d="M6398 4264 c-2 -2 -116 -8 -253 -15 -206 -9 -252 -14 -262 -27 -19
-23 -16 -49 8 -73 18 -18 31 -20 117 -18 l97 2 3 -419 c2 -380 4 -420 19 -431
26 -20 60 -15 77 9 14 19 16 78 16 434 l0 412 78 6 c111 9 151 22 158 50 7 30
-9 62 -35 69 -11 3 -21 3 -23 1z"/>
<path d="M6547 4225 c-17 -17 -23 -130 -32 -608 -6 -272 -4 -311 10 -333 17
-27 56 -32 78 -10 9 10 16 51 20 131 14 253 90 406 230 460 129 49 167 -35
167 -371 0 -153 2 -173 18 -187 24 -22 56 -22 77 0 15 15 17 40 12 237 -5 238
-14 291 -64 367 -34 52 -83 74 -163 74 -78 -1 -139 -29 -218 -100 l-53 -48 7
180 c7 175 6 181 -15 202 -25 25 -53 27 -74 6z"/>
<path d="M7400 4139 c-69 -28 -180 -138 -180 -180 0 -23 34 -59 55 -59 8 0 43
29 78 64 84 88 133 97 192 39 28 -28 75 -116 75 -141 0 -10 -6 -11 -22 -5 -13
4 -57 8 -98 8 -64 0 -83 -5 -129 -30 -127 -70 -179 -200 -136 -341 23 -75 74
-137 140 -169 49 -24 64 -27 128 -23 44 3 87 12 111 25 38 19 40 19 58 1 24
-24 60 -23 83 2 16 17 17 38 13 222 -4 146 -10 224 -23 278 -35 151 -106 263
-190 301 -43 20 -115 24 -155 8z m189 -397 c14 -10 37 -34 49 -53 21 -30 23
-44 20 -111 -3 -86 -20 -118 -79 -153 -47 -28 -138 -27 -176 1 -36 27 -71 88
-79 140 -11 78 51 168 133 194 40 13 102 5 132 -18z"/>
<path d="M7884 4016 c-18 -14 -19 -31 -22 -356 -2 -310 -1 -344 14 -361 9 -11
25 -19 36 -19 38 0 54 33 72 150 48 312 130 491 206 450 53 -29 73 -126 75
-384 2 -191 3 -210 20 -222 22 -16 44 -18 64 -5 46 29 39 429 -9 577 -38 113
-122 171 -210 145 -45 -13 -102 -59 -127 -102 -10 -16 -20 -29 -23 -29 -3 0
-5 32 -5 71 -1 58 -4 74 -20 85 -24 18 -46 18 -71 0z"/>
<path d="M5660 3222 c-43 -22 -95 -94 -112 -155 -15 -57 -1 -153 32 -222 12
-24 19 -49 16 -54 -4 -5 -26 -17 -50 -26 -49 -19 -65 -42 -38 -53 33 -13 108
-6 153 16 36 17 51 20 84 12 22 -5 70 -10 106 -10 91 0 179 43 220 108 35 56
36 83 4 150 -29 61 -63 82 -146 89 l-57 6 -11 41 c-14 52 -17 57 -66 89 -46
31 -86 34 -135 9z m129 -67 c7 -25 5 -50 -7 -95 -27 -99 -7 -110 131 -74 66
17 69 17 102 -1 43 -23 46 -53 7 -96 -30 -33 -117 -63 -221 -75 l-58 -6 11 51
c8 43 8 54 -4 61 -11 7 -27 -3 -61 -41 -44 -49 -46 -50 -52 -28 -27 99 16 282
75 323 39 27 66 21 77 -19z"/>
<path d="M7280 3021 c0 -5 5 -13 10 -16 6 -3 10 -2 10 4 0 5 -4 13 -10 16 -5
3 -10 2 -10 -4z"/>
<path d="M6600 2994 c0 -8 5 -12 10 -9 6 4 8 11 5 16 -9 14 -15 11 -15 -7z"/>
<path d="M6576 2925 c-3 -9 -6 -24 -5 -33 0 -9 5 -4 10 12 9 32 6 48 -5 21z"/>
<path d="M6543 2915 c-3 -9 -3 -18 -1 -21 3 -3 8 4 11 16 6 23 -1 27 -10 5z"/>
<path d="M6586 2844 c-4 -14 -5 -28 -3 -31 3 -2 8 8 11 23 4 14 5 28 3 31 -3
2 -8 -8 -11 -23z"/>
<path d="M7230 2800 c0 -5 5 -10 10 -10 6 0 10 5 10 10 0 6 -4 10 -10 10 -5 0
-10 -4 -10 -10z"/>
<path d="M6621 2774 c0 -11 3 -14 6 -6 3 7 2 16 -1 19 -3 4 -6 -2 -5 -13z"/>
<path d="M7990 2710 c-9 -6 -10 -10 -3 -10 6 0 15 5 18 10 8 12 4 12 -15 0z"/>
<path d="M6636 2683 c-6 -14 -5 -15 5 -6 7 7 10 15 7 18 -3 3 -9 -2 -12 -12z"/>
<path d="M7211 2684 c0 -11 3 -14 6 -6 3 7 2 16 -1 19 -3 4 -6 -2 -5 -13z"/>
<path d="M7605 2670 c-3 -6 1 -7 9 -4 18 7 21 14 7 14 -6 0 -13 -4 -16 -10z"/>
<path d="M6650 2656 c0 -8 4 -17 9 -20 5 -4 7 3 4 14 -6 23 -13 26 -13 6z"/>
<path d="M7146 2653 c-6 -14 -5 -15 5 -6 7 7 10 15 7 18 -3 3 -9 -2 -12 -12z"/>
<path d="M7390 2650 c-8 -5 -12 -11 -10 -14 3 -2 14 2 24 10 22 15 10 19 -14
4z"/>
<path d="M8011 2644 c0 -11 3 -14 6 -6 3 7 2 16 -1 19 -3 4 -6 -2 -5 -13z"/>
<path d="M8335 2650 c-3 -5 -1 -10 4 -10 6 0 11 5 11 10 0 6 -2 10 -4 10 -3 0
-8 -4 -11 -10z"/>
<path d="M7416 2635 c-11 -8 -15 -15 -9 -15 6 0 16 7 23 15 16 19 11 19 -14 0z"/>
<path d="M7638 2623 c7 -3 16 -2 19 1 4 3 -2 6 -13 5 -11 0 -14 -3 -6 -6z"/>
<path d="M8345 2620 c-3 -5 -1 -10 4 -10 6 0 11 5 11 10 0 6 -2 10 -4 10 -3 0
-8 -4 -11 -10z"/>
<path d="M6600 2611 c0 -6 5 -13 10 -16 6 -3 10 1 10 9 0 9 -4 16 -10 16 -5 0
-10 -4 -10 -9z"/>
<path d="M7950 2610 c0 -5 5 -10 10 -10 6 0 10 5 10 10 0 6 -4 10 -10 10 -5 0
-10 -4 -10 -10z"/>
<path d="M7410 2606 c0 -2 7 -7 16 -10 8 -3 12 -2 9 4 -6 10 -25 14 -25 6z"/>
<path d="M7687 2590 c-19 -22 -22 -35 -7 -25 10 6 34 45 28 45 -2 0 -11 -9
-21 -20z"/>
<path d="M8293 2555 c0 -33 2 -45 4 -27 2 18 2 45 0 60 -2 15 -4 0 -4 -33z"/>
<path d="M7636 2585 c4 -8 11 -15 16 -15 6 0 5 6 -2 15 -7 8 -14 15 -16 15 -2
0 -1 -7 2 -15z"/>
<path d="M7130 2582 c0 -5 7 -15 15 -22 8 -7 15 -9 15 -6 0 4 -7 14 -15 22 -8
9 -15 11 -15 6z"/>
<path d="M7390 2575 c-7 -9 -10 -18 -7 -21 3 -3 10 4 17 15 13 25 8 27 -10 6z"/>
<path d="M7591 2587 c2 -1 12 -9 22 -16 15 -12 17 -12 11 3 -3 9 -13 16 -22
16 -8 0 -13 -1 -11 -3z"/>
<path d="M6610 2565 c0 -5 5 -17 10 -25 5 -8 10 -10 10 -5 0 6 -5 17 -10 25
-5 8 -10 11 -10 5z"/>
<path d="M6889 2557 c26 -13 40 -37 22 -37 -6 0 -11 5 -11 10 0 6 -8 10 -17 9
-10 0 -13 -3 -6 -5 7 -3 9 -13 6 -22 -4 -15 -3 -15 6 -2 9 13 11 12 11 -5 0
-18 1 -18 16 3 15 21 15 25 -2 43 -9 10 -24 19 -33 19 -10 0 -7 -5 8 -13z"/>
<path d="M7100 2547 c-12 -20 -12 -21 2 -9 13 10 17 10 21 0 4 -9 6 -7 6 4 1
26 -14 29 -29 5z"/>
<path d="M6640 2555 c0 -5 5 -17 10 -25 5 -8 10 -10 10 -5 0 6 -5 17 -10 25
-5 8 -10 11 -10 5z"/>
<path d="M6691 2538 c-13 -22 -13 -23 6 -5 11 9 23 14 28 10 4 -5 5 -2 1 5
-10 18 -19 15 -35 -10z"/>
<path d="M7180 2545 c-7 -9 -11 -17 -9 -20 3 -2 10 5 17 15 14 24 10 26 -8 5z"/>
<path d="M7350 2540 c0 -5 5 -10 10 -10 6 0 10 5 10 10 0 6 -4 10 -10 10 -5 0
-10 -4 -10 -10z"/>
<path d="M7647 2529 c4 -13 8 -18 11 -10 2 7 -1 18 -6 23 -8 8 -9 4 -5 -13z"/>
<path d="M7737 2537 c-3 -8 1 -14 8 -14 7 0 11 6 8 14 -3 7 -6 13 -8 13 -2 0
-5 -6 -8 -13z"/>
<path d="M7300 2525 c0 -9 6 -12 15 -9 8 4 12 10 9 15 -8 14 -24 10 -24 -6z"/>
<path d="M7067 2519 c7 -7 15 -10 18 -7 3 3 -2 9 -12 12 -14 6 -15 5 -6 -5z"/>
<path d="M7134 2518 c-5 -7 -9 -21 -9 -30 -2 -17 0 -17 17 -1 23 20 23 24 1
16 -16 -6 -16 -5 -4 10 7 9 11 17 8 17 -3 0 -9 -6 -13 -12z"/>
<path d="M7901 2504 c0 -11 3 -14 6 -6 3 7 2 16 -1 19 -3 4 -6 -2 -5 -13z"/>
<path d="M7030 2500 c-9 -6 -10 -10 -3 -10 6 0 15 5 18 10 8 12 4 12 -15 0z"/>
<path d="M6730 2490 c0 -5 5 -10 10 -10 6 0 10 5 10 10 0 6 -4 10 -10 10 -5 0
-10 -4 -10 -10z"/>
<path d="M6675 2470 c10 -11 20 -20 23 -20 3 0 -3 9 -13 20 -10 11 -20 20 -23
20 -3 0 3 -9 13 -20z"/>
<path d="M6817 2473 c-4 -3 -7 -16 -6 -27 0 -19 1 -19 10 3 10 24 8 36 -4 24z"/>
<path d="M6888 2457 c-3 -19 -2 -25 4 -19 6 6 8 18 6 28 -3 14 -5 12 -10 -9z"/>
<path d="M6978 2473 c6 -2 18 -2 25 0 6 3 1 5 -13 5 -14 0 -19 -2 -12 -5z"/>
<path d="M7050 2469 c0 -5 5 -7 10 -4 6 3 10 8 10 11 0 2 -4 4 -10 4 -5 0 -10
-5 -10 -11z"/>
<path d="M6913 2437 c-10 -22 -9 -23 21 -18 25 4 26 6 9 9 -14 2 -20 8 -16 18
9 23 -3 16 -14 -9z"/>
<path d="M6968 2453 c7 -3 16 -2 19 1 4 3 -2 6 -13 5 -11 0 -14 -3 -6 -6z"/>
<path d="M6840 2437 c0 -10 8 -17 18 -17 9 0 13 4 7 8 -5 4 -13 11 -17 16 -5
5 -8 2 -8 -7z"/>
<path d="M7045 2430 c-3 -6 1 -7 9 -4 18 7 21 14 7 14 -6 0 -13 -4 -16 -10z"/>
<path d="M8296 2425 c-3 -9 -6 -22 -5 -28 0 -7 5 -1 10 12 5 13 8 26 5 28 -2
2 -6 -3 -10 -12z"/>
<path d="M6920 2401 c0 -5 9 -7 20 -4 11 3 20 7 20 9 0 2 -9 4 -20 4 -11 0
-20 -4 -20 -9z"/>
<path d="M6852 2380 c0 -14 2 -19 5 -12 2 6 2 18 0 25 -3 6 -5 1 -5 -13z"/>
<path d="M6877 2389 c7 -7 15 -10 18 -7 3 3 -2 9 -12 12 -14 6 -15 5 -6 -5z"/>
<path d="M7782 2365 c0 -16 2 -22 5 -12 2 9 2 23 0 30 -3 6 -5 -1 -5 -18z"/>
<path d="M8421 2374 c0 -11 3 -14 6 -6 3 7 2 16 -1 19 -3 4 -6 -2 -5 -13z"/>
<path d="M8291 2344 c0 -11 3 -14 6 -6 3 7 2 16 -1 19 -3 4 -6 -2 -5 -13z"/>
<path d="M8420 2341 c0 -5 5 -13 10 -16 6 -3 10 -2 10 4 0 5 -4 13 -10 16 -5
3 -10 2 -10 -4z"/>
<path d="M6833 2290 c0 -30 2 -43 4 -27 2 15 2 39 0 55 -2 15 -4 2 -4 -28z"/>
<path d="M7700 2331 c0 -5 5 -13 10 -16 6 -3 10 -2 10 4 0 5 -4 13 -10 16 -5
3 -10 2 -10 -4z"/>
<path d="M7772 2300 c0 -14 2 -19 5 -12 2 6 2 18 0 25 -3 6 -5 1 -5 -13z"/>
<path d="M6852 2260 c0 -14 2 -19 5 -12 2 6 2 18 0 25 -3 6 -5 1 -5 -13z"/>
<path d="M8320 2271 c0 -6 4 -13 10 -16 6 -3 7 1 4 9 -7 18 -14 21 -14 7z"/>
<path d="M8210 2236 c-9 -12 -8 -15 8 -13 12 0 18 6 15 14 -6 16 -8 16 -23 -1z"/>
<path d="M6900 2204 c0 -19 4 -33 8 -30 8 5 4 66 -4 66 -2 0 -4 -16 -4 -36z"/>
<path d="M6922 2220 c0 -14 2 -19 5 -12 2 6 2 18 0 25 -3 6 -5 1 -5 -13z"/>
<path d="M7330 2230 c0 -5 5 -10 11 -10 5 0 7 5 4 10 -3 6 -8 10 -11 10 -2 0
-4 -4 -4 -10z"/>
<path d="M7967 2221 c-4 -17 -3 -21 5 -13 5 5 8 16 6 23 -3 8 -7 3 -11 -10z"/>
<path d="M8455 2220 c-4 -13 -12 -19 -21 -16 -10 4 -12 2 -8 -6 5 -7 2 -9 -9
-5 -11 4 -14 2 -11 -8 5 -12 9 -12 29 1 23 15 40 43 31 51 -2 3 -7 -5 -11 -17z"/>
<path d="M7361 2214 c-7 -8 -10 -18 -7 -21 3 -4 6 -3 6 2 0 4 7 2 15 -5 10 -9
15 -9 15 -1 0 6 -4 11 -10 11 -5 0 -7 7 -4 15 8 19 3 19 -15 -1z"/>
<path d="M7400 2221 c0 -5 7 -12 16 -15 14 -5 15 -4 4 9 -14 17 -20 19 -20 6z"/>
<path d="M7662 2210 c-7 -11 -8 -20 -3 -20 9 0 24 30 18 36 -1 2 -8 -6 -15
-16z"/>
<path d="M7702 2198 c-6 -17 -10 -33 -8 -36 2 -2 7 6 11 18 4 12 13 19 20 16
9 -3 11 2 8 15 -8 27 -17 24 -31 -13z"/>
<path d="M8005 2216 c-18 -21 -15 -34 5 -29 26 7 33 18 17 31 -8 7 -15 6 -22
-2z"/>
<path d="M8370 2218 c0 -9 5 -20 10 -23 13 -8 13 5 0 25 -8 13 -10 13 -10 -2z"/>
<path d="M8056 2201 c-3 -5 1 -14 9 -21 10 -9 15 -9 15 -1 0 6 -5 11 -11 11
-5 0 -7 5 -4 10 3 6 4 10 1 10 -3 0 -7 -4 -10 -9z"/>
<path d="M8252 2188 c-17 -17 -15 -24 8 -25 12 -1 24 7 31 20 9 20 9 20 -4 5
-17 -22 -31 -23 -23 -3 7 18 4 19 -12 3z"/>
<path d="M7597 2169 c7 -7 15 -10 18 -7 3 3 -2 9 -12 12 -14 6 -15 5 -6 -5z"/>
<path d="M8035 2160 c3 -5 8 -10 11 -10 2 0 4 5 4 10 0 6 -5 10 -11 10 -5 0
-7 -4 -4 -10z"/>
<path d="M7514 2144 c5 -12 1 -14 -17 -8 -12 3 -19 3 -15 -1 4 -4 22 -9 40
-11 29 -3 31 -2 16 10 -10 7 -15 16 -11 19 3 4 1 7 -6 7 -8 0 -11 -6 -7 -16z"/>
<path d="M6904 2133 c3 -19 0 -23 -21 -23 -16 0 -22 4 -17 12 4 7 3 8 -5 4
-17 -11 -3 -26 24 -26 29 0 35 9 24 35 -9 18 -9 18 -5 -2z"/>
<path d="M7630 2135 c0 -8 2 -15 4 -15 2 0 6 7 10 15 3 8 1 15 -4 15 -6 0 -10
-7 -10 -15z"/>
<path d="M7677 2143 c-10 -9 -9 -23 1 -23 5 0 9 7 9 15 0 17 -1 18 -10 8z"/>
<path d="M7422 2111 c-11 -7 -11 -9 0 -14 9 -3 15 1 15 9 0 8 -1 14 -1 14 -1
0 -7 -4 -14 -9z"/>
<path d="M8167 2109 c7 -7 15 -10 18 -7 3 3 -2 9 -12 12 -14 6 -15 5 -6 -5z"/>
<path d="M7515 2100 c-3 -6 1 -7 9 -4 18 7 21 14 7 14 -6 0 -13 -4 -16 -10z"/>
</g>
</svg>
