<?xml version="1.0" encoding="UTF-8"?>
<!DOCTYPE svg PUBLIC "-//W3C//DTD SVG 1.1//EN" "http://www.w3.org/Graphics/SVG/1.1/DTD/svg11.dtd">
<svg xmlns="http://www.w3.org/2000/svg" version="1.1" width="512px" height="512px" style="shape-rendering:geometricPrecision; text-rendering:geometricPrecision; image-rendering:optimizeQuality; fill-rule:evenodd; clip-rule:evenodd" xmlns:xlink="http://www.w3.org/1999/xlink">
<g><path style="opacity:0.954" fill="#d8d7da" d="M 206.5,104.5 C 201.98,108.009 196.98,110.675 191.5,112.5C 173.345,82.1944 155.178,51.861 137,21.5C 136.251,20.365 136.417,19.365 137.5,18.5C 141.801,16.0306 145.967,13.3639 150,10.5C 169.484,41.4746 188.317,72.808 206.5,104.5 Z"/></g>
<g><path style="opacity:0.987" fill="#ed1c24" d="M 375.5,15.5 C 386.167,15.5 396.833,15.5 407.5,15.5C 407.5,20.8333 407.5,26.1667 407.5,31.5C 404.833,31.5 402.167,31.5 399.5,31.5C 399.172,36.8746 399.505,42.2079 400.5,47.5C 409.194,49.1806 417.194,52.514 424.5,57.5C 428.318,54.1824 431.985,50.6824 435.5,47C 433.046,45.2599 431.546,43.0933 431,40.5C 434.5,37 438,33.5 441.5,30C 442.167,29.3333 442.833,29.3333 443.5,30C 451.015,37.3477 458.348,44.8477 465.5,52.5C 461.802,57.3843 457.468,61.2176 452.5,64C 451,62.5 449.5,61 448,59.5C 444.318,63.0152 440.818,66.6819 437.5,70.5C 442.486,77.8061 445.819,85.8061 447.5,94.5C 452.792,95.4948 458.125,95.8282 463.5,95.5C 463.5,92.8333 463.5,90.1667 463.5,87.5C 468.833,87.5 474.167,87.5 479.5,87.5C 479.5,98.1667 479.5,108.833 479.5,119.5C 474.167,119.5 468.833,119.5 463.5,119.5C 463.5,116.833 463.5,114.167 463.5,111.5C 458.125,111.172 452.792,111.505 447.5,112.5C 445.819,121.194 442.486,129.194 437.5,136.5C 440.818,140.318 444.318,143.985 448,147.5C 449.74,145.046 451.907,143.546 454.5,143C 458,146.5 461.5,150 465,153.5C 465.667,154.167 465.667,154.833 465,155.5C 457.652,163.015 450.152,170.348 442.5,177.5C 437.616,173.802 433.782,169.468 431,164.5C 432.5,163 434,161.5 435.5,160C 431.985,156.318 428.318,152.818 424.5,149.5C 417.194,154.486 409.194,157.819 400.5,159.5C 399.505,164.792 399.172,170.125 399.5,175.5C 402.167,175.5 404.833,175.5 407.5,175.5C 407.5,180.833 407.5,186.167 407.5,191.5C 396.833,191.5 386.167,191.5 375.5,191.5C 375.5,186.167 375.5,180.833 375.5,175.5C 378.167,175.5 380.833,175.5 383.5,175.5C 383.828,170.125 383.495,164.792 382.5,159.5C 373.806,157.819 365.806,154.486 358.5,149.5C 354.682,152.818 351.015,156.318 347.5,160C 349.954,161.74 351.454,163.907 352,166.5C 348.5,170 345,173.5 341.5,177C 340.833,177.667 340.167,177.667 339.5,177C 331.985,169.652 324.652,162.152 317.5,154.5C 321.198,149.616 325.532,145.782 330.5,143C 332,144.5 333.5,146 335,147.5C 338.682,143.985 342.182,140.318 345.5,136.5C 340.514,129.194 337.181,121.194 335.5,112.5C 330.208,111.505 324.875,111.172 319.5,111.5C 319.5,114.167 319.5,116.833 319.5,119.5C 314.167,119.5 308.833,119.5 303.5,119.5C 303.5,108.833 303.5,98.1667 303.5,87.5C 308.833,87.5 314.167,87.5 319.5,87.5C 319.5,90.1667 319.5,92.8333 319.5,95.5C 324.875,95.8282 330.208,95.4948 335.5,94.5C 337.181,85.8061 340.514,77.8061 345.5,70.5C 342.182,66.6819 338.682,63.0152 335,59.5C 333.26,61.9535 331.093,63.4535 328.5,64C 325,60.5 321.5,57 318,53.5C 317.333,52.8333 317.333,52.1667 318,51.5C 325.348,43.9854 332.848,36.6521 340.5,29.5C 345.384,33.1983 349.218,37.5317 352,42.5C 350.5,44 349,45.5 347.5,47C 351.015,50.6824 354.682,54.1824 358.5,57.5C 365.806,52.514 373.806,49.1806 382.5,47.5C 383.495,42.2079 383.828,36.8746 383.5,31.5C 380.833,31.5 378.167,31.5 375.5,31.5C 375.5,26.1667 375.5,20.8333 375.5,15.5 Z"/></g>
<g><path style="opacity:1" fill="#fe4f23" d="M 385.5,63.5 C 409.926,62.6141 425.092,73.9474 431,97.5C 432.638,114.05 426.805,127.217 413.5,137C 391.779,148.256 373.279,144.423 358,125.5C 346.876,103.836 350.71,85.3357 369.5,70C 374.607,66.9354 379.94,64.7688 385.5,63.5 Z"/></g>
<g><path style="opacity:1" fill="#ec1c23" d="M 367.5,87.5 C 372.833,87.5 378.167,87.5 383.5,87.5C 383.5,92.8333 383.5,98.1667 383.5,103.5C 378.167,103.5 372.833,103.5 367.5,103.5C 367.5,98.1667 367.5,92.8333 367.5,87.5 Z"/></g>
<g><path style="opacity:0.973" fill="#acabb1" d="M 237.5,141.5 C 237.047,142.458 236.381,143.292 235.5,144C 226.592,149.092 217.592,153.925 208.5,158.5C 202.024,146.888 195.524,135.221 189,123.5C 187.812,119.259 188.645,115.592 191.5,112.5C 196.98,110.675 201.98,108.009 206.5,104.5C 211.031,102.675 214.864,103.675 218,107.5C 224.259,119.024 230.759,130.357 237.5,141.5 Z"/></g>
<g><path style="opacity:1" fill="#ec1c23" d="M 399.5,103.5 C 404.833,103.5 410.167,103.5 415.5,103.5C 415.5,108.833 415.5,114.167 415.5,119.5C 410.167,119.5 404.833,119.5 399.5,119.5C 399.5,114.167 399.5,108.833 399.5,103.5 Z"/></g>
<g><path style="opacity:0.984" fill="#c6c5ca" d="M 267.5,161.5 C 249.311,172.852 230.811,183.852 212,194.5C 211.617,193.944 211.117,193.611 210.5,193.5C 206.931,186.698 203.098,180.031 199,173.5C 198.183,170.036 198.517,166.702 200,163.5C 202.943,161.948 205.777,160.281 208.5,158.5C 217.592,153.925 226.592,149.092 235.5,144C 236.381,143.292 237.047,142.458 237.5,141.5C 240.959,139.374 244.626,137.707 248.5,136.5C 250.167,137.167 251.833,137.833 253.5,138.5C 258.429,146.028 263.096,153.695 267.5,161.5 Z"/></g>
<g><path style="opacity:0.998" fill="#e5e6e7" d="M 293.5,175.5 C 279.393,183.056 265.393,190.889 251.5,199C 253.945,203.931 256.945,208.431 260.5,212.5C 273.173,204.495 286.173,196.995 299.5,190C 300.252,189.329 300.586,188.496 300.5,187.5C 303.737,192.299 306.737,197.299 309.5,202.5C 300.03,207.736 290.696,213.236 281.5,219C 284.293,223.418 286.959,227.918 289.5,232.5C 298.861,227.155 308.194,221.821 317.5,216.5C 320.559,220.904 323.225,225.571 325.5,230.5C 312.05,238.396 298.383,246.063 284.5,253.5C 285.571,258.627 288.071,263.294 292,267.5C 305.791,259.689 319.625,252.023 333.5,244.5C 336.669,248.833 339.336,253.5 341.5,258.5C 331.896,263.304 322.562,268.637 313.5,274.5C 315.833,278.5 318.167,282.5 320.5,286.5C 321.365,287.583 322.365,287.749 323.5,287C 331.5,282.333 339.5,277.667 347.5,273C 348.252,272.329 348.586,271.496 348.5,270.5C 351.737,275.299 354.737,280.299 357.5,285.5C 343.647,293.839 329.647,302.005 315.5,310C 318.208,314.584 321.042,319.084 324,323.5C 335.588,316.288 347.421,309.454 359.5,303C 361.692,301.933 363.358,300.433 364.5,298.5C 369.07,305.296 373.403,312.296 377.5,319.5C 356.67,332.137 335.67,344.637 314.5,357C 307.271,361.114 299.937,364.947 292.5,368.5C 278.291,341.978 263.291,315.978 247.5,290.5C 246.54,285.914 244.54,281.914 241.5,278.5C 239.003,272.835 236.003,267.502 232.5,262.5C 223.907,246.302 214.574,230.635 204.5,215.5C 201.254,211.344 200.087,206.678 201,201.5C 203.722,198.276 206.888,195.609 210.5,193.5C 211.117,193.611 211.617,193.944 212,194.5C 230.811,183.852 249.311,172.852 267.5,161.5C 272.601,156.31 278.268,155.477 284.5,159C 287.906,164.314 290.906,169.814 293.5,175.5 Z"/></g>
<g><path style="opacity:1" fill="#c6c5ca" d="M 293.5,175.5 C 296.335,179.164 298.668,183.164 300.5,187.5C 300.586,188.496 300.252,189.329 299.5,190C 286.173,196.995 273.173,204.495 260.5,212.5C 256.945,208.431 253.945,203.931 251.5,199C 265.393,190.889 279.393,183.056 293.5,175.5 Z"/></g>
<g><path style="opacity:1" fill="#c7c6ca" d="M 309.5,202.5 C 312.531,206.887 315.197,211.554 317.5,216.5C 308.194,221.821 298.861,227.155 289.5,232.5C 286.959,227.918 284.293,223.418 281.5,219C 290.696,213.236 300.03,207.736 309.5,202.5 Z"/></g>
<g><path style="opacity:0.999" fill="#1e81ce" d="M 204.5,215.5 C 214.574,230.635 223.907,246.302 232.5,262.5C 173.669,263.499 114.669,263.832 55.5,263.5C 51.4862,263.666 47.4862,263.499 43.5,263C 41.6667,262.5 40.5,261.333 40,259.5C 39.3333,248.167 39.3333,236.833 40,225.5C 41.8333,221 45,217.833 49.5,216C 101.166,215.5 152.832,215.333 204.5,215.5 Z"/></g>
<g><path style="opacity:1" fill="#c6c5ca" d="M 325.5,230.5 C 328.669,234.833 331.336,239.5 333.5,244.5C 319.625,252.023 305.791,259.689 292,267.5C 288.071,263.294 285.571,258.627 284.5,253.5C 298.383,246.063 312.05,238.396 325.5,230.5 Z"/></g>
<g><path style="opacity:1" fill="#c6c5ca" d="M 341.5,258.5 C 344.335,262.164 346.668,266.164 348.5,270.5C 348.586,271.496 348.252,272.329 347.5,273C 339.5,277.667 331.5,282.333 323.5,287C 322.365,287.749 321.365,287.583 320.5,286.5C 318.167,282.5 315.833,278.5 313.5,274.5C 322.562,268.637 331.896,263.304 341.5,258.5 Z"/></g>
<g><path style="opacity:1" fill="#3d9ae2" d="M 232.5,262.5 C 236.003,267.502 239.003,272.835 241.5,278.5C 179.669,279.499 117.669,279.832 55.5,279.5C 55.5,274.167 55.5,268.833 55.5,263.5C 114.669,263.832 173.669,263.499 232.5,262.5 Z"/></g>
<g><path style="opacity:1" fill="#5aaae6" d="M 241.5,278.5 C 244.54,281.914 246.54,285.914 247.5,290.5C 247.5,292.167 247.5,293.833 247.5,295.5C 183.5,295.5 119.5,295.5 55.5,295.5C 55.5,290.167 55.5,284.833 55.5,279.5C 117.669,279.832 179.669,279.499 241.5,278.5 Z"/></g>
<g><path style="opacity:1" fill="#c6c5ca" d="M 357.5,285.5 C 360.1,289.701 362.434,294.034 364.5,298.5C 363.358,300.433 361.692,301.933 359.5,303C 347.421,309.454 335.588,316.288 324,323.5C 321.042,319.084 318.208,314.584 315.5,310C 329.647,302.005 343.647,293.839 357.5,285.5 Z"/></g>
<g><path style="opacity:1" fill="#e5e6e7" d="M 55.5,295.5 C 119.5,295.5 183.5,295.5 247.5,295.5C 247.5,343.5 247.5,391.5 247.5,439.5C 183.5,439.5 119.5,439.5 55.5,439.5C 55.5,391.5 55.5,343.5 55.5,295.5 Z"/></g>
<g><path style="opacity:0.987" fill="#c6c5ca" d="M 394.5,348.5 C 384.855,352.624 375.521,357.458 366.5,363C 349.167,373 331.833,383 314.5,393C 312.308,394.067 310.642,395.567 309.5,397.5C 304.309,400.506 298.976,403.339 293.5,406C 280.744,408.398 273.41,403.232 271.5,390.5C 271.701,385.728 273.367,381.561 276.5,378C 281.72,374.607 287.053,371.44 292.5,368.5C 299.937,364.947 307.271,361.114 314.5,357C 335.67,344.637 356.67,332.137 377.5,319.5C 384.137,315.031 391.303,311.698 399,309.5C 413.601,312.697 418.267,321.363 413,335.5C 407.379,340.717 401.213,345.05 394.5,348.5 Z"/></g>
<g><path style="opacity:1" fill="#fe9812" d="M 191.5,359.5 C 191.925,366.615 191.425,373.615 190,380.5C 189.097,381.701 187.931,382.535 186.5,383C 180.175,383.5 173.842,383.666 167.5,383.5C 167.925,390.615 167.425,397.615 166,404.5C 165.097,405.701 163.931,406.535 162.5,407C 156.175,407.5 149.842,407.666 143.5,407.5C 139.91,407.456 137.41,405.789 136,402.5C 135.5,396.175 135.334,389.842 135.5,383.5C 128.385,383.925 121.385,383.425 114.5,382C 113.299,381.097 112.465,379.931 112,378.5C 111.333,371.167 111.333,363.833 112,356.5C 112.465,355.069 113.299,353.903 114.5,353C 121.385,351.575 128.385,351.075 135.5,351.5C 135.075,344.385 135.575,337.385 137,330.5C 137.903,329.299 139.069,328.465 140.5,328C 147.833,327.333 155.167,327.333 162.5,328C 163.931,328.465 165.097,329.299 166,330.5C 167.425,337.385 167.925,344.385 167.5,351.5C 173.842,351.334 180.175,351.5 186.5,352C 189.789,353.41 191.456,355.91 191.5,359.5 Z"/></g>
<g><path style="opacity:0.999" fill="#d8d7da" d="M 394.5,348.5 C 396.091,351.352 397.424,354.352 398.5,357.5C 370.834,374.002 342.834,390.002 314.5,405.5C 312.819,402.797 311.153,400.131 309.5,397.5C 310.642,395.567 312.308,394.067 314.5,393C 331.833,383 349.167,373 366.5,363C 375.521,357.458 384.855,352.624 394.5,348.5 Z"/></g>
<g><path style="opacity:0.993" fill="#e5e6e7" d="M 398.5,357.5 C 401.225,361.268 403.725,365.268 406,369.5C 407.098,373.505 406.265,377.005 403.5,380C 398.603,382.608 393.937,385.441 389.5,388.5C 387.692,388.491 386.025,388.991 384.5,390C 373.663,396.586 362.663,402.919 351.5,409C 349.308,410.067 347.642,411.567 346.5,413.5C 341.553,415.973 336.553,418.473 331.5,421C 327.82,422.027 324.653,421.194 322,418.5C 319.488,414.139 316.988,409.806 314.5,405.5C 342.834,390.002 370.834,374.002 398.5,357.5 Z"/></g>
<g><path style="opacity:1" fill="#d8d7d9" d="M 191.5,359.5 C 195.063,359.625 197.563,361.292 199,364.5C 199.901,372.579 199.568,380.579 198,388.5C 196.829,389.893 195.329,390.727 193.5,391C 187.509,391.499 181.509,391.666 175.5,391.5C 175.666,397.509 175.499,403.509 175,409.5C 174.727,411.329 173.893,412.829 172.5,414C 164.579,415.568 156.579,415.901 148.5,415C 145.211,413.59 143.544,411.09 143.5,407.5C 149.842,407.666 156.175,407.5 162.5,407C 163.931,406.535 165.097,405.701 166,404.5C 167.425,397.615 167.925,390.615 167.5,383.5C 173.842,383.666 180.175,383.5 186.5,383C 187.931,382.535 189.097,381.701 190,380.5C 191.425,373.615 191.925,366.615 191.5,359.5 Z"/></g>
<g><path style="opacity:1" fill="#adacb2" d="M 389.5,388.5 C 390.847,391.193 392.18,393.86 393.5,396.5C 384.399,402.559 375.066,408.392 365.5,414C 361.131,416.885 356.464,419.051 351.5,420.5C 349.588,418.343 347.921,416.009 346.5,413.5C 347.642,411.567 349.308,410.067 351.5,409C 362.663,402.919 373.663,396.586 384.5,390C 386.025,388.991 387.692,388.491 389.5,388.5 Z"/></g>
<g><path style="opacity:0.985" fill="#c6c4c9" d="M 393.5,396.5 C 399.819,407.131 406.152,417.798 412.5,428.5C 409.921,431.135 406.921,433.301 403.5,435C 392.272,441.446 380.939,447.612 369.5,453.5C 363.5,442.5 357.5,431.5 351.5,420.5C 356.464,419.051 361.131,416.885 365.5,414C 375.066,408.392 384.399,402.559 393.5,396.5 Z"/></g>
<g><path style="opacity:0.977" fill="#acabb1" d="M 369.5,453.5 C 380.939,447.612 392.272,441.446 403.5,435C 406.921,433.301 409.921,431.135 412.5,428.5C 419.968,424.598 427.302,420.432 434.5,416C 450.362,412.863 457.862,419.363 457,435.5C 454.192,442.308 449.359,447.141 442.5,450C 416.167,465 389.833,480 363.5,495C 348.18,496.679 341.013,489.846 342,474.5C 343.123,471.751 344.623,469.251 346.5,467C 354.194,462.488 361.861,457.988 369.5,453.5 Z"/></g>
<g><path style="opacity:0.998" fill="#5aaae7" d="M 55.5,439.5 C 119.5,439.5 183.5,439.5 247.5,439.5C 247.666,449.839 247.5,460.172 247,470.5C 244.167,478.667 238.667,484.167 230.5,487C 180.167,487.667 129.833,487.667 79.5,487C 67,483.833 59.1667,476 56,463.5C 55.5003,455.507 55.3336,447.507 55.5,439.5 Z"/></g>
</svg>
