<?xml version="1.0" encoding="UTF-8"?>
<svg version="1.1" xmlns="http://www.w3.org/2000/svg" width="512" height="512">
<path d="M0 0 C0.78295441 -0.00902847 1.56590881 -0.01805695 2.37258911 -0.02735901 C4.02846454 -0.04185964 5.68439724 -0.05074779 7.34033203 -0.05444336 C9.86719915 -0.06633279 12.39161761 -0.11550831 14.91796875 -0.16601562 C16.52863394 -0.17548117 18.1393141 -0.18271558 19.75 -0.1875 C20.50223846 -0.20703232 21.25447693 -0.22656464 22.0295105 -0.24668884 C26.06081404 -0.21221348 27.79690971 0.19901395 30.96142578 2.78100586 C33.66230163 6.19947303 34.1312566 7.73000681 34.0703125 11.99609375 C34.06128906 12.81335937 34.05226563 13.630625 34.04296875 14.47265625 C34.02556641 15.41238281 34.02556641 15.41238281 34.0078125 16.37109375 C34.67167969 16.31308594 35.33554687 16.25507813 36.01953125 16.1953125 C43.30137891 15.82324729 43.30137891 15.82324729 47.0703125 18.74609375 C50.12782977 22.88853651 50.10295775 25.23324998 50.0078125 30.37109375 C50.8740625 30.63921875 51.7403125 30.90734375 52.6328125 31.18359375 C56.0078125 32.37109375 56.0078125 32.37109375 59.1328125 34.05859375 C61.7768793 35.55191746 61.7768793 35.55191746 63.9375 35.19921875 C66.64349892 34.11681918 68.03401703 32.56544707 70.0078125 30.43359375 C73.64941018 26.51460875 76.03563886 24.55038226 81.4453125 24.05859375 C85.34388252 24.40057358 86.86063324 25.13447039 90.0078125 27.37109375 C91.74388123 29.52281189 91.74388123 29.52281189 93.39233398 31.98413086 C99.77761466 40.46019571 106.00187106 47.25266733 116.77594948 48.81099892 C127.5491578 49.87741971 138.41680354 49.44824005 149.21557617 49.03308105 C154.91533493 48.83444497 160.61790042 48.76796076 166.32037258 48.69028378 C170.75577131 48.62869037 175.18666081 48.54610932 179.61988831 48.39173889 C196.11596896 47.88559968 210.75781734 51.64436928 223.4453125 62.80859375 C226.95792286 66.1836794 230.16487554 69.75313347 233.30078125 73.4765625 C235.06755457 75.43739788 236.92995392 77.10630058 238.9453125 78.80859375 C251.98465477 90.00679098 259.30133907 103.69600042 260.63299274 120.90996742 C261.08169647 127.82136655 260.80061337 134.48445861 260.19242859 141.37411499 C260.09260534 142.60393715 259.99278208 143.8337593 259.88993388 145.10084879 C259.61423251 148.47094475 259.32906034 151.83998117 259.03962147 155.2089076 C258.72839959 158.85934271 258.42972498 162.51080833 258.12942505 166.16215515 C257.54055667 173.29850669 256.94035 180.43386037 256.33627733 187.56893919 C255.63188166 195.89455611 254.939187 204.22113445 254.24699602 212.54777344 C253.01065944 227.41571952 251.76427222 242.28280554 250.51196289 257.14941406 C249.29950696 271.54306292 248.09340382 285.93722416 246.89477539 300.33203125 C246.82096858 301.21839234 246.74716178 302.10475343 246.6711184 303.01797394 C246.52241508 304.80384205 246.37371273 306.58971023 246.22501134 308.3755785 C246.15163974 309.25674568 246.07826813 310.13791287 246.00267315 311.04578209 C245.92947791 311.92486393 245.85628268 312.80394577 245.78086941 313.70966645 C244.63482138 327.47118028 243.48361377 341.23226313 242.33161229 354.99327969 C241.98461897 359.13854711 241.63789139 363.28383643 241.29175925 367.42917585 C240.56428221 376.14149938 239.83507991 384.8536708 239.10008367 393.56536363 C238.79648428 397.16418554 238.49384264 400.76308005 238.194067 404.36222267 C233.50540078 460.61186057 233.50540078 460.61186057 214.9296875 477.82421875 C204.58485668 486.15054599 191.97928647 492.47994278 178.49659061 492.50531483 C176.84347892 492.51200159 176.84347892 492.51200159 175.15697104 492.51882344 C173.95154526 492.51863908 172.74611948 492.51845472 171.50416565 492.51826477 C170.2193689 492.52194146 168.93457215 492.52561815 167.61084217 492.52940625 C164.04626861 492.53940543 160.48171189 492.54313969 156.9171263 492.54579556 C153.0716408 492.54970488 149.22616855 492.55928287 145.38069153 492.56800842 C136.09379014 492.58775657 126.8068877 492.59783759 117.51997057 492.60673621 C113.1429968 492.61112239 108.76602425 492.6164884 104.38905144 492.62172508 C89.83226173 492.63873679 75.27547278 492.65322948 60.71867466 492.66047382 C56.94241396 492.66238362 53.16615326 492.66430396 49.38989258 492.66625977 C48.45135816 492.66674351 47.51282375 492.66722725 46.5458489 492.66772565 C31.35278323 492.67602042 16.15979643 492.70134826 0.96676517 492.73384044 C-14.6434536 492.76695167 -30.25363235 492.78492631 -45.86388642 492.78811806 C-54.62360117 492.79027955 -63.38320095 492.79897503 -72.14288139 492.82457924 C-79.60542193 492.84634194 -87.06781956 492.85430943 -94.53038823 492.84461246 C-98.33369458 492.84008363 -102.13670643 492.84187052 -105.93997192 492.8613739 C-110.07541509 492.88239622 -114.21021209 492.87196935 -118.34568787 492.85884094 C-120.12371179 492.87529481 -120.12371179 492.87529481 -121.93765539 492.89208108 C-140.38686196 492.75142853 -155.15755147 485.34012387 -167.9921875 472.37109375 C-169.7977042 470.36455045 -171.5504312 468.32566977 -173.28515625 466.2578125 C-175.04417975 464.31362863 -176.90137168 462.7166927 -178.9296875 461.05859375 C-193.25665067 448.84180345 -198.46517884 431.86187578 -200.04594994 413.72567368 C-200.18151771 412.00521521 -200.18151771 412.00521521 -200.31982422 410.25 C-200.42643183 408.99507877 -200.53303944 407.74015755 -200.64287758 406.4472084 C-200.93523165 403.00282125 -201.215883 399.55757006 -201.49447441 396.11204624 C-201.79852323 392.37837258 -202.11378271 388.64564269 -202.4276123 384.91278076 C-203.03982746 377.61001918 -203.64202047 370.30646537 -204.24062753 363.00257707 C-204.93962876 354.47743316 -205.64767512 345.9530482 -206.35633779 337.42870283 C-207.31923635 325.84493704 -208.27997552 314.26099621 -209.23495483 302.67657471 C-211.1499696 279.45318569 -213.09761959 256.23276665 -215.07040679 233.01421595 C-216.06735426 221.27702062 -217.05629091 209.53914915 -218.04432869 197.80120087 C-218.77566003 189.11589406 -219.51042185 180.43090459 -220.25335693 171.74658203 C-220.88609047 164.34977506 -221.51127791 156.95237661 -222.12699151 149.5541327 C-222.44117462 145.78182484 -222.75880937 142.00989559 -223.08610535 138.23870087 C-223.44206877 134.13630013 -223.78107335 130.0326654 -224.11865234 125.92871094 C-224.22341322 124.75257736 -224.3281741 123.57644379 -224.43610954 122.3646698 C-225.81306622 105.11470298 -224.01664264 86.89354621 -212.98828125 72.8125 C-210.73638765 70.23946679 -208.40375602 67.79460073 -205.9921875 65.37109375 C-205.31414062 64.65824219 -204.63609375 63.94539063 -203.9375 63.2109375 C-199.56732605 58.93146528 -194.9756194 56.09174866 -189.4921875 53.49609375 C-188.88745605 53.20968018 -188.28272461 52.9232666 -187.65966797 52.62817383 C-177.59251513 48.14714529 -168.12164924 48.26268184 -157.34179115 48.64687347 C-151.87197415 48.82197666 -146.39918455 48.87573521 -140.92730427 48.95554733 C-136.15427724 49.03199149 -131.38841936 49.14718956 -126.61889648 49.34814453 C-102.12960317 51.10189002 -102.12960317 51.10189002 -80.92516994 40.92944717 C-76.71263674 36.82073237 -73.06435478 32.28760404 -69.68083191 27.47637939 C-67.9921875 25.37109375 -67.9921875 25.37109375 -64.9921875 24.37109375 C-59.21247612 23.82583796 -56.48288012 24.722406 -51.9921875 28.37109375 C-50.22387984 30.24573617 -48.48102013 32.12389033 -46.80078125 34.078125 C-45.04667381 35.61596144 -45.04667381 35.61596144 -42.66796875 35.25 C-39.55105243 34.22619537 -36.69393237 32.92918727 -33.7421875 31.49609375 C-20.74128606 25.37109375 -20.74128606 25.37109375 -13.9921875 25.37109375 C-14.02699219 24.12972656 -14.06179687 22.88835938 -14.09765625 21.609375 C-14.12580334 19.96746149 -14.15310251 18.32553329 -14.1796875 16.68359375 C-14.20482422 15.86697266 -14.22996094 15.05035156 -14.25585938 14.20898438 C-14.31392171 9.42851845 -14.15323355 6.22476993 -10.9921875 2.37109375 C-7.26942388 -0.11074866 -4.31570699 0.03060194 0 0 Z " fill="#3C2D61" transform="translate(235.9921875,7.62890625)"/>
<path d="M0 0 C10.09302732 -0.06981635 20.18599624 -0.12297085 30.27921677 -0.15543652 C34.96699362 -0.17102622 39.65460405 -0.19214067 44.34228516 -0.22631836 C48.87457136 -0.25915254 53.40669848 -0.27690323 57.93909454 -0.28463173 C59.6596756 -0.29013239 61.38024894 -0.30087259 63.10076141 -0.31719017 C81.45704659 -0.48420251 97.05400891 2.54385949 110.8125 15.70703125 C121.39927038 26.80423521 126.36473237 39.04314624 126.15594482 54.36102295 C125.89750673 64.01346389 124.96705379 73.63920551 124.1640625 83.2578125 C123.96672442 85.67432309 123.769879 88.09087394 123.57348633 90.50746155 C123.09721477 96.34913143 122.61511522 102.19029834 122.13013101 108.03125089 C121.73502146 112.79175774 121.34277126 117.55249297 120.95233154 122.31338501 C117.01491249 170.31820682 112.9424735 218.31142957 108.8074646 266.29962158 C107.20254091 284.92676228 105.60138428 303.55423194 104.03568649 322.18471718 C103.86445937 324.21925189 103.69253678 326.25372822 103.51982498 328.28813744 C102.61119429 339.00089372 101.78885759 349.70065055 101.26626587 360.43986511 C100.18431288 374.90622758 93.76633897 389.17498029 83 399 C74.25197697 406.52665856 61.94089729 412.13326766 50.22906494 412.12025452 C49.27474705 412.12163201 48.32042915 412.12300951 47.33719254 412.12442875 C46.29296001 412.12083064 45.24872749 412.11723253 44.17285156 412.11352539 C43.05229244 412.11364593 41.93173332 412.11376646 40.77721786 412.11389065 C37.14833342 412.11314399 33.51950027 412.10552691 29.890625 412.09765625 C27.65087916 412.09618607 25.41113297 412.09516583 23.17138672 412.09460449 C14.86425257 412.08936045 6.55712578 412.07539926 -1.75 412.0625 C-29.59375 412.0315625 -29.59375 412.0315625 -58 412 C-58.33 374.05 -58.66 336.1 -59 297 C-60.98 297 -62.96 297 -65 297 C-65.33 334.95 -65.66 372.9 -66 412 C-88.44 412 -110.88 412 -134 412 C-134 331.15 -134 250.3 -134 167 C-130.7 167.66 -127.4 168.32 -124 169 C-123.96261719 170.16917969 -123.92523438 171.33835938 -123.88671875 172.54296875 C-123.8210372 174.09117675 -123.75459061 175.63935242 -123.6875 177.1875 C-123.66494141 177.95642578 -123.64238281 178.72535156 -123.61914062 179.51757812 C-123.40312752 184.09312838 -123.02665586 187.34529634 -120 191 C-114.41767183 195.10777448 -108.82405403 194.48817437 -102.13500977 194.44604492 C-100.0714125 194.43753675 -98.01058975 194.46631856 -95.94726562 194.49804688 C-94.63564453 194.49740234 -93.32402344 194.49675781 -91.97265625 194.49609375 C-90.77906494 194.49794678 -89.58547363 194.4997998 -88.35571289 194.50170898 C-83.83804937 193.82627803 -80.50405047 191.91744446 -77.6640625 188.296875 C-76.61268345 184.6603404 -76.52497109 181.01802352 -76.375 177.25 C-76.31699219 176.06083984 -76.31699219 176.06083984 -76.2578125 174.84765625 C-76.163892 172.89880584 -76.08087178 170.94943549 -76 169 C-71.05 168.01 -71.05 168.01 -66 167 C-65.67 186.47 -65.34 205.94 -65 226 C-61.25308553 227.39770584 -61.25308553 227.39770584 -59 226 C-58.67 205.21 -58.34 184.42 -58 163 C-54.37 161.02 -50.74 159.04 -47 157 C-43.16846706 158.91576647 -41.28789908 160.5278242 -38.375 163.5625 C-34.18826376 167.92928491 -34.18826376 167.92928491 -28.5 169.625 C-22.01595549 169.50838049 -18.2603745 164.33949574 -14 160 C-12.9243275 158.95450203 -11.84610871 157.91161875 -10.765625 156.87109375 C-9.67589655 155.81111456 -8.58733754 154.74993167 -7.5 153.6875 C-6.9834082 153.18444336 -6.46681641 152.68138672 -5.93457031 152.16308594 C-2.40790701 148.64112172 -0.27239919 146.08839382 0.375 141.125 C-0.51560187 133.70331774 -6.86149812 128.91400422 -12 124 C-10.46973354 120.10146401 -8.80882507 116.27190993 -7.125 112.4375 C-4.36132383 106.07714275 -2.062408 99.62396923 0 93 C1.75376953 92.94392578 1.75376953 92.94392578 3.54296875 92.88671875 C5.09117675 92.8210372 6.63935242 92.75459061 8.1875 92.6875 C8.95642578 92.66494141 9.72535156 92.64238281 10.51757812 92.61914062 C15.11096706 92.40228535 18.27224699 91.95552545 22 89 C24.41527597 85.37708604 24.33952821 82.63940911 24.37109375 78.4453125 C24.38012222 77.70675018 24.3891507 76.96818787 24.39845276 76.20724487 C24.4129503 74.64552866 24.42184078 73.08375178 24.42553711 71.52197266 C24.43742563 69.1399018 24.48660117 66.7604297 24.53710938 64.37890625 C24.54657519 62.85938761 24.55380947 61.33985309 24.55859375 59.8203125 C24.58789223 58.75757614 24.58789223 58.75757614 24.61778259 57.67337036 C24.58216228 53.74285931 24.12232132 52.14853038 21.59008789 49.07373047 C17.30255621 45.64095697 13.69962979 45.70113833 8.375 45.4375 C7.57320312 45.39431641 6.77140625 45.35113281 5.9453125 45.30664062 C3.9637489 45.20048543 1.98189729 45.09973145 0 45 C-0.27972656 44.06800781 -0.55945313 43.13601562 -0.84765625 42.17578125 C-3.37228223 34.06121792 -6.34492332 27.02047272 -10.7421875 19.70703125 C-12 17 -12 17 -12.0078125 14.953125 C-10.5111078 12.05253451 -8.36772048 10.16732767 -6 7.9375 C-2.1914902 4.49289313 -2.1914902 4.49289313 0 0 Z " fill="#F9759E" transform="translate(346,64)"/>
<path d="M0 0 C1.7931339 -0.00711203 3.58626555 -0.01481253 5.37939453 -0.02307129 C9.1144853 -0.03644192 12.84936481 -0.03811508 16.58447266 -0.03222656 C21.37430451 -0.02629159 26.16313629 -0.05711162 30.95277405 -0.09734344 C34.64505491 -0.12314091 38.33709089 -0.12610601 42.02944946 -0.12245178 C43.79654485 -0.12414586 45.56365121 -0.13381604 47.33065796 -0.15159607 C49.79144768 -0.17366404 52.25015668 -0.16415357 54.7109375 -0.14648438 C55.44028 -0.15974762 56.1696225 -0.17301086 56.92106628 -0.18667603 C58.95068359 -0.15270996 58.95068359 -0.15270996 62.3125 0.46875 C64.14404297 2.86242676 64.14404297 2.86242676 65.3125 5.46875 C67.65297118 7.82912315 70.08533554 10.05196715 72.546875 12.28515625 C73.12953125 13.00574219 73.7121875 13.72632812 74.3125 14.46875 C73.89455949 17.29947923 72.8329773 19.67701382 71.5703125 22.2265625 C71.22742188 22.93047119 70.88453125 23.63437988 70.53125 24.35961914 C69.98984375 25.46551392 69.98984375 25.46551392 69.4375 26.59375 C66.46069733 32.7736504 63.98092798 38.79594386 62.3125 45.46875 C61.15492188 45.49453125 59.99734375 45.5203125 58.8046875 45.546875 C57.26558872 45.60318349 55.72652767 45.6605302 54.1875 45.71875 C53.42695313 45.73292969 52.66640625 45.74710938 51.8828125 45.76171875 C46.62369588 45.98840481 43.49395233 47.00374589 39.3125 50.46875 C37.80465855 53.48443291 38.10828888 56.61559034 38.07421875 59.92578125 C38.06211113 61.03574715 38.06211113 61.03574715 38.04975891 62.1681366 C38.03592117 63.73584655 38.02519762 65.30358659 38.01733398 66.87133789 C38.00013978 69.26181632 37.95625651 71.65090459 37.91210938 74.04101562 C37.90198044 75.56509401 37.89346497 77.08918414 37.88671875 78.61328125 C37.86045662 79.68072319 37.86045662 79.68072319 37.83366394 80.76972961 C37.84938742 84.39146131 38.22234737 86.32991564 40.21411133 89.3972168 C43.03064259 92.1777017 44.60936106 92.59606005 48.4453125 92.78515625 C49.25097656 92.82705078 50.05664062 92.86894531 50.88671875 92.91210938 C51.72847656 92.95142578 52.57023437 92.99074219 53.4375 93.03125 C54.71173828 93.09602539 54.71173828 93.09602539 56.01171875 93.16210938 C58.11178223 93.26829236 60.21211948 93.36903497 62.3125 93.46875 C62.4983667 94.02747803 62.6842334 94.58620605 62.87573242 95.16186523 C63.74136241 97.74648432 64.62059163 100.32628798 65.5 102.90625 C65.79197266 103.78474609 66.08394531 104.66324219 66.38476562 105.56835938 C68.24244462 110.98159601 70.41398738 115.68058151 73.5480957 120.48071289 C74.3125 122.46875 74.3125 122.46875 73.56323242 124.59936523 C71.52219132 127.64997068 68.84819951 129.96456223 66.1875 132.46875 C63.51947252 135.31464598 62.44094438 137.48400977 61.9375 141.34375 C62.84396598 148.89763317 69.72303894 154.14939422 74.875 159.21875 C75.64263672 159.98574219 76.41027344 160.75273437 77.20117188 161.54296875 C82.53671946 167.32279601 82.53671946 167.32279601 89.6875 169.78125 C95.74106004 169.25939138 99.00273231 166.02657045 103.125 161.78125 C103.91519531 160.97300781 104.70539063 160.16476563 105.51953125 159.33203125 C106.11121094 158.71714844 106.70289063 158.10226563 107.3125 157.46875 C111.8687338 159.17733768 115.88694059 161.25597029 120.3125 163.46875 C120.3125 245.63875 120.3125 327.80875 120.3125 412.46875 C-6.90547025 412.46875 -6.90547025 412.46875 -23.66015625 396.68359375 C-33.63969727 385.7810894 -38.36470159 371.96859314 -39.30517578 357.44750977 C-39.4183239 355.79540222 -39.53151574 354.14329767 -39.64474487 352.49119568 C-39.70356716 351.61555906 -39.76238945 350.73992245 -39.82299423 349.83775139 C-40.93589595 333.33799398 -42.18435957 316.85137143 -43.5546875 300.37109375 C-43.63506067 299.40427233 -43.71543385 298.4374509 -43.79824257 297.44133186 C-44.29650281 291.45918607 -44.79892927 285.47739563 -45.3026619 279.49570847 C-45.65854724 275.26425444 -46.01231374 271.03262406 -46.36621189 266.80100346 C-48.36237371 242.94090672 -50.40306041 219.08560127 -52.53305054 195.23706055 C-54.95630244 168.04166116 -57.10517665 140.82352549 -59.27758789 113.60717773 C-59.34985973 112.70182817 -59.42213158 111.7964786 -59.49659348 110.86369419 C-59.84816501 106.45857126 -60.19932102 102.0534158 -60.54983521 97.64820862 C-61.37390485 87.30494508 -62.21385384 76.96323396 -63.11772156 66.62657166 C-64.684743 48.33829953 -63.31873836 33.6625857 -51.5 18.69921875 C-37.05393812 3.23147815 -20.27914339 -0.00982035 0 0 Z " fill="#F9759E" transform="translate(83.6875,63.53125)"/>
<path d="M0 0 C1.87171875 -0.00386719 1.87171875 -0.00386719 3.78125 -0.0078125 C5.74578125 0.00378906 5.74578125 0.00378906 7.75 0.015625 C9.0596875 0.00789062 10.369375 0.00015625 11.71875 -0.0078125 C12.9665625 -0.00523438 14.214375 -0.00265625 15.5 0 C16.64984375 0.00225586 17.7996875 0.00451172 18.984375 0.00683594 C21.75 0.265625 21.75 0.265625 23.75 2.265625 C24.06884766 4.32861328 24.06884766 4.32861328 24.1640625 6.8359375 C24.20273437 7.73183594 24.24140625 8.62773437 24.28125 9.55078125 C24.32765625 10.95650391 24.32765625 10.95650391 24.375 12.390625 C24.41367187 13.33550781 24.45234375 14.28039063 24.4921875 15.25390625 C24.58661346 17.59094875 24.67218394 19.92798001 24.75 22.265625 C29.40321873 24.33636684 33.99771101 26.01978259 38.875 27.515625 C45.42284591 29.58530869 51.03458069 32.3832692 56.9453125 35.91015625 C60.03373111 37.40274853 61.40124309 38.03239644 64.75 37.265625 C66.93307272 35.31479406 68.82051868 33.43996436 70.75 31.265625 C75.95130175 25.40425957 75.95130175 25.40425957 79.14111328 24.85058594 C82.64240507 25.40759474 83.92715395 26.79689969 86.4296875 29.28125 C87.2753125 30.12042969 88.1209375 30.95960937 88.9921875 31.82421875 C89.86101562 32.71238281 90.72984375 33.60054687 91.625 34.515625 C92.51703125 35.38832031 93.4090625 36.26101562 94.328125 37.16015625 C95.16601562 38.00449219 96.00390625 38.84882812 96.8671875 39.71875 C98.02130127 40.88132324 98.02130127 40.88132324 99.19873047 42.06738281 C100.75 44.265625 100.75 44.265625 100.66503906 46.37670898 C98.82915078 50.16653492 95.04195395 52.85929101 91.87890625 55.58007812 C90.26907738 57.07272375 88.94196 58.42065877 87.75 60.265625 C87.59016136 65.70628624 89.77812155 69.59567768 92.5 74.140625 C96.49575649 81.1495602 98.78777074 88.20383481 100.83984375 95.9765625 C101.41067458 99.09060307 101.41067458 99.09060307 102.75 100.265625 C104.21375483 100.39811764 105.68323029 100.46884495 107.15234375 100.51171875 C108.48749023 100.56102539 108.48749023 100.56102539 109.84960938 100.61132812 C111.73751184 100.67239586 113.62553977 100.72970387 115.51367188 100.78320312 C116.40505859 100.81736328 117.29644531 100.85152344 118.21484375 100.88671875 C119.035896 100.9117749 119.85694824 100.93683105 120.70288086 100.96264648 C122.75 101.265625 122.75 101.265625 124.75 103.265625 C124.99291992 106.13891602 124.99291992 106.13891602 124.98046875 109.76953125 C124.97853516 111.06697266 124.97660156 112.36441406 124.97460938 113.70117188 C124.96840576 114.37784912 124.96220215 115.05452637 124.95581055 115.75170898 C124.93754052 117.82352971 124.93530095 119.89490397 124.93554688 121.96679688 C124.89008257 132.12554243 124.89008257 132.12554243 123.75 133.265625 C122.19051458 133.42248749 120.62457332 133.51639139 119.05859375 133.58203125 C117.64223633 133.64487305 117.64223633 133.64487305 116.19726562 133.70898438 C115.20404297 133.74830078 114.21082031 133.78761719 113.1875 133.828125 C112.19041016 133.87130859 111.19332031 133.91449219 110.16601562 133.95898438 C107.6941585 134.06542798 105.2221969 134.16744428 102.75 134.265625 C102.47671875 135.08675781 102.2034375 135.90789062 101.921875 136.75390625 C101.34179688 138.49220703 101.34179688 138.49220703 100.75 140.265625 C100.54181641 140.89645996 100.33363281 141.52729492 100.11914062 142.17724609 C92.80510018 164.21052482 92.80510018 164.21052482 87.75 169.265625 C87.16755866 171.5510248 87.16755866 171.5510248 87.75 174.265625 C89.67914245 176.45373227 91.52927954 178.33523031 93.6875 180.265625 C94.80989869 181.27642519 95.92355214 182.29703823 97.02734375 183.328125 C97.52484131 183.77285156 98.02233887 184.21757812 98.53491211 184.67578125 C100.25030279 186.92023054 100.65562041 188.44058202 100.75 191.265625 C99.19873047 193.59326172 99.19873047 193.59326172 96.8671875 195.9453125 C96.02929688 196.7909375 95.19140625 197.6365625 94.328125 198.5078125 C92.99007812 199.81105469 92.99007812 199.81105469 91.625 201.140625 C90.75617188 202.03265625 89.88734375 202.9246875 88.9921875 203.84375 C88.1465625 204.68164062 87.3009375 205.51953125 86.4296875 206.3828125 C85.65351074 207.15222168 84.87733398 207.92163086 84.07763672 208.71435547 C81.75 210.265625 81.75 210.265625 79.13891602 210.18066406 C76.66511461 209.2331109 75.56551599 208.48235666 73.84765625 206.5078125 C73.10032227 205.69376953 73.10032227 205.69376953 72.33789062 204.86328125 C71.3187886 203.71238754 70.30576586 202.55608265 69.29882812 201.39453125 C67.62790269 199.51306155 67.62790269 199.51306155 64.75 197.265625 C59.67129921 197.08082052 55.44384976 199.74063194 51.0625 202.078125 C42.52377548 206.49122196 34.0059497 209.65991089 24.75 212.265625 C24.73018066 212.89130371 24.71036133 213.51698242 24.68994141 214.16162109 C24.59485774 216.98839019 24.48511254 219.81440315 24.375 222.640625 C24.3440625 223.62546875 24.313125 224.6103125 24.28125 225.625 C24.22324219 227.03652344 24.22324219 227.03652344 24.1640625 228.4765625 C24.1326416 229.34587402 24.1012207 230.21518555 24.06884766 231.11083984 C23.75 233.265625 23.75 233.265625 21.75 235.265625 C18.984375 235.52441406 18.984375 235.52441406 15.5 235.53125 C14.2521875 235.53382813 13.004375 235.53640625 11.71875 235.5390625 C9.75421875 235.52746094 9.75421875 235.52746094 7.75 235.515625 C6.4403125 235.52335938 5.130625 235.53109375 3.78125 235.5390625 C2.5334375 235.53648437 1.285625 235.53390625 0 235.53125 C-1.14984375 235.52899414 -2.2996875 235.52673828 -3.484375 235.52441406 C-6.25 235.265625 -6.25 235.265625 -8.25 233.265625 C-8.56884766 231.11083984 -8.56884766 231.11083984 -8.6640625 228.4765625 C-8.70273438 227.53554687 -8.74140625 226.59453125 -8.78125 225.625 C-8.8121875 224.64015625 -8.843125 223.6553125 -8.875 222.640625 C-8.91367188 221.64804688 -8.95234375 220.65546875 -8.9921875 219.6328125 C-9.0866314 217.17727115 -9.17219875 214.7217409 -9.25 212.265625 C-9.8076001 212.09546875 -10.3652002 211.9253125 -10.93969727 211.75 C-21.29722589 208.54964601 -31.25237207 205.36005531 -40.54125977 199.66796875 C-43.02059982 198.19573655 -44.87577469 197.28064021 -47.78125 197.1640625 C-52.05137406 199.06940267 -54.74067392 202.67826774 -57.7890625 206.13671875 C-59.3125 207.7734375 -59.3125 207.7734375 -62.25 210.265625 C-68.71045716 209.98884196 -72.34764996 204.82654922 -76.625 200.515625 C-77.46933594 199.70351562 -78.31367188 198.89140625 -79.18359375 198.0546875 C-79.97636719 197.26320312 -80.76914063 196.47171875 -81.5859375 195.65625 C-82.67720947 194.5739209 -82.67720947 194.5739209 -83.79052734 193.46972656 C-85.25 191.265625 -85.25 191.265625 -85.14916992 188.67480469 C-84.22227387 186.19133734 -83.47945459 185.07316983 -81.52734375 183.328125 C-80.98916016 182.82539063 -80.45097656 182.32265625 -79.89648438 181.8046875 C-78.75500288 180.77670188 -77.61176382 179.7506646 -76.46679688 178.7265625 C-73.2471357 175.72738575 -73.2471357 175.72738575 -71.68359375 171.71875 C-72.39015497 168.65860898 -73.64405707 166.63826581 -75.375 164.015625 C-79.95147401 156.53360055 -82.55607475 148.57207283 -85.25 140.265625 C-85.9159984 138.26540237 -86.58239312 136.26531135 -87.25 134.265625 C-88.19637329 134.22804077 -88.19637329 134.22804077 -89.16186523 134.18969727 C-92.00396825 134.07408363 -94.84571083 133.95120184 -97.6875 133.828125 C-98.68072266 133.78880859 -99.67394531 133.74949219 -100.69726562 133.70898438 C-101.64150391 133.66708984 -102.58574219 133.62519531 -103.55859375 133.58203125 C-104.87041626 133.52704468 -104.87041626 133.52704468 -106.20874023 133.47094727 C-108.25 133.265625 -108.25 133.265625 -109.25 132.265625 C-109.46789186 128.14984911 -109.43579188 124.03097577 -109.43530273 119.90991211 C-109.43748734 117.84012236 -109.45563491 115.77086707 -109.47460938 113.70117188 C-109.47654297 112.40373047 -109.47847656 111.10628906 -109.48046875 109.76953125 C-109.48457764 108.57142822 -109.48868652 107.3733252 -109.49291992 106.13891602 C-109.25 103.265625 -109.25 103.265625 -107.25 101.265625 C-105.18701172 100.94677734 -105.18701172 100.94677734 -102.6796875 100.8515625 C-101.78378906 100.81289062 -100.88789063 100.77421875 -99.96484375 100.734375 C-99.02769531 100.7034375 -98.09054688 100.6725 -97.125 100.640625 C-96.18011719 100.60195312 -95.23523438 100.56328125 -94.26171875 100.5234375 C-91.92467625 100.42901154 -89.58764499 100.34344106 -87.25 100.265625 C-87.05954102 99.68844727 -86.86908203 99.11126953 -86.67285156 98.51660156 C-83.13503168 87.84130737 -79.30364518 77.86032893 -73.60546875 68.140625 C-71.77879586 64.32358548 -71.77879586 64.32358548 -72.25 60.265625 C-74.2151486 57.83390266 -76.48859851 55.78720177 -78.8125 53.703125 C-80.05398218 52.58897433 -81.28508618 51.46311619 -82.50390625 50.32421875 C-83.05377197 49.83236084 -83.6036377 49.34050293 -84.17016602 48.83374023 C-85.25 47.265625 -85.25 47.265625 -85.1628418 45.3449707 C-83.15822633 40.77869364 -78.98267675 37.48745229 -75.5 34.015625 C-74.68789062 33.17515625 -73.87578125 32.3346875 -73.0390625 31.46875 C-72.24757812 30.6746875 -71.45609375 29.880625 -70.640625 29.0625 C-69.91907227 28.33385742 -69.19751953 27.60521484 -68.45410156 26.85449219 C-66.25 25.265625 -66.25 25.265625 -63.65478516 24.86206055 C-59.25439948 25.60052121 -56.65777959 29.81134756 -53.88671875 33.08789062 C-52.41182867 34.70643883 -51.07476726 36.05303231 -49.25 37.265625 C-43.59383279 37.45438087 -39.27524572 35.01783446 -34.4375 32.390625 C-29.23709266 29.67088207 -24.29325455 27.33306143 -18.55859375 25.93359375 C-15.31787931 24.99592511 -12.33483942 23.63043274 -9.25 22.265625 C-9.23018066 21.67023926 -9.21036133 21.07485352 -9.18994141 20.46142578 C-9.09483874 17.77070347 -8.98510158 15.08077352 -8.875 12.390625 C-8.8440625 11.45347656 -8.813125 10.51632813 -8.78125 9.55078125 C-8.74257812 8.65488281 -8.70390625 7.75898438 -8.6640625 6.8359375 C-8.61693115 5.59481201 -8.61693115 5.59481201 -8.56884766 4.32861328 C-7.79860827 -0.65494168 -4.17749763 0.00819576 0 0 Z " fill="#0087ED" transform="translate(238.25,15.734375)"/>
<path d="M0 0 C4.95 0.99 4.95 0.99 10 2 C10.03738281 3.16917969 10.07476562 4.33835938 10.11328125 5.54296875 C10.1789628 7.09117675 10.24540939 8.63935242 10.3125 10.1875 C10.33505859 10.95642578 10.35761719 11.72535156 10.38085938 12.51757812 C10.59687248 17.09312838 10.97334414 20.34529634 14 24 C19.58232817 28.10777448 25.17594597 27.48817437 31.86499023 27.44604492 C33.9285875 27.43753675 35.98941025 27.46631856 38.05273438 27.49804688 C39.36435547 27.49740234 40.67597656 27.49675781 42.02734375 27.49609375 C43.22093506 27.49794678 44.41452637 27.4997998 45.64428711 27.50170898 C50.16195063 26.82627803 53.49594953 24.91744446 56.3359375 21.296875 C57.38731655 17.6603404 57.47502891 14.01802352 57.625 10.25 C57.66367187 9.45722656 57.70234375 8.66445312 57.7421875 7.84765625 C57.836108 5.89880584 57.91912822 3.94943549 58 2 C61.3 1.34 64.6 0.68 68 0 C68.00586624 0.73471527 68.01173248 1.46943054 68.01777649 2.22640991 C68.07562454 9.14257702 68.14765539 16.05846577 68.23571491 22.97430992 C68.28048727 26.53005086 68.31972762 30.08567541 68.34643555 33.64160156 C68.37736438 37.7275115 68.43215504 41.81279547 68.48828125 45.8984375 C68.49467117 47.17866791 68.5010611 48.45889832 68.50764465 49.77792358 C68.52743881 50.95899689 68.54723297 52.14007019 68.56762695 53.35693359 C68.57873001 54.40062103 68.58983307 55.44430847 68.60127258 56.5196228 C68.73285263 57.33814728 68.86443268 58.15667175 69 59 C70.485 59.99 70.485 59.99 72 61 C72.3984375 63.09375 72.3984375 63.09375 72.375 65.5 C72.38660156 66.69109375 72.38660156 66.69109375 72.3984375 67.90625 C72.26695312 68.5971875 72.13546875 69.288125 72 70 C71.01 70.66 70.02 71.32 69 72 C68.54404062 73.867874 68.54404062 73.867874 68.61181641 76.03491211 C68.59763168 77.28146828 68.59763168 77.28146828 68.5831604 78.5532074 C68.58923309 79.45217239 68.59530579 80.35113739 68.6015625 81.27734375 C68.59869232 82.19963272 68.59582214 83.12192169 68.59286499 84.07215881 C68.59082131 86.02491875 68.59637236 87.97769902 68.60888672 89.93041992 C68.6249179 92.92217801 68.60905773 95.91258135 68.58984375 98.90429688 C68.59182649 100.79948216 68.59567079 102.69466659 68.6015625 104.58984375 C68.59548981 105.48678452 68.58941711 106.38372528 68.5831604 107.30784607 C68.59261688 108.14203568 68.60207336 108.97622528 68.61181641 109.83569336 C68.61539658 110.93584023 68.61539658 110.93584023 68.61904907 112.05821228 C69.10319689 114.52601645 70.19661454 115.31270704 72 117 C72.3984375 119.62890625 72.3984375 119.62890625 72.375 122.5625 C72.38660156 124.01849609 72.38660156 124.01849609 72.3984375 125.50390625 C72.20121094 126.73947266 72.20121094 126.73947266 72 128 C71.01 128.66 70.02 129.32 69 130 C68.5379925 132.11575418 68.5379925 132.11575418 68.60127258 134.60635376 C68.58246536 136.06191933 68.58246536 136.06191933 68.5632782 137.54689026 C68.56543083 139.14910683 68.56543083 139.14910683 68.56762695 140.78369141 C68.5574353 141.90564407 68.54724365 143.02759674 68.53674316 144.18354797 C68.50645596 147.90626924 68.49732308 151.62873389 68.48828125 155.3515625 C68.47144626 157.92704128 68.45329764 160.50251178 68.43388367 163.07797241 C68.39112294 169.17298221 68.36165019 175.26792468 68.33856028 181.36303651 C68.30888903 188.98169472 68.25899109 196.60020277 68.20898438 204.21875 C68.11984747 217.81245468 68.06138644 231.40607877 68 245 C45.56 245 23.12 245 0 245 C0 164.15 0 83.3 0 0 Z " fill="#FED6E4" transform="translate(212,231)"/>
<path d="M0 0 C13.3811074 11.43809728 23.67204518 27.37641032 25.19335938 45.27490234 C26.28423451 65.15175393 21.23236899 83.4269813 8.07421875 98.765625 C0.39992214 107.03247559 -7.82625948 112.31732166 -18 117 C-18.99386719 117.45890625 -19.98773438 117.9178125 -21.01171875 118.390625 C-35.0252516 123.7041675 -53.52706201 123.04890599 -67.45703125 117.609375 C-86.85555877 108.79769547 -100.28746837 94.84595365 -108 75 C-114.55807502 57.33031862 -111.53393106 38.60175686 -103.9375 21.875 C-100.06454473 14.4622469 -94.96377488 8.80403091 -89 3 C-88.38125 2.38382813 -87.7625 1.76765625 -87.125 1.1328125 C-62.69164002 -21.53852632 -25.4474268 -19.24962944 0 0 Z " fill="#D3F9FE" transform="translate(289,80)"/>
<path d="M0 0 C11.95782088 6.6290237 19.89965806 18.09214088 24.11970377 30.8868438 C27.06093503 41.28846998 27.18618426 51.40836679 26.26916504 62.09451294 C26.17008173 63.39184801 26.07099843 64.68918308 25.9689126 66.02583134 C25.76343872 68.71220223 25.54876667 71.3975777 25.325243 74.08250666 C25.0210624 77.74630723 24.73098153 81.41089493 24.44596863 85.0762291 C23.88496685 92.2153879 23.29037728 99.35157048 22.69335938 106.48779297 C22.46951121 109.1854186 22.24585364 111.88305946 22.02241516 114.58071899 C21.48536195 121.05923505 20.9456946 127.53753055 20.40496123 134.01574038 C19.96512531 139.28560316 19.52621958 144.55554268 19.0879364 149.82553482 C19.02495152 150.58285026 18.96196664 151.3401657 18.89707312 152.12043009 C18.76903557 153.65994428 18.64099911 155.19945855 18.51296371 156.73897292 C17.32070902 171.07328956 16.12532461 185.40734387 14.92890447 199.74131335 C13.8376382 212.81658687 12.75017851 225.89217372 11.66451019 238.96791314 C10.54374154 252.46602005 9.42050778 265.96391974 8.29459429 279.46159852 C7.66486941 287.01134491 7.03606947 294.56116538 6.40983582 302.11120224 C5.8778087 308.52509541 5.34341629 314.93878635 4.80607116 321.35223626 C4.53276748 324.61497193 4.26084189 327.87781153 3.99112892 331.14084625 C-0.48184499 385.22170958 -0.48184499 385.22170958 -19.078125 402.453125 C-29.42295582 410.77945224 -42.02852603 417.10884903 -55.51122189 417.13422108 C-57.16433358 417.14090784 -57.16433358 417.14090784 -58.85084146 417.14772969 C-60.05626724 417.14754533 -61.26169302 417.14736097 -62.50364685 417.14717102 C-63.7884436 417.15084771 -65.07324035 417.1545244 -66.39697033 417.1583125 C-69.96154389 417.16831168 -73.52610061 417.17204594 -77.0906862 417.17470181 C-80.9361717 417.17861113 -84.78164395 417.18818912 -88.62712097 417.19691467 C-97.91402236 417.21666282 -107.2009248 417.22674384 -116.48784193 417.23564246 C-120.8648157 417.24002864 -125.24178825 417.24539465 -129.61876106 417.25063133 C-144.17555077 417.26764304 -158.73233972 417.28213573 -173.28913784 417.28938007 C-177.06539854 417.29128987 -180.84165924 417.29321021 -184.61791992 417.29516602 C-186.02572154 417.29589163 -186.02572154 417.29589163 -187.4619636 417.2966319 C-202.65502927 417.30492667 -217.84801607 417.33025451 -233.04104733 417.36274669 C-248.6512661 417.39585792 -264.26144485 417.41383256 -279.87169892 417.41702431 C-288.63141367 417.4191858 -297.39101345 417.42788128 -306.15069389 417.45348549 C-313.61323443 417.47524819 -321.07563206 417.48321568 -328.53820073 417.47351871 C-332.34150708 417.46898988 -336.14451893 417.47077677 -339.94778442 417.49028015 C-344.08322759 417.51130247 -348.21802459 417.5008756 -352.35350037 417.48774719 C-354.13152429 417.50420106 -354.13152429 417.50420106 -355.94546789 417.52098733 C-373.25094184 417.38905434 -387.41025677 410.91082805 -399.9296875 399.15625 C-402.39665955 396.58687533 -404.25364989 394.09580247 -406 391 C-401.07982315 392.46275528 -396.58409822 394.55223567 -391.9765625 396.78125 C-384.0236066 400.0375784 -376.76514264 400.2915023 -368.26293945 400.27415466 C-366.98924122 400.27939134 -365.71554298 400.28462802 -364.40324783 400.29002339 C-360.88349846 400.30414476 -357.36383764 400.3058678 -353.844064 400.30542648 C-350.04152699 400.30707993 -346.23902592 400.32015641 -342.43650818 400.33161926 C-334.12832182 400.35442938 -325.82016106 400.36238584 -317.51194763 400.36744571 C-312.31830466 400.37070792 -307.12466907 400.37723363 -301.93103027 400.3844471 C-287.53453816 400.40400924 -273.13805289 400.42041524 -258.74154663 400.42332363 C-257.82099027 400.4235112 -256.90043391 400.42369877 -255.9519819 400.42389202 C-254.08600076 400.42425826 -252.22001962 400.42462196 -250.35403848 400.42498314 C-249.42783566 400.42516595 -248.50163285 400.42534876 -247.54736328 400.42553711 C-246.15635111 400.42580793 -246.15635111 400.42580793 -244.73723769 400.42608423 C-229.72351662 400.42962306 -214.70993924 400.45662896 -199.69626796 400.494035 C-184.25996038 400.53218428 -168.82372395 400.5514816 -153.3873682 400.55178314 C-144.72933447 400.55236629 -136.07147209 400.56076552 -127.41348267 400.58978081 C-120.03851112 400.61438364 -112.66377338 400.62151802 -105.28877181 400.60653328 C-101.53171854 400.59940006 -97.77512612 400.6000646 -94.01812553 400.62294388 C-72.50446498 400.84149908 -72.50446498 400.84149908 -52 395 C-51.18319763 394.66787223 -50.36639526 394.33574446 -49.52484131 393.99355221 C-35.2359921 387.931173 -25.64053165 374.94720586 -20 361 C-16.33113912 351.691633 -15.92921732 341.92026118 -15.12182617 332.0559082 C-14.95527672 330.11673511 -14.78782868 328.17763902 -14.6195631 326.23861408 C-14.16261338 320.93940856 -13.71929131 315.63914151 -13.27868986 310.33855486 C-12.90417845 305.8521093 -12.52211438 301.36632011 -12.14000124 296.88051659 C-10.92695725 282.63773567 -9.73722257 268.39304965 -8.55319749 254.14783083 C-7.98295942 247.28752442 -7.41096344 240.42736483 -6.83897533 233.56720416 C-5.81826258 221.32445928 -4.79917562 209.08157965 -3.78100586 196.83862305 C-2.79805576 185.0191681 -1.81368464 173.19983252 -0.82788086 161.38061523 C0.25535665 148.39320388 1.3378027 135.40572701 2.41890079 122.41813737 C2.53428501 121.03200134 2.64966964 119.64586535 2.7650547 118.25972939 C2.82178036 117.57826374 2.87850601 116.89679809 2.93695062 116.19468197 C3.33334543 111.43323628 3.73027802 106.6718356 4.12741661 101.91045189 C4.66135266 95.50869062 5.19393419 89.10681749 5.72563553 82.70487022 C5.91990945 80.36805207 6.11459675 78.03126825 6.30974388 75.69452286 C10.85577834 39.26378734 10.85577834 39.26378734 1.4609375 4.8359375 C0 2 0 2 0 0 Z " fill="#E5E5E7" transform="translate(470,83)"/>
<path d="M0 0 C0.75265137 -0.02255859 1.50530273 -0.04511719 2.28076172 -0.06835938 C8.82670438 -0.03965539 13.92504185 1.89187974 18.8984375 6.18359375 C19.56746094 7.02083984 19.56746094 7.02083984 20.25 7.875 C20.94222656 8.70837891 20.94222656 8.70837891 21.6484375 9.55859375 C25.55359928 15.54070463 25.75241467 21.50284545 24.875 28.4375 C22.46958629 37.82705352 18.19503816 46.38183498 12.875 54.4375 C5.09288199 66.4420324 2.3374861 77.17549323 3.875 91.4375 C6.21207664 102.14281881 11.93711986 108.08464676 20.5625 114.25 C33.75897957 123.99440048 45.31011787 133.53026778 48.875 150.4375 C49.19672657 154.42050399 49.24509565 158.38040848 49.25 162.375 C49.27449219 163.42107422 49.29898438 164.46714844 49.32421875 165.54492188 C49.35366209 173.35231419 48.10159178 178.75546484 42.91015625 184.6796875 C34.41566758 191.71076921 26.51627769 192.94398365 15.546875 192.83984375 C6.86433761 191.88845933 -0.60702498 187.1398152 -6.390625 180.7109375 C-13.16404698 171.83226275 -15.33801406 162.19944868 -17.87768555 151.5234375 C-22.15562928 133.23686098 -22.15562928 133.23686098 -33.125 118.4375 C-34.17880859 117.44556641 -34.17880859 117.44556641 -35.25390625 116.43359375 C-41.28485392 110.90609911 -47.75711922 105.94690136 -54.3125 101.0625 C-64.15883252 91.87258965 -68.7443209 79.0066836 -69.3984375 65.80078125 C-69.83983822 50.22607959 -66.76692106 40.17549907 -56.125 28.4375 C-55.51914063 27.75042969 -54.91328125 27.06335938 -54.2890625 26.35546875 C-44.57190976 15.96180538 -31.98095201 9.16635539 -19.125 3.4375 C-18.26519531 3.05335938 -17.40539062 2.66921875 -16.51953125 2.2734375 C-11.13091114 0.28864455 -5.68634754 0.11522487 0 0 Z " fill="#FED6E4" transform="translate(138.125,271.5625)"/>
<path d="M0 0 C16.04428229 8.50965317 31.01698123 21.59650689 37.30175781 39.05810547 C38.36181811 43.08677906 38.27536678 47.06815685 38.1965332 51.20849609 C38.19975586 52.05089844 38.20297852 52.89330078 38.20629883 53.76123047 C38.08169017 68.47638003 32.92463788 81.44767873 22.8840332 92.27099609 C20.74023175 94.15947896 18.48256533 95.87164186 16.1965332 97.58349609 C-4.13449567 113.19434401 -10.92115958 128.41260526 -16.1315918 153.04443359 C-18.28853854 162.81613658 -23.66435328 170.65255511 -31.1159668 177.27099609 C-40.85719529 183.41741523 -51.01961376 184.9180483 -62.3034668 182.62255859 C-69.92230719 180.14643547 -74.89566842 176.27798163 -78.77612305 169.27490234 C-80.83642744 164.19016813 -80.59045696 158.92828473 -80.5534668 153.52099609 C-80.57344727 152.50005859 -80.59342773 151.47912109 -80.61401367 150.42724609 C-80.60580582 137.49166541 -75.52946753 125.99370137 -66.60424805 116.63818359 C-60.50558477 110.94841785 -53.8929419 106.10868128 -47.1159668 101.27099609 C-40.31705376 96.38940176 -36.65669074 90.58509135 -35.1159668 82.27099609 C-34.32777449 67.6894385 -36.00554087 58.18398249 -43.98706055 45.70458984 C-51.2807199 34.15878347 -57.96496885 21.28559118 -56.1159668 7.27099609 C-54.32319673 1.09234212 -50.45565668 -3.24321883 -45.1159668 -6.72900391 C-30.98918309 -13.97860117 -12.87340941 -6.52930264 0 0 Z " fill="#FED6E4" transform="translate(385.115966796875,280.72900390625)"/>
<path d="M0 0 C0.92039062 0.29003906 1.84078125 0.58007812 2.7890625 0.87890625 C23.10223841 7.7167218 37.77549779 20.9692485 47.8125 39.8125 C55.98908716 57.2495475 58.2221092 76.82743371 52.390625 95.41015625 C48.13398807 106.39849709 43.02012405 116.25507102 35 125 C34.37480469 125.70511719 33.74960937 126.41023437 33.10546875 127.13671875 C21.68213368 139.35107906 3.66121915 148.25044892 -13.14892578 149.10986328 C-36.79046408 149.71527388 -56.06448079 144.83784614 -73.7265625 128.234375 C-74.47679687 127.49703125 -75.22703125 126.7596875 -76 126 C-76.62648437 125.38640625 -77.25296875 124.7728125 -77.8984375 124.140625 C-92.53583825 108.64220068 -97.56007961 88.3972767 -97.2734375 67.6640625 C-96.62497593 48.35788483 -86.74666012 30.64100475 -73.21875 17.24609375 C-53.3539643 -0.24239366 -25.64508365 -8.56060815 0 0 Z M-66 22 C-66.75023437 22.65613281 -67.50046875 23.31226562 -68.2734375 23.98828125 C-80.34053542 35.2522788 -88.41210121 51.1338679 -89.328125 67.6953125 C-89.96173051 87.380846 -84.66692526 105.07787639 -71.375 119.875 C-60.01133664 131.8990876 -44.20574612 140.60051687 -27.49609375 141.37109375 C-15.33947083 141.61780198 -5.18087591 141.18170311 6 136 C7.11375 135.50371094 8.2275 135.00742188 9.375 134.49609375 C26.6944408 126.02018817 37.52159769 111.99446655 44.02734375 94.1328125 C49.54181484 76.37134338 48.0813189 59.51212741 40.1875 42.6875 C37.32339272 37.28865777 34.03329664 32.58329164 30 28 C29.35546875 27.24976562 28.7109375 26.49953125 28.046875 25.7265625 C16.68742399 13.39945455 -0.25779155 5.84606213 -16.8828125 4.7421875 C-35.2934099 4.05889885 -52.08119581 9.72614539 -66 22 Z " fill="#3A3064" transform="translate(267,60)"/>
<path d="M0 0 C4.55555556 0.55555556 4.55555556 0.55555556 6 2 C6.38432667 4.74508175 6.71472538 7.47985977 7.015625 10.234375 C7.21639399 11.94022854 7.41825189 13.6459542 7.62109375 15.3515625 C7.9383547 18.047545 8.2493029 20.74356142 8.54150391 23.44238281 C8.82557222 26.0424434 9.13703986 28.63803751 9.453125 31.234375 C9.53355042 32.03663513 9.61397583 32.83889526 9.69683838 33.66546631 C10.37796973 39.01002292 11.71421717 41.43833765 16 45 C18.61035008 48.60476916 18.56457519 52.70756807 18 57 C16.5625 60.1875 16.5625 60.1875 15 63 C14.00473907 66.80540943 13.92274049 70.32908005 14 74.25 C14.03739126 76.16630191 14.04702061 78.08391019 14 80 C12.34605883 81.65394117 10.39684587 81.12999683 8.125 81.1328125 C7.14015625 81.13410156 6.1553125 81.13539063 5.140625 81.13671875 C4.10421875 81.13285156 3.0678125 81.12898438 2 81.125 C0.44539062 81.13080078 0.44539062 81.13080078 -1.140625 81.13671875 C-2.12546875 81.13542969 -3.1103125 81.13414062 -4.125 81.1328125 C-5.03507813 81.13168457 -5.94515625 81.13055664 -6.8828125 81.12939453 C-9 81 -9 81 -10 80 C-9.95834536 76.71685673 -9.87327873 73.44463266 -9.69726562 70.16601562 C-9.56505772 64.86300981 -10.79291463 62.36485557 -14 58 C-14.99556188 54.00402061 -14.6501856 50.42513005 -12.94140625 46.6796875 C-9.73234917 41.36617458 -9.73234917 41.36617458 -7 40 C-6.48785396 37.20555537 -6.10018267 34.47835843 -5.78125 31.66015625 C-5.67784302 30.82286484 -5.57443604 29.98557343 -5.46789551 29.12290955 C-5.13652795 26.43708415 -4.81697334 23.75005985 -4.5 21.0625 C-4.08270525 17.53127731 -3.65409493 14.00169338 -3.21875 10.47265625 C-3.12597778 9.65491226 -3.03320557 8.83716827 -2.93762207 7.99464417 C-2.22545295 2.22545295 -2.22545295 2.22545295 0 0 Z " fill="#3E3063" transform="translate(244,80)"/>
<path d="M0 0 C6.20174833 3.16415731 11.08447655 8.35668807 13.875 14.75 C15.98712341 21.27608191 16.1680428 28.22563129 13.25 34.5 C11.0368316 38.24477283 9.29902984 40.40216433 4.95703125 41.53125 C0.88144523 42.24123483 -1.38259864 42.29054182 -5.1875 40.5 C-11.18353211 35.17019368 -15.59956537 30.50256146 -16.3359375 22.22265625 C-16.35963968 20.83607894 -16.37242474 19.44927749 -16.375 18.0625 C-16.39949219 17.37220703 -16.42398438 16.68191406 -16.44921875 15.97070312 C-16.48574679 9.54785624 -14.03650773 6.09154848 -9.6875 1.625 C-6.13289844 -0.52429397 -4.09651827 -0.57494993 0 0 Z " fill="#FED5E3" transform="translate(140,221)"/>
<path d="M0 0 C3.88001991 2.06384038 5.94662316 4.67606618 7.4921875 8.82421875 C9.23879535 16.3077616 8.55443072 23.74709841 5.41015625 30.734375 C2.4477268 35.49395694 -1.67075853 39.22358618 -7 41 C-11.43801617 41.50241693 -13.43399284 41.35919685 -17.25 38.9375 C-21.8626557 34.50984386 -23.16558883 29.9063716 -23.4375 23.6875 C-23.1794637 15.84964745 -20.87864792 9.57902637 -15.375 3.9375 C-10.58581455 -0.50661313 -6.40865741 -0.70758047 0 0 Z " fill="#FED5E4" transform="translate(360,222)"/>
<path d="M0 0 C2.58904089 2.3898839 4.69890994 4.90313183 6.75 7.75 C13.49401056 16.78663946 21.16333744 22.50663994 31 28 C31.72703125 28.42410156 32.4540625 28.84820312 33.203125 29.28515625 C48.00671261 36.94921834 68.4788974 36.82295274 84.03515625 32.328125 C94.06193836 29.14034883 103.14259568 24.00710405 111 17 C111.61230469 16.45730469 112.22460938 15.91460937 112.85546875 15.35546875 C117.69065021 10.79780323 121.34349709 5.52365333 125 0 C126 3 126 3 125.06640625 5.34765625 C116.05162997 21.62108357 104.77552686 32.27871046 88 40 C86.50919922 40.68835938 86.50919922 40.68835938 84.98828125 41.390625 C70.9747484 46.7041675 52.47293799 46.04890599 38.54296875 40.609375 C21.43016675 32.83597431 7.48585646 20.4669984 0 3 C0 2.01 0 1.02 0 0 Z " fill="#F9F9FB" transform="translate(183,157)"/>
<path d="M0 0 C2.69105198 2.17574416 4.45532928 3.91065856 6 7 C6.66250102 14.66763481 6.83807015 21.68406276 2 28 C-1.15790615 30.93234142 -3.50019224 32.83335469 -7.8125 33.3125 C-11.80093862 32.92147661 -13.22786279 31.84914102 -16 29 C-18.69564143 23.47629966 -18.76589086 18.02552914 -18 12 C-14.9340114 4.15765725 -8.8925792 -2.13781197 0 0 Z " fill="#FED5E3" transform="translate(391,237)"/>
<path d="M0 0 C4.8259383 2.75631654 8.3297904 6.69462833 10 12 C10.63411052 18.48400336 10.94294242 24.50804448 7 30 C4.7202061 32.35840748 3.42384611 32.92464958 0.1875 33.5 C-4.88352579 32.70454497 -8.13334999 30.32099591 -11.33203125 26.34375 C-14.8995888 20.39361867 -14.891992 13.73366507 -14 7 C-11.44960134 0.4929081 -6.71611888 -1.27291062 0 0 Z " fill="#FED5E3" transform="translate(109,237)"/>
<path d="M0 0 C4.53824234 2.9673123 7.25250316 5.85459265 9 11 C9.63184678 15.85195921 9.63663386 19.67367946 7.5 24.125 C4.61732139 26.28700895 2.54966689 26.66734665 -1.04296875 26.4140625 C-5.67303658 25.43444735 -7.6833224 22.44506041 -10.3125 18.75 C-12.47662168 14.6416877 -12.51150322 11.603529 -12 7 C-9.32398615 0.30996538 -7.18976108 -0.71897611 0 0 Z " fill="#FED5E3" transform="translate(84,256)"/>
<path d="M0 0 C2.36497439 1.86708505 3.66030715 3.32061431 5 6 C5.70685265 12.83290895 4.28590963 16.66327507 0 22 C-2.95185397 25.10721471 -4.29847204 25.90153994 -8.5625 26.5 C-12.62075691 25.90970809 -13.52430786 25.18379333 -16 22 C-17.03382175 16.5420293 -16.72318048 11.49992988 -14.3125 6.5 C-9.71589196 1.53069401 -7.09253461 -1.0316414 0 0 Z " fill="#FED5E3" transform="translate(415,256)"/>
<path d="M0 0 C3 0.125 3 0.125 4 1.125 C4.11360293 4.20411659 4.16419105 7.25995466 4.16796875 10.33984375 C4.17129715 11.26591934 4.17462555 12.19199493 4.17805481 13.14613342 C4.18312808 15.10905458 4.18546301 17.0719844 4.18530273 19.03491211 C4.18748817 22.04620511 4.20563674 25.05713134 4.22460938 28.06835938 C4.22754336 29.97135291 4.22952812 31.87434819 4.23046875 33.77734375 C4.23765427 34.68258286 4.24483978 35.58782196 4.25224304 36.52049255 C4.24916641 37.35798538 4.24608978 38.19547821 4.24291992 39.05834961 C4.24434494 39.79701767 4.24576996 40.53568573 4.24723816 41.29673767 C4 43.125 4 43.125 2 45.125 C-2.55555556 44.56944444 -2.55555556 44.56944444 -4 43.125 C-4.1011692 40.03418535 -4.13968558 36.96617445 -4.1328125 33.875 C-4.13376923 32.94655273 -4.13472595 32.01810547 -4.13571167 31.06152344 C-4.13639355 29.09440035 -4.13453872 27.12727504 -4.13037109 25.16015625 C-4.12502295 22.13796974 -4.13031582 19.11593185 -4.13671875 16.09375 C-4.13605797 14.18749967 -4.13477681 12.28124943 -4.1328125 10.375 C-4.13483673 9.46459961 -4.13686096 8.55419922 -4.13894653 7.61621094 C-4.11092782 0.17128866 -4.11092782 0.17128866 0 0 Z " fill="#3B2C60" transform="translate(284,301.875)"/>
<path d="M0 0 C1.875 1.125 1.875 1.125 3 3 C3.60921049 6.91635316 3.16924982 8.69172354 1.25 12.1875 C-1.48323028 15.60403785 -3.1767555 17.68871435 -7.5625 18.4375 C-10 18 -10 18 -11.8125 16.375 C-13.37144523 13.25710955 -13.48400315 11.45716537 -13 8 C-9.6853161 2.05642887 -7.00802261 -0.73000235 0 0 Z " fill="#FED2E1" transform="translate(429,279)"/>
<path d="M0 0 C4.37006952 1.66062642 6.80243025 4.1489423 9.125 8.1875 C9.67057085 11.82463897 9.85936213 13.92276522 8 17.125 C5.04540844 18.79926855 3.47172433 18.84372046 0.125 18.1875 C-3.67024492 15.20928697 -5.5990704 12.09193591 -7 7.5 C-6.875 4.1875 -6.875 4.1875 -5.3125 1.6875 C-2.875 0.1875 -2.875 0.1875 0 0 Z " fill="#FED2E1" transform="translate(54.875,295.8125)"/>
<path d="M0 0 C4.84228962 1.4773087 7.16749851 3.77955574 9.6875 8.125 C10.43759064 11.95046227 10.21701975 13.33072037 8.0625 16.5625 C5.6875 18.125 5.6875 18.125 2.75 18.1875 C-1.20202998 16.81638756 -2.83956256 15.51645706 -5.3125 12.125 C-6.17536565 9.10761707 -6.68739367 6.25301908 -6.3125 3.125 C-4.23053252 0.28195075 -3.65913447 0.13808055 0 0 Z " fill="#FED3E2" transform="translate(66.3125,278.875)"/>
<path d="M0 0 C2 2 2 2 2.4375 5.75 C2.33987512 10.62236883 0.41756711 12.66380354 -3 16 C-5.76250036 17.38125018 -7.94731099 17.19079306 -11 17 C-13 15 -13 15 -13.3125 11.1875 C-13.2156365 7.37522946 -12.41508052 5.0412125 -10 2 C-6.32653229 -0.44897847 -4.33643601 -0.31537716 0 0 Z " fill="#FED4E3" transform="translate(441,297)"/>
<path d="M0 0 C3.38732941 1.25183913 4.91348695 2.00253965 6.875 5.0625 C7.19812987 8.97158326 6.73949536 12.0379129 4.1875 15.0625 C1.08785954 16.40288506 -0.77659302 16.60917869 -4.125 16.0625 C-7.44169279 13.61103142 -8.88580628 12.10625441 -9.8125 8.0625 C-9.125 5.0625 -9.125 5.0625 -6.5 2.125 C-3.125 0.0625 -3.125 0.0625 0 0 Z " fill="#F3729C" transform="translate(247.125,124.9375)"/>
<path d="M0 0 C8.98737084 -0.78530425 8.98737084 -0.78530425 13.0625 2.375 C16.12001727 6.51744276 16.09514525 8.86215623 16 14 C14.26982492 13.54548816 12.54090123 13.08621143 10.8125 12.625 C9.84957031 12.36976562 8.88664062 12.11453125 7.89453125 11.8515625 C5.17789793 11.05233704 2.60862825 10.0968638 0 9 C0 6.03 0 3.06 0 0 Z " fill="#E2E3E4" transform="translate(270,24)"/>
<path d="M0 0 C1.98 0 3.96 0 6 0 C6 1.32 6 2.64 6 4 C4.02 4 2.04 4 0 4 C0 2.68 0 1.36 0 0 Z " fill="#F4729C" transform="translate(243,149)"/>
</svg>
